%TF.GenerationSoftware,KiCad,Pcbnew,9.0.4*%
%TF.CreationDate,2025-09-18T17:45:17-07:00*%
%TF.ProjectId,USBCAN-X2,55534243-414e-42d5-9832-2e6b69636164,rev?*%
%TF.SameCoordinates,Original*%
%TF.FileFunction,Copper,L2,Bot*%
%TF.FilePolarity,Positive*%
%FSLAX46Y46*%
G04 Gerber Fmt 4.6, Leading zero omitted, Abs format (unit mm)*
G04 Created by KiCad (PCBNEW 9.0.4) date 2025-09-18 17:45:17*
%MOMM*%
%LPD*%
G01*
G04 APERTURE LIST*
%TA.AperFunction,ComponentPad*%
%ADD10R,1.700000X1.700000*%
%TD*%
%TA.AperFunction,ComponentPad*%
%ADD11C,1.700000*%
%TD*%
%TA.AperFunction,ComponentPad*%
%ADD12R,2.800000X2.800000*%
%TD*%
%TA.AperFunction,ComponentPad*%
%ADD13C,2.800000*%
%TD*%
%TA.AperFunction,ComponentPad*%
%ADD14R,1.600000X1.600000*%
%TD*%
%TA.AperFunction,ComponentPad*%
%ADD15C,1.600000*%
%TD*%
%TA.AperFunction,ComponentPad*%
%ADD16C,4.000000*%
%TD*%
%TA.AperFunction,ViaPad*%
%ADD17C,3.100000*%
%TD*%
%TA.AperFunction,ViaPad*%
%ADD18C,0.600000*%
%TD*%
%TA.AperFunction,Conductor*%
%ADD19C,0.200000*%
%TD*%
%TA.AperFunction,Conductor*%
%ADD20C,0.400000*%
%TD*%
G04 APERTURE END LIST*
D10*
%TO.P,J6,1,Pin_1*%
%TO.N,CAN1_N*%
X173275000Y-99500000D03*
D11*
%TO.P,J6,2,Pin_2*%
%TO.N,Net-(J2-Pin_4)*%
X170735000Y-99500000D03*
%TD*%
D12*
%TO.P,J2,1,Pin_1*%
%TO.N,CAN1_P*%
X183907500Y-92695000D03*
D13*
%TO.P,J2,2,Pin_2*%
%TO.N,CAN1_N*%
X183907500Y-96195000D03*
%TO.P,J2,3,Pin_3*%
X183907500Y-99695000D03*
%TO.P,J2,4,Pin_4*%
%TO.N,Net-(J2-Pin_4)*%
X183907500Y-103195000D03*
%TO.P,J2,5,Pin_5*%
%TO.N,CAN2_P*%
X183907500Y-106695000D03*
%TO.P,J2,6,Pin_6*%
%TO.N,CAN2_N*%
X183907500Y-110195000D03*
%TO.P,J2,7,Pin_7*%
X183907500Y-113695000D03*
%TO.P,J2,8,Pin_8*%
%TO.N,Net-(J2-Pin_8)*%
X183907500Y-117195000D03*
%TD*%
D14*
%TO.P,J1,1,VBUS*%
%TO.N,5V*%
X137087500Y-106250000D03*
D15*
%TO.P,J1,2,D-*%
%TO.N,USB_N*%
X137087500Y-103750000D03*
%TO.P,J1,3,D+*%
%TO.N,USB_P*%
X135087500Y-103750000D03*
%TO.P,J1,4,GND*%
%TO.N,GND*%
X135087500Y-106250000D03*
D16*
%TO.P,J1,5,Shield*%
X132227500Y-111000000D03*
X132227500Y-99000000D03*
%TD*%
D10*
%TO.P,J3,1,Pin_1*%
%TO.N,Net-(J3-Pin_1)*%
X141825000Y-112400000D03*
D11*
%TO.P,J3,2,Pin_2*%
%TO.N,CAN1_RX*%
X144365000Y-112400000D03*
%TD*%
D10*
%TO.P,J5,1,Pin_1*%
%TO.N,CAN2_N*%
X173225000Y-107550000D03*
D11*
%TO.P,J5,2,Pin_2*%
%TO.N,Net-(J2-Pin_8)*%
X170685000Y-107550000D03*
%TD*%
D17*
%TO.N,*%
X152500000Y-90000000D03*
D18*
%TO.N,/LED_PA0*%
X156019000Y-115231000D03*
X156459000Y-102874000D03*
%TO.N,/LED_PA1*%
X155584000Y-102020000D03*
X155318000Y-113172000D03*
%TO.N,GND*%
X166000000Y-107000000D03*
X172000000Y-104000000D03*
X166000000Y-103000000D03*
X174000000Y-104000000D03*
X150300000Y-111200000D03*
X132832000Y-94225800D03*
%TO.N,CAN1_RX*%
X146094000Y-94344300D03*
%TO.N,3.3V*%
X140221000Y-107656000D03*
X139023000Y-95513100D03*
X141071000Y-120929000D03*
X177006000Y-98048000D03*
X177738000Y-114123000D03*
%TO.N,5V*%
X167881000Y-95403200D03*
X168278000Y-113085000D03*
X135273000Y-92077700D03*
%TO.N,CAN2_TX*%
X154878000Y-109307000D03*
X153055000Y-102448000D03*
%TO.N,/LED_PA2*%
X161132000Y-113186000D03*
X158981000Y-101300000D03*
%TO.N,SWDIO*%
X146442000Y-107342000D03*
X131300000Y-122300000D03*
%TO.N,CAN1_TX*%
X151930000Y-108931000D03*
X168518000Y-91408500D03*
%TO.N,CAN2_RX*%
X145994000Y-113057000D03*
X145056000Y-99803100D03*
%TO.N,CAN1_P*%
X179077000Y-104388000D03*
%TO.N,CAN2_N*%
X177600000Y-113200000D03*
%TD*%
D19*
%TO.N,/LED_PA0*%
X156500000Y-114750000D02*
X156500000Y-102915000D01*
X156019000Y-115231000D02*
X156500000Y-114750000D01*
X156500000Y-102915000D02*
X156459000Y-102874000D01*
%TO.N,/LED_PA1*%
X155318000Y-113172000D02*
X155584000Y-112906000D01*
X155584000Y-112906000D02*
X155584000Y-102020000D01*
%TO.N,GND*%
X135088000Y-106250000D02*
X132228000Y-106250000D01*
X132228000Y-107825000D02*
X132227500Y-107825500D01*
X132228000Y-100925000D02*
X132227500Y-100924500D01*
X132228000Y-94830000D02*
X132228000Y-100925000D01*
X132227500Y-100924500D02*
X132227500Y-99000000D01*
X132227500Y-107825500D02*
X132227500Y-111000000D01*
X132228000Y-107825000D02*
X132228000Y-111000000D01*
X132228000Y-100925000D02*
X132228000Y-107825000D01*
X132832000Y-94225800D02*
X132228000Y-94830000D01*
%TO.N,CAN1_RX*%
X144365000Y-96072900D02*
X144365000Y-112400000D01*
X146094000Y-94344300D02*
X144365000Y-96072900D01*
%TO.N,3.3V*%
X140221000Y-107656000D02*
X140200000Y-107635000D01*
D20*
X140200000Y-107635000D02*
X140200000Y-96690100D01*
X178300000Y-113561000D02*
X177738000Y-114123000D01*
X178300000Y-99342000D02*
X178300000Y-113561000D01*
X140221000Y-120079000D02*
X140221000Y-107656000D01*
X141071000Y-120929000D02*
X140221000Y-120079000D01*
X177006000Y-98048000D02*
X178300000Y-99342000D01*
X140200000Y-96690100D02*
X139023000Y-95513100D01*
D19*
%TO.N,5V*%
X137088000Y-105699000D02*
X137087500Y-105699500D01*
X137087500Y-105699500D02*
X137087500Y-106250000D01*
D20*
X135273000Y-94273000D02*
X138400000Y-97400000D01*
X138400000Y-104937500D02*
X137087500Y-106250000D01*
X135273000Y-92077700D02*
X135273000Y-94273000D01*
X167881000Y-95403200D02*
X167881000Y-112688000D01*
X138400000Y-97400000D02*
X138400000Y-104937500D01*
X167881000Y-112688000D02*
X168278000Y-113085000D01*
D19*
X137088000Y-106250000D02*
X137088000Y-105699000D01*
%TO.N,CAN2_TX*%
X153055000Y-102448000D02*
X153055000Y-107484000D01*
X153055000Y-107484000D02*
X154878000Y-109307000D01*
%TO.N,/LED_PA2*%
X161132000Y-103451000D02*
X158981000Y-101300000D01*
X161132000Y-113186000D02*
X161132000Y-103451000D01*
%TO.N,SWDIO*%
X146442000Y-107342000D02*
X146900000Y-107800000D01*
X141500000Y-122000000D02*
X131600000Y-122000000D01*
X146900000Y-114800000D02*
X142900000Y-118800000D01*
X142900000Y-120600000D02*
X141500000Y-122000000D01*
X142900000Y-118800000D02*
X142900000Y-120600000D01*
X131600000Y-122000000D02*
X131300000Y-122300000D01*
X146900000Y-107800000D02*
X146900000Y-114800000D01*
%TO.N,CAN1_TX*%
X151931000Y-108931000D02*
X152000000Y-109000000D01*
X151930000Y-100570000D02*
X161150000Y-91350000D01*
X151930000Y-108931000D02*
X151931000Y-108931000D01*
X151930000Y-108931000D02*
X151930000Y-100570000D01*
X161150000Y-91350000D02*
X168350000Y-91350000D01*
%TO.N,CAN2_RX*%
X145056000Y-99803100D02*
X145056000Y-108052000D01*
X145994000Y-108990000D02*
X145994000Y-113057000D01*
X145056000Y-108052000D02*
X145994000Y-108990000D01*
%TO.N,CAN1_P*%
X183907500Y-93345300D02*
X183907500Y-92695000D01*
X183908000Y-93345800D02*
X183907500Y-93345300D01*
X183908000Y-93345800D02*
X182854200Y-93345800D01*
X182854200Y-93345800D02*
X179077000Y-97123000D01*
X179077000Y-97123000D02*
X179077000Y-104388000D01*
X183908000Y-92695000D02*
X183908000Y-93345800D01*
%TO.N,CAN1_N*%
X183907500Y-97945500D02*
X183907500Y-99695000D01*
X183908000Y-97945000D02*
X183907500Y-97945500D01*
X183908000Y-99695000D02*
X183908000Y-97945000D01*
X183908000Y-97945000D02*
X183908000Y-96195000D01*
X183907500Y-96195000D02*
X183908000Y-96195000D01*
%TO.N,CAN2_N*%
X183907500Y-110195000D02*
X183908000Y-110195000D01*
X177600000Y-110400000D02*
X177600000Y-113200000D01*
X174750000Y-107550000D02*
X177600000Y-110400000D01*
X183908000Y-113695000D02*
X183908000Y-110195000D01*
X183907500Y-113695000D02*
X183908000Y-113695000D01*
X173225000Y-107550000D02*
X174750000Y-107550000D01*
%TO.N,Net-(J2-Pin_8)*%
X183907500Y-117195000D02*
X183908000Y-117195000D01*
X170685000Y-108885000D02*
X178995000Y-117195000D01*
X170685000Y-107550000D02*
X170685000Y-108885000D01*
X178995000Y-117195000D02*
X183907500Y-117195000D01*
%TD*%
%TA.AperFunction,Conductor*%
%TO.N,GND*%
G36*
X188943039Y-86019685D02*
G01*
X188988794Y-86072489D01*
X189000000Y-86124000D01*
X189000000Y-123876000D01*
X188980315Y-123943039D01*
X188927511Y-123988794D01*
X188876000Y-124000000D01*
X126124000Y-124000000D01*
X126056961Y-123980315D01*
X126011206Y-123927511D01*
X126000000Y-123876000D01*
X126000000Y-122221153D01*
X130499500Y-122221153D01*
X130499500Y-122378846D01*
X130530261Y-122533489D01*
X130530264Y-122533501D01*
X130590602Y-122679172D01*
X130590609Y-122679185D01*
X130678210Y-122810288D01*
X130678213Y-122810292D01*
X130789707Y-122921786D01*
X130789711Y-122921789D01*
X130920814Y-123009390D01*
X130920827Y-123009397D01*
X131066498Y-123069735D01*
X131066503Y-123069737D01*
X131221153Y-123100499D01*
X131221156Y-123100500D01*
X131221158Y-123100500D01*
X131378844Y-123100500D01*
X131378845Y-123100499D01*
X131533497Y-123069737D01*
X131679179Y-123009394D01*
X131810289Y-122921789D01*
X131921789Y-122810289D01*
X132009394Y-122679179D01*
X132010275Y-122677049D01*
X132011035Y-122676106D01*
X132012264Y-122673809D01*
X132012699Y-122674041D01*
X132054115Y-122622646D01*
X132120408Y-122600579D01*
X132124838Y-122600500D01*
X141413331Y-122600500D01*
X141413347Y-122600501D01*
X141420943Y-122600501D01*
X141579054Y-122600501D01*
X141579057Y-122600501D01*
X141731785Y-122559577D01*
X141781904Y-122530639D01*
X141868716Y-122480520D01*
X141980520Y-122368716D01*
X141980520Y-122368714D01*
X141990728Y-122358507D01*
X141990730Y-122358504D01*
X143258506Y-121090728D01*
X143258511Y-121090724D01*
X143268714Y-121080520D01*
X143268716Y-121080520D01*
X143380520Y-120968716D01*
X143448968Y-120850160D01*
X143448969Y-120850159D01*
X143453273Y-120842702D01*
X143459577Y-120831785D01*
X143500501Y-120679057D01*
X143500501Y-120520943D01*
X143500501Y-120513348D01*
X143500500Y-120513330D01*
X143500500Y-119100096D01*
X143520185Y-119033057D01*
X143536814Y-119012420D01*
X147268713Y-115280521D01*
X147268716Y-115280520D01*
X147380520Y-115168716D01*
X147430639Y-115081904D01*
X147459577Y-115031785D01*
X147500500Y-114879058D01*
X147500500Y-114720943D01*
X147500500Y-108852153D01*
X151129500Y-108852153D01*
X151129500Y-109009846D01*
X151160261Y-109164489D01*
X151160264Y-109164501D01*
X151220602Y-109310172D01*
X151220609Y-109310185D01*
X151308210Y-109441288D01*
X151308213Y-109441292D01*
X151419707Y-109552786D01*
X151419711Y-109552789D01*
X151550814Y-109640390D01*
X151550827Y-109640397D01*
X151661371Y-109686185D01*
X151696503Y-109700737D01*
X151851153Y-109731499D01*
X151851156Y-109731500D01*
X151851158Y-109731500D01*
X152008844Y-109731500D01*
X152008845Y-109731499D01*
X152163497Y-109700737D01*
X152309179Y-109640394D01*
X152440289Y-109552789D01*
X152551789Y-109441289D01*
X152639394Y-109310179D01*
X152699737Y-109164497D01*
X152730500Y-109009842D01*
X152730500Y-108852158D01*
X152730500Y-108852155D01*
X152730499Y-108852153D01*
X152721306Y-108805939D01*
X152699737Y-108697503D01*
X152664073Y-108611401D01*
X152639397Y-108551827D01*
X152639390Y-108551814D01*
X152551398Y-108420125D01*
X152545747Y-108402078D01*
X152535523Y-108386169D01*
X152531071Y-108355207D01*
X152530520Y-108353447D01*
X152530500Y-108351234D01*
X152530500Y-108108097D01*
X152550185Y-108041058D01*
X152602989Y-107995303D01*
X152672147Y-107985359D01*
X152735703Y-108014384D01*
X152742181Y-108020416D01*
X154043425Y-109321660D01*
X154076910Y-109382983D01*
X154077361Y-109385149D01*
X154108261Y-109540491D01*
X154108264Y-109540501D01*
X154168602Y-109686172D01*
X154168609Y-109686185D01*
X154256210Y-109817288D01*
X154256213Y-109817292D01*
X154367707Y-109928786D01*
X154367711Y-109928789D01*
X154498814Y-110016390D01*
X154498827Y-110016397D01*
X154629303Y-110070441D01*
X154644503Y-110076737D01*
X154799153Y-110107499D01*
X154799156Y-110107500D01*
X154859500Y-110107500D01*
X154926539Y-110127185D01*
X154972294Y-110179989D01*
X154983500Y-110231500D01*
X154983500Y-112366473D01*
X154963815Y-112433512D01*
X154928391Y-112469575D01*
X154807710Y-112550210D01*
X154696213Y-112661707D01*
X154696210Y-112661711D01*
X154608609Y-112792814D01*
X154608602Y-112792827D01*
X154548264Y-112938498D01*
X154548261Y-112938510D01*
X154517500Y-113093153D01*
X154517500Y-113250846D01*
X154548261Y-113405489D01*
X154548264Y-113405501D01*
X154608602Y-113551172D01*
X154608609Y-113551185D01*
X154696210Y-113682288D01*
X154696213Y-113682292D01*
X154807707Y-113793786D01*
X154807711Y-113793789D01*
X154938814Y-113881390D01*
X154938827Y-113881397D01*
X155084498Y-113941735D01*
X155084503Y-113941737D01*
X155239153Y-113972499D01*
X155239156Y-113972500D01*
X155239158Y-113972500D01*
X155396844Y-113972500D01*
X155396845Y-113972499D01*
X155551497Y-113941737D01*
X155697179Y-113881394D01*
X155706606Y-113875094D01*
X155773282Y-113854215D01*
X155840663Y-113872697D01*
X155887355Y-113924674D01*
X155899500Y-113978195D01*
X155899500Y-114336823D01*
X155879815Y-114403862D01*
X155827011Y-114449617D01*
X155799693Y-114458440D01*
X155785507Y-114461261D01*
X155785498Y-114461264D01*
X155639827Y-114521602D01*
X155639814Y-114521609D01*
X155508711Y-114609210D01*
X155508707Y-114609213D01*
X155397213Y-114720707D01*
X155397210Y-114720711D01*
X155309609Y-114851814D01*
X155309602Y-114851827D01*
X155249264Y-114997498D01*
X155249261Y-114997510D01*
X155218500Y-115152153D01*
X155218500Y-115309846D01*
X155249261Y-115464489D01*
X155249264Y-115464501D01*
X155309602Y-115610172D01*
X155309609Y-115610185D01*
X155397210Y-115741288D01*
X155397213Y-115741292D01*
X155508707Y-115852786D01*
X155508711Y-115852789D01*
X155639814Y-115940390D01*
X155639827Y-115940397D01*
X155785498Y-116000735D01*
X155785503Y-116000737D01*
X155940153Y-116031499D01*
X155940156Y-116031500D01*
X155940158Y-116031500D01*
X156097844Y-116031500D01*
X156097845Y-116031499D01*
X156252497Y-116000737D01*
X156398179Y-115940394D01*
X156529289Y-115852789D01*
X156640789Y-115741289D01*
X156728394Y-115610179D01*
X156788737Y-115464497D01*
X156819500Y-115309842D01*
X156819500Y-115309840D01*
X156819637Y-115309152D01*
X156852021Y-115247241D01*
X156853505Y-115245729D01*
X156980520Y-115118716D01*
X157059577Y-114981784D01*
X157100501Y-114829057D01*
X157100501Y-114670942D01*
X157100501Y-114663347D01*
X157100500Y-114663329D01*
X157100500Y-103392404D01*
X157120185Y-103325365D01*
X157121362Y-103323566D01*
X157168394Y-103253179D01*
X157228737Y-103107497D01*
X157259500Y-102952842D01*
X157259500Y-102795158D01*
X157259500Y-102795155D01*
X157259499Y-102795153D01*
X157228737Y-102640503D01*
X157204833Y-102582792D01*
X157168397Y-102494827D01*
X157168390Y-102494814D01*
X157080789Y-102363711D01*
X157080786Y-102363707D01*
X156969292Y-102252213D01*
X156969288Y-102252210D01*
X156838185Y-102164609D01*
X156838172Y-102164602D01*
X156692501Y-102104264D01*
X156692489Y-102104261D01*
X156537845Y-102073500D01*
X156537842Y-102073500D01*
X156508500Y-102073500D01*
X156441461Y-102053815D01*
X156395706Y-102001011D01*
X156384500Y-101949500D01*
X156384500Y-101941155D01*
X156384499Y-101941153D01*
X156353738Y-101786510D01*
X156353737Y-101786503D01*
X156344029Y-101763066D01*
X156293397Y-101640827D01*
X156293390Y-101640814D01*
X156205789Y-101509711D01*
X156205786Y-101509707D01*
X156094292Y-101398213D01*
X156094288Y-101398210D01*
X155974545Y-101318200D01*
X155974496Y-101318168D01*
X155963179Y-101310606D01*
X155963172Y-101310602D01*
X155817501Y-101250264D01*
X155817489Y-101250261D01*
X155671155Y-101221153D01*
X158180500Y-101221153D01*
X158180500Y-101378846D01*
X158211261Y-101533489D01*
X158211264Y-101533501D01*
X158271602Y-101679172D01*
X158271609Y-101679185D01*
X158359210Y-101810288D01*
X158359213Y-101810292D01*
X158470707Y-101921786D01*
X158470711Y-101921789D01*
X158601814Y-102009390D01*
X158601827Y-102009397D01*
X158745306Y-102068827D01*
X158747503Y-102069737D01*
X158812147Y-102082595D01*
X158902849Y-102100638D01*
X158964760Y-102133023D01*
X158966339Y-102134574D01*
X160495181Y-103663416D01*
X160528666Y-103724739D01*
X160531500Y-103751097D01*
X160531500Y-112606234D01*
X160511815Y-112673273D01*
X160510602Y-112675125D01*
X160422609Y-112806814D01*
X160422602Y-112806827D01*
X160362264Y-112952498D01*
X160362261Y-112952510D01*
X160331500Y-113107153D01*
X160331500Y-113264846D01*
X160362261Y-113419489D01*
X160362264Y-113419501D01*
X160422602Y-113565172D01*
X160422609Y-113565185D01*
X160510210Y-113696288D01*
X160510213Y-113696292D01*
X160621707Y-113807786D01*
X160621711Y-113807789D01*
X160752814Y-113895390D01*
X160752827Y-113895397D01*
X160864706Y-113941738D01*
X160898503Y-113955737D01*
X161053153Y-113986499D01*
X161053156Y-113986500D01*
X161053158Y-113986500D01*
X161210844Y-113986500D01*
X161210845Y-113986499D01*
X161365497Y-113955737D01*
X161511179Y-113895394D01*
X161642289Y-113807789D01*
X161753789Y-113696289D01*
X161841394Y-113565179D01*
X161847191Y-113551185D01*
X161881414Y-113468562D01*
X161901737Y-113419497D01*
X161932500Y-113264842D01*
X161932500Y-113107158D01*
X161932500Y-113107155D01*
X161932499Y-113107153D01*
X161915125Y-113019811D01*
X161901737Y-112952503D01*
X161876812Y-112892328D01*
X161841397Y-112806827D01*
X161841390Y-112806814D01*
X161753398Y-112675125D01*
X161732520Y-112608447D01*
X161732500Y-112606234D01*
X161732500Y-103371945D01*
X161732500Y-103371943D01*
X161691577Y-103219216D01*
X161627072Y-103107489D01*
X161612524Y-103082290D01*
X161612521Y-103082286D01*
X161612520Y-103082284D01*
X161500716Y-102970480D01*
X161500715Y-102970479D01*
X161496385Y-102966149D01*
X161496374Y-102966139D01*
X159815574Y-101285339D01*
X159782089Y-101224016D01*
X159781638Y-101221849D01*
X159750738Y-101066510D01*
X159750737Y-101066503D01*
X159696603Y-100935810D01*
X159690397Y-100920827D01*
X159690390Y-100920814D01*
X159602789Y-100789711D01*
X159602786Y-100789707D01*
X159491292Y-100678213D01*
X159491288Y-100678210D01*
X159360185Y-100590609D01*
X159360172Y-100590602D01*
X159214501Y-100530264D01*
X159214489Y-100530261D01*
X159059845Y-100499500D01*
X159059842Y-100499500D01*
X158902158Y-100499500D01*
X158902155Y-100499500D01*
X158747510Y-100530261D01*
X158747498Y-100530264D01*
X158601827Y-100590602D01*
X158601814Y-100590609D01*
X158470711Y-100678210D01*
X158470707Y-100678213D01*
X158359213Y-100789707D01*
X158359210Y-100789711D01*
X158271609Y-100920814D01*
X158271602Y-100920827D01*
X158211264Y-101066498D01*
X158211261Y-101066510D01*
X158180500Y-101221153D01*
X155671155Y-101221153D01*
X155662845Y-101219500D01*
X155662842Y-101219500D01*
X155505158Y-101219500D01*
X155505155Y-101219500D01*
X155350510Y-101250261D01*
X155350498Y-101250264D01*
X155204827Y-101310602D01*
X155204814Y-101310609D01*
X155073711Y-101398210D01*
X155073707Y-101398213D01*
X154962213Y-101509707D01*
X154962210Y-101509711D01*
X154874609Y-101640814D01*
X154874602Y-101640827D01*
X154814264Y-101786498D01*
X154814261Y-101786510D01*
X154783500Y-101941153D01*
X154783500Y-102098846D01*
X154814261Y-102253489D01*
X154814264Y-102253501D01*
X154874602Y-102399172D01*
X154874609Y-102399185D01*
X154938507Y-102494814D01*
X154959910Y-102526846D01*
X154962602Y-102530874D01*
X154983480Y-102597551D01*
X154983500Y-102599765D01*
X154983500Y-108263903D01*
X154963815Y-108330942D01*
X154911011Y-108376697D01*
X154841853Y-108386641D01*
X154778297Y-108357616D01*
X154771819Y-108351584D01*
X153691819Y-107271584D01*
X153658334Y-107210261D01*
X153655500Y-107183903D01*
X153655500Y-103027765D01*
X153675185Y-102960726D01*
X153676398Y-102958874D01*
X153680429Y-102952842D01*
X153764394Y-102827179D01*
X153766070Y-102823134D01*
X153778067Y-102794166D01*
X153824737Y-102681497D01*
X153855500Y-102526842D01*
X153855500Y-102369158D01*
X153855500Y-102369155D01*
X153855499Y-102369153D01*
X153824737Y-102214503D01*
X153824735Y-102214498D01*
X153764397Y-102068827D01*
X153764390Y-102068814D01*
X153676789Y-101937711D01*
X153676786Y-101937707D01*
X153565292Y-101826213D01*
X153565288Y-101826210D01*
X153434185Y-101738609D01*
X153434172Y-101738602D01*
X153288501Y-101678264D01*
X153288489Y-101678261D01*
X153133845Y-101647500D01*
X153133842Y-101647500D01*
X152976158Y-101647500D01*
X152976155Y-101647500D01*
X152821510Y-101678261D01*
X152821507Y-101678262D01*
X152821506Y-101678262D01*
X152821503Y-101678263D01*
X152759431Y-101703974D01*
X152701952Y-101727782D01*
X152632482Y-101735250D01*
X152570003Y-101703974D01*
X152534351Y-101643885D01*
X152530500Y-101613220D01*
X152530500Y-100870097D01*
X152550185Y-100803058D01*
X152566819Y-100782416D01*
X158024882Y-95324353D01*
X167080500Y-95324353D01*
X167080500Y-95482046D01*
X167111261Y-95636689D01*
X167111264Y-95636701D01*
X167171061Y-95781064D01*
X167180500Y-95828516D01*
X167180500Y-112756995D01*
X167207418Y-112892322D01*
X167207421Y-112892332D01*
X167260222Y-113019807D01*
X167318585Y-113107153D01*
X167336886Y-113134543D01*
X167481930Y-113279587D01*
X167508808Y-113319814D01*
X167568602Y-113464172D01*
X167568609Y-113464185D01*
X167656210Y-113595288D01*
X167656213Y-113595292D01*
X167767707Y-113706786D01*
X167767711Y-113706789D01*
X167898814Y-113794390D01*
X167898827Y-113794397D01*
X168043243Y-113854215D01*
X168044503Y-113854737D01*
X168178496Y-113881390D01*
X168199153Y-113885499D01*
X168199156Y-113885500D01*
X168199158Y-113885500D01*
X168356844Y-113885500D01*
X168356845Y-113885499D01*
X168511497Y-113854737D01*
X168657179Y-113794394D01*
X168788289Y-113706789D01*
X168899789Y-113595289D01*
X168987394Y-113464179D01*
X169047737Y-113318497D01*
X169078500Y-113163842D01*
X169078500Y-113006158D01*
X169078500Y-113006155D01*
X169078499Y-113006153D01*
X169055858Y-112892332D01*
X169047737Y-112851503D01*
X169029229Y-112806821D01*
X168987397Y-112705827D01*
X168987390Y-112705814D01*
X168899789Y-112574711D01*
X168899786Y-112574707D01*
X168788292Y-112463213D01*
X168788284Y-112463207D01*
X168657181Y-112375607D01*
X168651801Y-112372731D01*
X168652472Y-112371474D01*
X168603639Y-112332118D01*
X168581579Y-112265822D01*
X168581500Y-112261404D01*
X168581500Y-107443713D01*
X169334500Y-107443713D01*
X169334500Y-107656286D01*
X169365611Y-107852716D01*
X169367754Y-107866243D01*
X169427913Y-108051394D01*
X169433444Y-108068414D01*
X169529951Y-108257820D01*
X169654890Y-108429786D01*
X169805213Y-108580109D01*
X169977179Y-108705048D01*
X169977181Y-108705049D01*
X169977184Y-108705051D01*
X170002708Y-108718056D01*
X170016794Y-108725233D01*
X170067590Y-108773207D01*
X170084499Y-108835718D01*
X170084499Y-108964054D01*
X170084498Y-108964054D01*
X170105668Y-109043058D01*
X170125423Y-109116785D01*
X170127702Y-109120733D01*
X170127706Y-109120745D01*
X170127709Y-109120744D01*
X170204477Y-109253712D01*
X170204481Y-109253717D01*
X170323349Y-109372585D01*
X170323354Y-109372589D01*
X178626284Y-117675520D01*
X178626286Y-117675521D01*
X178626290Y-117675524D01*
X178763209Y-117754573D01*
X178763216Y-117754577D01*
X178915943Y-117795501D01*
X178915945Y-117795501D01*
X179081654Y-117795501D01*
X179081670Y-117795500D01*
X182016295Y-117795500D01*
X182083334Y-117815185D01*
X182129089Y-117867989D01*
X182130856Y-117872048D01*
X182199330Y-118037361D01*
X182199337Y-118037376D01*
X182323900Y-118253126D01*
X182475560Y-118450774D01*
X182475566Y-118450781D01*
X182651718Y-118626933D01*
X182651725Y-118626939D01*
X182849373Y-118778599D01*
X183065123Y-118903162D01*
X183065138Y-118903169D01*
X183164325Y-118944253D01*
X183295293Y-118998502D01*
X183535935Y-119062982D01*
X183782935Y-119095500D01*
X183782942Y-119095500D01*
X184032058Y-119095500D01*
X184032065Y-119095500D01*
X184279065Y-119062982D01*
X184519707Y-118998502D01*
X184749873Y-118903164D01*
X184965627Y-118778599D01*
X185163276Y-118626938D01*
X185339438Y-118450776D01*
X185491099Y-118253127D01*
X185615664Y-118037373D01*
X185711002Y-117807207D01*
X185775482Y-117566565D01*
X185808000Y-117319565D01*
X185808000Y-117070435D01*
X185775482Y-116823435D01*
X185711002Y-116582793D01*
X185615664Y-116352627D01*
X185491099Y-116136873D01*
X185386639Y-116000738D01*
X185339439Y-115939225D01*
X185339433Y-115939218D01*
X185163281Y-115763066D01*
X185163274Y-115763060D01*
X184965628Y-115611401D01*
X184913708Y-115581426D01*
X184863410Y-115552386D01*
X184815196Y-115501821D01*
X184801972Y-115433214D01*
X184827940Y-115368349D01*
X184863410Y-115337613D01*
X184965627Y-115278599D01*
X185163276Y-115126938D01*
X185339438Y-114950776D01*
X185491099Y-114753127D01*
X185615664Y-114537373D01*
X185711002Y-114307207D01*
X185775482Y-114066565D01*
X185808000Y-113819565D01*
X185808000Y-113570435D01*
X185775482Y-113323435D01*
X185711002Y-113082793D01*
X185650120Y-112935810D01*
X185615669Y-112852638D01*
X185615662Y-112852623D01*
X185491099Y-112636873D01*
X185339439Y-112439225D01*
X185339433Y-112439218D01*
X185163281Y-112263066D01*
X185163274Y-112263060D01*
X184965628Y-112111401D01*
X184913708Y-112081426D01*
X184863410Y-112052386D01*
X184815196Y-112001821D01*
X184801972Y-111933214D01*
X184827940Y-111868349D01*
X184863410Y-111837613D01*
X184965627Y-111778599D01*
X185163276Y-111626938D01*
X185339438Y-111450776D01*
X185491099Y-111253127D01*
X185615664Y-111037373D01*
X185711002Y-110807207D01*
X185775482Y-110566565D01*
X185808000Y-110319565D01*
X185808000Y-110070435D01*
X185775482Y-109823435D01*
X185711002Y-109582793D01*
X185621005Y-109365521D01*
X185615669Y-109352638D01*
X185615662Y-109352623D01*
X185491099Y-109136873D01*
X185339439Y-108939225D01*
X185339433Y-108939218D01*
X185163281Y-108763066D01*
X185163274Y-108763060D01*
X184965628Y-108611401D01*
X184911419Y-108580104D01*
X184863410Y-108552386D01*
X184815196Y-108501821D01*
X184801972Y-108433214D01*
X184827940Y-108368349D01*
X184863410Y-108337613D01*
X184965627Y-108278599D01*
X185163276Y-108126938D01*
X185339438Y-107950776D01*
X185491099Y-107753127D01*
X185615664Y-107537373D01*
X185711002Y-107307207D01*
X185775482Y-107066565D01*
X185808000Y-106819565D01*
X185808000Y-106570435D01*
X185775482Y-106323435D01*
X185711002Y-106082793D01*
X185645427Y-105924480D01*
X185615669Y-105852638D01*
X185615662Y-105852623D01*
X185491099Y-105636873D01*
X185339439Y-105439225D01*
X185339433Y-105439218D01*
X185163281Y-105263066D01*
X185163274Y-105263060D01*
X184965628Y-105111401D01*
X184913708Y-105081426D01*
X184863410Y-105052386D01*
X184815196Y-105001821D01*
X184801972Y-104933214D01*
X184827940Y-104868349D01*
X184863410Y-104837613D01*
X184965627Y-104778599D01*
X185163276Y-104626938D01*
X185339438Y-104450776D01*
X185491099Y-104253127D01*
X185615664Y-104037373D01*
X185711002Y-103807207D01*
X185775482Y-103566565D01*
X185808000Y-103319565D01*
X185808000Y-103070435D01*
X185775482Y-102823435D01*
X185711002Y-102582793D01*
X185634949Y-102399185D01*
X185615669Y-102352638D01*
X185615662Y-102352623D01*
X185491099Y-102136873D01*
X185339439Y-101939225D01*
X185339433Y-101939218D01*
X185163281Y-101763066D01*
X185163274Y-101763060D01*
X184965628Y-101611401D01*
X184913708Y-101581426D01*
X184863410Y-101552386D01*
X184815196Y-101501821D01*
X184801972Y-101433214D01*
X184827940Y-101368349D01*
X184863410Y-101337613D01*
X184965627Y-101278599D01*
X185163276Y-101126938D01*
X185339438Y-100950776D01*
X185491099Y-100753127D01*
X185615664Y-100537373D01*
X185711002Y-100307207D01*
X185775482Y-100066565D01*
X185808000Y-99819565D01*
X185808000Y-99570435D01*
X185775482Y-99323435D01*
X185711002Y-99082793D01*
X185639219Y-98909493D01*
X185615669Y-98852638D01*
X185615662Y-98852623D01*
X185491099Y-98636873D01*
X185339439Y-98439225D01*
X185339433Y-98439218D01*
X185163281Y-98263066D01*
X185163274Y-98263060D01*
X184965628Y-98111401D01*
X184913708Y-98081426D01*
X184863410Y-98052386D01*
X184815196Y-98001821D01*
X184801972Y-97933214D01*
X184827940Y-97868349D01*
X184863410Y-97837613D01*
X184965627Y-97778599D01*
X185163276Y-97626938D01*
X185339438Y-97450776D01*
X185491099Y-97253127D01*
X185615664Y-97037373D01*
X185711002Y-96807207D01*
X185775482Y-96566565D01*
X185808000Y-96319565D01*
X185808000Y-96070435D01*
X185775482Y-95823435D01*
X185711002Y-95582793D01*
X185615664Y-95352627D01*
X185599341Y-95324355D01*
X185491099Y-95136873D01*
X185339439Y-94939225D01*
X185339433Y-94939218D01*
X185207395Y-94807180D01*
X185173910Y-94745857D01*
X185178894Y-94676165D01*
X185220766Y-94620232D01*
X185286230Y-94595815D01*
X185295076Y-94595499D01*
X185355371Y-94595499D01*
X185355372Y-94595499D01*
X185414983Y-94589091D01*
X185549831Y-94538796D01*
X185665046Y-94452546D01*
X185751296Y-94337331D01*
X185801591Y-94202483D01*
X185808000Y-94142873D01*
X185807999Y-91247128D01*
X185801591Y-91187517D01*
X185796926Y-91175010D01*
X185751297Y-91052671D01*
X185751293Y-91052664D01*
X185665047Y-90937455D01*
X185665044Y-90937452D01*
X185549835Y-90851206D01*
X185549828Y-90851202D01*
X185414982Y-90800908D01*
X185414983Y-90800908D01*
X185355383Y-90794501D01*
X185355381Y-90794500D01*
X185355373Y-90794500D01*
X185355364Y-90794500D01*
X182459629Y-90794500D01*
X182459623Y-90794501D01*
X182400016Y-90800908D01*
X182265171Y-90851202D01*
X182265164Y-90851206D01*
X182149955Y-90937452D01*
X182149952Y-90937455D01*
X182063706Y-91052664D01*
X182063702Y-91052671D01*
X182013408Y-91187517D01*
X182007001Y-91247116D01*
X182007001Y-91247123D01*
X182007000Y-91247135D01*
X182007000Y-93292402D01*
X181987315Y-93359441D01*
X181970681Y-93380083D01*
X178596481Y-96754282D01*
X178596480Y-96754284D01*
X178556115Y-96824199D01*
X178517423Y-96891215D01*
X178476499Y-97043943D01*
X178476499Y-97043945D01*
X178476499Y-97212046D01*
X178476500Y-97212059D01*
X178476500Y-98228481D01*
X178456815Y-98295520D01*
X178404011Y-98341275D01*
X178334853Y-98351219D01*
X178271297Y-98322194D01*
X178264819Y-98316162D01*
X177802072Y-97853416D01*
X177775192Y-97813187D01*
X177715397Y-97668827D01*
X177715390Y-97668814D01*
X177627789Y-97537711D01*
X177627786Y-97537707D01*
X177516292Y-97426213D01*
X177516288Y-97426210D01*
X177385185Y-97338609D01*
X177385172Y-97338602D01*
X177239501Y-97278264D01*
X177239489Y-97278261D01*
X177084845Y-97247500D01*
X177084842Y-97247500D01*
X176927158Y-97247500D01*
X176927155Y-97247500D01*
X176772510Y-97278261D01*
X176772498Y-97278264D01*
X176626827Y-97338602D01*
X176626814Y-97338609D01*
X176495711Y-97426210D01*
X176495707Y-97426213D01*
X176384213Y-97537707D01*
X176384210Y-97537711D01*
X176296609Y-97668814D01*
X176296602Y-97668827D01*
X176236264Y-97814498D01*
X176236261Y-97814510D01*
X176205500Y-97969153D01*
X176205500Y-98126846D01*
X176236261Y-98281489D01*
X176236264Y-98281501D01*
X176296602Y-98427172D01*
X176296609Y-98427185D01*
X176384210Y-98558288D01*
X176384213Y-98558292D01*
X176495707Y-98669786D01*
X176495711Y-98669789D01*
X176626814Y-98757390D01*
X176626827Y-98757397D01*
X176771187Y-98817192D01*
X176811416Y-98844072D01*
X177563181Y-99595837D01*
X177596666Y-99657160D01*
X177599500Y-99683518D01*
X177599500Y-109250902D01*
X177579815Y-109317941D01*
X177527011Y-109363696D01*
X177457853Y-109373640D01*
X177394297Y-109344615D01*
X177387819Y-109338583D01*
X175237590Y-107188355D01*
X175237588Y-107188352D01*
X175118717Y-107069481D01*
X175118712Y-107069477D01*
X175011744Y-107007720D01*
X175011742Y-107007719D01*
X174981787Y-106990424D01*
X174981786Y-106990423D01*
X174981785Y-106990423D01*
X174829057Y-106949499D01*
X174699499Y-106949499D01*
X174632460Y-106929814D01*
X174586705Y-106877010D01*
X174575499Y-106825499D01*
X174575499Y-106652129D01*
X174575498Y-106652123D01*
X174573400Y-106632609D01*
X174569091Y-106592517D01*
X174567810Y-106589083D01*
X174518797Y-106457671D01*
X174518793Y-106457664D01*
X174432547Y-106342455D01*
X174432544Y-106342452D01*
X174317335Y-106256206D01*
X174317328Y-106256202D01*
X174182482Y-106205908D01*
X174182483Y-106205908D01*
X174122883Y-106199501D01*
X174122881Y-106199500D01*
X174122873Y-106199500D01*
X174122864Y-106199500D01*
X172327129Y-106199500D01*
X172327123Y-106199501D01*
X172267516Y-106205908D01*
X172132671Y-106256202D01*
X172132664Y-106256206D01*
X172017455Y-106342452D01*
X172017452Y-106342455D01*
X171931206Y-106457664D01*
X171931203Y-106457669D01*
X171882189Y-106589083D01*
X171840317Y-106645016D01*
X171774853Y-106669433D01*
X171706580Y-106654581D01*
X171678326Y-106633430D01*
X171564786Y-106519890D01*
X171392820Y-106394951D01*
X171203414Y-106298444D01*
X171203413Y-106298443D01*
X171203412Y-106298443D01*
X171001243Y-106232754D01*
X171001241Y-106232753D01*
X171001240Y-106232753D01*
X170839957Y-106207208D01*
X170791287Y-106199500D01*
X170578713Y-106199500D01*
X170530042Y-106207208D01*
X170368760Y-106232753D01*
X170166585Y-106298444D01*
X169977179Y-106394951D01*
X169805213Y-106519890D01*
X169654890Y-106670213D01*
X169529951Y-106842179D01*
X169433444Y-107031585D01*
X169367753Y-107233760D01*
X169334500Y-107443713D01*
X168581500Y-107443713D01*
X168581500Y-99393713D01*
X169384500Y-99393713D01*
X169384500Y-99606287D01*
X169417754Y-99816243D01*
X169472121Y-99983568D01*
X169483444Y-100018414D01*
X169579951Y-100207820D01*
X169704890Y-100379786D01*
X169855213Y-100530109D01*
X170027179Y-100655048D01*
X170027181Y-100655049D01*
X170027184Y-100655051D01*
X170216588Y-100751557D01*
X170418757Y-100817246D01*
X170628713Y-100850500D01*
X170628714Y-100850500D01*
X170841286Y-100850500D01*
X170841287Y-100850500D01*
X171051243Y-100817246D01*
X171253412Y-100751557D01*
X171442816Y-100655051D01*
X171614792Y-100530104D01*
X171728329Y-100416566D01*
X171789648Y-100383084D01*
X171859340Y-100388068D01*
X171915274Y-100429939D01*
X171932189Y-100460917D01*
X171981202Y-100592328D01*
X171981206Y-100592335D01*
X172067452Y-100707544D01*
X172067455Y-100707547D01*
X172182664Y-100793793D01*
X172182671Y-100793797D01*
X172317517Y-100844091D01*
X172317516Y-100844091D01*
X172324444Y-100844835D01*
X172377127Y-100850500D01*
X174172872Y-100850499D01*
X174232483Y-100844091D01*
X174367331Y-100793796D01*
X174482546Y-100707546D01*
X174568796Y-100592331D01*
X174619091Y-100457483D01*
X174625500Y-100397873D01*
X174625499Y-98602128D01*
X174619091Y-98542517D01*
X174617810Y-98539083D01*
X174568797Y-98407671D01*
X174568793Y-98407664D01*
X174482547Y-98292455D01*
X174482544Y-98292452D01*
X174367335Y-98206206D01*
X174367328Y-98206202D01*
X174232482Y-98155908D01*
X174232483Y-98155908D01*
X174172883Y-98149501D01*
X174172881Y-98149500D01*
X174172873Y-98149500D01*
X174172864Y-98149500D01*
X172377129Y-98149500D01*
X172377123Y-98149501D01*
X172317516Y-98155908D01*
X172182671Y-98206202D01*
X172182664Y-98206206D01*
X172067455Y-98292452D01*
X172067452Y-98292455D01*
X171981206Y-98407664D01*
X171981203Y-98407669D01*
X171932189Y-98539083D01*
X171890317Y-98595016D01*
X171824853Y-98619433D01*
X171756580Y-98604581D01*
X171728326Y-98583430D01*
X171614786Y-98469890D01*
X171442820Y-98344951D01*
X171253414Y-98248444D01*
X171253413Y-98248443D01*
X171253412Y-98248443D01*
X171051243Y-98182754D01*
X171051241Y-98182753D01*
X171051240Y-98182753D01*
X170889957Y-98157208D01*
X170841287Y-98149500D01*
X170628713Y-98149500D01*
X170580042Y-98157208D01*
X170418760Y-98182753D01*
X170216585Y-98248444D01*
X170027179Y-98344951D01*
X169855213Y-98469890D01*
X169704890Y-98620213D01*
X169579951Y-98792179D01*
X169483444Y-98981585D01*
X169417753Y-99183760D01*
X169390861Y-99353554D01*
X169384500Y-99393713D01*
X168581500Y-99393713D01*
X168581500Y-95828516D01*
X168590939Y-95781064D01*
X168644330Y-95652164D01*
X168650737Y-95636697D01*
X168681500Y-95482042D01*
X168681500Y-95324358D01*
X168681500Y-95324355D01*
X168681499Y-95324353D01*
X168680338Y-95318516D01*
X168650737Y-95169703D01*
X168640422Y-95144800D01*
X168590397Y-95024027D01*
X168590390Y-95024014D01*
X168502789Y-94892911D01*
X168502786Y-94892907D01*
X168391292Y-94781413D01*
X168391288Y-94781410D01*
X168260185Y-94693809D01*
X168260172Y-94693802D01*
X168114501Y-94633464D01*
X168114489Y-94633461D01*
X167959845Y-94602700D01*
X167959842Y-94602700D01*
X167802158Y-94602700D01*
X167802155Y-94602700D01*
X167647510Y-94633461D01*
X167647498Y-94633464D01*
X167501827Y-94693802D01*
X167501814Y-94693809D01*
X167370711Y-94781410D01*
X167370707Y-94781413D01*
X167259213Y-94892907D01*
X167259210Y-94892911D01*
X167171609Y-95024014D01*
X167171602Y-95024027D01*
X167111264Y-95169698D01*
X167111261Y-95169710D01*
X167080500Y-95324353D01*
X158024882Y-95324353D01*
X161362416Y-91986819D01*
X161423739Y-91953334D01*
X161450097Y-91950500D01*
X167876560Y-91950500D01*
X167943599Y-91970185D01*
X167964242Y-91986820D01*
X168007707Y-92030286D01*
X168007711Y-92030289D01*
X168138814Y-92117890D01*
X168138827Y-92117897D01*
X168284498Y-92178235D01*
X168284503Y-92178237D01*
X168439153Y-92208999D01*
X168439156Y-92209000D01*
X168439158Y-92209000D01*
X168596844Y-92209000D01*
X168596845Y-92208999D01*
X168751497Y-92178237D01*
X168897179Y-92117894D01*
X169028289Y-92030289D01*
X169139789Y-91918789D01*
X169227394Y-91787679D01*
X169287737Y-91641997D01*
X169318500Y-91487342D01*
X169318500Y-91329658D01*
X169318500Y-91329655D01*
X169318499Y-91329653D01*
X169302084Y-91247129D01*
X169287737Y-91175003D01*
X169237063Y-91052664D01*
X169227397Y-91029327D01*
X169227390Y-91029314D01*
X169139789Y-90898211D01*
X169139786Y-90898207D01*
X169028292Y-90786713D01*
X169028288Y-90786710D01*
X168897185Y-90699109D01*
X168897172Y-90699102D01*
X168751501Y-90638764D01*
X168751489Y-90638761D01*
X168596845Y-90608000D01*
X168596842Y-90608000D01*
X168439158Y-90608000D01*
X168439155Y-90608000D01*
X168284510Y-90638761D01*
X168284498Y-90638764D01*
X168138827Y-90699102D01*
X168138820Y-90699106D01*
X168115737Y-90714529D01*
X168094676Y-90728602D01*
X168028000Y-90749480D01*
X168025786Y-90749500D01*
X161236669Y-90749500D01*
X161236653Y-90749499D01*
X161229057Y-90749499D01*
X161070943Y-90749499D01*
X160963587Y-90778265D01*
X160918210Y-90790424D01*
X160918209Y-90790425D01*
X160868096Y-90819359D01*
X160868095Y-90819360D01*
X160824689Y-90844420D01*
X160781285Y-90869479D01*
X160781282Y-90869481D01*
X151449481Y-100201282D01*
X151449479Y-100201285D01*
X151399361Y-100288094D01*
X151399359Y-100288096D01*
X151370425Y-100338209D01*
X151370424Y-100338210D01*
X151370423Y-100338215D01*
X151329499Y-100490943D01*
X151329499Y-100490945D01*
X151329499Y-100659046D01*
X151329500Y-100659059D01*
X151329500Y-108351234D01*
X151309815Y-108418273D01*
X151308602Y-108420125D01*
X151220609Y-108551814D01*
X151220602Y-108551827D01*
X151160264Y-108697498D01*
X151160261Y-108697510D01*
X151129500Y-108852153D01*
X147500500Y-108852153D01*
X147500500Y-107889059D01*
X147500501Y-107889046D01*
X147500501Y-107720945D01*
X147500501Y-107720943D01*
X147459577Y-107568215D01*
X147406956Y-107477073D01*
X147380520Y-107431284D01*
X147273168Y-107323932D01*
X147270034Y-107320269D01*
X147257614Y-107292617D01*
X147243088Y-107266013D01*
X147242637Y-107263846D01*
X147226735Y-107183903D01*
X147211737Y-107108503D01*
X147169992Y-107007720D01*
X147151397Y-106962827D01*
X147151390Y-106962814D01*
X147063789Y-106831711D01*
X147063786Y-106831707D01*
X146952292Y-106720213D01*
X146952288Y-106720210D01*
X146821185Y-106632609D01*
X146821172Y-106632602D01*
X146675501Y-106572264D01*
X146675489Y-106572261D01*
X146520845Y-106541500D01*
X146520842Y-106541500D01*
X146363158Y-106541500D01*
X146363155Y-106541500D01*
X146208510Y-106572261D01*
X146208498Y-106572264D01*
X146062827Y-106632602D01*
X146062814Y-106632609D01*
X145931711Y-106720210D01*
X145931707Y-106720213D01*
X145868181Y-106783740D01*
X145806858Y-106817225D01*
X145737166Y-106812241D01*
X145681233Y-106770369D01*
X145656816Y-106704905D01*
X145656500Y-106696059D01*
X145656500Y-100382865D01*
X145676185Y-100315826D01*
X145677398Y-100313974D01*
X145765390Y-100182285D01*
X145765390Y-100182284D01*
X145765394Y-100182279D01*
X145825737Y-100036597D01*
X145856500Y-99881942D01*
X145856500Y-99724258D01*
X145856500Y-99724255D01*
X145856499Y-99724253D01*
X145843153Y-99657160D01*
X145825737Y-99569603D01*
X145825735Y-99569598D01*
X145765397Y-99423927D01*
X145765390Y-99423914D01*
X145677789Y-99292811D01*
X145677786Y-99292807D01*
X145566292Y-99181313D01*
X145566288Y-99181310D01*
X145435185Y-99093709D01*
X145435172Y-99093702D01*
X145289501Y-99033364D01*
X145289489Y-99033361D01*
X145134845Y-99002600D01*
X145134842Y-99002600D01*
X145089500Y-99002600D01*
X145022461Y-98982915D01*
X144976706Y-98930111D01*
X144965500Y-98878600D01*
X144965500Y-96373045D01*
X144985185Y-96306006D01*
X145001829Y-96285354D01*
X145127058Y-96160154D01*
X146108554Y-95178885D01*
X146169879Y-95145409D01*
X146172032Y-95144961D01*
X146172841Y-95144800D01*
X146172842Y-95144800D01*
X146327497Y-95114037D01*
X146473179Y-95053694D01*
X146604289Y-94966089D01*
X146715789Y-94854589D01*
X146803394Y-94723479D01*
X146863737Y-94577797D01*
X146894500Y-94423142D01*
X146894500Y-94265458D01*
X146894500Y-94265455D01*
X146894499Y-94265453D01*
X146863738Y-94110810D01*
X146863738Y-94110808D01*
X146863737Y-94110803D01*
X146810735Y-93982843D01*
X146803397Y-93965127D01*
X146803390Y-93965114D01*
X146715789Y-93834011D01*
X146715786Y-93834007D01*
X146604292Y-93722513D01*
X146604288Y-93722510D01*
X146473185Y-93634909D01*
X146473172Y-93634902D01*
X146327501Y-93574564D01*
X146327489Y-93574561D01*
X146172845Y-93543800D01*
X146172842Y-93543800D01*
X146015158Y-93543800D01*
X146015155Y-93543800D01*
X145860510Y-93574561D01*
X145860498Y-93574564D01*
X145714827Y-93634902D01*
X145714814Y-93634909D01*
X145583711Y-93722510D01*
X145583707Y-93722513D01*
X145472213Y-93834007D01*
X145472210Y-93834011D01*
X145384609Y-93965114D01*
X145384602Y-93965127D01*
X145324264Y-94110798D01*
X145324261Y-94110808D01*
X145293385Y-94266030D01*
X145261000Y-94327941D01*
X145259439Y-94329529D01*
X144001820Y-95586857D01*
X143996312Y-95592362D01*
X143996284Y-95592380D01*
X143945837Y-95642825D01*
X143941162Y-95647500D01*
X143936507Y-95652156D01*
X143936499Y-95652164D01*
X143884513Y-95704139D01*
X143884481Y-95704182D01*
X143843687Y-95774839D01*
X143843681Y-95774849D01*
X143805448Y-95841054D01*
X143805425Y-95841107D01*
X143805423Y-95841116D01*
X143785162Y-95916728D01*
X143785162Y-95916729D01*
X143764508Y-95993772D01*
X143764500Y-95993832D01*
X143764500Y-96068684D01*
X143764489Y-96159989D01*
X143764500Y-96160154D01*
X143764500Y-111114281D01*
X143744815Y-111181320D01*
X143696795Y-111224765D01*
X143657185Y-111244947D01*
X143657184Y-111244948D01*
X143485215Y-111369889D01*
X143371673Y-111483431D01*
X143310350Y-111516915D01*
X143240658Y-111511931D01*
X143184725Y-111470059D01*
X143167810Y-111439082D01*
X143118797Y-111307671D01*
X143118793Y-111307664D01*
X143032547Y-111192455D01*
X143032544Y-111192452D01*
X142917335Y-111106206D01*
X142917328Y-111106202D01*
X142782482Y-111055908D01*
X142782483Y-111055908D01*
X142722883Y-111049501D01*
X142722881Y-111049500D01*
X142722873Y-111049500D01*
X142722865Y-111049500D01*
X141045500Y-111049500D01*
X140978461Y-111029815D01*
X140932706Y-110977011D01*
X140921500Y-110925500D01*
X140921500Y-108081316D01*
X140930939Y-108033864D01*
X140959964Y-107963789D01*
X140990737Y-107889497D01*
X141021500Y-107734842D01*
X141021500Y-107577158D01*
X141021500Y-107577155D01*
X141021499Y-107577153D01*
X141016098Y-107550000D01*
X140990737Y-107422503D01*
X140990735Y-107422498D01*
X140930397Y-107276828D01*
X140930396Y-107276827D01*
X140930394Y-107276821D01*
X140926895Y-107271584D01*
X140921397Y-107263355D01*
X140900520Y-107196678D01*
X140900500Y-107194466D01*
X140900500Y-96621104D01*
X140873581Y-96485776D01*
X140873580Y-96485775D01*
X140873580Y-96485772D01*
X140869581Y-96476118D01*
X140849146Y-96426784D01*
X140820775Y-96358289D01*
X140820773Y-96358287D01*
X140820773Y-96358285D01*
X140744115Y-96243559D01*
X140723046Y-96222490D01*
X140646542Y-96145986D01*
X139819072Y-95318516D01*
X139792192Y-95278287D01*
X139732397Y-95133927D01*
X139732390Y-95133914D01*
X139644789Y-95002811D01*
X139644786Y-95002807D01*
X139533292Y-94891313D01*
X139533288Y-94891310D01*
X139402185Y-94803709D01*
X139402172Y-94803702D01*
X139256501Y-94743364D01*
X139256489Y-94743361D01*
X139101845Y-94712600D01*
X139101842Y-94712600D01*
X138944158Y-94712600D01*
X138944155Y-94712600D01*
X138789510Y-94743361D01*
X138789498Y-94743364D01*
X138643827Y-94803702D01*
X138643814Y-94803709D01*
X138512711Y-94891310D01*
X138512707Y-94891313D01*
X138401213Y-95002807D01*
X138401210Y-95002811D01*
X138313609Y-95133914D01*
X138313602Y-95133927D01*
X138253264Y-95279598D01*
X138253261Y-95279610D01*
X138222500Y-95434253D01*
X138222500Y-95591946D01*
X138253261Y-95746589D01*
X138253264Y-95746601D01*
X138313602Y-95892272D01*
X138313609Y-95892285D01*
X138401210Y-96023388D01*
X138401213Y-96023392D01*
X138512707Y-96134886D01*
X138512711Y-96134889D01*
X138643814Y-96222490D01*
X138643827Y-96222497D01*
X138788187Y-96282292D01*
X138828416Y-96309172D01*
X139463181Y-96943937D01*
X139496666Y-97005260D01*
X139499500Y-97031618D01*
X139499500Y-107281383D01*
X139490061Y-107328835D01*
X139451263Y-107422501D01*
X139451260Y-107422511D01*
X139420500Y-107577153D01*
X139420500Y-107734846D01*
X139451261Y-107889489D01*
X139451264Y-107889501D01*
X139511061Y-108033864D01*
X139520500Y-108081316D01*
X139520500Y-120010006D01*
X139520500Y-120147994D01*
X139520500Y-120147996D01*
X139520499Y-120147996D01*
X139547418Y-120283322D01*
X139547421Y-120283332D01*
X139600222Y-120410807D01*
X139676887Y-120525545D01*
X139676888Y-120525546D01*
X140274928Y-121123585D01*
X140279559Y-121130515D01*
X140283798Y-121133459D01*
X140301808Y-121163813D01*
X140328415Y-121228048D01*
X140335884Y-121297516D01*
X140304609Y-121359995D01*
X140244521Y-121395648D01*
X140213854Y-121399500D01*
X131679057Y-121399500D01*
X131520943Y-121399500D01*
X131368215Y-121440423D01*
X131368214Y-121440423D01*
X131368212Y-121440424D01*
X131368209Y-121440425D01*
X131318100Y-121469356D01*
X131318097Y-121469358D01*
X131318095Y-121469360D01*
X131294664Y-121482887D01*
X131232666Y-121499500D01*
X131221155Y-121499500D01*
X131066510Y-121530261D01*
X131066498Y-121530264D01*
X130920827Y-121590602D01*
X130920814Y-121590609D01*
X130789711Y-121678210D01*
X130789707Y-121678213D01*
X130678213Y-121789707D01*
X130678210Y-121789711D01*
X130590609Y-121920814D01*
X130590602Y-121920827D01*
X130530264Y-122066498D01*
X130530261Y-122066510D01*
X130499500Y-122221153D01*
X126000000Y-122221153D01*
X126000000Y-110859598D01*
X129727500Y-110859598D01*
X129727500Y-111140401D01*
X129758937Y-111419412D01*
X129758939Y-111419424D01*
X129821421Y-111693178D01*
X129821422Y-111693180D01*
X129914162Y-111958217D01*
X130035992Y-112211200D01*
X130185384Y-112448956D01*
X130291687Y-112582257D01*
X131255412Y-111618532D01*
X131350329Y-111749175D01*
X131478325Y-111877171D01*
X131608966Y-111972086D01*
X130645241Y-112935810D01*
X130645241Y-112935811D01*
X130778543Y-113042115D01*
X131016299Y-113191507D01*
X131269282Y-113313337D01*
X131534319Y-113406077D01*
X131534321Y-113406078D01*
X131808075Y-113468560D01*
X131808087Y-113468562D01*
X132087098Y-113499999D01*
X132087100Y-113500000D01*
X132367900Y-113500000D01*
X132367901Y-113499999D01*
X132646912Y-113468562D01*
X132646924Y-113468560D01*
X132920678Y-113406078D01*
X132920680Y-113406077D01*
X133185717Y-113313337D01*
X133438700Y-113191507D01*
X133676456Y-113042116D01*
X133809757Y-112935810D01*
X132846033Y-111972086D01*
X132976675Y-111877171D01*
X133104671Y-111749175D01*
X133199586Y-111618533D01*
X134163310Y-112582257D01*
X134269616Y-112448956D01*
X134419007Y-112211200D01*
X134540837Y-111958217D01*
X134633577Y-111693180D01*
X134633578Y-111693178D01*
X134696060Y-111419424D01*
X134696062Y-111419412D01*
X134727499Y-111140401D01*
X134727500Y-111140399D01*
X134727500Y-110859600D01*
X134727499Y-110859598D01*
X134696062Y-110580587D01*
X134696060Y-110580575D01*
X134633578Y-110306821D01*
X134633577Y-110306819D01*
X134540837Y-110041782D01*
X134419007Y-109788799D01*
X134269615Y-109551043D01*
X134163310Y-109417741D01*
X133199586Y-110381465D01*
X133104671Y-110250825D01*
X132976675Y-110122829D01*
X132846033Y-110027912D01*
X133809757Y-109064187D01*
X133676456Y-108957884D01*
X133438700Y-108808492D01*
X133185717Y-108686662D01*
X132920680Y-108593922D01*
X132920678Y-108593921D01*
X132646924Y-108531439D01*
X132646912Y-108531437D01*
X132367901Y-108500000D01*
X132087098Y-108500000D01*
X131808087Y-108531437D01*
X131808075Y-108531439D01*
X131534321Y-108593921D01*
X131534319Y-108593922D01*
X131269282Y-108686662D01*
X131016299Y-108808492D01*
X130778543Y-108957884D01*
X130645241Y-109064187D01*
X131608966Y-110027912D01*
X131478325Y-110122829D01*
X131350329Y-110250825D01*
X131255413Y-110381466D01*
X130291687Y-109417741D01*
X130185384Y-109551043D01*
X130035992Y-109788799D01*
X129914162Y-110041782D01*
X129821422Y-110306819D01*
X129821421Y-110306821D01*
X129758939Y-110580575D01*
X129758937Y-110580587D01*
X129727500Y-110859598D01*
X126000000Y-110859598D01*
X126000000Y-103647648D01*
X133787000Y-103647648D01*
X133787000Y-103852351D01*
X133819022Y-104054534D01*
X133882281Y-104249223D01*
X133975215Y-104431613D01*
X134095528Y-104597213D01*
X134240286Y-104741971D01*
X134405885Y-104862284D01*
X134405887Y-104862285D01*
X134405890Y-104862287D01*
X134459878Y-104889795D01*
X134510674Y-104937769D01*
X134527469Y-105005590D01*
X134504932Y-105071725D01*
X134459878Y-105110765D01*
X134406144Y-105138143D01*
X134361577Y-105170523D01*
X134361577Y-105170524D01*
X134978502Y-105787449D01*
X134904157Y-105807370D01*
X134795843Y-105869905D01*
X134707405Y-105958343D01*
X134644870Y-106066657D01*
X134624949Y-106141002D01*
X134008024Y-105524077D01*
X134008023Y-105524077D01*
X133975643Y-105568644D01*
X133882744Y-105750968D01*
X133819509Y-105945582D01*
X133787500Y-106147682D01*
X133787500Y-106352317D01*
X133819509Y-106554417D01*
X133882744Y-106749031D01*
X133975641Y-106931350D01*
X133975647Y-106931359D01*
X134008023Y-106975921D01*
X134008024Y-106975922D01*
X134624949Y-106358997D01*
X134644870Y-106433343D01*
X134707405Y-106541657D01*
X134795843Y-106630095D01*
X134904157Y-106692630D01*
X134978501Y-106712550D01*
X134361576Y-107329474D01*
X134406150Y-107361859D01*
X134588468Y-107454755D01*
X134783082Y-107517990D01*
X134985183Y-107550000D01*
X135189817Y-107550000D01*
X135391917Y-107517990D01*
X135586531Y-107454755D01*
X135767706Y-107362441D01*
X135836375Y-107349545D01*
X135901115Y-107375821D01*
X135923267Y-107398614D01*
X135929950Y-107407542D01*
X135929952Y-107407544D01*
X135929954Y-107407546D01*
X135929957Y-107407548D01*
X136045164Y-107493793D01*
X136045171Y-107493797D01*
X136180017Y-107544091D01*
X136180016Y-107544091D01*
X136186944Y-107544835D01*
X136239627Y-107550500D01*
X137935372Y-107550499D01*
X137994983Y-107544091D01*
X138129831Y-107493796D01*
X138245046Y-107407546D01*
X138331296Y-107292331D01*
X138381591Y-107157483D01*
X138388000Y-107097873D01*
X138387999Y-105991518D01*
X138407684Y-105924480D01*
X138424318Y-105903838D01*
X138944109Y-105384048D01*
X138944112Y-105384045D01*
X138944112Y-105384044D01*
X138944114Y-105384043D01*
X138992259Y-105311988D01*
X139020775Y-105269311D01*
X139058113Y-105179167D01*
X139073580Y-105141829D01*
X139082099Y-105099000D01*
X139097485Y-105021652D01*
X139100500Y-105006495D01*
X139100500Y-97331006D01*
X139095834Y-97307552D01*
X139095833Y-97307551D01*
X139095833Y-97307547D01*
X139073580Y-97195672D01*
X139073578Y-97195667D01*
X139020777Y-97068192D01*
X138944112Y-96953454D01*
X136009819Y-94019161D01*
X135976334Y-93957838D01*
X135973500Y-93931480D01*
X135973500Y-92503016D01*
X135982939Y-92455564D01*
X136042735Y-92311201D01*
X136042737Y-92311197D01*
X136073500Y-92156542D01*
X136073500Y-91998858D01*
X136073500Y-91998855D01*
X136073499Y-91998853D01*
X136071105Y-91986819D01*
X136042737Y-91844203D01*
X136019324Y-91787679D01*
X135982397Y-91698527D01*
X135982390Y-91698514D01*
X135894789Y-91567411D01*
X135894786Y-91567407D01*
X135783292Y-91455913D01*
X135783288Y-91455910D01*
X135652185Y-91368309D01*
X135652172Y-91368302D01*
X135506501Y-91307964D01*
X135506489Y-91307961D01*
X135351845Y-91277200D01*
X135351842Y-91277200D01*
X135194158Y-91277200D01*
X135194155Y-91277200D01*
X135039510Y-91307961D01*
X135039498Y-91307964D01*
X134893827Y-91368302D01*
X134893814Y-91368309D01*
X134762711Y-91455910D01*
X134762707Y-91455913D01*
X134651213Y-91567407D01*
X134651210Y-91567411D01*
X134563609Y-91698514D01*
X134563602Y-91698527D01*
X134503264Y-91844198D01*
X134503261Y-91844210D01*
X134472500Y-91998853D01*
X134472500Y-92156546D01*
X134503261Y-92311189D01*
X134503264Y-92311201D01*
X134563061Y-92455564D01*
X134572500Y-92503016D01*
X134572500Y-94204006D01*
X134572500Y-94341994D01*
X134572500Y-94341996D01*
X134572499Y-94341996D01*
X134599418Y-94477322D01*
X134599421Y-94477332D01*
X134652222Y-94604807D01*
X134728887Y-94719545D01*
X134728888Y-94719546D01*
X137663181Y-97653838D01*
X137696666Y-97715161D01*
X137699500Y-97741519D01*
X137699500Y-102410753D01*
X137679815Y-102477792D01*
X137627011Y-102523547D01*
X137557853Y-102533491D01*
X137537182Y-102528684D01*
X137392036Y-102481523D01*
X137257246Y-102460174D01*
X137189852Y-102449500D01*
X136985148Y-102449500D01*
X136960829Y-102453351D01*
X136782965Y-102481522D01*
X136588276Y-102544781D01*
X136405886Y-102637715D01*
X136240286Y-102758028D01*
X136240282Y-102758032D01*
X136175181Y-102823134D01*
X136113858Y-102856619D01*
X136044166Y-102851635D01*
X135999819Y-102823134D01*
X135934713Y-102758028D01*
X135769113Y-102637715D01*
X135769112Y-102637714D01*
X135769110Y-102637713D01*
X135661322Y-102582792D01*
X135586723Y-102544781D01*
X135392034Y-102481522D01*
X135217495Y-102453878D01*
X135189852Y-102449500D01*
X134985148Y-102449500D01*
X134960829Y-102453351D01*
X134782965Y-102481522D01*
X134588276Y-102544781D01*
X134405886Y-102637715D01*
X134240286Y-102758028D01*
X134095528Y-102902786D01*
X133975215Y-103068386D01*
X133882281Y-103250776D01*
X133819022Y-103445465D01*
X133787000Y-103647648D01*
X126000000Y-103647648D01*
X126000000Y-98859598D01*
X129727500Y-98859598D01*
X129727500Y-99140401D01*
X129758937Y-99419412D01*
X129758939Y-99419424D01*
X129821421Y-99693178D01*
X129821422Y-99693180D01*
X129914162Y-99958217D01*
X130035992Y-100211200D01*
X130185384Y-100448956D01*
X130291687Y-100582257D01*
X131255412Y-99618532D01*
X131350329Y-99749175D01*
X131478325Y-99877171D01*
X131608966Y-99972086D01*
X130645241Y-100935810D01*
X130645241Y-100935811D01*
X130778543Y-101042115D01*
X131016299Y-101191507D01*
X131269282Y-101313337D01*
X131534319Y-101406077D01*
X131534321Y-101406078D01*
X131808075Y-101468560D01*
X131808087Y-101468562D01*
X132087098Y-101499999D01*
X132087100Y-101500000D01*
X132367900Y-101500000D01*
X132367901Y-101499999D01*
X132646912Y-101468562D01*
X132646924Y-101468560D01*
X132920678Y-101406078D01*
X132920680Y-101406077D01*
X133185717Y-101313337D01*
X133438700Y-101191507D01*
X133676456Y-101042116D01*
X133809757Y-100935810D01*
X132846033Y-99972086D01*
X132976675Y-99877171D01*
X133104671Y-99749175D01*
X133199586Y-99618533D01*
X134163310Y-100582257D01*
X134269616Y-100448956D01*
X134419007Y-100211200D01*
X134540837Y-99958217D01*
X134633577Y-99693180D01*
X134633578Y-99693178D01*
X134696060Y-99419424D01*
X134696062Y-99419412D01*
X134727499Y-99140401D01*
X134727500Y-99140399D01*
X134727500Y-98859600D01*
X134727499Y-98859598D01*
X134696062Y-98580587D01*
X134696060Y-98580575D01*
X134633578Y-98306821D01*
X134633577Y-98306819D01*
X134540837Y-98041782D01*
X134419007Y-97788799D01*
X134269615Y-97551043D01*
X134163310Y-97417741D01*
X133199586Y-98381465D01*
X133104671Y-98250825D01*
X132976675Y-98122829D01*
X132846033Y-98027912D01*
X133809757Y-97064187D01*
X133676456Y-96957884D01*
X133438700Y-96808492D01*
X133185717Y-96686662D01*
X132920680Y-96593922D01*
X132920678Y-96593921D01*
X132646924Y-96531439D01*
X132646912Y-96531437D01*
X132367901Y-96500000D01*
X132087098Y-96500000D01*
X131808087Y-96531437D01*
X131808075Y-96531439D01*
X131534321Y-96593921D01*
X131534319Y-96593922D01*
X131269282Y-96686662D01*
X131016299Y-96808492D01*
X130778543Y-96957884D01*
X130645241Y-97064187D01*
X131608966Y-98027912D01*
X131478325Y-98122829D01*
X131350329Y-98250825D01*
X131255413Y-98381466D01*
X130291687Y-97417741D01*
X130185384Y-97551043D01*
X130035992Y-97788799D01*
X129914162Y-98041782D01*
X129821422Y-98306819D01*
X129821421Y-98306821D01*
X129758939Y-98580575D01*
X129758937Y-98580587D01*
X129727500Y-98859598D01*
X126000000Y-98859598D01*
X126000000Y-89865602D01*
X150449500Y-89865602D01*
X150449500Y-90134397D01*
X150484582Y-90400880D01*
X150484583Y-90400885D01*
X150484584Y-90400891D01*
X150484585Y-90400893D01*
X150554152Y-90660524D01*
X150657011Y-90908850D01*
X150657019Y-90908866D01*
X150726561Y-91029314D01*
X150791413Y-91141641D01*
X150791415Y-91141644D01*
X150791416Y-91141645D01*
X150955042Y-91354888D01*
X150955048Y-91354895D01*
X151145104Y-91544951D01*
X151145110Y-91544956D01*
X151358359Y-91708587D01*
X151495338Y-91787672D01*
X151591133Y-91842980D01*
X151591149Y-91842988D01*
X151746008Y-91907132D01*
X151839474Y-91945847D01*
X152099109Y-92015416D01*
X152287319Y-92040193D01*
X152365602Y-92050500D01*
X152365603Y-92050500D01*
X152634398Y-92050500D01*
X152694905Y-92042534D01*
X152900891Y-92015416D01*
X153160526Y-91945847D01*
X153347457Y-91868417D01*
X153408850Y-91842988D01*
X153408853Y-91842986D01*
X153408859Y-91842984D01*
X153641641Y-91708587D01*
X153854890Y-91544956D01*
X154044956Y-91354890D01*
X154208587Y-91141641D01*
X154342984Y-90908859D01*
X154445847Y-90660526D01*
X154515416Y-90400891D01*
X154550500Y-90134397D01*
X154550500Y-89865603D01*
X154515416Y-89599109D01*
X154445847Y-89339474D01*
X154407132Y-89246008D01*
X154342988Y-89091149D01*
X154342980Y-89091133D01*
X154294964Y-89007968D01*
X154208587Y-88858359D01*
X154044956Y-88645110D01*
X154044951Y-88645104D01*
X153854895Y-88455048D01*
X153854888Y-88455042D01*
X153641645Y-88291416D01*
X153641644Y-88291415D01*
X153641641Y-88291413D01*
X153548832Y-88237830D01*
X153408866Y-88157019D01*
X153408850Y-88157011D01*
X153160524Y-88054152D01*
X153030708Y-88019368D01*
X152900891Y-87984584D01*
X152900885Y-87984583D01*
X152900880Y-87984582D01*
X152634398Y-87949500D01*
X152634397Y-87949500D01*
X152365603Y-87949500D01*
X152365602Y-87949500D01*
X152099119Y-87984582D01*
X152099112Y-87984583D01*
X152099109Y-87984584D01*
X152044239Y-87999286D01*
X151839475Y-88054152D01*
X151591149Y-88157011D01*
X151591133Y-88157019D01*
X151358354Y-88291416D01*
X151145111Y-88455042D01*
X151145104Y-88455048D01*
X150955048Y-88645104D01*
X150955042Y-88645111D01*
X150791416Y-88858354D01*
X150657019Y-89091133D01*
X150657011Y-89091149D01*
X150554152Y-89339475D01*
X150484585Y-89599106D01*
X150484582Y-89599119D01*
X150449500Y-89865602D01*
X126000000Y-89865602D01*
X126000000Y-86124000D01*
X126019685Y-86056961D01*
X126072489Y-86011206D01*
X126124000Y-86000000D01*
X188876000Y-86000000D01*
X188943039Y-86019685D01*
G37*
%TD.AperFunction*%
%TD*%
M02*
