%TF.GenerationSoftware,KiCad,Pcbnew,9.0.4*%
%TF.CreationDate,2025-09-18T18:17:25-07:00*%
%TF.ProjectId,USBCAN-X2,55534243-414e-42d5-9832-2e6b69636164,rev?*%
%TF.SameCoordinates,Original*%
%TF.FileFunction,Paste,Top*%
%TF.FilePolarity,Positive*%
%FSLAX46Y46*%
G04 Gerber Fmt 4.6, Leading zero omitted, Abs format (unit mm)*
G04 Created by KiCad (PCBNEW 9.0.4) date 2025-09-18 18:17:25*
%MOMM*%
%LPD*%
G01*
G04 APERTURE LIST*
G04 Aperture macros list*
%AMRoundRect*
0 Rectangle with rounded corners*
0 $1 Rounding radius*
0 $2 $3 $4 $5 $6 $7 $8 $9 X,Y pos of 4 corners*
0 Add a 4 corners polygon primitive as box body*
4,1,4,$2,$3,$4,$5,$6,$7,$8,$9,$2,$3,0*
0 Add four circle primitives for the rounded corners*
1,1,$1+$1,$2,$3*
1,1,$1+$1,$4,$5*
1,1,$1+$1,$6,$7*
1,1,$1+$1,$8,$9*
0 Add four rect primitives between the rounded corners*
20,1,$1+$1,$2,$3,$4,$5,0*
20,1,$1+$1,$4,$5,$6,$7,0*
20,1,$1+$1,$6,$7,$8,$9,0*
20,1,$1+$1,$8,$9,$2,$3,0*%
G04 Aperture macros list end*
%ADD10RoundRect,0.075000X0.662500X0.075000X-0.662500X0.075000X-0.662500X-0.075000X0.662500X-0.075000X0*%
%ADD11RoundRect,0.075000X0.075000X0.662500X-0.075000X0.662500X-0.075000X-0.662500X0.075000X-0.662500X0*%
%ADD12RoundRect,0.225000X-0.225000X-0.250000X0.225000X-0.250000X0.225000X0.250000X-0.225000X0.250000X0*%
%ADD13RoundRect,0.200000X0.275000X-0.200000X0.275000X0.200000X-0.275000X0.200000X-0.275000X-0.200000X0*%
%ADD14RoundRect,0.225000X0.225000X0.250000X-0.225000X0.250000X-0.225000X-0.250000X0.225000X-0.250000X0*%
%ADD15RoundRect,0.200000X-0.200000X-0.275000X0.200000X-0.275000X0.200000X0.275000X-0.200000X0.275000X0*%
%ADD16RoundRect,0.375000X0.625000X0.375000X-0.625000X0.375000X-0.625000X-0.375000X0.625000X-0.375000X0*%
%ADD17RoundRect,0.500000X0.500000X1.400000X-0.500000X1.400000X-0.500000X-1.400000X0.500000X-1.400000X0*%
%ADD18RoundRect,0.225000X-0.250000X0.225000X-0.250000X-0.225000X0.250000X-0.225000X0.250000X0.225000X0*%
%ADD19RoundRect,0.200000X-0.275000X0.200000X-0.275000X-0.200000X0.275000X-0.200000X0.275000X0.200000X0*%
%ADD20RoundRect,0.230000X-0.230000X-0.375000X0.230000X-0.375000X0.230000X0.375000X-0.230000X0.375000X0*%
%ADD21RoundRect,0.150000X-0.825000X-0.150000X0.825000X-0.150000X0.825000X0.150000X-0.825000X0.150000X0*%
%ADD22RoundRect,0.218750X0.256250X-0.218750X0.256250X0.218750X-0.256250X0.218750X-0.256250X-0.218750X0*%
%ADD23RoundRect,0.200000X0.200000X0.275000X-0.200000X0.275000X-0.200000X-0.275000X0.200000X-0.275000X0*%
%ADD24RoundRect,0.225000X0.250000X-0.225000X0.250000X0.225000X-0.250000X0.225000X-0.250000X-0.225000X0*%
%ADD25RoundRect,0.250000X0.550000X-1.075000X0.550000X1.075000X-0.550000X1.075000X-0.550000X-1.075000X0*%
%ADD26R,2.600000X1.900000*%
%ADD27R,2.794000X0.406400*%
G04 APERTURE END LIST*
D10*
%TO.C,U1*%
X154300000Y-106000000D03*
X154300000Y-105500000D03*
X154300000Y-105000000D03*
X154300000Y-104500000D03*
X154300000Y-104000000D03*
X154300000Y-103500000D03*
X154300000Y-103000000D03*
X154300000Y-102500000D03*
X154300000Y-102000000D03*
X154300000Y-101500000D03*
X154300000Y-101000000D03*
X154300000Y-100500000D03*
D11*
X152887500Y-99087500D03*
X152387500Y-99087500D03*
X151887500Y-99087500D03*
X151387500Y-99087500D03*
X150887500Y-99087500D03*
X150387500Y-99087500D03*
X149887500Y-99087500D03*
X149387500Y-99087500D03*
X148887500Y-99087500D03*
X148387500Y-99087500D03*
X147887500Y-99087500D03*
X147387500Y-99087500D03*
D10*
X145975000Y-100500000D03*
X145975000Y-101000000D03*
X145975000Y-101500000D03*
X145975000Y-102000000D03*
X145975000Y-102500000D03*
X145975000Y-103000000D03*
X145975000Y-103500000D03*
X145975000Y-104000000D03*
X145975000Y-104500000D03*
X145975000Y-105000000D03*
X145975000Y-105500000D03*
X145975000Y-106000000D03*
D11*
X147387500Y-107412500D03*
X147887500Y-107412500D03*
X148387500Y-107412500D03*
X148887500Y-107412500D03*
X149387500Y-107412500D03*
X149887500Y-107412500D03*
X150387500Y-107412500D03*
X150887500Y-107412500D03*
X151387500Y-107412500D03*
X151887500Y-107412500D03*
X152387500Y-107412500D03*
X152887500Y-107412500D03*
%TD*%
D12*
%TO.C,C9*%
X159300000Y-110000000D03*
X160850000Y-110000000D03*
%TD*%
D13*
%TO.C,R3*%
X169800000Y-104325000D03*
X169800000Y-102675000D03*
%TD*%
D14*
%TO.C,C7*%
X153575000Y-110500000D03*
X152025000Y-110500000D03*
%TD*%
D15*
%TO.C,R7*%
X162200000Y-113500000D03*
X163850000Y-113500000D03*
%TD*%
%TO.C,R2*%
X156500000Y-113500000D03*
X158150000Y-113500000D03*
%TD*%
%TO.C,R5*%
X177975000Y-103300000D03*
X179625000Y-103300000D03*
%TD*%
D16*
%TO.C,U2*%
X138110000Y-93300000D03*
X138110000Y-91000000D03*
D17*
X131810000Y-91000000D03*
D16*
X138110000Y-88700000D03*
%TD*%
D18*
%TO.C,C3*%
X157800000Y-105725000D03*
X157800000Y-107275000D03*
%TD*%
D19*
%TO.C,R4*%
X141200000Y-107725000D03*
X141200000Y-109375000D03*
%TD*%
D20*
%TO.C,U3*%
X171810000Y-93950000D03*
X171810000Y-95450000D03*
X172950000Y-93950000D03*
X172950000Y-95450000D03*
D21*
X169905000Y-92795000D03*
X169905000Y-94065000D03*
X169905000Y-95335000D03*
X169905000Y-96605000D03*
X174855000Y-96605000D03*
X174855000Y-95335000D03*
X174855000Y-94065000D03*
X174855000Y-92795000D03*
%TD*%
D22*
%TO.C,D3*%
X167500000Y-119887500D03*
X167500000Y-118312500D03*
%TD*%
D12*
%TO.C,C2*%
X145025000Y-96000000D03*
X146575000Y-96000000D03*
%TD*%
%TO.C,C4*%
X149025000Y-96000000D03*
X150575000Y-96000000D03*
%TD*%
D23*
%TO.C,R6*%
X179525000Y-106700000D03*
X177875000Y-106700000D03*
%TD*%
D14*
%TO.C,C10*%
X160575000Y-100000000D03*
X159025000Y-100000000D03*
%TD*%
D22*
%TO.C,D1*%
X147500000Y-119787500D03*
X147500000Y-118212500D03*
%TD*%
D24*
%TO.C,C6*%
X166100000Y-95675000D03*
X166100000Y-94125000D03*
%TD*%
%TO.C,C1*%
X143350000Y-106725000D03*
X143350000Y-105175000D03*
%TD*%
D22*
%TO.C,D2*%
X157500000Y-119787500D03*
X157500000Y-118212500D03*
%TD*%
D25*
%TO.C,C5*%
X145800000Y-92275000D03*
X145800000Y-88925000D03*
%TD*%
D20*
%TO.C,U4*%
X172160000Y-111700000D03*
X172160000Y-113200000D03*
X173300000Y-111700000D03*
X173300000Y-113200000D03*
D21*
X170255000Y-110545000D03*
X170255000Y-111815000D03*
X170255000Y-113085000D03*
X170255000Y-114355000D03*
X175205000Y-114355000D03*
X175205000Y-113085000D03*
X175205000Y-111815000D03*
X175205000Y-110545000D03*
%TD*%
D26*
%TO.C,Y1*%
X161800000Y-102850000D03*
X161800000Y-107150000D03*
%TD*%
D24*
%TO.C,C8*%
X166800000Y-113875000D03*
X166800000Y-112325000D03*
%TD*%
D27*
%TO.C,J4*%
X137832000Y-122340000D03*
X133768000Y-122340000D03*
X137832000Y-121070000D03*
X133768000Y-121070000D03*
X137832000Y-119800000D03*
X133768000Y-119800000D03*
X137832000Y-118530000D03*
X133768000Y-118530000D03*
X137832000Y-117260000D03*
X133768000Y-117260000D03*
%TD*%
D23*
%TO.C,R1*%
X148825000Y-113500000D03*
X147175000Y-113500000D03*
%TD*%
M02*
