%TF.GenerationSoftware,KiCad,Pcbnew,9.0.4*%
%TF.CreationDate,2025-09-18T18:17:25-07:00*%
%TF.ProjectId,USBCAN-X2,55534243-414e-42d5-9832-2e6b69636164,rev?*%
%TF.SameCoordinates,Original*%
%TF.FileFunction,OtherDrawing,Comment*%
%FSLAX46Y46*%
G04 Gerber Fmt 4.6, Leading zero omitted, Abs format (unit mm)*
G04 Created by KiCad (PCBNEW 9.0.4) date 2025-09-18 18:17:25*
%MOMM*%
%LPD*%
G01*
G04 APERTURE LIST*
%ADD10C,0.150000*%
%ADD11C,0.100000*%
G04 APERTURE END LIST*
D10*
X197938152Y-105285714D02*
X198604819Y-105285714D01*
X197557200Y-105523809D02*
X198271485Y-105761904D01*
X198271485Y-105761904D02*
X198271485Y-105142857D01*
X197604819Y-104571428D02*
X197604819Y-104476190D01*
X197604819Y-104476190D02*
X197652438Y-104380952D01*
X197652438Y-104380952D02*
X197700057Y-104333333D01*
X197700057Y-104333333D02*
X197795295Y-104285714D01*
X197795295Y-104285714D02*
X197985771Y-104238095D01*
X197985771Y-104238095D02*
X198223866Y-104238095D01*
X198223866Y-104238095D02*
X198414342Y-104285714D01*
X198414342Y-104285714D02*
X198509580Y-104333333D01*
X198509580Y-104333333D02*
X198557200Y-104380952D01*
X198557200Y-104380952D02*
X198604819Y-104476190D01*
X198604819Y-104476190D02*
X198604819Y-104571428D01*
X198604819Y-104571428D02*
X198557200Y-104666666D01*
X198557200Y-104666666D02*
X198509580Y-104714285D01*
X198509580Y-104714285D02*
X198414342Y-104761904D01*
X198414342Y-104761904D02*
X198223866Y-104809523D01*
X198223866Y-104809523D02*
X197985771Y-104809523D01*
X197985771Y-104809523D02*
X197795295Y-104761904D01*
X197795295Y-104761904D02*
X197700057Y-104714285D01*
X197700057Y-104714285D02*
X197652438Y-104666666D01*
X197652438Y-104666666D02*
X197604819Y-104571428D01*
D11*
X190500000Y-85000000D02*
X199886420Y-85000000D01*
X199886420Y-125000000D02*
X190500000Y-125000000D01*
X199300000Y-85000000D02*
X199300000Y-125000000D01*
X199300000Y-85000000D02*
X199886421Y-86126504D01*
X199300000Y-85000000D02*
X198713579Y-86126504D01*
X199300000Y-125000000D02*
X198713579Y-123873496D01*
X199300000Y-125000000D02*
X199886421Y-123873496D01*
D10*
X157214285Y-128704819D02*
X157023809Y-128704819D01*
X157023809Y-128704819D02*
X156928571Y-128752438D01*
X156928571Y-128752438D02*
X156880952Y-128800057D01*
X156880952Y-128800057D02*
X156785714Y-128942914D01*
X156785714Y-128942914D02*
X156738095Y-129133390D01*
X156738095Y-129133390D02*
X156738095Y-129514342D01*
X156738095Y-129514342D02*
X156785714Y-129609580D01*
X156785714Y-129609580D02*
X156833333Y-129657200D01*
X156833333Y-129657200D02*
X156928571Y-129704819D01*
X156928571Y-129704819D02*
X157119047Y-129704819D01*
X157119047Y-129704819D02*
X157214285Y-129657200D01*
X157214285Y-129657200D02*
X157261904Y-129609580D01*
X157261904Y-129609580D02*
X157309523Y-129514342D01*
X157309523Y-129514342D02*
X157309523Y-129276247D01*
X157309523Y-129276247D02*
X157261904Y-129181009D01*
X157261904Y-129181009D02*
X157214285Y-129133390D01*
X157214285Y-129133390D02*
X157119047Y-129085771D01*
X157119047Y-129085771D02*
X156928571Y-129085771D01*
X156928571Y-129085771D02*
X156833333Y-129133390D01*
X156833333Y-129133390D02*
X156785714Y-129181009D01*
X156785714Y-129181009D02*
X156738095Y-129276247D01*
X158214285Y-128704819D02*
X157738095Y-128704819D01*
X157738095Y-128704819D02*
X157690476Y-129181009D01*
X157690476Y-129181009D02*
X157738095Y-129133390D01*
X157738095Y-129133390D02*
X157833333Y-129085771D01*
X157833333Y-129085771D02*
X158071428Y-129085771D01*
X158071428Y-129085771D02*
X158166666Y-129133390D01*
X158166666Y-129133390D02*
X158214285Y-129181009D01*
X158214285Y-129181009D02*
X158261904Y-129276247D01*
X158261904Y-129276247D02*
X158261904Y-129514342D01*
X158261904Y-129514342D02*
X158214285Y-129609580D01*
X158214285Y-129609580D02*
X158166666Y-129657200D01*
X158166666Y-129657200D02*
X158071428Y-129704819D01*
X158071428Y-129704819D02*
X157833333Y-129704819D01*
X157833333Y-129704819D02*
X157738095Y-129657200D01*
X157738095Y-129657200D02*
X157690476Y-129609580D01*
D11*
X190000000Y-125500000D02*
X190000000Y-130986420D01*
X125000000Y-130986420D02*
X125000000Y-125500000D01*
X190000000Y-130400000D02*
X125000000Y-130400000D01*
X190000000Y-130400000D02*
X188873496Y-130986421D01*
X190000000Y-130400000D02*
X188873496Y-129813579D01*
X125000000Y-130400000D02*
X126126504Y-129813579D01*
X125000000Y-130400000D02*
X126126504Y-130986421D01*
M02*
