M48
; DRILL file {KiCad 9.0.4} date 2025-09-18T18:17:27-0700
; FORMAT={-:-/ absolute / metric / decimal}
; #@! TF.CreationDate,2025-09-18T18:17:27-07:00
; #@! TF.GenerationSoftware,Kicad,Pcbnew,9.0.4
; #@! TF.FileFunction,Plated,1,2,PTH
FMAT,2
METRIC
; #@! TA.AperFunction,Plated,PTH,ViaDrill
T1C0.300
; #@! TA.AperFunction,Plated,PTH,ComponentDrill
T2C0.950
; #@! TA.AperFunction,Plated,PTH,ComponentDrill
T3C1.000
; #@! TA.AperFunction,Plated,PTH,ComponentDrill
T4C1.400
; #@! TA.AperFunction,Plated,PTH,ComponentDrill
T5C2.300
; #@! TA.AperFunction,Plated,PTH,ViaDrill
T6C3.000
%
G90
G05
T1
X131.3Y-122.3
X132.832Y-94.226
X135.273Y-92.078
X139.023Y-95.513
X140.221Y-107.656
X141.071Y-120.929
X145.056Y-99.803
X145.994Y-113.057
X146.094Y-94.344
X146.442Y-107.342
X150.3Y-111.2
X151.93Y-108.931
X153.055Y-102.448
X154.878Y-109.307
X155.318Y-113.172
X155.584Y-102.02
X156.019Y-115.231
X156.459Y-102.874
X158.981Y-101.3
X161.132Y-113.186
X166.0Y-103.0
X166.0Y-107.0
X167.881Y-95.403
X168.278Y-113.085
X168.518Y-91.408
X172.0Y-104.0
X174.0Y-104.0
X177.006Y-98.048
X177.6Y-113.2
X177.738Y-114.123
X179.077Y-104.388
T2
X135.088Y-103.75
X135.088Y-106.25
X137.088Y-103.75
X137.088Y-106.25
T3
X141.825Y-112.4
X144.365Y-112.4
X170.685Y-107.55
X170.735Y-99.5
X173.225Y-107.55
X173.275Y-99.5
T4
X183.907Y-92.695
X183.907Y-96.195
X183.907Y-99.695
X183.907Y-103.195
X183.907Y-106.695
X183.907Y-110.195
X183.907Y-113.695
X183.907Y-117.195
T5
X132.227Y-99.0
X132.227Y-111.0
T6
X152.5Y-90.0
M30
