M48
; DRILL file {KiCad 9.0.4} date 2025-09-19T16:30:10-0700
; FORMAT={-:-/ absolute / metric / decimal}
; #@! TF.CreationDate,2025-09-19T16:30:10-07:00
; #@! TF.GenerationSoftware,Kicad,Pcbnew,9.0.4
; #@! TF.FileFunction,Plated,1,2,PTH
FMAT,2
METRIC
; #@! TA.AperFunction,Plated,PTH,ViaDrill
T1C0.300
; #@! TA.AperFunction,Plated,PTH,ComponentDrill
T2C0.950
; #@! TA.AperFunction,Plated,PTH,ComponentDrill
T3C1.000
; #@! TA.AperFunction,Plated,PTH,ViaDrill
T4C1.400
; #@! TA.AperFunction,Plated,PTH,ComponentDrill
T5C1.400
; #@! TA.AperFunction,Plated,PTH,ComponentDrill
T6C2.300
; #@! TA.AperFunction,Plated,PTH,ViaDrill
T7C3.000
%
G90
G05
T1
X131.3Y-122.3
X131.325Y-121.075
X138.1Y-95.4
X140.1Y-88.7
X140.2Y-95.513
X140.221Y-107.656
X141.6Y-104.775
X141.65Y-119.275
X142.2Y-116.975
X142.2Y-118.0
X144.225Y-100.525
X144.225Y-101.5
X144.625Y-109.625
X145.994Y-113.057
X146.442Y-107.342
X147.75Y-97.35
X147.9Y-109.475
X149.075Y-109.475
X150.0Y-122.9
X150.525Y-110.6
X151.93Y-108.931
X154.878Y-109.307
X155.318Y-113.172
X155.584Y-102.02
X156.019Y-115.231
X156.459Y-102.874
X157.775Y-108.875
X158.7Y-96.0
X158.981Y-101.3
X160.025Y-122.95
X161.132Y-113.186
X162.5Y-122.95
X165.0Y-111.0
X166.0Y-102.0
X166.0Y-103.0
X166.9Y-92.8
X167.2Y-110.4
X167.881Y-95.403
X172.1Y-103.0
X174.0Y-103.0
X176.7Y-96.6
T2
X135.088Y-103.75
X135.088Y-106.25
X137.088Y-103.75
X137.088Y-106.25
T3
X141.825Y-112.4
X144.365Y-112.4
X152.55Y-114.95
X152.55Y-117.49
X152.55Y-120.03
X152.55Y-122.57
X177.6Y-100.7
X177.6Y-103.24
X177.6Y-114.625
X177.6Y-117.165
T4
X186.264Y-88.163
T5
X183.907Y-92.695
X183.907Y-96.195
X183.907Y-99.695
X183.907Y-103.195
X183.907Y-106.695
X183.907Y-110.195
X183.907Y-113.695
X183.907Y-117.195
T6
X132.227Y-99.0
X132.227Y-111.0
T7
X152.5Y-90.0
M30
