%TF.GenerationSoftware,KiCad,Pcbnew,9.0.4*%
%TF.CreationDate,2025-09-19T16:30:08-07:00*%
%TF.ProjectId,USBCAN-X2,55534243-414e-42d5-9832-2e6b69636164,rev?*%
%TF.SameCoordinates,Original*%
%TF.FileFunction,Soldermask,Top*%
%TF.FilePolarity,Negative*%
%FSLAX46Y46*%
G04 Gerber Fmt 4.6, Leading zero omitted, Abs format (unit mm)*
G04 Created by KiCad (PCBNEW 9.0.4) date 2025-09-19 16:30:08*
%MOMM*%
%LPD*%
G01*
G04 APERTURE LIST*
G04 Aperture macros list*
%AMRoundRect*
0 Rectangle with rounded corners*
0 $1 Rounding radius*
0 $2 $3 $4 $5 $6 $7 $8 $9 X,Y pos of 4 corners*
0 Add a 4 corners polygon primitive as box body*
4,1,4,$2,$3,$4,$5,$6,$7,$8,$9,$2,$3,0*
0 Add four circle primitives for the rounded corners*
1,1,$1+$1,$2,$3*
1,1,$1+$1,$4,$5*
1,1,$1+$1,$6,$7*
1,1,$1+$1,$8,$9*
0 Add four rect primitives between the rounded corners*
20,1,$1+$1,$2,$3,$4,$5,0*
20,1,$1+$1,$4,$5,$6,$7,0*
20,1,$1+$1,$6,$7,$8,$9,0*
20,1,$1+$1,$8,$9,$2,$3,0*%
G04 Aperture macros list end*
%ADD10R,1.700000X1.700000*%
%ADD11C,1.700000*%
%ADD12RoundRect,0.075000X0.662500X0.075000X-0.662500X0.075000X-0.662500X-0.075000X0.662500X-0.075000X0*%
%ADD13RoundRect,0.075000X0.075000X0.662500X-0.075000X0.662500X-0.075000X-0.662500X0.075000X-0.662500X0*%
%ADD14RoundRect,0.225000X-0.225000X-0.250000X0.225000X-0.250000X0.225000X0.250000X-0.225000X0.250000X0*%
%ADD15RoundRect,0.200000X-0.275000X0.200000X-0.275000X-0.200000X0.275000X-0.200000X0.275000X0.200000X0*%
%ADD16R,2.800000X2.800000*%
%ADD17C,2.800000*%
%ADD18RoundRect,0.225000X0.225000X0.250000X-0.225000X0.250000X-0.225000X-0.250000X0.225000X-0.250000X0*%
%ADD19RoundRect,0.200000X-0.200000X-0.275000X0.200000X-0.275000X0.200000X0.275000X-0.200000X0.275000X0*%
%ADD20RoundRect,0.375000X0.625000X0.375000X-0.625000X0.375000X-0.625000X-0.375000X0.625000X-0.375000X0*%
%ADD21RoundRect,0.500000X0.500000X1.400000X-0.500000X1.400000X-0.500000X-1.400000X0.500000X-1.400000X0*%
%ADD22RoundRect,0.225000X-0.250000X0.225000X-0.250000X-0.225000X0.250000X-0.225000X0.250000X0.225000X0*%
%ADD23RoundRect,0.150000X-0.825000X-0.150000X0.825000X-0.150000X0.825000X0.150000X-0.825000X0.150000X0*%
%ADD24R,2.290000X3.000000*%
%ADD25RoundRect,0.218750X0.256250X-0.218750X0.256250X0.218750X-0.256250X0.218750X-0.256250X-0.218750X0*%
%ADD26R,1.600000X1.600000*%
%ADD27C,1.600000*%
%ADD28C,4.000000*%
%ADD29RoundRect,0.225000X0.250000X-0.225000X0.250000X0.225000X-0.250000X0.225000X-0.250000X-0.225000X0*%
%ADD30RoundRect,0.250000X0.550000X-1.075000X0.550000X1.075000X-0.550000X1.075000X-0.550000X-1.075000X0*%
%ADD31R,2.600000X1.900000*%
%ADD32R,2.794000X0.406400*%
%ADD33RoundRect,0.200000X0.200000X0.275000X-0.200000X0.275000X-0.200000X-0.275000X0.200000X-0.275000X0*%
G04 APERTURE END LIST*
D10*
%TO.C,J7*%
X152550000Y-114950000D03*
D11*
X152550000Y-117490000D03*
X152550000Y-120030000D03*
X152550000Y-122570000D03*
%TD*%
D12*
%TO.C,U1*%
X154300000Y-106000000D03*
X154300000Y-105500000D03*
X154300000Y-105000000D03*
X154300000Y-104500000D03*
X154300000Y-104000000D03*
X154300000Y-103500000D03*
X154300000Y-103000000D03*
X154300000Y-102500000D03*
X154300000Y-102000000D03*
X154300000Y-101500000D03*
X154300000Y-101000000D03*
X154300000Y-100500000D03*
D13*
X152887500Y-99087500D03*
X152387500Y-99087500D03*
X151887500Y-99087500D03*
X151387500Y-99087500D03*
X150887500Y-99087500D03*
X150387500Y-99087500D03*
X149887500Y-99087500D03*
X149387500Y-99087500D03*
X148887500Y-99087500D03*
X148387500Y-99087500D03*
X147887500Y-99087500D03*
X147387500Y-99087500D03*
D12*
X145975000Y-100500000D03*
X145975000Y-101000000D03*
X145975000Y-101500000D03*
X145975000Y-102000000D03*
X145975000Y-102500000D03*
X145975000Y-103000000D03*
X145975000Y-103500000D03*
X145975000Y-104000000D03*
X145975000Y-104500000D03*
X145975000Y-105000000D03*
X145975000Y-105500000D03*
X145975000Y-106000000D03*
D13*
X147387500Y-107412500D03*
X147887500Y-107412500D03*
X148387500Y-107412500D03*
X148887500Y-107412500D03*
X149387500Y-107412500D03*
X149887500Y-107412500D03*
X150387500Y-107412500D03*
X150887500Y-107412500D03*
X151387500Y-107412500D03*
X151887500Y-107412500D03*
X152387500Y-107412500D03*
X152887500Y-107412500D03*
%TD*%
D14*
%TO.C,C9*%
X159300000Y-110000000D03*
X160850000Y-110000000D03*
%TD*%
D15*
%TO.C,R3*%
X144400000Y-115275000D03*
X144400000Y-116925000D03*
%TD*%
D10*
%TO.C,J6*%
X177600000Y-100700000D03*
D11*
X177600000Y-103240000D03*
%TD*%
D16*
%TO.C,J2*%
X183907500Y-92695000D03*
D17*
X183907500Y-96195000D03*
X183907500Y-99695000D03*
X183907500Y-103195000D03*
X183907500Y-106695000D03*
X183907500Y-110195000D03*
X183907500Y-113695000D03*
X183907500Y-117195000D03*
%TD*%
D18*
%TO.C,C7*%
X153575000Y-110500000D03*
X152025000Y-110500000D03*
%TD*%
D19*
%TO.C,R7*%
X162200000Y-113500000D03*
X163850000Y-113500000D03*
%TD*%
%TO.C,R2*%
X156500000Y-113500000D03*
X158150000Y-113500000D03*
%TD*%
D15*
%TO.C,R5*%
X178500000Y-94575000D03*
X178500000Y-96225000D03*
%TD*%
D20*
%TO.C,U2*%
X138110000Y-93300000D03*
X138110000Y-91000000D03*
D21*
X131810000Y-91000000D03*
D20*
X138110000Y-88700000D03*
%TD*%
D22*
%TO.C,C3*%
X157800000Y-105725000D03*
X157800000Y-107275000D03*
%TD*%
D15*
%TO.C,R4*%
X141200000Y-107725000D03*
X141200000Y-109375000D03*
%TD*%
D23*
%TO.C,U3*%
X169905000Y-92795000D03*
X169905000Y-94065000D03*
X169905000Y-95335000D03*
X169905000Y-96605000D03*
X174855000Y-96605000D03*
X174855000Y-95335000D03*
X174855000Y-94065000D03*
X174855000Y-92795000D03*
D24*
X172380000Y-94700000D03*
%TD*%
D25*
%TO.C,D3*%
X167500000Y-119887500D03*
X167500000Y-118312500D03*
%TD*%
D26*
%TO.C,J1*%
X137087500Y-106250000D03*
D27*
X137087500Y-103750000D03*
X135087500Y-103750000D03*
X135087500Y-106250000D03*
D28*
X132227500Y-111000000D03*
X132227500Y-99000000D03*
%TD*%
D14*
%TO.C,C2*%
X145025000Y-96000000D03*
X146575000Y-96000000D03*
%TD*%
%TO.C,C4*%
X149025000Y-96000000D03*
X150575000Y-96000000D03*
%TD*%
D15*
%TO.C,R6*%
X178500000Y-108175000D03*
X178500000Y-109825000D03*
%TD*%
D18*
%TO.C,C10*%
X160575000Y-100000000D03*
X159025000Y-100000000D03*
%TD*%
D25*
%TO.C,D1*%
X147500000Y-119787500D03*
X147500000Y-118212500D03*
%TD*%
D29*
%TO.C,C6*%
X166100000Y-95675000D03*
X166100000Y-94125000D03*
%TD*%
%TO.C,C1*%
X143350000Y-106725000D03*
X143350000Y-105175000D03*
%TD*%
D10*
%TO.C,J3*%
X141825000Y-112400000D03*
D11*
X144365000Y-112400000D03*
%TD*%
D10*
%TO.C,J5*%
X177600000Y-114625000D03*
D11*
X177600000Y-117165000D03*
%TD*%
D25*
%TO.C,D2*%
X157500000Y-119787500D03*
X157500000Y-118212500D03*
%TD*%
D30*
%TO.C,C5*%
X145800000Y-92275000D03*
X145800000Y-88925000D03*
%TD*%
D23*
%TO.C,U4*%
X169995000Y-106445000D03*
X169995000Y-107715000D03*
X169995000Y-108985000D03*
X169995000Y-110255000D03*
X174945000Y-110255000D03*
X174945000Y-108985000D03*
X174945000Y-107715000D03*
X174945000Y-106445000D03*
D24*
X172470000Y-108350000D03*
%TD*%
D31*
%TO.C,Y1*%
X161800000Y-102850000D03*
X161800000Y-107150000D03*
%TD*%
D29*
%TO.C,C8*%
X167200000Y-109175000D03*
X167200000Y-107625000D03*
%TD*%
D32*
%TO.C,J4*%
X137832000Y-122340000D03*
X133768000Y-122340000D03*
X137832000Y-121070000D03*
X133768000Y-121070000D03*
X137832000Y-119800000D03*
X133768000Y-119800000D03*
X137832000Y-118530000D03*
X133768000Y-118530000D03*
X137832000Y-117260000D03*
X133768000Y-117260000D03*
%TD*%
D33*
%TO.C,R1*%
X148825000Y-113500000D03*
X147175000Y-113500000D03*
%TD*%
D17*
X186264398Y-88162869D03*
M02*
