%TF.GenerationSoftware,KiCad,Pcbnew,9.0.4*%
%TF.CreationDate,2025-09-19T16:30:08-07:00*%
%TF.ProjectId,USBCAN-X2,55534243-414e-42d5-9832-2e6b69636164,rev?*%
%TF.SameCoordinates,Original*%
%TF.FileFunction,Copper,L2,Bot*%
%TF.FilePolarity,Positive*%
%FSLAX46Y46*%
G04 Gerber Fmt 4.6, Leading zero omitted, Abs format (unit mm)*
G04 Created by KiCad (PCBNEW 9.0.4) date 2025-09-19 16:30:08*
%MOMM*%
%LPD*%
G01*
G04 APERTURE LIST*
%TA.AperFunction,ComponentPad*%
%ADD10R,1.700000X1.700000*%
%TD*%
%TA.AperFunction,ComponentPad*%
%ADD11C,1.700000*%
%TD*%
%TA.AperFunction,ComponentPad*%
%ADD12R,2.800000X2.800000*%
%TD*%
%TA.AperFunction,ComponentPad*%
%ADD13C,2.800000*%
%TD*%
%TA.AperFunction,ComponentPad*%
%ADD14R,1.600000X1.600000*%
%TD*%
%TA.AperFunction,ComponentPad*%
%ADD15C,1.600000*%
%TD*%
%TA.AperFunction,ComponentPad*%
%ADD16C,4.000000*%
%TD*%
%TA.AperFunction,ViaPad*%
%ADD17C,0.600000*%
%TD*%
%TA.AperFunction,ViaPad*%
%ADD18C,3.100000*%
%TD*%
%TA.AperFunction,ViaPad*%
%ADD19C,2.800000*%
%TD*%
%TA.AperFunction,Conductor*%
%ADD20C,0.200000*%
%TD*%
%TA.AperFunction,Conductor*%
%ADD21C,0.400000*%
%TD*%
%TA.AperFunction,Conductor*%
%ADD22C,0.500000*%
%TD*%
G04 APERTURE END LIST*
D10*
%TO.P,J7,1,Pin_1*%
%TO.N,GND*%
X152550000Y-114950000D03*
D11*
%TO.P,J7,2,Pin_2*%
%TO.N,SWDCLK*%
X152550000Y-117490000D03*
%TO.P,J7,3,Pin_3*%
%TO.N,SWDIO*%
X152550000Y-120030000D03*
%TO.P,J7,4,Pin_4*%
%TO.N,3.3V*%
X152550000Y-122570000D03*
%TD*%
D10*
%TO.P,J6,1,Pin_1*%
%TO.N,CAN1_N*%
X177600000Y-100700000D03*
D11*
%TO.P,J6,2,Pin_2*%
%TO.N,Net-(J2-Pin_4)*%
X177600000Y-103240000D03*
%TD*%
D12*
%TO.P,J2,1,Pin_1*%
%TO.N,CAN1_P*%
X183907500Y-92695000D03*
D13*
%TO.P,J2,2,Pin_2*%
%TO.N,CAN1_N*%
X183907500Y-96195000D03*
%TO.P,J2,3,Pin_3*%
X183907500Y-99695000D03*
%TO.P,J2,4,Pin_4*%
%TO.N,Net-(J2-Pin_4)*%
X183907500Y-103195000D03*
%TO.P,J2,5,Pin_5*%
%TO.N,CAN2_P*%
X183907500Y-106695000D03*
%TO.P,J2,6,Pin_6*%
%TO.N,CAN2_N*%
X183907500Y-110195000D03*
%TO.P,J2,7,Pin_7*%
X183907500Y-113695000D03*
%TO.P,J2,8,Pin_8*%
%TO.N,Net-(J2-Pin_8)*%
X183907500Y-117195000D03*
%TD*%
D14*
%TO.P,J1,1,VBUS*%
%TO.N,5V*%
X137087500Y-106250000D03*
D15*
%TO.P,J1,2,D-*%
%TO.N,USB_N*%
X137087500Y-103750000D03*
%TO.P,J1,3,D+*%
%TO.N,USB_P*%
X135087500Y-103750000D03*
%TO.P,J1,4,GND*%
%TO.N,GND*%
X135087500Y-106250000D03*
D16*
%TO.P,J1,5,Shield*%
X132227500Y-111000000D03*
X132227500Y-99000000D03*
%TD*%
D10*
%TO.P,J3,1,Pin_1*%
%TO.N,Net-(J3-Pin_1)*%
X141825000Y-112400000D03*
D11*
%TO.P,J3,2,Pin_2*%
%TO.N,CAN1_RX*%
X144365000Y-112400000D03*
%TD*%
D10*
%TO.P,J5,1,Pin_1*%
%TO.N,CAN2_N*%
X177600000Y-114625000D03*
D11*
%TO.P,J5,2,Pin_2*%
%TO.N,Net-(J2-Pin_8)*%
X177600000Y-117165000D03*
%TD*%
D17*
%TO.N,GND*%
X142200000Y-118000000D03*
X142200000Y-116975000D03*
%TO.N,SWDCLK*%
X131325000Y-121075000D03*
%TO.N,CAN2_TX*%
X144225000Y-101500000D03*
X144625000Y-109625000D03*
%TO.N,GND*%
X141600000Y-104775000D03*
X150000000Y-122900000D03*
X162500000Y-122950000D03*
X160025000Y-122950000D03*
X147750000Y-97350000D03*
X157775000Y-108875000D03*
D18*
%TO.N,*%
X152500000Y-90000000D03*
D17*
%TO.N,/LED_PA0*%
X156019000Y-115231000D03*
X156459000Y-102874000D03*
%TO.N,/LED_PA1*%
X155584000Y-102020000D03*
X155318000Y-113172000D03*
%TO.N,GND*%
X165000000Y-111000000D03*
X172100000Y-103000000D03*
X166000000Y-103000000D03*
X174000000Y-103000000D03*
D19*
X186264398Y-88162869D03*
D17*
X150525000Y-110600000D03*
X166000000Y-102000000D03*
%TO.N,CAN1_RX*%
X158700000Y-96000000D03*
%TO.N,3.3V*%
X140221000Y-107656000D03*
X140200000Y-95513100D03*
X141650000Y-119275000D03*
X176700000Y-96600000D03*
X140100000Y-88700000D03*
%TO.N,5V*%
X167200000Y-110400000D03*
X167881000Y-95403200D03*
X138100000Y-95400000D03*
%TO.N,CAN2_TX*%
X154878000Y-109307000D03*
X149075000Y-109475000D03*
%TO.N,/LED_PA2*%
X161132000Y-113186000D03*
X158981000Y-101300000D03*
%TO.N,SWDIO*%
X146442000Y-107342000D03*
X131300000Y-122300000D03*
%TO.N,SWDCLK*%
X147900000Y-109475000D03*
%TO.N,CAN1_TX*%
X151930000Y-108931000D03*
X166900000Y-92800000D03*
%TO.N,CAN2_RX*%
X145994000Y-113057000D03*
X144225000Y-100525000D03*
%TD*%
D20*
%TO.N,SWDIO*%
X147255000Y-120030000D02*
X147200000Y-119975000D01*
X152550000Y-120030000D02*
X147255000Y-120030000D01*
%TO.N,SWDCLK*%
X144775000Y-121075000D02*
X131325000Y-121075000D01*
X146595000Y-119255000D02*
X144775000Y-121075000D01*
X146175000Y-106675000D02*
X145841000Y-107009000D01*
X147900000Y-107575000D02*
X147000000Y-106675000D01*
X147000000Y-106675000D02*
X146175000Y-106675000D01*
X145841000Y-107841000D02*
X146595000Y-108595000D01*
X147900000Y-109475000D02*
X147900000Y-107575000D01*
X145841000Y-107009000D02*
X145841000Y-107841000D01*
X146595000Y-108595000D02*
X146595000Y-119255000D01*
%TO.N,SWDIO*%
X152550000Y-120030000D02*
X152530000Y-120050000D01*
X147200000Y-119975000D02*
X144875000Y-122300000D01*
X144875000Y-122300000D02*
X131300000Y-122300000D01*
X147200000Y-108100000D02*
X147200000Y-119975000D01*
X146442000Y-107342000D02*
X147200000Y-108100000D01*
%TO.N,SWDCLK*%
X150335000Y-117490000D02*
X152550000Y-117490000D01*
X147900000Y-115075000D02*
X150325000Y-117500000D01*
X150325000Y-117500000D02*
X150335000Y-117490000D01*
X147900000Y-109475000D02*
X147900000Y-115075000D01*
D21*
%TO.N,3.3V*%
X140221000Y-117796000D02*
X140221000Y-107656000D01*
X140800000Y-118425000D02*
X140800000Y-118375000D01*
X140800000Y-118375000D02*
X140221000Y-117796000D01*
X141650000Y-119275000D02*
X140800000Y-118425000D01*
D20*
%TO.N,CAN2_RX*%
X145994000Y-108990000D02*
X145994000Y-113057000D01*
X145056000Y-101356000D02*
X145056000Y-108052000D01*
X145056000Y-108052000D02*
X145994000Y-108990000D01*
X144225000Y-100525000D02*
X145056000Y-101356000D01*
%TO.N,CAN1_RX*%
X146450000Y-96000000D02*
X158700000Y-96000000D01*
X143350000Y-111385000D02*
X143350000Y-99100000D01*
X143350000Y-99100000D02*
X146450000Y-96000000D01*
X144365000Y-112400000D02*
X143350000Y-111385000D01*
%TO.N,CAN2_TX*%
X144201000Y-109201000D02*
X144625000Y-109625000D01*
X144225000Y-101500000D02*
X144201000Y-101524000D01*
X144201000Y-101524000D02*
X144201000Y-109201000D01*
X154510000Y-109675000D02*
X154878000Y-109307000D01*
X149275000Y-109675000D02*
X154510000Y-109675000D01*
X149075000Y-109475000D02*
X149275000Y-109675000D01*
D21*
%TO.N,5V*%
X138400000Y-104937500D02*
X137087500Y-106250000D01*
X138400000Y-97400000D02*
X138400000Y-104937500D01*
X138100000Y-97100000D02*
X138400000Y-97400000D01*
X138100000Y-95400000D02*
X138100000Y-97100000D01*
D20*
%TO.N,/LED_PA0*%
X156500000Y-114750000D02*
X156500000Y-102915000D01*
X156019000Y-115231000D02*
X156500000Y-114750000D01*
X156500000Y-102915000D02*
X156459000Y-102874000D01*
%TO.N,/LED_PA1*%
X155318000Y-113172000D02*
X155584000Y-112906000D01*
X155584000Y-112906000D02*
X155584000Y-102020000D01*
%TO.N,GND*%
X132228000Y-100925000D02*
X132227500Y-100924500D01*
X132227500Y-100924500D02*
X132227500Y-99000000D01*
%TO.N,3.3V*%
X140221000Y-107656000D02*
X140200000Y-107635000D01*
D21*
X154356700Y-93743300D02*
X141969800Y-93743300D01*
D22*
X140100000Y-88700000D02*
X140100000Y-95413100D01*
D21*
X158000000Y-90100000D02*
X154356700Y-93743300D01*
X170200000Y-90100000D02*
X158000000Y-90100000D01*
X140200000Y-95513100D02*
X140200000Y-107635000D01*
D22*
X140100000Y-95413100D02*
X140200000Y-95513100D01*
D21*
X176700000Y-96600000D02*
X170200000Y-90100000D01*
X141969800Y-93743300D02*
X140200000Y-95513100D01*
D20*
%TO.N,5V*%
X137088000Y-105699000D02*
X137087500Y-105699500D01*
X137087500Y-105699500D02*
X137087500Y-106250000D01*
D21*
X167881000Y-95403200D02*
X167881000Y-109719000D01*
X167881000Y-109719000D02*
X167200000Y-110400000D01*
D20*
X137088000Y-106250000D02*
X137088000Y-105699000D01*
%TO.N,/LED_PA2*%
X161132000Y-103451000D02*
X158981000Y-101300000D01*
X161132000Y-113186000D02*
X161132000Y-103451000D01*
%TO.N,CAN1_TX*%
X151931000Y-108931000D02*
X152000000Y-109000000D01*
X155600000Y-98200000D02*
X161500000Y-98200000D01*
X161500000Y-98200000D02*
X166900000Y-92800000D01*
X151930000Y-108931000D02*
X151931000Y-108931000D01*
X151930000Y-108931000D02*
X151930000Y-101870000D01*
X151930000Y-101870000D02*
X155600000Y-98200000D01*
%TO.N,CAN1_P*%
X183907500Y-93345300D02*
X183907500Y-92695000D01*
X183908000Y-93345800D02*
X183907500Y-93345300D01*
X183908000Y-93345800D02*
X182854200Y-93345800D01*
X183908000Y-92695000D02*
X183908000Y-93345800D01*
%TO.N,CAN1_N*%
X183907500Y-97945500D02*
X183907500Y-99695000D01*
X183908000Y-97945000D02*
X183907500Y-97945500D01*
X183908000Y-99695000D02*
X183908000Y-97945000D01*
X183908000Y-97945000D02*
X183908000Y-96195000D01*
X183907500Y-96195000D02*
X183908000Y-96195000D01*
%TO.N,CAN2_N*%
X183907500Y-110195000D02*
X183908000Y-110195000D01*
X183908000Y-113695000D02*
X183908000Y-110195000D01*
X183907500Y-113695000D02*
X183908000Y-113695000D01*
%TO.N,Net-(J2-Pin_8)*%
X183907500Y-117195000D02*
X183908000Y-117195000D01*
%TD*%
%TA.AperFunction,Conductor*%
%TO.N,GND*%
G36*
X188943039Y-86019685D02*
G01*
X188988794Y-86072489D01*
X189000000Y-86124000D01*
X189000000Y-123876000D01*
X188980315Y-123943039D01*
X188927511Y-123988794D01*
X188876000Y-124000000D01*
X153234696Y-124000000D01*
X153167657Y-123980315D01*
X153121902Y-123927511D01*
X153111958Y-123858353D01*
X153140983Y-123794797D01*
X153178401Y-123765515D01*
X153183585Y-123762873D01*
X153257816Y-123725051D01*
X153354371Y-123654899D01*
X153429786Y-123600109D01*
X153429788Y-123600106D01*
X153429792Y-123600104D01*
X153580104Y-123449792D01*
X153580106Y-123449788D01*
X153580109Y-123449786D01*
X153705048Y-123277820D01*
X153705047Y-123277820D01*
X153705051Y-123277816D01*
X153801557Y-123088412D01*
X153867246Y-122886243D01*
X153900500Y-122676287D01*
X153900500Y-122463713D01*
X153867246Y-122253757D01*
X153801557Y-122051588D01*
X153705051Y-121862184D01*
X153705049Y-121862181D01*
X153705048Y-121862179D01*
X153580109Y-121690213D01*
X153429786Y-121539890D01*
X153257820Y-121414951D01*
X153257115Y-121414591D01*
X153249054Y-121410485D01*
X153198259Y-121362512D01*
X153181463Y-121294692D01*
X153203999Y-121228556D01*
X153249054Y-121189515D01*
X153257816Y-121185051D01*
X153300772Y-121153842D01*
X153429786Y-121060109D01*
X153429788Y-121060106D01*
X153429792Y-121060104D01*
X153580104Y-120909792D01*
X153580106Y-120909788D01*
X153580109Y-120909786D01*
X153705048Y-120737820D01*
X153705047Y-120737820D01*
X153705051Y-120737816D01*
X153801557Y-120548412D01*
X153867246Y-120346243D01*
X153900500Y-120136287D01*
X153900500Y-119923713D01*
X153867246Y-119713757D01*
X153801557Y-119511588D01*
X153705051Y-119322184D01*
X153705049Y-119322181D01*
X153705048Y-119322179D01*
X153580109Y-119150213D01*
X153429786Y-118999890D01*
X153257820Y-118874951D01*
X153251131Y-118871543D01*
X153249054Y-118870485D01*
X153198259Y-118822512D01*
X153181463Y-118754692D01*
X153203999Y-118688556D01*
X153249054Y-118649515D01*
X153257816Y-118645051D01*
X153282753Y-118626933D01*
X153429786Y-118520109D01*
X153429788Y-118520106D01*
X153429792Y-118520104D01*
X153580104Y-118369792D01*
X153580106Y-118369788D01*
X153580109Y-118369786D01*
X153705048Y-118197820D01*
X153705047Y-118197820D01*
X153705051Y-118197816D01*
X153801557Y-118008412D01*
X153867246Y-117806243D01*
X153900500Y-117596287D01*
X153900500Y-117383713D01*
X153867246Y-117173757D01*
X153801557Y-116971588D01*
X153705051Y-116782184D01*
X153705049Y-116782181D01*
X153705048Y-116782179D01*
X153580109Y-116610213D01*
X153466181Y-116496285D01*
X153432696Y-116434962D01*
X153437680Y-116365270D01*
X153479552Y-116309337D01*
X153510529Y-116292422D01*
X153642086Y-116243354D01*
X153642093Y-116243350D01*
X153757187Y-116157190D01*
X153757190Y-116157187D01*
X153843350Y-116042093D01*
X153843354Y-116042086D01*
X153893596Y-115907379D01*
X153893598Y-115907372D01*
X153899999Y-115847844D01*
X153900000Y-115847827D01*
X153900000Y-115200000D01*
X152983012Y-115200000D01*
X153015925Y-115142993D01*
X153050000Y-115015826D01*
X153050000Y-114884174D01*
X153015925Y-114757007D01*
X152983012Y-114700000D01*
X153900000Y-114700000D01*
X153900000Y-114052172D01*
X153899999Y-114052155D01*
X153893598Y-113992627D01*
X153893596Y-113992620D01*
X153843354Y-113857913D01*
X153843350Y-113857906D01*
X153757190Y-113742812D01*
X153757187Y-113742809D01*
X153642093Y-113656649D01*
X153642086Y-113656645D01*
X153507379Y-113606403D01*
X153507372Y-113606401D01*
X153447844Y-113600000D01*
X152800000Y-113600000D01*
X152800000Y-114516988D01*
X152742993Y-114484075D01*
X152615826Y-114450000D01*
X152484174Y-114450000D01*
X152357007Y-114484075D01*
X152300000Y-114516988D01*
X152300000Y-113600000D01*
X151652155Y-113600000D01*
X151592627Y-113606401D01*
X151592620Y-113606403D01*
X151457913Y-113656645D01*
X151457906Y-113656649D01*
X151342812Y-113742809D01*
X151342809Y-113742812D01*
X151256649Y-113857906D01*
X151256645Y-113857913D01*
X151206403Y-113992620D01*
X151206401Y-113992627D01*
X151200000Y-114052155D01*
X151200000Y-114700000D01*
X152116988Y-114700000D01*
X152084075Y-114757007D01*
X152050000Y-114884174D01*
X152050000Y-115015826D01*
X152084075Y-115142993D01*
X152116988Y-115200000D01*
X151200000Y-115200000D01*
X151200000Y-115847844D01*
X151206401Y-115907372D01*
X151206403Y-115907379D01*
X151256645Y-116042086D01*
X151256649Y-116042093D01*
X151342809Y-116157187D01*
X151342812Y-116157190D01*
X151457906Y-116243350D01*
X151457913Y-116243354D01*
X151589470Y-116292422D01*
X151645404Y-116334293D01*
X151669821Y-116399758D01*
X151654969Y-116468031D01*
X151633819Y-116496285D01*
X151519889Y-116610215D01*
X151394948Y-116782184D01*
X151394947Y-116782185D01*
X151374765Y-116821795D01*
X151326791Y-116872591D01*
X151264281Y-116889500D01*
X150615097Y-116889500D01*
X150548058Y-116869815D01*
X150527416Y-116853181D01*
X148536819Y-114862584D01*
X148503334Y-114801261D01*
X148500500Y-114774903D01*
X148500500Y-110285872D01*
X148520185Y-110218833D01*
X148572989Y-110173078D01*
X148642147Y-110163134D01*
X148690391Y-110181623D01*
X148690446Y-110181521D01*
X148691258Y-110181955D01*
X148693398Y-110182775D01*
X148694611Y-110183586D01*
X148695819Y-110184393D01*
X148695827Y-110184397D01*
X148816974Y-110234577D01*
X148841503Y-110244737D01*
X148971992Y-110270693D01*
X148996153Y-110275499D01*
X148996156Y-110275500D01*
X148996158Y-110275500D01*
X149153844Y-110275500D01*
X149159902Y-110274903D01*
X149159938Y-110275276D01*
X149175862Y-110273781D01*
X149190012Y-110273911D01*
X149195943Y-110275501D01*
X149354058Y-110275501D01*
X149354062Y-110275500D01*
X154423331Y-110275500D01*
X154423347Y-110275501D01*
X154430943Y-110275501D01*
X154589054Y-110275501D01*
X154589057Y-110275501D01*
X154741785Y-110234577D01*
X154797500Y-110202409D01*
X154865398Y-110185936D01*
X154931425Y-110208787D01*
X154974617Y-110263708D01*
X154983500Y-110309796D01*
X154983500Y-112366473D01*
X154963815Y-112433512D01*
X154928391Y-112469575D01*
X154807710Y-112550210D01*
X154696213Y-112661707D01*
X154696210Y-112661711D01*
X154608609Y-112792814D01*
X154608602Y-112792827D01*
X154548264Y-112938498D01*
X154548261Y-112938510D01*
X154517500Y-113093153D01*
X154517500Y-113250846D01*
X154548261Y-113405489D01*
X154548264Y-113405501D01*
X154608602Y-113551172D01*
X154608609Y-113551185D01*
X154696210Y-113682288D01*
X154696213Y-113682292D01*
X154807707Y-113793786D01*
X154807711Y-113793789D01*
X154938814Y-113881390D01*
X154938827Y-113881397D01*
X155084498Y-113941735D01*
X155084503Y-113941737D01*
X155239153Y-113972499D01*
X155239156Y-113972500D01*
X155239158Y-113972500D01*
X155396844Y-113972500D01*
X155396845Y-113972499D01*
X155551497Y-113941737D01*
X155697179Y-113881394D01*
X155706606Y-113875094D01*
X155773282Y-113854215D01*
X155840663Y-113872697D01*
X155887355Y-113924674D01*
X155899500Y-113978195D01*
X155899500Y-114336823D01*
X155879815Y-114403862D01*
X155827011Y-114449617D01*
X155799693Y-114458440D01*
X155785507Y-114461261D01*
X155785498Y-114461264D01*
X155639827Y-114521602D01*
X155639814Y-114521609D01*
X155508711Y-114609210D01*
X155508707Y-114609213D01*
X155397213Y-114720707D01*
X155397210Y-114720711D01*
X155309609Y-114851814D01*
X155309602Y-114851827D01*
X155249264Y-114997498D01*
X155249261Y-114997510D01*
X155218500Y-115152153D01*
X155218500Y-115309846D01*
X155249261Y-115464489D01*
X155249264Y-115464501D01*
X155309602Y-115610172D01*
X155309609Y-115610185D01*
X155397210Y-115741288D01*
X155397213Y-115741292D01*
X155508707Y-115852786D01*
X155508711Y-115852789D01*
X155639814Y-115940390D01*
X155639827Y-115940397D01*
X155746846Y-115984725D01*
X155785503Y-116000737D01*
X155934548Y-116030384D01*
X155940153Y-116031499D01*
X155940156Y-116031500D01*
X155940158Y-116031500D01*
X156097844Y-116031500D01*
X156097845Y-116031499D01*
X156252497Y-116000737D01*
X156398179Y-115940394D01*
X156529289Y-115852789D01*
X156640789Y-115741289D01*
X156728394Y-115610179D01*
X156788737Y-115464497D01*
X156819500Y-115309842D01*
X156819500Y-115309840D01*
X156819637Y-115309152D01*
X156852021Y-115247241D01*
X156853505Y-115245729D01*
X156980520Y-115118716D01*
X157059577Y-114981784D01*
X157100501Y-114829057D01*
X157100501Y-114670942D01*
X157100501Y-114663347D01*
X157100500Y-114663329D01*
X157100500Y-103392404D01*
X157120185Y-103325365D01*
X157121362Y-103323566D01*
X157168394Y-103253179D01*
X157228737Y-103107497D01*
X157259500Y-102952842D01*
X157259500Y-102795158D01*
X157259500Y-102795155D01*
X157259499Y-102795153D01*
X157228737Y-102640503D01*
X157204833Y-102582792D01*
X157168397Y-102494827D01*
X157168390Y-102494814D01*
X157080789Y-102363711D01*
X157080786Y-102363707D01*
X156969292Y-102252213D01*
X156969288Y-102252210D01*
X156838185Y-102164609D01*
X156838172Y-102164602D01*
X156692501Y-102104264D01*
X156692489Y-102104261D01*
X156537845Y-102073500D01*
X156537842Y-102073500D01*
X156508500Y-102073500D01*
X156441461Y-102053815D01*
X156395706Y-102001011D01*
X156384500Y-101949500D01*
X156384500Y-101941155D01*
X156384499Y-101941153D01*
X156354896Y-101792331D01*
X156353737Y-101786503D01*
X156344029Y-101763066D01*
X156293397Y-101640827D01*
X156293390Y-101640814D01*
X156205789Y-101509711D01*
X156205786Y-101509707D01*
X156094292Y-101398213D01*
X156094288Y-101398210D01*
X155974545Y-101318200D01*
X155974496Y-101318168D01*
X155963179Y-101310606D01*
X155963172Y-101310602D01*
X155817501Y-101250264D01*
X155817489Y-101250261D01*
X155671155Y-101221153D01*
X158180500Y-101221153D01*
X158180500Y-101378846D01*
X158211261Y-101533489D01*
X158211264Y-101533501D01*
X158271602Y-101679172D01*
X158271609Y-101679185D01*
X158359210Y-101810288D01*
X158359213Y-101810292D01*
X158470707Y-101921786D01*
X158470711Y-101921789D01*
X158601814Y-102009390D01*
X158601827Y-102009397D01*
X158747498Y-102069735D01*
X158747503Y-102069737D01*
X158811244Y-102082416D01*
X158902849Y-102100638D01*
X158964760Y-102133023D01*
X158966339Y-102134574D01*
X160495181Y-103663416D01*
X160528666Y-103724739D01*
X160531500Y-103751097D01*
X160531500Y-112606234D01*
X160511815Y-112673273D01*
X160510602Y-112675125D01*
X160422609Y-112806814D01*
X160422602Y-112806827D01*
X160362264Y-112952498D01*
X160362261Y-112952510D01*
X160331500Y-113107153D01*
X160331500Y-113264846D01*
X160362261Y-113419489D01*
X160362264Y-113419501D01*
X160422602Y-113565172D01*
X160422609Y-113565185D01*
X160510210Y-113696288D01*
X160510213Y-113696292D01*
X160621707Y-113807786D01*
X160621711Y-113807789D01*
X160752814Y-113895390D01*
X160752827Y-113895397D01*
X160898498Y-113955735D01*
X160898503Y-113955737D01*
X161053153Y-113986499D01*
X161053156Y-113986500D01*
X161053158Y-113986500D01*
X161210844Y-113986500D01*
X161210845Y-113986499D01*
X161365497Y-113955737D01*
X161511179Y-113895394D01*
X161642289Y-113807789D01*
X161722943Y-113727135D01*
X176249500Y-113727135D01*
X176249500Y-115522870D01*
X176249501Y-115522876D01*
X176255908Y-115582483D01*
X176306202Y-115717328D01*
X176306206Y-115717335D01*
X176392452Y-115832544D01*
X176392455Y-115832547D01*
X176507664Y-115918793D01*
X176507671Y-115918797D01*
X176639082Y-115967810D01*
X176695016Y-116009681D01*
X176719433Y-116075145D01*
X176704582Y-116143418D01*
X176683431Y-116171673D01*
X176569889Y-116285215D01*
X176444951Y-116457179D01*
X176348444Y-116646585D01*
X176282753Y-116848760D01*
X176249500Y-117058713D01*
X176249500Y-117271286D01*
X176282689Y-117480838D01*
X176282754Y-117481243D01*
X176320134Y-117596287D01*
X176348444Y-117683414D01*
X176444951Y-117872820D01*
X176569890Y-118044786D01*
X176720213Y-118195109D01*
X176892179Y-118320048D01*
X176892181Y-118320049D01*
X176892184Y-118320051D01*
X177081588Y-118416557D01*
X177283757Y-118482246D01*
X177493713Y-118515500D01*
X177493714Y-118515500D01*
X177706286Y-118515500D01*
X177706287Y-118515500D01*
X177916243Y-118482246D01*
X178118412Y-118416557D01*
X178307816Y-118320051D01*
X178399931Y-118253126D01*
X178479786Y-118195109D01*
X178479788Y-118195106D01*
X178479792Y-118195104D01*
X178630104Y-118044792D01*
X178630106Y-118044788D01*
X178630109Y-118044786D01*
X178755048Y-117872820D01*
X178755047Y-117872820D01*
X178755051Y-117872816D01*
X178851557Y-117683412D01*
X178917246Y-117481243D01*
X178950500Y-117271287D01*
X178950500Y-117058713D01*
X178917246Y-116848757D01*
X178851557Y-116646588D01*
X178755051Y-116457184D01*
X178755049Y-116457181D01*
X178755048Y-116457179D01*
X178630109Y-116285213D01*
X178516569Y-116171673D01*
X178483084Y-116110350D01*
X178488068Y-116040658D01*
X178529940Y-115984725D01*
X178560915Y-115967810D01*
X178692331Y-115918796D01*
X178807546Y-115832546D01*
X178893796Y-115717331D01*
X178944091Y-115582483D01*
X178950500Y-115522873D01*
X178950499Y-113727128D01*
X178944091Y-113667517D01*
X178938138Y-113651557D01*
X178893797Y-113532671D01*
X178893793Y-113532664D01*
X178807547Y-113417455D01*
X178807544Y-113417452D01*
X178692335Y-113331206D01*
X178692328Y-113331202D01*
X178557482Y-113280908D01*
X178557483Y-113280908D01*
X178497883Y-113274501D01*
X178497881Y-113274500D01*
X178497873Y-113274500D01*
X178497864Y-113274500D01*
X176702129Y-113274500D01*
X176702123Y-113274501D01*
X176642516Y-113280908D01*
X176507671Y-113331202D01*
X176507664Y-113331206D01*
X176392455Y-113417452D01*
X176392452Y-113417455D01*
X176306206Y-113532664D01*
X176306202Y-113532671D01*
X176255908Y-113667517D01*
X176252815Y-113696292D01*
X176249501Y-113727123D01*
X176249500Y-113727135D01*
X161722943Y-113727135D01*
X161753789Y-113696289D01*
X161780276Y-113656649D01*
X161781435Y-113654915D01*
X161841390Y-113565185D01*
X161841390Y-113565184D01*
X161841394Y-113565179D01*
X161847191Y-113551185D01*
X161881414Y-113468562D01*
X161901737Y-113419497D01*
X161932500Y-113264842D01*
X161932500Y-113107158D01*
X161932500Y-113107155D01*
X161932499Y-113107153D01*
X161901738Y-112952510D01*
X161901737Y-112952503D01*
X161860372Y-112852638D01*
X161841397Y-112806827D01*
X161841390Y-112806814D01*
X161753398Y-112675125D01*
X161732520Y-112608447D01*
X161732500Y-112606234D01*
X161732500Y-110321153D01*
X166399500Y-110321153D01*
X166399500Y-110478846D01*
X166430261Y-110633489D01*
X166430264Y-110633501D01*
X166490602Y-110779172D01*
X166490609Y-110779185D01*
X166578210Y-110910288D01*
X166578213Y-110910292D01*
X166689707Y-111021786D01*
X166689711Y-111021789D01*
X166820814Y-111109390D01*
X166820827Y-111109397D01*
X166966498Y-111169735D01*
X166966503Y-111169737D01*
X167121153Y-111200499D01*
X167121156Y-111200500D01*
X167121158Y-111200500D01*
X167278844Y-111200500D01*
X167278845Y-111200499D01*
X167433497Y-111169737D01*
X167579179Y-111109394D01*
X167710289Y-111021789D01*
X167821789Y-110910289D01*
X167909394Y-110779179D01*
X167969193Y-110634808D01*
X167996068Y-110594587D01*
X168425113Y-110165543D01*
X168431811Y-110155520D01*
X168501775Y-110050811D01*
X168550521Y-109933127D01*
X168554580Y-109923329D01*
X168567816Y-109856785D01*
X168581500Y-109787993D01*
X168581500Y-99802135D01*
X176249500Y-99802135D01*
X176249500Y-101597870D01*
X176249501Y-101597876D01*
X176255908Y-101657483D01*
X176306202Y-101792328D01*
X176306206Y-101792335D01*
X176392452Y-101907544D01*
X176392455Y-101907547D01*
X176507664Y-101993793D01*
X176507671Y-101993797D01*
X176639082Y-102042810D01*
X176695016Y-102084681D01*
X176719433Y-102150145D01*
X176704582Y-102218418D01*
X176683431Y-102246673D01*
X176569889Y-102360215D01*
X176444951Y-102532179D01*
X176348444Y-102721585D01*
X176282753Y-102923760D01*
X176249500Y-103133713D01*
X176249500Y-103346286D01*
X176265208Y-103445466D01*
X176282754Y-103556243D01*
X176346066Y-103751097D01*
X176348444Y-103758414D01*
X176444951Y-103947820D01*
X176569890Y-104119786D01*
X176720213Y-104270109D01*
X176892179Y-104395048D01*
X176892181Y-104395049D01*
X176892184Y-104395051D01*
X177081588Y-104491557D01*
X177283757Y-104557246D01*
X177493713Y-104590500D01*
X177493714Y-104590500D01*
X177706286Y-104590500D01*
X177706287Y-104590500D01*
X177916243Y-104557246D01*
X178118412Y-104491557D01*
X178307816Y-104395051D01*
X178329789Y-104379086D01*
X178479786Y-104270109D01*
X178479788Y-104270106D01*
X178479792Y-104270104D01*
X178630104Y-104119792D01*
X178630106Y-104119788D01*
X178630109Y-104119786D01*
X178755048Y-103947820D01*
X178755047Y-103947820D01*
X178755051Y-103947816D01*
X178851557Y-103758412D01*
X178917246Y-103556243D01*
X178950500Y-103346287D01*
X178950500Y-103133713D01*
X178917246Y-102923757D01*
X178851557Y-102721588D01*
X178755051Y-102532184D01*
X178755049Y-102532181D01*
X178755048Y-102532179D01*
X178630109Y-102360213D01*
X178516569Y-102246673D01*
X178483084Y-102185350D01*
X178488068Y-102115658D01*
X178529940Y-102059725D01*
X178560915Y-102042810D01*
X178692331Y-101993796D01*
X178807546Y-101907546D01*
X178893796Y-101792331D01*
X178944091Y-101657483D01*
X178950500Y-101597873D01*
X178950499Y-99802128D01*
X178944091Y-99742517D01*
X178941310Y-99735062D01*
X178893797Y-99607671D01*
X178893793Y-99607664D01*
X178807547Y-99492455D01*
X178807544Y-99492452D01*
X178692335Y-99406206D01*
X178692328Y-99406202D01*
X178557482Y-99355908D01*
X178557483Y-99355908D01*
X178497883Y-99349501D01*
X178497881Y-99349500D01*
X178497873Y-99349500D01*
X178497864Y-99349500D01*
X176702129Y-99349500D01*
X176702123Y-99349501D01*
X176642516Y-99355908D01*
X176507671Y-99406202D01*
X176507664Y-99406206D01*
X176392455Y-99492452D01*
X176392452Y-99492455D01*
X176306206Y-99607664D01*
X176306202Y-99607671D01*
X176255908Y-99742517D01*
X176249501Y-99802116D01*
X176249501Y-99802123D01*
X176249500Y-99802135D01*
X168581500Y-99802135D01*
X168581500Y-95828516D01*
X168590939Y-95781064D01*
X168650735Y-95636701D01*
X168650737Y-95636697D01*
X168681500Y-95482042D01*
X168681500Y-95324358D01*
X168681500Y-95324355D01*
X168681499Y-95324353D01*
X168650738Y-95169710D01*
X168650737Y-95169703D01*
X168650735Y-95169698D01*
X168590397Y-95024027D01*
X168590390Y-95024014D01*
X168502789Y-94892911D01*
X168502786Y-94892907D01*
X168391292Y-94781413D01*
X168391288Y-94781410D01*
X168260185Y-94693809D01*
X168260172Y-94693802D01*
X168114501Y-94633464D01*
X168114489Y-94633461D01*
X167959845Y-94602700D01*
X167959842Y-94602700D01*
X167802158Y-94602700D01*
X167802155Y-94602700D01*
X167647510Y-94633461D01*
X167647498Y-94633464D01*
X167501827Y-94693802D01*
X167501814Y-94693809D01*
X167370711Y-94781410D01*
X167370707Y-94781413D01*
X167259213Y-94892907D01*
X167259210Y-94892911D01*
X167171609Y-95024014D01*
X167171602Y-95024027D01*
X167111264Y-95169698D01*
X167111261Y-95169710D01*
X167080500Y-95324353D01*
X167080500Y-95482046D01*
X167111261Y-95636689D01*
X167111264Y-95636701D01*
X167171061Y-95781064D01*
X167180500Y-95828516D01*
X167180500Y-109377480D01*
X167171855Y-109406920D01*
X167165332Y-109436907D01*
X167161577Y-109441922D01*
X167160815Y-109444519D01*
X167144181Y-109465162D01*
X167005413Y-109603929D01*
X166965185Y-109630808D01*
X166820824Y-109690604D01*
X166820814Y-109690609D01*
X166689711Y-109778210D01*
X166689707Y-109778213D01*
X166578213Y-109889707D01*
X166578210Y-109889711D01*
X166490609Y-110020814D01*
X166490602Y-110020827D01*
X166430264Y-110166498D01*
X166430261Y-110166510D01*
X166399500Y-110321153D01*
X161732500Y-110321153D01*
X161732500Y-103371945D01*
X161732500Y-103371943D01*
X161691577Y-103219216D01*
X161691573Y-103219209D01*
X161612524Y-103082290D01*
X161612521Y-103082286D01*
X161612520Y-103082284D01*
X161500716Y-102970480D01*
X161500715Y-102970479D01*
X161496385Y-102966149D01*
X161496374Y-102966139D01*
X159815574Y-101285339D01*
X159782089Y-101224016D01*
X159781638Y-101221849D01*
X159762217Y-101124216D01*
X159750737Y-101066503D01*
X159717926Y-100987290D01*
X159690397Y-100920827D01*
X159690390Y-100920814D01*
X159602789Y-100789711D01*
X159602786Y-100789707D01*
X159491292Y-100678213D01*
X159491288Y-100678210D01*
X159360185Y-100590609D01*
X159360172Y-100590602D01*
X159214501Y-100530264D01*
X159214489Y-100530261D01*
X159059845Y-100499500D01*
X159059842Y-100499500D01*
X158902158Y-100499500D01*
X158902155Y-100499500D01*
X158747510Y-100530261D01*
X158747498Y-100530264D01*
X158601827Y-100590602D01*
X158601814Y-100590609D01*
X158470711Y-100678210D01*
X158470707Y-100678213D01*
X158359213Y-100789707D01*
X158359210Y-100789711D01*
X158271609Y-100920814D01*
X158271602Y-100920827D01*
X158211264Y-101066498D01*
X158211261Y-101066510D01*
X158180500Y-101221153D01*
X155671155Y-101221153D01*
X155662845Y-101219500D01*
X155662842Y-101219500D01*
X155505158Y-101219500D01*
X155505155Y-101219500D01*
X155350510Y-101250261D01*
X155350498Y-101250264D01*
X155204827Y-101310602D01*
X155204814Y-101310609D01*
X155073711Y-101398210D01*
X155073707Y-101398213D01*
X154962213Y-101509707D01*
X154962210Y-101509711D01*
X154874609Y-101640814D01*
X154874602Y-101640827D01*
X154814264Y-101786498D01*
X154814261Y-101786510D01*
X154783500Y-101941153D01*
X154783500Y-102098846D01*
X154814261Y-102253489D01*
X154814264Y-102253501D01*
X154874602Y-102399172D01*
X154874609Y-102399185D01*
X154962602Y-102530874D01*
X154983480Y-102597551D01*
X154983500Y-102599765D01*
X154983500Y-108382500D01*
X154963815Y-108449539D01*
X154911011Y-108495294D01*
X154859500Y-108506500D01*
X154799155Y-108506500D01*
X154644510Y-108537261D01*
X154644498Y-108537264D01*
X154498827Y-108597602D01*
X154498814Y-108597609D01*
X154367711Y-108685210D01*
X154367707Y-108685213D01*
X154256213Y-108796707D01*
X154256210Y-108796711D01*
X154168609Y-108927814D01*
X154168604Y-108927824D01*
X154139556Y-108997953D01*
X154095715Y-109052356D01*
X154029421Y-109074421D01*
X154024995Y-109074500D01*
X152854500Y-109074500D01*
X152787461Y-109054815D01*
X152741706Y-109002011D01*
X152730500Y-108950500D01*
X152730500Y-108852155D01*
X152730499Y-108852153D01*
X152713799Y-108768198D01*
X152699737Y-108697503D01*
X152685912Y-108664127D01*
X152639397Y-108551827D01*
X152639390Y-108551814D01*
X152551398Y-108420125D01*
X152530520Y-108353447D01*
X152530500Y-108351234D01*
X152530500Y-102170097D01*
X152550185Y-102103058D01*
X152566819Y-102082416D01*
X155812417Y-98836819D01*
X155873740Y-98803334D01*
X155900098Y-98800500D01*
X161413331Y-98800500D01*
X161413347Y-98800501D01*
X161420943Y-98800501D01*
X161579054Y-98800501D01*
X161579057Y-98800501D01*
X161731785Y-98759577D01*
X161781904Y-98730639D01*
X161868716Y-98680520D01*
X161980520Y-98568716D01*
X161980520Y-98568714D01*
X161990728Y-98558507D01*
X161990729Y-98558504D01*
X166914662Y-93634572D01*
X166975983Y-93601089D01*
X166978150Y-93600638D01*
X167036085Y-93589113D01*
X167133497Y-93569737D01*
X167279179Y-93509394D01*
X167410289Y-93421789D01*
X167521789Y-93310289D01*
X167609394Y-93179179D01*
X167669737Y-93033497D01*
X167700500Y-92878842D01*
X167700500Y-92721158D01*
X167700500Y-92721155D01*
X167700499Y-92721153D01*
X167669738Y-92566510D01*
X167669738Y-92566508D01*
X167669737Y-92566503D01*
X167669735Y-92566498D01*
X167609397Y-92420827D01*
X167609390Y-92420814D01*
X167521789Y-92289711D01*
X167521786Y-92289707D01*
X167410292Y-92178213D01*
X167410288Y-92178210D01*
X167279185Y-92090609D01*
X167279172Y-92090602D01*
X167133501Y-92030264D01*
X167133489Y-92030261D01*
X166978845Y-91999500D01*
X166978842Y-91999500D01*
X166821158Y-91999500D01*
X166821155Y-91999500D01*
X166666510Y-92030261D01*
X166666498Y-92030264D01*
X166520827Y-92090602D01*
X166520814Y-92090609D01*
X166389711Y-92178210D01*
X166389707Y-92178213D01*
X166278213Y-92289707D01*
X166278210Y-92289711D01*
X166190609Y-92420814D01*
X166190602Y-92420827D01*
X166130264Y-92566498D01*
X166130261Y-92566508D01*
X166099361Y-92721850D01*
X166066976Y-92783761D01*
X166065425Y-92785339D01*
X161287584Y-97563181D01*
X161226261Y-97596666D01*
X161199903Y-97599500D01*
X155686670Y-97599500D01*
X155686654Y-97599499D01*
X155679058Y-97599499D01*
X155520943Y-97599499D01*
X155444579Y-97619961D01*
X155368214Y-97640423D01*
X155368209Y-97640426D01*
X155231290Y-97719475D01*
X155231282Y-97719481D01*
X151449481Y-101501282D01*
X151449477Y-101501287D01*
X151419975Y-101552388D01*
X151404702Y-101578842D01*
X151370423Y-101638215D01*
X151329499Y-101790943D01*
X151329499Y-101790945D01*
X151329499Y-101959046D01*
X151329500Y-101959059D01*
X151329500Y-108351234D01*
X151309815Y-108418273D01*
X151308602Y-108420125D01*
X151220609Y-108551814D01*
X151220602Y-108551827D01*
X151160264Y-108697498D01*
X151160261Y-108697510D01*
X151129500Y-108852153D01*
X151129500Y-108950500D01*
X151109815Y-109017539D01*
X151057011Y-109063294D01*
X151005500Y-109074500D01*
X149836427Y-109074500D01*
X149769388Y-109054815D01*
X149733325Y-109019390D01*
X149696792Y-108964715D01*
X149696786Y-108964707D01*
X149585292Y-108853213D01*
X149585288Y-108853210D01*
X149454185Y-108765609D01*
X149454172Y-108765602D01*
X149308501Y-108705264D01*
X149308489Y-108705261D01*
X149153845Y-108674500D01*
X149153842Y-108674500D01*
X148996158Y-108674500D01*
X148996155Y-108674500D01*
X148841510Y-108705261D01*
X148841498Y-108705264D01*
X148695827Y-108765602D01*
X148695814Y-108765609D01*
X148693391Y-108767229D01*
X148691927Y-108767687D01*
X148690446Y-108768479D01*
X148690295Y-108768198D01*
X148626713Y-108788107D01*
X148559333Y-108769622D01*
X148512643Y-108717644D01*
X148500500Y-108664127D01*
X148500500Y-107495944D01*
X148500499Y-107495937D01*
X148492546Y-107466256D01*
X148459577Y-107343215D01*
X148421244Y-107276821D01*
X148380520Y-107206284D01*
X148268716Y-107094480D01*
X148264385Y-107090149D01*
X148264374Y-107090139D01*
X147487590Y-106313355D01*
X147487588Y-106313352D01*
X147368717Y-106194481D01*
X147368716Y-106194480D01*
X147281904Y-106144360D01*
X147281904Y-106144359D01*
X147281900Y-106144358D01*
X147231785Y-106115423D01*
X147079057Y-106074499D01*
X146920943Y-106074499D01*
X146913347Y-106074499D01*
X146913331Y-106074500D01*
X146095941Y-106074500D01*
X146064992Y-106082792D01*
X146064993Y-106082793D01*
X145943215Y-106115423D01*
X145842499Y-106173571D01*
X145774599Y-106190042D01*
X145708572Y-106167190D01*
X145665382Y-106112268D01*
X145656500Y-106066183D01*
X145656500Y-101276941D01*
X145654161Y-101268213D01*
X145654160Y-101268211D01*
X145641108Y-101219501D01*
X145641108Y-101219500D01*
X145633607Y-101191507D01*
X145615577Y-101124216D01*
X145568177Y-101042116D01*
X145536524Y-100987290D01*
X145536521Y-100987286D01*
X145536520Y-100987284D01*
X145424716Y-100875480D01*
X145424715Y-100875479D01*
X145420385Y-100871149D01*
X145420374Y-100871139D01*
X145059574Y-100510339D01*
X145026089Y-100449016D01*
X145025638Y-100446849D01*
X145007595Y-100356147D01*
X144994737Y-100291503D01*
X144936125Y-100150000D01*
X144934397Y-100145827D01*
X144934390Y-100145814D01*
X144846789Y-100014711D01*
X144846786Y-100014707D01*
X144735292Y-99903213D01*
X144735288Y-99903210D01*
X144604185Y-99815609D01*
X144604172Y-99815602D01*
X144458501Y-99755264D01*
X144458489Y-99755261D01*
X144303845Y-99724500D01*
X144303842Y-99724500D01*
X144146158Y-99724500D01*
X144146153Y-99724500D01*
X144098691Y-99733941D01*
X144077707Y-99732063D01*
X144056853Y-99735062D01*
X144043605Y-99729012D01*
X144029099Y-99727714D01*
X144012460Y-99714788D01*
X143993297Y-99706037D01*
X143985423Y-99693785D01*
X143973922Y-99684851D01*
X143966912Y-99664982D01*
X143955523Y-99647259D01*
X143951988Y-99622675D01*
X143950678Y-99618961D01*
X143950500Y-99612324D01*
X143950500Y-99400097D01*
X143970185Y-99333058D01*
X143986819Y-99312416D01*
X146662416Y-96636819D01*
X146723739Y-96603334D01*
X146750097Y-96600500D01*
X158120234Y-96600500D01*
X158187273Y-96620185D01*
X158189125Y-96621398D01*
X158320814Y-96709390D01*
X158320827Y-96709397D01*
X158439326Y-96758480D01*
X158466503Y-96769737D01*
X158621153Y-96800499D01*
X158621156Y-96800500D01*
X158621158Y-96800500D01*
X158778844Y-96800500D01*
X158778845Y-96800499D01*
X158933497Y-96769737D01*
X159079179Y-96709394D01*
X159210289Y-96621789D01*
X159321789Y-96510289D01*
X159409394Y-96379179D01*
X159469737Y-96233497D01*
X159500500Y-96078842D01*
X159500500Y-95921158D01*
X159500500Y-95921155D01*
X159500499Y-95921153D01*
X159497403Y-95905589D01*
X159469737Y-95766503D01*
X159469735Y-95766498D01*
X159409397Y-95620827D01*
X159409390Y-95620814D01*
X159321789Y-95489711D01*
X159321786Y-95489707D01*
X159210292Y-95378213D01*
X159210288Y-95378210D01*
X159079185Y-95290609D01*
X159079172Y-95290602D01*
X158933501Y-95230264D01*
X158933489Y-95230261D01*
X158778845Y-95199500D01*
X158778842Y-95199500D01*
X158621158Y-95199500D01*
X158621155Y-95199500D01*
X158466510Y-95230261D01*
X158466498Y-95230264D01*
X158320827Y-95290602D01*
X158320814Y-95290609D01*
X158189125Y-95378602D01*
X158122447Y-95399480D01*
X158120234Y-95399500D01*
X146536669Y-95399500D01*
X146536653Y-95399499D01*
X146529057Y-95399499D01*
X146370943Y-95399499D01*
X146256397Y-95430192D01*
X146218214Y-95440423D01*
X146171717Y-95467269D01*
X146171716Y-95467269D01*
X146081287Y-95519477D01*
X146081282Y-95519481D01*
X142869481Y-98731282D01*
X142869480Y-98731284D01*
X142829518Y-98800501D01*
X142790423Y-98868215D01*
X142749499Y-99020943D01*
X142749499Y-99020945D01*
X142749499Y-99189046D01*
X142749500Y-99189059D01*
X142749500Y-110925500D01*
X142729815Y-110992539D01*
X142677011Y-111038294D01*
X142625500Y-111049500D01*
X141045500Y-111049500D01*
X140978461Y-111029815D01*
X140932706Y-110977011D01*
X140921500Y-110925500D01*
X140921500Y-108081316D01*
X140930939Y-108033864D01*
X140959478Y-107964963D01*
X140990737Y-107889497D01*
X141021500Y-107734842D01*
X141021500Y-107577158D01*
X141021500Y-107577155D01*
X141021499Y-107577153D01*
X141016098Y-107550000D01*
X140990737Y-107422503D01*
X140990735Y-107422498D01*
X140930397Y-107276828D01*
X140930394Y-107276822D01*
X140930394Y-107276821D01*
X140930388Y-107276812D01*
X140921397Y-107263355D01*
X140900520Y-107196678D01*
X140900500Y-107194466D01*
X140900500Y-95938416D01*
X140902126Y-95930240D01*
X140901210Y-95925162D01*
X140909939Y-95890964D01*
X140948681Y-95797432D01*
X140969192Y-95747910D01*
X140996069Y-95707686D01*
X142223638Y-94480119D01*
X142284961Y-94446634D01*
X142311319Y-94443800D01*
X154425696Y-94443800D01*
X154516740Y-94425689D01*
X154561028Y-94416880D01*
X154624769Y-94390477D01*
X154688507Y-94364077D01*
X154688508Y-94364076D01*
X154688511Y-94364075D01*
X154803243Y-94287414D01*
X158253838Y-90836819D01*
X158315161Y-90803334D01*
X158341519Y-90800500D01*
X169858481Y-90800500D01*
X169925520Y-90820185D01*
X169946162Y-90836819D01*
X175903928Y-96794585D01*
X175930808Y-96834814D01*
X175990602Y-96979172D01*
X175990609Y-96979185D01*
X176078210Y-97110288D01*
X176078213Y-97110292D01*
X176189707Y-97221786D01*
X176189711Y-97221789D01*
X176320814Y-97309390D01*
X176320827Y-97309397D01*
X176466498Y-97369735D01*
X176466503Y-97369737D01*
X176621153Y-97400499D01*
X176621156Y-97400500D01*
X176621158Y-97400500D01*
X176778844Y-97400500D01*
X176778845Y-97400499D01*
X176933497Y-97369737D01*
X177079179Y-97309394D01*
X177210289Y-97221789D01*
X177321789Y-97110289D01*
X177409394Y-96979179D01*
X177469737Y-96833497D01*
X177500500Y-96678842D01*
X177500500Y-96521158D01*
X177500500Y-96521155D01*
X177500499Y-96521153D01*
X177496291Y-96500000D01*
X177469737Y-96366503D01*
X177450292Y-96319558D01*
X177409397Y-96220827D01*
X177409390Y-96220814D01*
X177321789Y-96089711D01*
X177321786Y-96089707D01*
X177210292Y-95978213D01*
X177210288Y-95978210D01*
X177079185Y-95890609D01*
X177079172Y-95890602D01*
X176934814Y-95830808D01*
X176894585Y-95803928D01*
X172422145Y-91331487D01*
X172337793Y-91247135D01*
X182007000Y-91247135D01*
X182007000Y-94142870D01*
X182007001Y-94142876D01*
X182013408Y-94202483D01*
X182063702Y-94337328D01*
X182063706Y-94337335D01*
X182149952Y-94452544D01*
X182149955Y-94452547D01*
X182265164Y-94538793D01*
X182265171Y-94538797D01*
X182310118Y-94555561D01*
X182400017Y-94589091D01*
X182459627Y-94595500D01*
X182519923Y-94595499D01*
X182586961Y-94615183D01*
X182632717Y-94667986D01*
X182642661Y-94737144D01*
X182613637Y-94800700D01*
X182607605Y-94807180D01*
X182475559Y-94939226D01*
X182323900Y-95136873D01*
X182199337Y-95352623D01*
X182199330Y-95352638D01*
X182103998Y-95582792D01*
X182039517Y-95823438D01*
X182007001Y-96070424D01*
X182007000Y-96070441D01*
X182007000Y-96319558D01*
X182007001Y-96319575D01*
X182034893Y-96531439D01*
X182039518Y-96566565D01*
X182054315Y-96621789D01*
X182103998Y-96807207D01*
X182199330Y-97037361D01*
X182199337Y-97037376D01*
X182323900Y-97253126D01*
X182475560Y-97450774D01*
X182475566Y-97450781D01*
X182651718Y-97626933D01*
X182651725Y-97626939D01*
X182849373Y-97778599D01*
X182951588Y-97837613D01*
X182999803Y-97888180D01*
X183013027Y-97956787D01*
X182987059Y-98021652D01*
X182951588Y-98052387D01*
X182849373Y-98111400D01*
X182651725Y-98263060D01*
X182651718Y-98263066D01*
X182475566Y-98439218D01*
X182475560Y-98439225D01*
X182323900Y-98636873D01*
X182199337Y-98852623D01*
X182199330Y-98852638D01*
X182103998Y-99082792D01*
X182039517Y-99323438D01*
X182007001Y-99570424D01*
X182007000Y-99570441D01*
X182007000Y-99819558D01*
X182007001Y-99819575D01*
X182039517Y-100066561D01*
X182103998Y-100307207D01*
X182199330Y-100537361D01*
X182199337Y-100537376D01*
X182323900Y-100753126D01*
X182475560Y-100950774D01*
X182475566Y-100950781D01*
X182651718Y-101126933D01*
X182651725Y-101126939D01*
X182849373Y-101278599D01*
X182951588Y-101337613D01*
X182999803Y-101388180D01*
X183013027Y-101456787D01*
X182987059Y-101521652D01*
X182951588Y-101552387D01*
X182849373Y-101611400D01*
X182651725Y-101763060D01*
X182651718Y-101763066D01*
X182475566Y-101939218D01*
X182475560Y-101939225D01*
X182323900Y-102136873D01*
X182199337Y-102352623D01*
X182199330Y-102352638D01*
X182103998Y-102582792D01*
X182039517Y-102823438D01*
X182007001Y-103070424D01*
X182007000Y-103070441D01*
X182007000Y-103319558D01*
X182007001Y-103319575D01*
X182039517Y-103566561D01*
X182103998Y-103807207D01*
X182199330Y-104037361D01*
X182199337Y-104037376D01*
X182323900Y-104253126D01*
X182475560Y-104450774D01*
X182475566Y-104450781D01*
X182651718Y-104626933D01*
X182651725Y-104626939D01*
X182849373Y-104778599D01*
X182951588Y-104837613D01*
X182999803Y-104888180D01*
X183013027Y-104956787D01*
X182987059Y-105021652D01*
X182951588Y-105052387D01*
X182849373Y-105111400D01*
X182651725Y-105263060D01*
X182651718Y-105263066D01*
X182475566Y-105439218D01*
X182475560Y-105439225D01*
X182323900Y-105636873D01*
X182199337Y-105852623D01*
X182199330Y-105852638D01*
X182103998Y-106082792D01*
X182039517Y-106323438D01*
X182007001Y-106570424D01*
X182007000Y-106570441D01*
X182007000Y-106819558D01*
X182007001Y-106819575D01*
X182027584Y-106975922D01*
X182039518Y-107066565D01*
X182073789Y-107194466D01*
X182103998Y-107307207D01*
X182199330Y-107537361D01*
X182199337Y-107537376D01*
X182323900Y-107753126D01*
X182475560Y-107950774D01*
X182475566Y-107950781D01*
X182651718Y-108126933D01*
X182651725Y-108126939D01*
X182849373Y-108278599D01*
X182951588Y-108337613D01*
X182999803Y-108388180D01*
X183013027Y-108456787D01*
X182987059Y-108521652D01*
X182951588Y-108552387D01*
X182849373Y-108611400D01*
X182651725Y-108763060D01*
X182651718Y-108763066D01*
X182475566Y-108939218D01*
X182475560Y-108939225D01*
X182323900Y-109136873D01*
X182199337Y-109352623D01*
X182199330Y-109352638D01*
X182103998Y-109582792D01*
X182039517Y-109823438D01*
X182007001Y-110070424D01*
X182007000Y-110070441D01*
X182007000Y-110319558D01*
X182007001Y-110319575D01*
X182027969Y-110478846D01*
X182039518Y-110566565D01*
X182057805Y-110634814D01*
X182103998Y-110807207D01*
X182199330Y-111037361D01*
X182199337Y-111037376D01*
X182323900Y-111253126D01*
X182475560Y-111450774D01*
X182475566Y-111450781D01*
X182651718Y-111626933D01*
X182651725Y-111626939D01*
X182849373Y-111778599D01*
X182951588Y-111837613D01*
X182999803Y-111888180D01*
X183013027Y-111956787D01*
X182987059Y-112021652D01*
X182951588Y-112052387D01*
X182849373Y-112111400D01*
X182651725Y-112263060D01*
X182651718Y-112263066D01*
X182475566Y-112439218D01*
X182475560Y-112439225D01*
X182323900Y-112636873D01*
X182199337Y-112852623D01*
X182199330Y-112852638D01*
X182103998Y-113082792D01*
X182039517Y-113323438D01*
X182007001Y-113570424D01*
X182007000Y-113570441D01*
X182007000Y-113819558D01*
X182007001Y-113819575D01*
X182039517Y-114066561D01*
X182103998Y-114307207D01*
X182199330Y-114537361D01*
X182199337Y-114537376D01*
X182323900Y-114753126D01*
X182475560Y-114950774D01*
X182475566Y-114950781D01*
X182651718Y-115126933D01*
X182651725Y-115126939D01*
X182849373Y-115278599D01*
X182951588Y-115337613D01*
X182999803Y-115388180D01*
X183013027Y-115456787D01*
X182987059Y-115521652D01*
X182951588Y-115552387D01*
X182849373Y-115611400D01*
X182651725Y-115763060D01*
X182651718Y-115763066D01*
X182475566Y-115939218D01*
X182475560Y-115939225D01*
X182323900Y-116136873D01*
X182199337Y-116352623D01*
X182199330Y-116352638D01*
X182103998Y-116582792D01*
X182039517Y-116823438D01*
X182007001Y-117070424D01*
X182007000Y-117070441D01*
X182007000Y-117319558D01*
X182007001Y-117319575D01*
X182039517Y-117566561D01*
X182103998Y-117807207D01*
X182199330Y-118037361D01*
X182199337Y-118037376D01*
X182323900Y-118253126D01*
X182475560Y-118450774D01*
X182475566Y-118450781D01*
X182651718Y-118626933D01*
X182651725Y-118626939D01*
X182849373Y-118778599D01*
X183065123Y-118903162D01*
X183065138Y-118903169D01*
X183164325Y-118944253D01*
X183295293Y-118998502D01*
X183535935Y-119062982D01*
X183782935Y-119095500D01*
X183782942Y-119095500D01*
X184032058Y-119095500D01*
X184032065Y-119095500D01*
X184279065Y-119062982D01*
X184519707Y-118998502D01*
X184749873Y-118903164D01*
X184965627Y-118778599D01*
X185163276Y-118626938D01*
X185339438Y-118450776D01*
X185491099Y-118253127D01*
X185615664Y-118037373D01*
X185711002Y-117807207D01*
X185775482Y-117566565D01*
X185808000Y-117319565D01*
X185808000Y-117070435D01*
X185775482Y-116823435D01*
X185711002Y-116582793D01*
X185649768Y-116434962D01*
X185615669Y-116352638D01*
X185615662Y-116352623D01*
X185491099Y-116136873D01*
X185339439Y-115939225D01*
X185339433Y-115939218D01*
X185163281Y-115763066D01*
X185163274Y-115763060D01*
X184965628Y-115611401D01*
X184913708Y-115581426D01*
X184863410Y-115552386D01*
X184815196Y-115501821D01*
X184801972Y-115433214D01*
X184827940Y-115368349D01*
X184863410Y-115337613D01*
X184965627Y-115278599D01*
X185163276Y-115126938D01*
X185339438Y-114950776D01*
X185491099Y-114753127D01*
X185615664Y-114537373D01*
X185711002Y-114307207D01*
X185775482Y-114066565D01*
X185808000Y-113819565D01*
X185808000Y-113570435D01*
X185775482Y-113323435D01*
X185711002Y-113082793D01*
X185615664Y-112852627D01*
X185589221Y-112806827D01*
X185491099Y-112636873D01*
X185339439Y-112439225D01*
X185339433Y-112439218D01*
X185163281Y-112263066D01*
X185163274Y-112263060D01*
X184965628Y-112111401D01*
X184913708Y-112081426D01*
X184863410Y-112052386D01*
X184815196Y-112001821D01*
X184801972Y-111933214D01*
X184827940Y-111868349D01*
X184863410Y-111837613D01*
X184965627Y-111778599D01*
X185163276Y-111626938D01*
X185339438Y-111450776D01*
X185491099Y-111253127D01*
X185615664Y-111037373D01*
X185711002Y-110807207D01*
X185775482Y-110566565D01*
X185808000Y-110319565D01*
X185808000Y-110070435D01*
X185775482Y-109823435D01*
X185711002Y-109582793D01*
X185630530Y-109388516D01*
X185615669Y-109352638D01*
X185615662Y-109352623D01*
X185491099Y-109136873D01*
X185339439Y-108939225D01*
X185339433Y-108939218D01*
X185163281Y-108763066D01*
X185163274Y-108763060D01*
X184965628Y-108611401D01*
X184913708Y-108581426D01*
X184863410Y-108552386D01*
X184815196Y-108501821D01*
X184801972Y-108433214D01*
X184827940Y-108368349D01*
X184863410Y-108337613D01*
X184965627Y-108278599D01*
X185163276Y-108126938D01*
X185339438Y-107950776D01*
X185491099Y-107753127D01*
X185615664Y-107537373D01*
X185711002Y-107307207D01*
X185775482Y-107066565D01*
X185808000Y-106819565D01*
X185808000Y-106570435D01*
X185775482Y-106323435D01*
X185711002Y-106082793D01*
X185645427Y-105924480D01*
X185615669Y-105852638D01*
X185615662Y-105852623D01*
X185491099Y-105636873D01*
X185339439Y-105439225D01*
X185339433Y-105439218D01*
X185163281Y-105263066D01*
X185163274Y-105263060D01*
X184965628Y-105111401D01*
X184913708Y-105081426D01*
X184863410Y-105052386D01*
X184815196Y-105001821D01*
X184801972Y-104933214D01*
X184827940Y-104868349D01*
X184863410Y-104837613D01*
X184965627Y-104778599D01*
X185163276Y-104626938D01*
X185339438Y-104450776D01*
X185491099Y-104253127D01*
X185615664Y-104037373D01*
X185711002Y-103807207D01*
X185775482Y-103566565D01*
X185808000Y-103319565D01*
X185808000Y-103070435D01*
X185775482Y-102823435D01*
X185711002Y-102582793D01*
X185634949Y-102399185D01*
X185615669Y-102352638D01*
X185615662Y-102352623D01*
X185491099Y-102136873D01*
X185339439Y-101939225D01*
X185339433Y-101939218D01*
X185163281Y-101763066D01*
X185163274Y-101763060D01*
X184965628Y-101611401D01*
X184909233Y-101578842D01*
X184863410Y-101552386D01*
X184815196Y-101501821D01*
X184801972Y-101433214D01*
X184827940Y-101368349D01*
X184863410Y-101337613D01*
X184965627Y-101278599D01*
X185163276Y-101126938D01*
X185339438Y-100950776D01*
X185491099Y-100753127D01*
X185615664Y-100537373D01*
X185711002Y-100307207D01*
X185775482Y-100066565D01*
X185808000Y-99819565D01*
X185808000Y-99570435D01*
X185775482Y-99323435D01*
X185711002Y-99082793D01*
X185622120Y-98868213D01*
X185615669Y-98852638D01*
X185615662Y-98852623D01*
X185491099Y-98636873D01*
X185339439Y-98439225D01*
X185339433Y-98439218D01*
X185163281Y-98263066D01*
X185163274Y-98263060D01*
X184965628Y-98111401D01*
X184913708Y-98081426D01*
X184863410Y-98052386D01*
X184815196Y-98001821D01*
X184801972Y-97933214D01*
X184827940Y-97868349D01*
X184863410Y-97837613D01*
X184965627Y-97778599D01*
X185163276Y-97626938D01*
X185339438Y-97450776D01*
X185491099Y-97253127D01*
X185615664Y-97037373D01*
X185711002Y-96807207D01*
X185775482Y-96566565D01*
X185808000Y-96319565D01*
X185808000Y-96070435D01*
X185775482Y-95823435D01*
X185711002Y-95582793D01*
X185652030Y-95440423D01*
X185615669Y-95352638D01*
X185615662Y-95352623D01*
X185491099Y-95136873D01*
X185339439Y-94939225D01*
X185339433Y-94939218D01*
X185207395Y-94807180D01*
X185173910Y-94745857D01*
X185178894Y-94676165D01*
X185220766Y-94620232D01*
X185286230Y-94595815D01*
X185295076Y-94595499D01*
X185355371Y-94595499D01*
X185355372Y-94595499D01*
X185414983Y-94589091D01*
X185549831Y-94538796D01*
X185665046Y-94452546D01*
X185751296Y-94337331D01*
X185801591Y-94202483D01*
X185808000Y-94142873D01*
X185807999Y-91247128D01*
X185801591Y-91187517D01*
X185784480Y-91141641D01*
X185751297Y-91052671D01*
X185751293Y-91052664D01*
X185665047Y-90937455D01*
X185665044Y-90937452D01*
X185549835Y-90851206D01*
X185549828Y-90851202D01*
X185414982Y-90800908D01*
X185414983Y-90800908D01*
X185355383Y-90794501D01*
X185355381Y-90794500D01*
X185355373Y-90794500D01*
X185355364Y-90794500D01*
X182459629Y-90794500D01*
X182459623Y-90794501D01*
X182400016Y-90800908D01*
X182265171Y-90851202D01*
X182265164Y-90851206D01*
X182149955Y-90937452D01*
X182149952Y-90937455D01*
X182063706Y-91052664D01*
X182063702Y-91052671D01*
X182013408Y-91187517D01*
X182007001Y-91247116D01*
X182007001Y-91247123D01*
X182007000Y-91247135D01*
X172337793Y-91247135D01*
X170646545Y-89555887D01*
X170531807Y-89479222D01*
X170404332Y-89426421D01*
X170404322Y-89426418D01*
X170268996Y-89399500D01*
X170268994Y-89399500D01*
X170268993Y-89399500D01*
X157931007Y-89399500D01*
X157931003Y-89399500D01*
X157822590Y-89421065D01*
X157822589Y-89421065D01*
X157795681Y-89426418D01*
X157795671Y-89426420D01*
X157668190Y-89479224D01*
X157553454Y-89555887D01*
X157553453Y-89555888D01*
X154102862Y-93006481D01*
X154041539Y-93039966D01*
X154015181Y-93042800D01*
X141900803Y-93042800D01*
X141792390Y-93064365D01*
X141792389Y-93064365D01*
X141765471Y-93069720D01*
X141637990Y-93122524D01*
X141523254Y-93199187D01*
X141523253Y-93199188D01*
X141062181Y-93660261D01*
X141000858Y-93693746D01*
X140931166Y-93688762D01*
X140875233Y-93646890D01*
X140850816Y-93581426D01*
X140850500Y-93572580D01*
X140850500Y-89865602D01*
X150449500Y-89865602D01*
X150449500Y-90134397D01*
X150484582Y-90400880D01*
X150484583Y-90400885D01*
X150484584Y-90400891D01*
X150484585Y-90400893D01*
X150554152Y-90660524D01*
X150657011Y-90908850D01*
X150657019Y-90908866D01*
X150737830Y-91048832D01*
X150791413Y-91141641D01*
X150791415Y-91141644D01*
X150791416Y-91141645D01*
X150955042Y-91354888D01*
X150955048Y-91354895D01*
X151145104Y-91544951D01*
X151145110Y-91544956D01*
X151358359Y-91708587D01*
X151507968Y-91794964D01*
X151591133Y-91842980D01*
X151591149Y-91842988D01*
X151746008Y-91907132D01*
X151839474Y-91945847D01*
X152099109Y-92015416D01*
X152287319Y-92040193D01*
X152365602Y-92050500D01*
X152365603Y-92050500D01*
X152634398Y-92050500D01*
X152694905Y-92042534D01*
X152900891Y-92015416D01*
X153160526Y-91945847D01*
X153347457Y-91868417D01*
X153408850Y-91842988D01*
X153408853Y-91842986D01*
X153408859Y-91842984D01*
X153641641Y-91708587D01*
X153854890Y-91544956D01*
X154044956Y-91354890D01*
X154208587Y-91141641D01*
X154342984Y-90908859D01*
X154445847Y-90660526D01*
X154515416Y-90400891D01*
X154550500Y-90134397D01*
X154550500Y-89865603D01*
X154515416Y-89599109D01*
X154445847Y-89339474D01*
X154407132Y-89246008D01*
X154342988Y-89091149D01*
X154342980Y-89091133D01*
X154278781Y-88979939D01*
X154208587Y-88858359D01*
X154044956Y-88645110D01*
X154044951Y-88645104D01*
X153854895Y-88455048D01*
X153854888Y-88455042D01*
X153641645Y-88291416D01*
X153641644Y-88291415D01*
X153641641Y-88291413D01*
X153548832Y-88237830D01*
X153408866Y-88157019D01*
X153408850Y-88157011D01*
X153160524Y-88054152D01*
X153030708Y-88019368D01*
X152900891Y-87984584D01*
X152900885Y-87984583D01*
X152900880Y-87984582D01*
X152634398Y-87949500D01*
X152634397Y-87949500D01*
X152365603Y-87949500D01*
X152365602Y-87949500D01*
X152099119Y-87984582D01*
X152099112Y-87984583D01*
X152099109Y-87984584D01*
X152044239Y-87999286D01*
X151839475Y-88054152D01*
X151591149Y-88157011D01*
X151591133Y-88157019D01*
X151358354Y-88291416D01*
X151145111Y-88455042D01*
X151145104Y-88455048D01*
X150955048Y-88645104D01*
X150955042Y-88645111D01*
X150791416Y-88858354D01*
X150657019Y-89091133D01*
X150657011Y-89091149D01*
X150554152Y-89339475D01*
X150484585Y-89599106D01*
X150484582Y-89599119D01*
X150449500Y-89865602D01*
X140850500Y-89865602D01*
X140850500Y-89004604D01*
X140859939Y-88957151D01*
X140869737Y-88933497D01*
X140900500Y-88778842D01*
X140900500Y-88621158D01*
X140900500Y-88621155D01*
X140900499Y-88621153D01*
X140869738Y-88466510D01*
X140869737Y-88466503D01*
X140864990Y-88455042D01*
X140809397Y-88320827D01*
X140809390Y-88320814D01*
X140721789Y-88189711D01*
X140721786Y-88189707D01*
X140610292Y-88078213D01*
X140610288Y-88078210D01*
X140479185Y-87990609D01*
X140479172Y-87990602D01*
X140333501Y-87930264D01*
X140333489Y-87930261D01*
X140178845Y-87899500D01*
X140178842Y-87899500D01*
X140021158Y-87899500D01*
X140021155Y-87899500D01*
X139866510Y-87930261D01*
X139866498Y-87930264D01*
X139720827Y-87990602D01*
X139720814Y-87990609D01*
X139589711Y-88078210D01*
X139589707Y-88078213D01*
X139478213Y-88189707D01*
X139478210Y-88189711D01*
X139390609Y-88320814D01*
X139390602Y-88320827D01*
X139330264Y-88466498D01*
X139330261Y-88466510D01*
X139299500Y-88621153D01*
X139299500Y-88778846D01*
X139330261Y-88933489D01*
X139330263Y-88933497D01*
X139340061Y-88957151D01*
X139349500Y-89004604D01*
X139349500Y-95487018D01*
X139349500Y-95487020D01*
X139349499Y-95487020D01*
X139378340Y-95632007D01*
X139378342Y-95632013D01*
X139434915Y-95768594D01*
X139434917Y-95768598D01*
X139439861Y-95775996D01*
X139451318Y-95797430D01*
X139490061Y-95890965D01*
X139499500Y-95938415D01*
X139499500Y-107281383D01*
X139490061Y-107328835D01*
X139451263Y-107422501D01*
X139451260Y-107422511D01*
X139420500Y-107577153D01*
X139420500Y-107734846D01*
X139451261Y-107889489D01*
X139451264Y-107889501D01*
X139511061Y-108033864D01*
X139520500Y-108081316D01*
X139520500Y-117727006D01*
X139520500Y-117864994D01*
X139520500Y-117864996D01*
X139520499Y-117864996D01*
X139547418Y-118000322D01*
X139547421Y-118000332D01*
X139600222Y-118127807D01*
X139676887Y-118242545D01*
X139676888Y-118242546D01*
X140153348Y-118719005D01*
X140175369Y-118751959D01*
X140176351Y-118751435D01*
X140179222Y-118756805D01*
X140179223Y-118756807D01*
X140179225Y-118756811D01*
X140223125Y-118822512D01*
X140255887Y-118871545D01*
X140255888Y-118871546D01*
X140853928Y-119469585D01*
X140880808Y-119509814D01*
X140940602Y-119654172D01*
X140940609Y-119654185D01*
X141028210Y-119785288D01*
X141028213Y-119785292D01*
X141139707Y-119896786D01*
X141139711Y-119896789D01*
X141270814Y-119984390D01*
X141270827Y-119984397D01*
X141416498Y-120044735D01*
X141416503Y-120044737D01*
X141571153Y-120075499D01*
X141571156Y-120075500D01*
X141571158Y-120075500D01*
X141728844Y-120075500D01*
X141728845Y-120075499D01*
X141883497Y-120044737D01*
X142029179Y-119984394D01*
X142160289Y-119896789D01*
X142271789Y-119785289D01*
X142359394Y-119654179D01*
X142419737Y-119508497D01*
X142450500Y-119353842D01*
X142450500Y-119196158D01*
X142450500Y-119196155D01*
X142450499Y-119196153D01*
X142441360Y-119150208D01*
X142419737Y-119041503D01*
X142402503Y-118999896D01*
X142359397Y-118895827D01*
X142359390Y-118895814D01*
X142271789Y-118764711D01*
X142271786Y-118764707D01*
X142160292Y-118653213D01*
X142160288Y-118653210D01*
X142029185Y-118565609D01*
X142029172Y-118565602D01*
X141884814Y-118505808D01*
X141844585Y-118478928D01*
X141446651Y-118080994D01*
X141424632Y-118048036D01*
X141423648Y-118048563D01*
X141420778Y-118043194D01*
X141378900Y-117980519D01*
X141344114Y-117928457D01*
X141344112Y-117928454D01*
X140957819Y-117542161D01*
X140924334Y-117480838D01*
X140921500Y-117454480D01*
X140921500Y-113874499D01*
X140941185Y-113807460D01*
X140993989Y-113761705D01*
X141045495Y-113750499D01*
X142722872Y-113750499D01*
X142782483Y-113744091D01*
X142917331Y-113693796D01*
X143032546Y-113607546D01*
X143118796Y-113492331D01*
X143167810Y-113360916D01*
X143209681Y-113304984D01*
X143275145Y-113280566D01*
X143343418Y-113295417D01*
X143371673Y-113316569D01*
X143485213Y-113430109D01*
X143657179Y-113555048D01*
X143657181Y-113555049D01*
X143657184Y-113555051D01*
X143846588Y-113651557D01*
X144048757Y-113717246D01*
X144258713Y-113750500D01*
X144258714Y-113750500D01*
X144471286Y-113750500D01*
X144471287Y-113750500D01*
X144681243Y-113717246D01*
X144883412Y-113651557D01*
X145072816Y-113555051D01*
X145164526Y-113488419D01*
X145230329Y-113464941D01*
X145298383Y-113480766D01*
X145340511Y-113519847D01*
X145372213Y-113567292D01*
X145483707Y-113678786D01*
X145483711Y-113678789D01*
X145614814Y-113766390D01*
X145614827Y-113766397D01*
X145714758Y-113807789D01*
X145760503Y-113826737D01*
X145854645Y-113845463D01*
X145894691Y-113853429D01*
X145956602Y-113885814D01*
X145991176Y-113946529D01*
X145994500Y-113975046D01*
X145994500Y-118954902D01*
X145974815Y-119021941D01*
X145958181Y-119042583D01*
X144562584Y-120438181D01*
X144501261Y-120471666D01*
X144474903Y-120474500D01*
X131904766Y-120474500D01*
X131837727Y-120454815D01*
X131835875Y-120453602D01*
X131704185Y-120365609D01*
X131704172Y-120365602D01*
X131558501Y-120305264D01*
X131558489Y-120305261D01*
X131403845Y-120274500D01*
X131403842Y-120274500D01*
X131246158Y-120274500D01*
X131246155Y-120274500D01*
X131091510Y-120305261D01*
X131091498Y-120305264D01*
X130945827Y-120365602D01*
X130945814Y-120365609D01*
X130814711Y-120453210D01*
X130814707Y-120453213D01*
X130703213Y-120564707D01*
X130703210Y-120564711D01*
X130615609Y-120695814D01*
X130615602Y-120695827D01*
X130555264Y-120841498D01*
X130555261Y-120841510D01*
X130524500Y-120996153D01*
X130524500Y-121153846D01*
X130555261Y-121308489D01*
X130555264Y-121308501D01*
X130615602Y-121454172D01*
X130615609Y-121454185D01*
X130703210Y-121585288D01*
X130703213Y-121585292D01*
X130705240Y-121587319D01*
X130705962Y-121588642D01*
X130707076Y-121589999D01*
X130706818Y-121590210D01*
X130738725Y-121648642D01*
X130733741Y-121718334D01*
X130705240Y-121762681D01*
X130678213Y-121789707D01*
X130678210Y-121789711D01*
X130590609Y-121920814D01*
X130590602Y-121920827D01*
X130530264Y-122066498D01*
X130530261Y-122066510D01*
X130499500Y-122221153D01*
X130499500Y-122378846D01*
X130530261Y-122533489D01*
X130530264Y-122533501D01*
X130590602Y-122679172D01*
X130590609Y-122679185D01*
X130678210Y-122810288D01*
X130678213Y-122810292D01*
X130789707Y-122921786D01*
X130789711Y-122921789D01*
X130920814Y-123009390D01*
X130920827Y-123009397D01*
X131066498Y-123069735D01*
X131066503Y-123069737D01*
X131221153Y-123100499D01*
X131221156Y-123100500D01*
X131221158Y-123100500D01*
X131378844Y-123100500D01*
X131378845Y-123100499D01*
X131533497Y-123069737D01*
X131679179Y-123009394D01*
X131679185Y-123009390D01*
X131810875Y-122921398D01*
X131877553Y-122900520D01*
X131879766Y-122900500D01*
X144788331Y-122900500D01*
X144788347Y-122900501D01*
X144795943Y-122900501D01*
X144954054Y-122900501D01*
X144954057Y-122900501D01*
X145106785Y-122859577D01*
X145156904Y-122830639D01*
X145243716Y-122780520D01*
X145355520Y-122668716D01*
X145355520Y-122668714D01*
X145365728Y-122658507D01*
X145365729Y-122658504D01*
X147357417Y-120666819D01*
X147418740Y-120633334D01*
X147445098Y-120630500D01*
X151264281Y-120630500D01*
X151331320Y-120650185D01*
X151374765Y-120698205D01*
X151394947Y-120737814D01*
X151394948Y-120737815D01*
X151519890Y-120909786D01*
X151670213Y-121060109D01*
X151842182Y-121185050D01*
X151850946Y-121189516D01*
X151901742Y-121237491D01*
X151918536Y-121305312D01*
X151895998Y-121371447D01*
X151850946Y-121410484D01*
X151842182Y-121414949D01*
X151670213Y-121539890D01*
X151519890Y-121690213D01*
X151394951Y-121862179D01*
X151298444Y-122051585D01*
X151232753Y-122253760D01*
X151199500Y-122463713D01*
X151199500Y-122676286D01*
X151223947Y-122830642D01*
X151232754Y-122886243D01*
X151292375Y-123069738D01*
X151298444Y-123088414D01*
X151394951Y-123277820D01*
X151519890Y-123449786D01*
X151670213Y-123600109D01*
X151831134Y-123717023D01*
X151842184Y-123725051D01*
X151913932Y-123761608D01*
X151921599Y-123765515D01*
X151972395Y-123813490D01*
X151989190Y-123881311D01*
X151966653Y-123947446D01*
X151911937Y-123990897D01*
X151865304Y-124000000D01*
X126124000Y-124000000D01*
X126056961Y-123980315D01*
X126011206Y-123927511D01*
X126000000Y-123876000D01*
X126000000Y-110859598D01*
X129727500Y-110859598D01*
X129727500Y-111140401D01*
X129758937Y-111419412D01*
X129758939Y-111419424D01*
X129821421Y-111693178D01*
X129821422Y-111693180D01*
X129914162Y-111958217D01*
X130035992Y-112211200D01*
X130185384Y-112448956D01*
X130291687Y-112582257D01*
X131255412Y-111618532D01*
X131350329Y-111749175D01*
X131478325Y-111877171D01*
X131608966Y-111972086D01*
X130645241Y-112935810D01*
X130645241Y-112935811D01*
X130778543Y-113042115D01*
X131016299Y-113191507D01*
X131269282Y-113313337D01*
X131534319Y-113406077D01*
X131534321Y-113406078D01*
X131808075Y-113468560D01*
X131808087Y-113468562D01*
X132087098Y-113499999D01*
X132087100Y-113500000D01*
X132367900Y-113500000D01*
X132367901Y-113499999D01*
X132646912Y-113468562D01*
X132646924Y-113468560D01*
X132920678Y-113406078D01*
X132920680Y-113406077D01*
X133185717Y-113313337D01*
X133438700Y-113191507D01*
X133676456Y-113042116D01*
X133809757Y-112935810D01*
X132846033Y-111972086D01*
X132976675Y-111877171D01*
X133104671Y-111749175D01*
X133199586Y-111618533D01*
X134163310Y-112582257D01*
X134269616Y-112448956D01*
X134419007Y-112211200D01*
X134540837Y-111958217D01*
X134633577Y-111693180D01*
X134633578Y-111693178D01*
X134696060Y-111419424D01*
X134696062Y-111419412D01*
X134727499Y-111140401D01*
X134727500Y-111140399D01*
X134727500Y-110859600D01*
X134727499Y-110859598D01*
X134696062Y-110580587D01*
X134696060Y-110580575D01*
X134633578Y-110306821D01*
X134633577Y-110306819D01*
X134540837Y-110041782D01*
X134419007Y-109788799D01*
X134269615Y-109551043D01*
X134163310Y-109417741D01*
X133199586Y-110381465D01*
X133104671Y-110250825D01*
X132976675Y-110122829D01*
X132846033Y-110027912D01*
X133809757Y-109064187D01*
X133676456Y-108957884D01*
X133438700Y-108808492D01*
X133185717Y-108686662D01*
X132920680Y-108593922D01*
X132920678Y-108593921D01*
X132646924Y-108531439D01*
X132646912Y-108531437D01*
X132367901Y-108500000D01*
X132087098Y-108500000D01*
X131808087Y-108531437D01*
X131808075Y-108531439D01*
X131534321Y-108593921D01*
X131534319Y-108593922D01*
X131269282Y-108686662D01*
X131016299Y-108808492D01*
X130778543Y-108957884D01*
X130645241Y-109064187D01*
X131608966Y-110027912D01*
X131478325Y-110122829D01*
X131350329Y-110250825D01*
X131255413Y-110381466D01*
X130291687Y-109417741D01*
X130185384Y-109551043D01*
X130035992Y-109788799D01*
X129914162Y-110041782D01*
X129821422Y-110306819D01*
X129821421Y-110306821D01*
X129758939Y-110580575D01*
X129758937Y-110580587D01*
X129727500Y-110859598D01*
X126000000Y-110859598D01*
X126000000Y-103647648D01*
X133787000Y-103647648D01*
X133787000Y-103852351D01*
X133819022Y-104054534D01*
X133882281Y-104249223D01*
X133975215Y-104431613D01*
X134095528Y-104597213D01*
X134240286Y-104741971D01*
X134405885Y-104862284D01*
X134405887Y-104862285D01*
X134405890Y-104862287D01*
X134459878Y-104889795D01*
X134510674Y-104937769D01*
X134527469Y-105005590D01*
X134504932Y-105071725D01*
X134459878Y-105110765D01*
X134406144Y-105138143D01*
X134361577Y-105170523D01*
X134361577Y-105170524D01*
X134978502Y-105787449D01*
X134904157Y-105807370D01*
X134795843Y-105869905D01*
X134707405Y-105958343D01*
X134644870Y-106066657D01*
X134624949Y-106141002D01*
X134008024Y-105524077D01*
X134008023Y-105524077D01*
X133975643Y-105568644D01*
X133882744Y-105750968D01*
X133819509Y-105945582D01*
X133787500Y-106147682D01*
X133787500Y-106352317D01*
X133819509Y-106554417D01*
X133882744Y-106749031D01*
X133975641Y-106931350D01*
X133975647Y-106931359D01*
X134008023Y-106975921D01*
X134008024Y-106975922D01*
X134624949Y-106358997D01*
X134644870Y-106433343D01*
X134707405Y-106541657D01*
X134795843Y-106630095D01*
X134904157Y-106692630D01*
X134978501Y-106712550D01*
X134361576Y-107329474D01*
X134406150Y-107361859D01*
X134588468Y-107454755D01*
X134783082Y-107517990D01*
X134985183Y-107550000D01*
X135189817Y-107550000D01*
X135391917Y-107517990D01*
X135586531Y-107454755D01*
X135767706Y-107362441D01*
X135836375Y-107349545D01*
X135901115Y-107375821D01*
X135923267Y-107398614D01*
X135929950Y-107407542D01*
X135929952Y-107407544D01*
X135929954Y-107407546D01*
X135929957Y-107407548D01*
X136045164Y-107493793D01*
X136045171Y-107493797D01*
X136180017Y-107544091D01*
X136180016Y-107544091D01*
X136186944Y-107544835D01*
X136239627Y-107550500D01*
X137935372Y-107550499D01*
X137994983Y-107544091D01*
X138129831Y-107493796D01*
X138245046Y-107407546D01*
X138331296Y-107292331D01*
X138381591Y-107157483D01*
X138388000Y-107097873D01*
X138387999Y-105991518D01*
X138407684Y-105924480D01*
X138424318Y-105903838D01*
X138944109Y-105384048D01*
X138944112Y-105384045D01*
X138944112Y-105384044D01*
X138944114Y-105384043D01*
X138992259Y-105311988D01*
X139020775Y-105269311D01*
X139073580Y-105141828D01*
X139074059Y-105139423D01*
X139079633Y-105111401D01*
X139082099Y-105099000D01*
X139100500Y-105006493D01*
X139100500Y-97331007D01*
X139095833Y-97307547D01*
X139073580Y-97195672D01*
X139073578Y-97195667D01*
X139020777Y-97068192D01*
X138944112Y-96953454D01*
X138836819Y-96846161D01*
X138803334Y-96784838D01*
X138800500Y-96758480D01*
X138800500Y-95825316D01*
X138809939Y-95777864D01*
X138868410Y-95636701D01*
X138869737Y-95633497D01*
X138900500Y-95478842D01*
X138900500Y-95321158D01*
X138900500Y-95321155D01*
X138900499Y-95321153D01*
X138882419Y-95230261D01*
X138869737Y-95166503D01*
X138810722Y-95024027D01*
X138809397Y-95020827D01*
X138809390Y-95020814D01*
X138721789Y-94889711D01*
X138721786Y-94889707D01*
X138610292Y-94778213D01*
X138610288Y-94778210D01*
X138479185Y-94690609D01*
X138479172Y-94690602D01*
X138333501Y-94630264D01*
X138333489Y-94630261D01*
X138178845Y-94599500D01*
X138178842Y-94599500D01*
X138021158Y-94599500D01*
X138021155Y-94599500D01*
X137866510Y-94630261D01*
X137866498Y-94630264D01*
X137720827Y-94690602D01*
X137720814Y-94690609D01*
X137589711Y-94778210D01*
X137589707Y-94778213D01*
X137478213Y-94889707D01*
X137478210Y-94889711D01*
X137390609Y-95020814D01*
X137390602Y-95020827D01*
X137330264Y-95166498D01*
X137330261Y-95166510D01*
X137299500Y-95321153D01*
X137299500Y-95478846D01*
X137330261Y-95633489D01*
X137330264Y-95633501D01*
X137390061Y-95777864D01*
X137399500Y-95825316D01*
X137399500Y-97031006D01*
X137399500Y-97168994D01*
X137399500Y-97168996D01*
X137399499Y-97168996D01*
X137426418Y-97304322D01*
X137426421Y-97304332D01*
X137479222Y-97431807D01*
X137491897Y-97450776D01*
X137555886Y-97546543D01*
X137663182Y-97653839D01*
X137696666Y-97715160D01*
X137699500Y-97741519D01*
X137699500Y-102410753D01*
X137679815Y-102477792D01*
X137627011Y-102523547D01*
X137557853Y-102533491D01*
X137537182Y-102528684D01*
X137392036Y-102481523D01*
X137257246Y-102460174D01*
X137189852Y-102449500D01*
X136985148Y-102449500D01*
X136960829Y-102453351D01*
X136782965Y-102481522D01*
X136588276Y-102544781D01*
X136405886Y-102637715D01*
X136240286Y-102758028D01*
X136240282Y-102758032D01*
X136175181Y-102823134D01*
X136113858Y-102856619D01*
X136044166Y-102851635D01*
X135999819Y-102823134D01*
X135934713Y-102758028D01*
X135769113Y-102637715D01*
X135769112Y-102637714D01*
X135769110Y-102637713D01*
X135661322Y-102582792D01*
X135586723Y-102544781D01*
X135392034Y-102481522D01*
X135217495Y-102453878D01*
X135189852Y-102449500D01*
X134985148Y-102449500D01*
X134960829Y-102453351D01*
X134782965Y-102481522D01*
X134588276Y-102544781D01*
X134405886Y-102637715D01*
X134240286Y-102758028D01*
X134095528Y-102902786D01*
X133975215Y-103068386D01*
X133882281Y-103250776D01*
X133819022Y-103445465D01*
X133787000Y-103647648D01*
X126000000Y-103647648D01*
X126000000Y-98859598D01*
X129727500Y-98859598D01*
X129727500Y-99140401D01*
X129758937Y-99419412D01*
X129758939Y-99419424D01*
X129821421Y-99693178D01*
X129821422Y-99693180D01*
X129914162Y-99958217D01*
X130035992Y-100211200D01*
X130185384Y-100448956D01*
X130291687Y-100582257D01*
X131255412Y-99618532D01*
X131350329Y-99749175D01*
X131478325Y-99877171D01*
X131608966Y-99972086D01*
X130645241Y-100935810D01*
X130645241Y-100935811D01*
X130778543Y-101042115D01*
X131016299Y-101191507D01*
X131269282Y-101313337D01*
X131534319Y-101406077D01*
X131534321Y-101406078D01*
X131808075Y-101468560D01*
X131808087Y-101468562D01*
X132087098Y-101499999D01*
X132087100Y-101500000D01*
X132367900Y-101500000D01*
X132367901Y-101499999D01*
X132646912Y-101468562D01*
X132646924Y-101468560D01*
X132920678Y-101406078D01*
X132920680Y-101406077D01*
X133185717Y-101313337D01*
X133438700Y-101191507D01*
X133676456Y-101042116D01*
X133809757Y-100935810D01*
X132846033Y-99972086D01*
X132976675Y-99877171D01*
X133104671Y-99749175D01*
X133199586Y-99618533D01*
X134163310Y-100582257D01*
X134269616Y-100448956D01*
X134419007Y-100211200D01*
X134540837Y-99958217D01*
X134633577Y-99693180D01*
X134633578Y-99693178D01*
X134696060Y-99419424D01*
X134696062Y-99419412D01*
X134727499Y-99140401D01*
X134727500Y-99140399D01*
X134727500Y-98859600D01*
X134727499Y-98859598D01*
X134696062Y-98580587D01*
X134696060Y-98580575D01*
X134633578Y-98306821D01*
X134633577Y-98306819D01*
X134540837Y-98041782D01*
X134419007Y-97788799D01*
X134269615Y-97551043D01*
X134163310Y-97417741D01*
X133199586Y-98381465D01*
X133104671Y-98250825D01*
X132976675Y-98122829D01*
X132846033Y-98027912D01*
X133809757Y-97064187D01*
X133676456Y-96957884D01*
X133438700Y-96808492D01*
X133185717Y-96686662D01*
X132920680Y-96593922D01*
X132920678Y-96593921D01*
X132646924Y-96531439D01*
X132646912Y-96531437D01*
X132367901Y-96500000D01*
X132087098Y-96500000D01*
X131808087Y-96531437D01*
X131808075Y-96531439D01*
X131534321Y-96593921D01*
X131534319Y-96593922D01*
X131269282Y-96686662D01*
X131016299Y-96808492D01*
X130778543Y-96957884D01*
X130645241Y-97064187D01*
X131608966Y-98027912D01*
X131478325Y-98122829D01*
X131350329Y-98250825D01*
X131255413Y-98381466D01*
X130291687Y-97417741D01*
X130185384Y-97551043D01*
X130035992Y-97788799D01*
X129914162Y-98041782D01*
X129821422Y-98306819D01*
X129821421Y-98306821D01*
X129758939Y-98580575D01*
X129758937Y-98580587D01*
X129727500Y-98859598D01*
X126000000Y-98859598D01*
X126000000Y-86124000D01*
X126019685Y-86056961D01*
X126072489Y-86011206D01*
X126124000Y-86000000D01*
X188876000Y-86000000D01*
X188943039Y-86019685D01*
G37*
%TD.AperFunction*%
%TD*%
M02*
