M48
; DRILL file {KiCad 9.0.4} date 2025-09-20T20:14:23-0700
; FORMAT={-:-/ absolute / metric / decimal}
; #@! TF.CreationDate,2025-09-20T20:14:23-07:00
; #@! TF.GenerationSoftware,Kicad,Pcbnew,9.0.4
; #@! TF.FileFunction,Plated,1,2,PTH
FMAT,2
METRIC
; #@! TA.AperFunction,Plated,PTH,ViaDrill
T1C0.300
; #@! TA.AperFunction,Plated,PTH,ComponentDrill
T2C0.950
; #@! TA.AperFunction,Plated,PTH,ComponentDrill
T3C1.000
; #@! TA.AperFunction,Plated,PTH,ViaDrill
T4C1.400
; #@! TA.AperFunction,Plated,PTH,ComponentDrill
T5C1.400
; #@! TA.AperFunction,Plated,PTH,ComponentDrill
T6C2.300
; #@! TA.AperFunction,Plated,PTH,ViaDrill
T7C3.000
%
G90
G05
T1
X131.3Y-122.3
X131.325Y-121.075
X135.35Y-90.5
X136.15Y-93.85
X137.0Y-93.85
X138.1Y-95.4
X140.1Y-88.7
X140.2Y-95.513
X140.2Y-107.0
X140.221Y-114.3
X142.25Y-105.1
X144.201Y-108.0
X144.225Y-100.525
X144.225Y-101.5
X145.994Y-113.057
X146.442Y-107.342
X147.75Y-97.35
X147.887Y-109.0
X148.875Y-109.675
X150.0Y-122.9
X150.779Y-108.829
X150.85Y-110.55
X151.93Y-108.931
X153.0Y-97.0
X154.878Y-109.307
X156.019Y-115.231
X156.65Y-102.6
X157.252Y-113.158
X157.55Y-102.0
X158.05Y-108.875
X158.7Y-96.0
X158.981Y-101.3
X160.025Y-122.95
X161.132Y-113.186
X162.5Y-122.95
X165.0Y-111.0
X166.0Y-102.0
X166.0Y-103.0
X166.9Y-92.8
X167.2Y-110.4
X167.881Y-95.403
X172.1Y-103.0
X174.0Y-103.0
X176.7Y-96.6
T2
X135.088Y-103.75
X135.088Y-106.25
X137.088Y-103.75
X137.088Y-106.25
T3
X141.875Y-111.3
X142.9Y-115.23
X142.9Y-117.77
X142.9Y-120.31
X142.9Y-122.85
X144.415Y-111.3
X177.6Y-100.7
X177.6Y-103.24
X177.6Y-114.625
X177.6Y-117.165
T4
X186.264Y-88.163
T5
X183.907Y-92.695
X183.907Y-96.195
X183.907Y-99.695
X183.907Y-103.195
X183.907Y-106.695
X183.907Y-110.195
X183.907Y-113.695
X183.907Y-117.195
T6
X132.227Y-99.0
X132.227Y-111.0
T7
X152.5Y-90.0
M30
