%TF.GenerationSoftware,KiCad,Pcbnew,9.0.4*%
%TF.CreationDate,2025-09-18T18:17:25-07:00*%
%TF.ProjectId,USBCAN-X2,55534243-414e-42d5-9832-2e6b69636164,rev?*%
%TF.SameCoordinates,Original*%
%TF.FileFunction,Copper,L1,Top*%
%TF.FilePolarity,Positive*%
%FSLAX46Y46*%
G04 Gerber Fmt 4.6, Leading zero omitted, Abs format (unit mm)*
G04 Created by KiCad (PCBNEW 9.0.4) date 2025-09-18 18:17:25*
%MOMM*%
%LPD*%
G01*
G04 APERTURE LIST*
G04 Aperture macros list*
%AMRoundRect*
0 Rectangle with rounded corners*
0 $1 Rounding radius*
0 $2 $3 $4 $5 $6 $7 $8 $9 X,Y pos of 4 corners*
0 Add a 4 corners polygon primitive as box body*
4,1,4,$2,$3,$4,$5,$6,$7,$8,$9,$2,$3,0*
0 Add four circle primitives for the rounded corners*
1,1,$1+$1,$2,$3*
1,1,$1+$1,$4,$5*
1,1,$1+$1,$6,$7*
1,1,$1+$1,$8,$9*
0 Add four rect primitives between the rounded corners*
20,1,$1+$1,$2,$3,$4,$5,0*
20,1,$1+$1,$4,$5,$6,$7,0*
20,1,$1+$1,$6,$7,$8,$9,0*
20,1,$1+$1,$8,$9,$2,$3,0*%
G04 Aperture macros list end*
%ADD10C,0.150000*%
%TA.AperFunction,NonConductor*%
%ADD11C,0.150000*%
%TD*%
%ADD12C,0.100000*%
%TA.AperFunction,NonConductor*%
%ADD13C,0.100000*%
%TD*%
%TA.AperFunction,SMDPad,CuDef*%
%ADD14RoundRect,0.075000X0.662500X0.075000X-0.662500X0.075000X-0.662500X-0.075000X0.662500X-0.075000X0*%
%TD*%
%TA.AperFunction,SMDPad,CuDef*%
%ADD15RoundRect,0.075000X0.075000X0.662500X-0.075000X0.662500X-0.075000X-0.662500X0.075000X-0.662500X0*%
%TD*%
%TA.AperFunction,SMDPad,CuDef*%
%ADD16RoundRect,0.225000X-0.225000X-0.250000X0.225000X-0.250000X0.225000X0.250000X-0.225000X0.250000X0*%
%TD*%
%TA.AperFunction,SMDPad,CuDef*%
%ADD17RoundRect,0.200000X0.275000X-0.200000X0.275000X0.200000X-0.275000X0.200000X-0.275000X-0.200000X0*%
%TD*%
%TA.AperFunction,ComponentPad*%
%ADD18R,1.700000X1.700000*%
%TD*%
%TA.AperFunction,ComponentPad*%
%ADD19C,1.700000*%
%TD*%
%TA.AperFunction,ComponentPad*%
%ADD20R,2.800000X2.800000*%
%TD*%
%TA.AperFunction,ComponentPad*%
%ADD21C,2.800000*%
%TD*%
%TA.AperFunction,SMDPad,CuDef*%
%ADD22RoundRect,0.225000X0.225000X0.250000X-0.225000X0.250000X-0.225000X-0.250000X0.225000X-0.250000X0*%
%TD*%
%TA.AperFunction,SMDPad,CuDef*%
%ADD23RoundRect,0.200000X-0.200000X-0.275000X0.200000X-0.275000X0.200000X0.275000X-0.200000X0.275000X0*%
%TD*%
%TA.AperFunction,SMDPad,CuDef*%
%ADD24RoundRect,0.375000X0.625000X0.375000X-0.625000X0.375000X-0.625000X-0.375000X0.625000X-0.375000X0*%
%TD*%
%TA.AperFunction,SMDPad,CuDef*%
%ADD25RoundRect,0.500000X0.500000X1.400000X-0.500000X1.400000X-0.500000X-1.400000X0.500000X-1.400000X0*%
%TD*%
%TA.AperFunction,SMDPad,CuDef*%
%ADD26RoundRect,0.225000X-0.250000X0.225000X-0.250000X-0.225000X0.250000X-0.225000X0.250000X0.225000X0*%
%TD*%
%TA.AperFunction,SMDPad,CuDef*%
%ADD27RoundRect,0.200000X-0.275000X0.200000X-0.275000X-0.200000X0.275000X-0.200000X0.275000X0.200000X0*%
%TD*%
%TA.AperFunction,SMDPad,CuDef*%
%ADD28RoundRect,0.150000X-0.825000X-0.150000X0.825000X-0.150000X0.825000X0.150000X-0.825000X0.150000X0*%
%TD*%
%TA.AperFunction,HeatsinkPad*%
%ADD29R,2.290000X3.000000*%
%TD*%
%TA.AperFunction,SMDPad,CuDef*%
%ADD30RoundRect,0.218750X0.256250X-0.218750X0.256250X0.218750X-0.256250X0.218750X-0.256250X-0.218750X0*%
%TD*%
%TA.AperFunction,ComponentPad*%
%ADD31R,1.600000X1.600000*%
%TD*%
%TA.AperFunction,ComponentPad*%
%ADD32C,1.600000*%
%TD*%
%TA.AperFunction,ComponentPad*%
%ADD33C,4.000000*%
%TD*%
%TA.AperFunction,SMDPad,CuDef*%
%ADD34RoundRect,0.200000X0.200000X0.275000X-0.200000X0.275000X-0.200000X-0.275000X0.200000X-0.275000X0*%
%TD*%
%TA.AperFunction,SMDPad,CuDef*%
%ADD35RoundRect,0.225000X0.250000X-0.225000X0.250000X0.225000X-0.250000X0.225000X-0.250000X-0.225000X0*%
%TD*%
%TA.AperFunction,SMDPad,CuDef*%
%ADD36RoundRect,0.250000X0.550000X-1.075000X0.550000X1.075000X-0.550000X1.075000X-0.550000X-1.075000X0*%
%TD*%
%TA.AperFunction,SMDPad,CuDef*%
%ADD37R,2.600000X1.900000*%
%TD*%
%TA.AperFunction,SMDPad,CuDef*%
%ADD38R,2.794000X0.406400*%
%TD*%
%TA.AperFunction,ViaPad*%
%ADD39C,3.100000*%
%TD*%
%TA.AperFunction,ViaPad*%
%ADD40C,0.600000*%
%TD*%
%TA.AperFunction,Conductor*%
%ADD41C,0.200000*%
%TD*%
%TA.AperFunction,Conductor*%
%ADD42C,0.400000*%
%TD*%
%TA.AperFunction,Conductor*%
%ADD43C,0.500000*%
%TD*%
%TA.AperFunction,Conductor*%
%ADD44C,0.300000*%
%TD*%
G04 APERTURE END LIST*
D10*
D11*
X181108207Y-88669819D02*
X180774874Y-88193628D01*
X180536779Y-88669819D02*
X180536779Y-87669819D01*
X180536779Y-87669819D02*
X180917731Y-87669819D01*
X180917731Y-87669819D02*
X181012969Y-87717438D01*
X181012969Y-87717438D02*
X181060588Y-87765057D01*
X181060588Y-87765057D02*
X181108207Y-87860295D01*
X181108207Y-87860295D02*
X181108207Y-88003152D01*
X181108207Y-88003152D02*
X181060588Y-88098390D01*
X181060588Y-88098390D02*
X181012969Y-88146009D01*
X181012969Y-88146009D02*
X180917731Y-88193628D01*
X180917731Y-88193628D02*
X180536779Y-88193628D01*
X181536779Y-88146009D02*
X181870112Y-88146009D01*
X182012969Y-88669819D02*
X181536779Y-88669819D01*
X181536779Y-88669819D02*
X181536779Y-87669819D01*
X181536779Y-87669819D02*
X182012969Y-87669819D01*
X182298684Y-87669819D02*
X182632017Y-88669819D01*
X182632017Y-88669819D02*
X182965350Y-87669819D01*
X184584398Y-88669819D02*
X184012970Y-88669819D01*
X184298684Y-88669819D02*
X184298684Y-87669819D01*
X184298684Y-87669819D02*
X184203446Y-87812676D01*
X184203446Y-87812676D02*
X184108208Y-87907914D01*
X184108208Y-87907914D02*
X184012970Y-87955533D01*
D12*
D13*
X178103884Y-121922419D02*
X178103884Y-122731942D01*
X178103884Y-122731942D02*
X178151503Y-122827180D01*
X178151503Y-122827180D02*
X178199122Y-122874800D01*
X178199122Y-122874800D02*
X178294360Y-122922419D01*
X178294360Y-122922419D02*
X178484836Y-122922419D01*
X178484836Y-122922419D02*
X178580074Y-122874800D01*
X178580074Y-122874800D02*
X178627693Y-122827180D01*
X178627693Y-122827180D02*
X178675312Y-122731942D01*
X178675312Y-122731942D02*
X178675312Y-121922419D01*
X179103884Y-122874800D02*
X179246741Y-122922419D01*
X179246741Y-122922419D02*
X179484836Y-122922419D01*
X179484836Y-122922419D02*
X179580074Y-122874800D01*
X179580074Y-122874800D02*
X179627693Y-122827180D01*
X179627693Y-122827180D02*
X179675312Y-122731942D01*
X179675312Y-122731942D02*
X179675312Y-122636704D01*
X179675312Y-122636704D02*
X179627693Y-122541466D01*
X179627693Y-122541466D02*
X179580074Y-122493847D01*
X179580074Y-122493847D02*
X179484836Y-122446228D01*
X179484836Y-122446228D02*
X179294360Y-122398609D01*
X179294360Y-122398609D02*
X179199122Y-122350990D01*
X179199122Y-122350990D02*
X179151503Y-122303371D01*
X179151503Y-122303371D02*
X179103884Y-122208133D01*
X179103884Y-122208133D02*
X179103884Y-122112895D01*
X179103884Y-122112895D02*
X179151503Y-122017657D01*
X179151503Y-122017657D02*
X179199122Y-121970038D01*
X179199122Y-121970038D02*
X179294360Y-121922419D01*
X179294360Y-121922419D02*
X179532455Y-121922419D01*
X179532455Y-121922419D02*
X179675312Y-121970038D01*
X180437217Y-122398609D02*
X180580074Y-122446228D01*
X180580074Y-122446228D02*
X180627693Y-122493847D01*
X180627693Y-122493847D02*
X180675312Y-122589085D01*
X180675312Y-122589085D02*
X180675312Y-122731942D01*
X180675312Y-122731942D02*
X180627693Y-122827180D01*
X180627693Y-122827180D02*
X180580074Y-122874800D01*
X180580074Y-122874800D02*
X180484836Y-122922419D01*
X180484836Y-122922419D02*
X180103884Y-122922419D01*
X180103884Y-122922419D02*
X180103884Y-121922419D01*
X180103884Y-121922419D02*
X180437217Y-121922419D01*
X180437217Y-121922419D02*
X180532455Y-121970038D01*
X180532455Y-121970038D02*
X180580074Y-122017657D01*
X180580074Y-122017657D02*
X180627693Y-122112895D01*
X180627693Y-122112895D02*
X180627693Y-122208133D01*
X180627693Y-122208133D02*
X180580074Y-122303371D01*
X180580074Y-122303371D02*
X180532455Y-122350990D01*
X180532455Y-122350990D02*
X180437217Y-122398609D01*
X180437217Y-122398609D02*
X180103884Y-122398609D01*
X181675312Y-122827180D02*
X181627693Y-122874800D01*
X181627693Y-122874800D02*
X181484836Y-122922419D01*
X181484836Y-122922419D02*
X181389598Y-122922419D01*
X181389598Y-122922419D02*
X181246741Y-122874800D01*
X181246741Y-122874800D02*
X181151503Y-122779561D01*
X181151503Y-122779561D02*
X181103884Y-122684323D01*
X181103884Y-122684323D02*
X181056265Y-122493847D01*
X181056265Y-122493847D02*
X181056265Y-122350990D01*
X181056265Y-122350990D02*
X181103884Y-122160514D01*
X181103884Y-122160514D02*
X181151503Y-122065276D01*
X181151503Y-122065276D02*
X181246741Y-121970038D01*
X181246741Y-121970038D02*
X181389598Y-121922419D01*
X181389598Y-121922419D02*
X181484836Y-121922419D01*
X181484836Y-121922419D02*
X181627693Y-121970038D01*
X181627693Y-121970038D02*
X181675312Y-122017657D01*
X182056265Y-122636704D02*
X182532455Y-122636704D01*
X181961027Y-122922419D02*
X182294360Y-121922419D01*
X182294360Y-121922419D02*
X182627693Y-122922419D01*
X182961027Y-122922419D02*
X182961027Y-121922419D01*
X182961027Y-121922419D02*
X183532455Y-122922419D01*
X183532455Y-122922419D02*
X183532455Y-121922419D01*
X184008646Y-122541466D02*
X184770551Y-122541466D01*
X185151503Y-121922419D02*
X185818169Y-122922419D01*
X185818169Y-121922419D02*
X185151503Y-122922419D01*
X186151503Y-122017657D02*
X186199122Y-121970038D01*
X186199122Y-121970038D02*
X186294360Y-121922419D01*
X186294360Y-121922419D02*
X186532455Y-121922419D01*
X186532455Y-121922419D02*
X186627693Y-121970038D01*
X186627693Y-121970038D02*
X186675312Y-122017657D01*
X186675312Y-122017657D02*
X186722931Y-122112895D01*
X186722931Y-122112895D02*
X186722931Y-122208133D01*
X186722931Y-122208133D02*
X186675312Y-122350990D01*
X186675312Y-122350990D02*
X186103884Y-122922419D01*
X186103884Y-122922419D02*
X186722931Y-122922419D01*
D14*
%TO.P,U1,1,VBAT*%
%TO.N,3.3V*%
X154300000Y-106000000D03*
%TO.P,U1,2,PC13*%
%TO.N,unconnected-(U1-PC13-Pad2)*%
X154300000Y-105500000D03*
%TO.P,U1,3,PC14*%
%TO.N,unconnected-(U1-PC14-Pad3)*%
X154300000Y-105000000D03*
%TO.P,U1,4,PC15*%
%TO.N,unconnected-(U1-PC15-Pad4)*%
X154300000Y-104500000D03*
%TO.P,U1,5,PF0*%
%TO.N,Net-(U1-PF0)*%
X154300000Y-104000000D03*
%TO.P,U1,6,PF1*%
%TO.N,Net-(U1-PF1)*%
X154300000Y-103500000D03*
%TO.P,U1,7,PG10*%
%TO.N,unconnected-(U1-PG10-Pad7)*%
X154300000Y-103000000D03*
%TO.P,U1,8,PA0*%
%TO.N,/LED_PA0*%
X154300000Y-102500000D03*
%TO.P,U1,9,PA1*%
%TO.N,/LED_PA1*%
X154300000Y-102000000D03*
%TO.P,U1,10,PA2*%
%TO.N,/LED_PA2*%
X154300000Y-101500000D03*
%TO.P,U1,11,PA3*%
%TO.N,unconnected-(U1-PA3-Pad11)*%
X154300000Y-101000000D03*
%TO.P,U1,12,PA4*%
%TO.N,unconnected-(U1-PA4-Pad12)*%
X154300000Y-100500000D03*
D15*
%TO.P,U1,13,PA5*%
%TO.N,unconnected-(U1-PA5-Pad13)*%
X152887500Y-99087500D03*
%TO.P,U1,14,PA6*%
%TO.N,unconnected-(U1-PA6-Pad14)*%
X152387500Y-99087500D03*
%TO.P,U1,15,PA7*%
%TO.N,unconnected-(U1-PA7-Pad15)*%
X151887500Y-99087500D03*
%TO.P,U1,16,PB0*%
%TO.N,unconnected-(U1-PB0-Pad16)*%
X151387500Y-99087500D03*
%TO.P,U1,17,PB1*%
%TO.N,unconnected-(U1-PB1-Pad17)*%
X150887500Y-99087500D03*
%TO.P,U1,18,PB2*%
%TO.N,unconnected-(U1-PB2-Pad18)*%
X150387500Y-99087500D03*
%TO.P,U1,19,VSSA*%
%TO.N,GND*%
X149887500Y-99087500D03*
%TO.P,U1,20,VREF+*%
%TO.N,3.3V*%
X149387500Y-99087500D03*
%TO.P,U1,21,VDDA*%
X148887500Y-99087500D03*
%TO.P,U1,22,PB10*%
%TO.N,unconnected-(U1-PB10-Pad22)*%
X148387500Y-99087500D03*
%TO.P,U1,23,VSS*%
%TO.N,GND*%
X147887500Y-99087500D03*
%TO.P,U1,24,VDD*%
%TO.N,3.3V*%
X147387500Y-99087500D03*
D14*
%TO.P,U1,25,PB11*%
%TO.N,unconnected-(U1-PB11-Pad25)*%
X145975000Y-100500000D03*
%TO.P,U1,26,PB12*%
%TO.N,CAN2_RX*%
X145975000Y-101000000D03*
%TO.P,U1,27,PB13*%
%TO.N,CAN2_TX*%
X145975000Y-101500000D03*
%TO.P,U1,28,PB14*%
%TO.N,unconnected-(U1-PB14-Pad28)*%
X145975000Y-102000000D03*
%TO.P,U1,29,PB15*%
%TO.N,unconnected-(U1-PB15-Pad29)*%
X145975000Y-102500000D03*
%TO.P,U1,30,PA8*%
%TO.N,unconnected-(U1-PA8-Pad30)*%
X145975000Y-103000000D03*
%TO.P,U1,31,PA9*%
%TO.N,unconnected-(U1-PA9-Pad31)*%
X145975000Y-103500000D03*
%TO.P,U1,32,PA10*%
%TO.N,unconnected-(U1-PA10-Pad32)*%
X145975000Y-104000000D03*
%TO.P,U1,33,PA11*%
%TO.N,USB_N*%
X145975000Y-104500000D03*
%TO.P,U1,34,PA12*%
%TO.N,USB_P*%
X145975000Y-105000000D03*
%TO.P,U1,35,VSS*%
%TO.N,GND*%
X145975000Y-105500000D03*
%TO.P,U1,36,VDD*%
%TO.N,3.3V*%
X145975000Y-106000000D03*
D15*
%TO.P,U1,37,PA13*%
%TO.N,SWDIO*%
X147387500Y-107412500D03*
%TO.P,U1,38,PA14*%
%TO.N,SWDCLK*%
X147887500Y-107412500D03*
%TO.P,U1,39,PA15*%
%TO.N,unconnected-(U1-PA15-Pad39)*%
X148387500Y-107412500D03*
%TO.P,U1,40,PB3*%
%TO.N,unconnected-(U1-PB3-Pad40)*%
X148887500Y-107412500D03*
%TO.P,U1,41,PB4*%
%TO.N,unconnected-(U1-PB4-Pad41)*%
X149387500Y-107412500D03*
%TO.P,U1,42,PB5*%
%TO.N,unconnected-(U1-PB5-Pad42)*%
X149887500Y-107412500D03*
%TO.P,U1,43,PB6*%
%TO.N,unconnected-(U1-PB6-Pad43)*%
X150387500Y-107412500D03*
%TO.P,U1,44,PB7*%
%TO.N,unconnected-(U1-PB7-Pad44)*%
X150887500Y-107412500D03*
%TO.P,U1,45,PB8*%
%TO.N,CAN1_RX*%
X151387500Y-107412500D03*
%TO.P,U1,46,PB9*%
%TO.N,CAN1_TX*%
X151887500Y-107412500D03*
%TO.P,U1,47,VSS*%
%TO.N,GND*%
X152387500Y-107412500D03*
%TO.P,U1,48,VDD*%
%TO.N,3.3V*%
X152887500Y-107412500D03*
%TD*%
D16*
%TO.P,C9,1*%
%TO.N,GND*%
X159300000Y-110000000D03*
%TO.P,C9,2*%
%TO.N,Net-(U1-PF0)*%
X160850000Y-110000000D03*
%TD*%
D17*
%TO.P,R3,1*%
%TO.N,CAN1_RX*%
X169800000Y-104325000D03*
%TO.P,R3,2*%
%TO.N,GND*%
X169800000Y-102675000D03*
%TD*%
D18*
%TO.P,J6,1,Pin_1*%
%TO.N,CAN1_N*%
X173275000Y-99500000D03*
D19*
%TO.P,J6,2,Pin_2*%
%TO.N,Net-(J2-Pin_4)*%
X170735000Y-99500000D03*
%TD*%
D20*
%TO.P,J2,1,Pin_1*%
%TO.N,CAN1_P*%
X183907500Y-92695000D03*
D21*
%TO.P,J2,2,Pin_2*%
%TO.N,CAN1_N*%
X183907500Y-96195000D03*
%TO.P,J2,3,Pin_3*%
X183907500Y-99695000D03*
%TO.P,J2,4,Pin_4*%
%TO.N,Net-(J2-Pin_4)*%
X183907500Y-103195000D03*
%TO.P,J2,5,Pin_5*%
%TO.N,CAN2_P*%
X183907500Y-106695000D03*
%TO.P,J2,6,Pin_6*%
%TO.N,CAN2_N*%
X183907500Y-110195000D03*
%TO.P,J2,7,Pin_7*%
X183907500Y-113695000D03*
%TO.P,J2,8,Pin_8*%
%TO.N,Net-(J2-Pin_8)*%
X183907500Y-117195000D03*
%TD*%
D22*
%TO.P,C7,1*%
%TO.N,3.3V*%
X153575000Y-110500000D03*
%TO.P,C7,2*%
%TO.N,GND*%
X152025000Y-110500000D03*
%TD*%
D23*
%TO.P,R7,1*%
%TO.N,/LED_PA2*%
X162200000Y-113500000D03*
%TO.P,R7,2*%
%TO.N,Net-(D3-A)*%
X163850000Y-113500000D03*
%TD*%
%TO.P,R2,1*%
%TO.N,/LED_PA1*%
X156500000Y-113500000D03*
%TO.P,R2,2*%
%TO.N,Net-(D2-A)*%
X158150000Y-113500000D03*
%TD*%
%TO.P,R5,1*%
%TO.N,CAN1_P*%
X177975000Y-103300000D03*
%TO.P,R5,2*%
%TO.N,Net-(J2-Pin_4)*%
X179625000Y-103300000D03*
%TD*%
D24*
%TO.P,U2,1,VI*%
%TO.N,5V*%
X138110000Y-93300000D03*
%TO.P,U2,2,GND*%
%TO.N,GND*%
X138110000Y-91000000D03*
D25*
X131810000Y-91000000D03*
D24*
%TO.P,U2,3,VO*%
%TO.N,3.3V*%
X138110000Y-88700000D03*
%TD*%
D26*
%TO.P,C3,1*%
%TO.N,3.3V*%
X157800000Y-105725000D03*
%TO.P,C3,2*%
%TO.N,GND*%
X157800000Y-107275000D03*
%TD*%
D27*
%TO.P,R4,1*%
%TO.N,3.3V*%
X141200000Y-107725000D03*
%TO.P,R4,2*%
%TO.N,Net-(J3-Pin_1)*%
X141200000Y-109375000D03*
%TD*%
D28*
%TO.P,U3,1,TXD*%
%TO.N,CAN1_TX*%
X169905000Y-92795000D03*
%TO.P,U3,2,VSS*%
%TO.N,GND*%
X169905000Y-94065000D03*
%TO.P,U3,3,VDD*%
%TO.N,5V*%
X169905000Y-95335000D03*
%TO.P,U3,4,RXD*%
%TO.N,CAN1_RX*%
X169905000Y-96605000D03*
%TO.P,U3,5,VIO*%
%TO.N,3.3V*%
X174855000Y-96605000D03*
%TO.P,U3,6,CANL*%
%TO.N,CAN1_N*%
X174855000Y-95335000D03*
%TO.P,U3,7,CANH*%
%TO.N,CAN1_P*%
X174855000Y-94065000D03*
%TO.P,U3,8,STBY*%
%TO.N,GND*%
X174855000Y-92795000D03*
D29*
%TO.P,U3,9,VSS*%
X172380000Y-94700000D03*
%TD*%
D30*
%TO.P,D3,1,K*%
%TO.N,GND*%
X167500000Y-119887500D03*
%TO.P,D3,2,A*%
%TO.N,Net-(D3-A)*%
X167500000Y-118312500D03*
%TD*%
D31*
%TO.P,J1,1,VBUS*%
%TO.N,5V*%
X137087500Y-106250000D03*
D32*
%TO.P,J1,2,D-*%
%TO.N,USB_N*%
X137087500Y-103750000D03*
%TO.P,J1,3,D+*%
%TO.N,USB_P*%
X135087500Y-103750000D03*
%TO.P,J1,4,GND*%
%TO.N,GND*%
X135087500Y-106250000D03*
D33*
%TO.P,J1,5,Shield*%
X132227500Y-111000000D03*
X132227500Y-99000000D03*
%TD*%
D16*
%TO.P,C2,1*%
%TO.N,3.3V*%
X145025000Y-96000000D03*
%TO.P,C2,2*%
%TO.N,GND*%
X146575000Y-96000000D03*
%TD*%
%TO.P,C4,1*%
%TO.N,3.3V*%
X149025000Y-96000000D03*
%TO.P,C4,2*%
%TO.N,GND*%
X150575000Y-96000000D03*
%TD*%
D34*
%TO.P,R6,1*%
%TO.N,CAN2_P*%
X179525000Y-106700000D03*
%TO.P,R6,2*%
%TO.N,Net-(J2-Pin_8)*%
X177875000Y-106700000D03*
%TD*%
D22*
%TO.P,C10,1*%
%TO.N,Net-(U1-PF1)*%
X160575000Y-100000000D03*
%TO.P,C10,2*%
%TO.N,GND*%
X159025000Y-100000000D03*
%TD*%
D30*
%TO.P,D1,1,K*%
%TO.N,GND*%
X147500000Y-119787500D03*
%TO.P,D1,2,A*%
%TO.N,Net-(D1-A)*%
X147500000Y-118212500D03*
%TD*%
D35*
%TO.P,C6,1*%
%TO.N,5V*%
X166100000Y-95675000D03*
%TO.P,C6,2*%
%TO.N,GND*%
X166100000Y-94125000D03*
%TD*%
%TO.P,C1,1*%
%TO.N,3.3V*%
X143350000Y-106725000D03*
%TO.P,C1,2*%
%TO.N,GND*%
X143350000Y-105175000D03*
%TD*%
D18*
%TO.P,J3,1,Pin_1*%
%TO.N,Net-(J3-Pin_1)*%
X141825000Y-112400000D03*
D19*
%TO.P,J3,2,Pin_2*%
%TO.N,CAN1_RX*%
X144365000Y-112400000D03*
%TD*%
D18*
%TO.P,J5,1,Pin_1*%
%TO.N,CAN2_N*%
X173225000Y-107550000D03*
D19*
%TO.P,J5,2,Pin_2*%
%TO.N,Net-(J2-Pin_8)*%
X170685000Y-107550000D03*
%TD*%
D30*
%TO.P,D2,1,K*%
%TO.N,GND*%
X157500000Y-119787500D03*
%TO.P,D2,2,A*%
%TO.N,Net-(D2-A)*%
X157500000Y-118212500D03*
%TD*%
D36*
%TO.P,C5,1*%
%TO.N,5V*%
X145800000Y-92275000D03*
%TO.P,C5,2*%
%TO.N,GND*%
X145800000Y-88925000D03*
%TD*%
D28*
%TO.P,U4,1,TXD*%
%TO.N,CAN2_TX*%
X170255000Y-110545000D03*
%TO.P,U4,2,VSS*%
%TO.N,GND*%
X170255000Y-111815000D03*
%TO.P,U4,3,VDD*%
%TO.N,5V*%
X170255000Y-113085000D03*
%TO.P,U4,4,RXD*%
%TO.N,CAN2_RX*%
X170255000Y-114355000D03*
%TO.P,U4,5,VIO*%
%TO.N,3.3V*%
X175205000Y-114355000D03*
%TO.P,U4,6,CANL*%
%TO.N,CAN2_N*%
X175205000Y-113085000D03*
%TO.P,U4,7,CANH*%
%TO.N,CAN2_P*%
X175205000Y-111815000D03*
%TO.P,U4,8,STBY*%
%TO.N,GND*%
X175205000Y-110545000D03*
D29*
%TO.P,U4,9,VSS*%
X172730000Y-112450000D03*
%TD*%
D37*
%TO.P,Y1,1,1*%
%TO.N,Net-(U1-PF1)*%
X161800000Y-102850000D03*
%TO.P,Y1,2,2*%
%TO.N,Net-(U1-PF0)*%
X161800000Y-107150000D03*
%TD*%
D35*
%TO.P,C8,1*%
%TO.N,5V*%
X166800000Y-113875000D03*
%TO.P,C8,2*%
%TO.N,GND*%
X166800000Y-112325000D03*
%TD*%
D38*
%TO.P,J4,1,Pin_1*%
%TO.N,3.3V*%
X137832000Y-122340000D03*
%TO.P,J4,2,Pin_2*%
%TO.N,SWDIO*%
X133768000Y-122340000D03*
%TO.P,J4,3,Pin_3*%
%TO.N,GND*%
X137832000Y-121070000D03*
%TO.P,J4,4,Pin_4*%
%TO.N,SWDCLK*%
X133768000Y-121070000D03*
%TO.P,J4,5,Pin_5*%
%TO.N,GND*%
X137832000Y-119800000D03*
%TO.P,J4,6,Pin_6*%
%TO.N,unconnected-(J4-Pin_6-Pad6)*%
X133768000Y-119800000D03*
%TO.P,J4,7,Pin_7*%
%TO.N,unconnected-(J4-Pin_7-Pad7)*%
X137832000Y-118530000D03*
%TO.P,J4,8,Pin_8*%
%TO.N,unconnected-(J4-Pin_8-Pad8)*%
X133768000Y-118530000D03*
%TO.P,J4,9,Pin_9*%
%TO.N,GND*%
X137832000Y-117260000D03*
%TO.P,J4,10,Pin_10*%
%TO.N,unconnected-(J4-Pin_10-Pad10)*%
X133768000Y-117260000D03*
%TD*%
D34*
%TO.P,R1,1*%
%TO.N,/LED_PA0*%
X148825000Y-113500000D03*
%TO.P,R1,2*%
%TO.N,Net-(D1-A)*%
X147175000Y-113500000D03*
%TD*%
D39*
%TO.N,*%
X152500000Y-90000000D03*
D40*
%TO.N,/LED_PA0*%
X156019000Y-115231000D03*
X156459000Y-102874000D03*
%TO.N,/LED_PA1*%
X155584000Y-102020000D03*
X155318000Y-113172000D03*
%TO.N,GND*%
X166000000Y-107000000D03*
X172000000Y-104000000D03*
X166000000Y-103000000D03*
X174000000Y-104000000D03*
X150300000Y-111200000D03*
X132832000Y-94225800D03*
%TO.N,CAN1_RX*%
X146094000Y-94344300D03*
%TO.N,3.3V*%
X140221000Y-107656000D03*
X139023000Y-95513100D03*
X141071000Y-120929000D03*
X177006000Y-98048000D03*
X177738000Y-114123000D03*
%TO.N,5V*%
X167881000Y-95403200D03*
X168278000Y-113085000D03*
X135273000Y-92077700D03*
%TO.N,CAN2_TX*%
X154878000Y-109307000D03*
X153055000Y-102448000D03*
%TO.N,/LED_PA2*%
X161132000Y-113186000D03*
X158981000Y-101300000D03*
%TO.N,SWDIO*%
X146442000Y-107342000D03*
X131300000Y-122300000D03*
%TO.N,CAN1_TX*%
X151930000Y-108931000D03*
X168518000Y-91408500D03*
%TO.N,CAN2_RX*%
X145994000Y-113057000D03*
X145056000Y-99803100D03*
%TO.N,CAN1_P*%
X179077000Y-104388000D03*
%TO.N,CAN2_N*%
X177600000Y-113200000D03*
%TD*%
D41*
%TO.N,/LED_PA0*%
X154288000Y-113500000D02*
X156019000Y-115231000D01*
X156459000Y-102874000D02*
X155530000Y-102874000D01*
X155157000Y-102500000D02*
X154300000Y-102500000D01*
X155530000Y-102874000D02*
X155157000Y-102500000D01*
X148825000Y-113500000D02*
X154288000Y-113500000D01*
%TO.N,Net-(D1-A)*%
X147175000Y-113500000D02*
X147175000Y-117888000D01*
X147175000Y-117888000D02*
X147500000Y-118212000D01*
X147500000Y-118212500D02*
X147500000Y-118212000D01*
%TO.N,/LED_PA1*%
X155646000Y-113500000D02*
X155318000Y-113172000D01*
X155564000Y-102000000D02*
X155584000Y-102020000D01*
X156500000Y-113500000D02*
X155646000Y-113500000D01*
X154300000Y-102000000D02*
X155564000Y-102000000D01*
%TO.N,Net-(D2-A)*%
X158150000Y-117562000D02*
X157500000Y-118212000D01*
X157500000Y-118212500D02*
X157500000Y-118212000D01*
X158150000Y-113500000D02*
X158150000Y-117562000D01*
%TO.N,GND*%
X166342000Y-99217200D02*
X159808000Y-99217200D01*
X139543000Y-119788000D02*
X139543000Y-117272000D01*
X152388000Y-107975000D02*
X152388000Y-107413000D01*
X132228000Y-99000000D02*
X145749000Y-99000000D01*
X160078000Y-110778000D02*
X159300000Y-110000000D01*
X148997900Y-119788000D02*
X147500500Y-119788000D01*
X159300000Y-108775000D02*
X159300000Y-110000000D01*
X148080000Y-98048000D02*
X147888000Y-98240600D01*
X138681000Y-119800000D02*
X138773000Y-119800000D01*
X172534000Y-111200000D02*
X171256000Y-109922000D01*
X141187000Y-105500000D02*
X139336000Y-107352000D01*
X169745000Y-112325000D02*
X170255000Y-111815000D01*
X174855000Y-92795000D02*
X172838000Y-92795000D01*
X148080000Y-97505100D02*
X146575000Y-96000000D01*
X138681000Y-119800000D02*
X137832000Y-119800000D01*
X152388000Y-108538000D02*
X152388000Y-107975000D01*
X167500000Y-119887500D02*
X167500000Y-119888000D01*
X152431000Y-110500000D02*
X152431000Y-110583000D01*
X138427000Y-91000000D02*
X138110000Y-91000000D01*
X171256000Y-109922000D02*
X168981000Y-109922000D01*
X145749000Y-99000000D02*
X147295000Y-100546000D01*
X168981000Y-109922000D02*
X168126000Y-110778000D01*
X149887500Y-99087500D02*
X149888000Y-99087500D01*
X157500000Y-119788000D02*
X148997900Y-119788000D01*
X154244000Y-109570000D02*
X154244000Y-109034000D01*
X149222000Y-100546000D02*
X149888000Y-99880100D01*
X149888000Y-99087500D02*
X149888000Y-98071500D01*
X172730000Y-112450000D02*
X171283000Y-112450000D01*
X154378000Y-109704000D02*
X154244000Y-109570000D01*
X175205000Y-110545000D02*
X173188000Y-110545000D01*
X159808000Y-99217200D02*
X159025000Y-100000000D01*
X167500000Y-119888000D02*
X157600000Y-119888000D01*
X139531000Y-120558000D02*
X138773000Y-119800000D01*
X147500500Y-119788000D02*
X147500000Y-119787500D01*
X132832000Y-91000000D02*
X131810000Y-91000000D01*
X152532000Y-108682000D02*
X152388000Y-108538000D01*
X157600000Y-119888000D02*
X157500000Y-119788000D01*
X136144000Y-107352000D02*
X135088000Y-106295000D01*
X169800000Y-102675000D02*
X166342000Y-99217200D01*
X139014000Y-90413000D02*
X138427000Y-91000000D01*
X135088000Y-106295000D02*
X135088000Y-106250000D01*
X132228000Y-113354000D02*
X132228000Y-112177000D01*
X167500000Y-94125000D02*
X167560000Y-94065000D01*
X156002000Y-107275000D02*
X157800000Y-107275000D01*
X147900000Y-100546000D02*
X149222000Y-100546000D01*
X154244000Y-109034000D02*
X156002000Y-107275000D01*
X166100000Y-94125000D02*
X167500000Y-94125000D01*
X168126000Y-110778000D02*
X160078000Y-110778000D01*
X139531000Y-119800000D02*
X138773000Y-119800000D01*
X139531000Y-121070000D02*
X139531000Y-120558000D01*
X156410000Y-97384500D02*
X159025000Y-100000000D01*
X138773000Y-119800000D02*
X138681000Y-119800000D01*
X152532000Y-110399000D02*
X152532000Y-108682000D01*
X137832000Y-117260000D02*
X136133000Y-117260000D01*
X143805000Y-105500000D02*
X145975000Y-105500000D01*
X170648000Y-111815000D02*
X171283000Y-112450000D01*
X139543000Y-117272000D02*
X139531000Y-117260000D01*
X135087500Y-106250000D02*
X135088000Y-106250000D01*
X136133000Y-117260000D02*
X132228000Y-113354000D01*
X143805000Y-105500000D02*
X141187000Y-105500000D01*
X169905000Y-94065000D02*
X167560000Y-94065000D01*
X137832000Y-121070000D02*
X139531000Y-121070000D01*
X148997900Y-119788000D02*
X139543000Y-119788000D01*
X157800000Y-107275000D02*
X159300000Y-108775000D01*
X154378000Y-110920000D02*
X154378000Y-109704000D01*
X132227500Y-112176500D02*
X132227500Y-111000000D01*
X148050000Y-86675000D02*
X145800000Y-88925000D01*
X148050000Y-86550000D02*
X148050000Y-86675000D01*
X170298000Y-94065000D02*
X169905000Y-94065000D01*
X157125000Y-86550000D02*
X148050000Y-86550000D01*
X152431000Y-110583000D02*
X153130000Y-111282000D01*
X145800000Y-90413000D02*
X139014000Y-90413000D01*
X154016000Y-111282000D02*
X154378000Y-110920000D01*
X172838000Y-92795000D02*
X170933000Y-94700000D01*
X143350000Y-105175000D02*
X143675000Y-105500000D01*
X170933000Y-94700000D02*
X170298000Y-94065000D01*
X170255000Y-111815000D02*
X170648000Y-111815000D01*
X172534000Y-111200000D02*
X171283000Y-112450000D01*
X147295000Y-100546000D02*
X147900000Y-100546000D01*
X132228000Y-112177000D02*
X132228000Y-111000000D01*
X147887500Y-100533500D02*
X147900000Y-100546000D01*
X150575000Y-97384500D02*
X156410000Y-97384500D01*
X139531000Y-117260000D02*
X137832000Y-117260000D01*
X148080000Y-98048000D02*
X148080000Y-97505100D01*
X138427000Y-91000000D02*
X132832000Y-91000000D01*
X152388000Y-107975000D02*
X152388000Y-107412000D01*
X147887500Y-99087500D02*
X147887500Y-100533500D01*
X172380000Y-94700000D02*
X170933000Y-94700000D01*
X143675000Y-105500000D02*
X143805000Y-105500000D01*
X157500000Y-119787500D02*
X157500000Y-119788000D01*
X166800000Y-112325000D02*
X169745000Y-112325000D01*
X147888000Y-98240600D02*
X147888000Y-99087500D01*
X152025000Y-110500000D02*
X152431000Y-110500000D01*
X139543000Y-119788000D02*
X139531000Y-119800000D01*
X153130000Y-111282000D02*
X154016000Y-111282000D01*
X147887500Y-99087500D02*
X147888000Y-99087500D01*
X139336000Y-107352000D02*
X136144000Y-107352000D01*
X168981000Y-103494000D02*
X169800000Y-102675000D01*
X168981000Y-109922000D02*
X168981000Y-103494000D01*
X152431000Y-110500000D02*
X152532000Y-110399000D01*
X145800000Y-88925000D02*
X145800000Y-90413000D01*
X149888000Y-98071500D02*
X150575000Y-97384500D01*
X173188000Y-110545000D02*
X172534000Y-111200000D01*
X132228000Y-112177000D02*
X132227500Y-112176500D01*
X132832000Y-91000000D02*
X132832000Y-94225800D01*
X149888000Y-99880100D02*
X149888000Y-99087500D01*
X152388000Y-107413000D02*
X152387500Y-107412500D01*
%TO.N,CAN1_RX*%
X151388000Y-107413000D02*
X151387500Y-107412500D01*
X151388000Y-107816500D02*
X151388000Y-107413000D01*
X145126000Y-111639000D02*
X144365000Y-112400000D01*
X159715000Y-97868800D02*
X156191000Y-94344300D01*
X170578000Y-101062000D02*
X170578000Y-103546000D01*
X169534000Y-97868800D02*
X159715000Y-97868800D01*
X169905000Y-96605000D02*
X169534000Y-96975700D01*
X156191000Y-94344300D02*
X146094000Y-94344300D01*
X151388000Y-107816500D02*
X151388000Y-108221000D01*
X151388000Y-108221000D02*
X147970000Y-111639000D01*
X147970000Y-111639000D02*
X145126000Y-111639000D01*
X169534000Y-100018000D02*
X170578000Y-101062000D01*
X169534000Y-97868800D02*
X169534000Y-100018000D01*
X170578000Y-103546000D02*
X169800000Y-104325000D01*
X169534000Y-96975700D02*
X169534000Y-97868800D01*
X151388000Y-107412000D02*
X151388000Y-107816500D01*
D42*
%TO.N,3.3V*%
X149025000Y-96475000D02*
X148887500Y-96612500D01*
D41*
X152887500Y-107412500D02*
X152888400Y-107412500D01*
D42*
X141071000Y-120929000D02*
X142751000Y-120929000D01*
D41*
X145025000Y-96000000D02*
X145025000Y-95513100D01*
X152910300Y-107434400D02*
X152888000Y-107412000D01*
D42*
X145350000Y-95187700D02*
X145437700Y-95100000D01*
X143322000Y-121500000D02*
X168060000Y-121500000D01*
D43*
X145025000Y-95513100D02*
X145350000Y-95187700D01*
X138110000Y-88700000D02*
X137410000Y-88000000D01*
D42*
X139660000Y-122340000D02*
X141071000Y-120929000D01*
D43*
X137410000Y-88000000D02*
X130900000Y-88000000D01*
D44*
X154300000Y-106000000D02*
X157525000Y-106000000D01*
X152888000Y-107412000D02*
X154300000Y-106000000D01*
D41*
X157525000Y-106000000D02*
X157800000Y-105725000D01*
D43*
X132113100Y-95513100D02*
X139023000Y-95513100D01*
D42*
X142751000Y-120929000D02*
X143322000Y-121500000D01*
D44*
X145250000Y-106725000D02*
X145975000Y-106000000D01*
D42*
X177738000Y-114123000D02*
X175437000Y-114123000D01*
D41*
X148887500Y-99087500D02*
X148888000Y-99087500D01*
D43*
X145025000Y-96725000D02*
X147286500Y-98986500D01*
D44*
X153575000Y-108100000D02*
X152910300Y-107434400D01*
D41*
X148888000Y-99087500D02*
X149387500Y-99087500D01*
X152888400Y-107412500D02*
X152910300Y-107434400D01*
D42*
X140221000Y-107656000D02*
X141131000Y-107656000D01*
X137832000Y-122340000D02*
X139660000Y-122340000D01*
X145437700Y-95100000D02*
X148125300Y-95100000D01*
D43*
X148213000Y-95187700D02*
X149025000Y-96000000D01*
D42*
X176298000Y-98048000D02*
X177006000Y-98048000D01*
D43*
X139023000Y-95513100D02*
X145025000Y-95513100D01*
D44*
X153575000Y-110500000D02*
X153575000Y-108100000D01*
D42*
X174855000Y-96605000D02*
X176298000Y-98048000D01*
D43*
X129500000Y-89400000D02*
X129500000Y-92900000D01*
X130900000Y-88000000D02*
X129500000Y-89400000D01*
D42*
X168060000Y-121500000D02*
X175205000Y-114355000D01*
D41*
X175437000Y-114123000D02*
X175205000Y-114355000D01*
X149025000Y-96000000D02*
X149025000Y-96475000D01*
D42*
X148125300Y-95100000D02*
X148213000Y-95187700D01*
D41*
X141131000Y-107656000D02*
X141200000Y-107725000D01*
D43*
X145025000Y-96000000D02*
X145025000Y-96725000D01*
D42*
X143350000Y-106725000D02*
X145250000Y-106725000D01*
D43*
X147286500Y-98986500D02*
X147286500Y-99087500D01*
D44*
X145975000Y-106000000D02*
X154300000Y-106000000D01*
D43*
X129500000Y-92900000D02*
X132113100Y-95513100D01*
D41*
X148887500Y-96612500D02*
X148887500Y-99087500D01*
D42*
X142350000Y-107725000D02*
X143350000Y-106725000D01*
X141200000Y-107725000D02*
X142350000Y-107725000D01*
D41*
X149387500Y-99087500D02*
X149388000Y-99087500D01*
%TO.N,Net-(J3-Pin_1)*%
X141825000Y-111248000D02*
X141200000Y-110623000D01*
X141200000Y-110623000D02*
X141200000Y-109375000D01*
X141825000Y-112400000D02*
X141825000Y-111248000D01*
D42*
%TO.N,5V*%
X145800000Y-92275000D02*
X139135000Y-92275000D01*
X136500000Y-93300000D02*
X138110000Y-93300000D01*
X167609200Y-95675000D02*
X167881000Y-95403200D01*
X167590000Y-113085000D02*
X168278000Y-113085000D01*
X135273000Y-92077700D02*
X135277700Y-92077700D01*
D44*
X166800000Y-113875000D02*
X167590000Y-113085000D01*
D42*
X146202000Y-92676700D02*
X161702000Y-92676700D01*
D41*
X167881000Y-95403200D02*
X167949000Y-95335000D01*
D42*
X164700300Y-95675000D02*
X166100000Y-95675000D01*
X135277700Y-92077700D02*
X136500000Y-93300000D01*
X161702000Y-92676700D02*
X164700300Y-95675000D01*
D41*
X167772000Y-95403200D02*
X167881000Y-95403200D01*
D42*
X166100000Y-95675000D02*
X167609200Y-95675000D01*
X167949000Y-95335000D02*
X169905000Y-95335000D01*
X139135000Y-92275000D02*
X138110000Y-93300000D01*
D41*
X145800000Y-92275000D02*
X146202000Y-92676700D01*
D42*
X168278000Y-113085000D02*
X170255000Y-113085000D01*
D41*
%TO.N,CAN2_TX*%
X153055000Y-102448000D02*
X152569000Y-101962000D01*
X170255000Y-110545000D02*
X169617000Y-111183000D01*
X169617000Y-111183000D02*
X156754000Y-111183000D01*
X152107000Y-101500000D02*
X152569000Y-101962000D01*
X152569000Y-101962000D02*
X153055000Y-102448000D01*
X152569000Y-101962000D02*
X153055000Y-102448000D01*
X145975000Y-101500000D02*
X152107000Y-101500000D01*
X156754000Y-111183000D02*
X154878000Y-109307000D01*
%TO.N,/LED_PA2*%
X155252000Y-101500000D02*
X154300000Y-101500000D01*
X158981000Y-101300000D02*
X155452000Y-101300000D01*
X161132000Y-113186000D02*
X161886000Y-113186000D01*
X161886000Y-113186000D02*
X162200000Y-113500000D01*
X155452000Y-101300000D02*
X155252000Y-101500000D01*
%TO.N,SWDIO*%
X147317000Y-107342000D02*
X147388000Y-107412000D01*
X133768000Y-122340000D02*
X131340000Y-122340000D01*
X146442000Y-107342000D02*
X146659000Y-107342000D01*
X147387500Y-107412500D02*
X147388000Y-107412000D01*
X146442000Y-107342000D02*
X146659000Y-107342000D01*
X146659000Y-107342000D02*
X147317000Y-107342000D01*
X146659000Y-107342000D02*
X146442000Y-107342000D01*
X131340000Y-122340000D02*
X131300000Y-122300000D01*
%TO.N,SWDCLK*%
X131425000Y-108516000D02*
X129902000Y-110040000D01*
X129902000Y-118902000D02*
X132069000Y-121070000D01*
X147610000Y-108516000D02*
X131425000Y-108516000D01*
X147888000Y-107413000D02*
X147887500Y-107412500D01*
X147888000Y-107412000D02*
X147888000Y-107825000D01*
X147888000Y-107825000D02*
X147888000Y-107413000D01*
X129902000Y-110040000D02*
X129902000Y-118902000D01*
X132069000Y-121070000D02*
X133768000Y-121070000D01*
X147888000Y-107825000D02*
X147888000Y-108238000D01*
X147888000Y-108238000D02*
X147610000Y-108516000D01*
%TO.N,USB_P*%
X136188500Y-104851000D02*
X135087500Y-103750000D01*
X139674000Y-104851000D02*
X136188500Y-104851000D01*
X144843749Y-104975000D02*
X144556802Y-104975000D01*
X135087500Y-103750000D02*
X135088000Y-103750000D01*
X143306802Y-103725000D02*
X140800000Y-103725000D01*
X144556802Y-104975000D02*
X143306802Y-103725000D01*
X140800000Y-103725000D02*
X139674000Y-104851000D01*
X145975000Y-105000000D02*
X144868749Y-105000000D01*
X144868749Y-105000000D02*
X144843749Y-104975000D01*
%TO.N,CAN1_TX*%
X151908500Y-107433500D02*
X151887500Y-107412500D01*
X168518000Y-91408500D02*
X169905000Y-92795000D01*
X151909000Y-107433500D02*
X151930000Y-107455000D01*
X151888000Y-107412000D02*
X151909000Y-107433500D01*
X151909000Y-107433500D02*
X151908500Y-107433500D01*
X151930000Y-107455000D02*
X151930000Y-108931000D01*
%TO.N,CAN2_RX*%
X144936000Y-99923100D02*
X144996000Y-99863100D01*
X144936000Y-100739000D02*
X144936000Y-99923100D01*
X144996000Y-99863100D02*
X145056000Y-99803100D01*
X169982000Y-114628000D02*
X166163000Y-114628000D01*
X144996000Y-99863100D02*
X145056000Y-99803100D01*
X145196000Y-101000000D02*
X144936000Y-100739000D01*
X166163000Y-114628000D02*
X164076000Y-112540000D01*
X170255000Y-114355000D02*
X169982000Y-114628000D01*
X145056000Y-99803100D02*
X144996000Y-99863100D01*
X145975000Y-101000000D02*
X145196000Y-101000000D01*
X164076000Y-112540000D02*
X146511000Y-112540000D01*
X146511000Y-112540000D02*
X145994000Y-113057000D01*
%TO.N,CAN1_P*%
X183908000Y-92695000D02*
X183907500Y-92695000D01*
D44*
X179787499Y-94065000D02*
X174855000Y-94065000D01*
X180854726Y-94065000D02*
X179787499Y-94065000D01*
X183907500Y-92695000D02*
X183305000Y-92695000D01*
D41*
X177975000Y-103300000D02*
X177990000Y-103300000D01*
D44*
X183305000Y-92695000D02*
X181935000Y-94065000D01*
X181935000Y-94065000D02*
X180854726Y-94065000D01*
D41*
X177990000Y-103300000D02*
X179077000Y-104388000D01*
%TO.N,CAN1_N*%
X183907500Y-99695000D02*
X183907700Y-99694800D01*
X183478000Y-95765000D02*
X183907500Y-96194500D01*
X183902500Y-96200000D02*
X183907500Y-96195000D01*
D44*
X183037500Y-95335000D02*
X183902500Y-96200000D01*
D41*
X173275000Y-99500000D02*
X181544628Y-99500000D01*
X181554745Y-99500000D02*
X183712000Y-99500000D01*
X183712000Y-99500000D02*
X183907700Y-99694800D01*
X183478000Y-95765000D02*
X183908000Y-96195000D01*
X183907500Y-96194500D02*
X183907500Y-96195000D01*
X183907700Y-99694800D02*
X183908000Y-99695000D01*
X181544628Y-99500000D02*
X181554745Y-99500000D01*
D44*
X174855000Y-95335000D02*
X183037500Y-95335000D01*
D41*
%TO.N,CAN2_P*%
X183505000Y-106695000D02*
X183907500Y-106695000D01*
X183905000Y-106697500D02*
X183907500Y-106695000D01*
D44*
X178385000Y-111815000D02*
X183505000Y-106695000D01*
D41*
X179525000Y-106700000D02*
X183902000Y-106700000D01*
X183902000Y-106700000D02*
X183905000Y-106697500D01*
D44*
X175205000Y-111815000D02*
X178385000Y-111815000D01*
D41*
X183905000Y-106697500D02*
X183908000Y-106695000D01*
%TO.N,CAN2_N*%
X183907500Y-113694500D02*
X183821700Y-113608600D01*
D44*
X175205000Y-113085000D02*
X176667501Y-113085000D01*
X180308912Y-111269396D02*
X180410403Y-111370887D01*
X181782403Y-110195000D02*
X183907500Y-110195000D01*
X180733174Y-110505719D02*
X180818029Y-110420867D01*
D41*
X183907500Y-110195000D02*
X183907700Y-110194800D01*
D44*
X180818029Y-110420867D02*
X181043897Y-110195000D01*
X177252501Y-112500000D02*
X177700000Y-112500000D01*
D41*
X183298000Y-113085000D02*
X183821700Y-113608600D01*
D44*
X180749814Y-111370887D02*
X180834666Y-111286034D01*
X177700000Y-112500000D02*
X178738897Y-112500000D01*
D41*
X183907500Y-113695000D02*
X183907500Y-113694500D01*
D44*
X177700000Y-113100000D02*
X177600000Y-113200000D01*
X180834666Y-110946622D02*
X180733174Y-110845130D01*
X177700000Y-112500000D02*
X177700000Y-113100000D01*
X181043897Y-110195000D02*
X181782403Y-110195000D01*
X178738897Y-112500000D02*
X179969501Y-111269396D01*
D41*
X177600000Y-113200000D02*
X177600000Y-113197499D01*
D44*
X176667501Y-113085000D02*
X177252501Y-112500000D01*
D41*
X183907700Y-110194800D02*
X183908000Y-110195000D01*
X183821700Y-113608600D02*
X183908000Y-113695000D01*
D44*
X179969501Y-111269396D02*
G75*
G02*
X180308912Y-111269395I169706J-169707D01*
G01*
X180410403Y-111370887D02*
G75*
G03*
X180749814Y-111370888I169706J169707D01*
G01*
X180733174Y-110845130D02*
G75*
G02*
X180733149Y-110505695I169726J169730D01*
G01*
X180834666Y-111286034D02*
G75*
G03*
X180834694Y-110946594I-169666J169734D01*
G01*
D41*
%TO.N,USB_N*%
X140149346Y-103275000D02*
X140029346Y-103275000D01*
X141349346Y-103275000D02*
X141229346Y-103275000D01*
X140989346Y-103035000D02*
X140989346Y-102617687D01*
X144743198Y-104525000D02*
X143493198Y-103275000D01*
X140029346Y-103275000D02*
X138673025Y-103275000D01*
X138673025Y-103275000D02*
X137562500Y-103275000D01*
X144868749Y-104500000D02*
X144843749Y-104525000D01*
X141589346Y-102617687D02*
X141589346Y-103035000D01*
X143493198Y-103275000D02*
X142429346Y-103275000D01*
X142189346Y-103035000D02*
X142189346Y-102617687D01*
X141949346Y-102377687D02*
X141829346Y-102377687D01*
X144843749Y-104525000D02*
X144743198Y-104525000D01*
X137562500Y-103275000D02*
X137087500Y-103750000D01*
X140749346Y-102377687D02*
X140629346Y-102377687D01*
X145975000Y-104500000D02*
X144868749Y-104500000D01*
X140389346Y-102617687D02*
X140389346Y-103035000D01*
X142429346Y-103275000D02*
G75*
G02*
X142189300Y-103035000I-46J240000D01*
G01*
X141829346Y-102377687D02*
G75*
G03*
X141589287Y-102617687I-46J-240013D01*
G01*
X140389346Y-103035000D02*
G75*
G02*
X140149346Y-103275046I-240046J0D01*
G01*
X141589346Y-103035000D02*
G75*
G02*
X141349346Y-103275046I-240046J0D01*
G01*
X142189346Y-102617687D02*
G75*
G03*
X141949346Y-102377654I-240046J-13D01*
G01*
X140989346Y-102617687D02*
G75*
G03*
X140749346Y-102377654I-240046J-13D01*
G01*
X141229346Y-103275000D02*
G75*
G02*
X140989300Y-103035000I-46J240000D01*
G01*
X140629346Y-102377687D02*
G75*
G03*
X140389287Y-102617687I-46J-240013D01*
G01*
%TO.N,Net-(J2-Pin_8)*%
X170685000Y-107550000D02*
X171837000Y-106398000D01*
X171837000Y-106398000D02*
X177573000Y-106398000D01*
X177573000Y-106398000D02*
X177875000Y-106700000D01*
%TO.N,Net-(J2-Pin_4)*%
X178042000Y-101717000D02*
X179625000Y-103300000D01*
X183908000Y-103195000D02*
X183907500Y-103195000D01*
X172952000Y-101717000D02*
X178042000Y-101717000D01*
X179730000Y-103195000D02*
X179625000Y-103300000D01*
X183907500Y-103195000D02*
X179730000Y-103195000D01*
X170735000Y-99500000D02*
X172952000Y-101717000D01*
%TO.N,Net-(U1-PF0)*%
X161800000Y-108000000D02*
X160850000Y-108950000D01*
X161800000Y-107150000D02*
X161450000Y-107150000D01*
X161800000Y-107150000D02*
X161800000Y-108000000D01*
X160850000Y-108950000D02*
X160850000Y-110000000D01*
X158300000Y-104000000D02*
X154300000Y-104000000D01*
X161450000Y-107150000D02*
X158300000Y-104000000D01*
%TO.N,Net-(U1-PF1)*%
X161150000Y-103500000D02*
X154300000Y-103500000D01*
X161800000Y-102850000D02*
X161150000Y-103500000D01*
X161800000Y-102850000D02*
X161800000Y-101225000D01*
X161800000Y-101225000D02*
X160575000Y-100000000D01*
X161800000Y-102850000D02*
X161800000Y-103000000D01*
%TO.N,Net-(D3-A)*%
X163850000Y-113500000D02*
X167500000Y-117150000D01*
X167500000Y-118312500D02*
X167500000Y-118312000D01*
X167500000Y-117150000D02*
X167500000Y-118312000D01*
%TD*%
%TA.AperFunction,Conductor*%
%TO.N,GND*%
G36*
X151194757Y-109343526D02*
G01*
X151215721Y-109345026D01*
X151227424Y-109353787D01*
X151241369Y-109358167D01*
X151267605Y-109381775D01*
X151271825Y-109386833D01*
X151308211Y-109441289D01*
X151362752Y-109495830D01*
X151366335Y-109500125D01*
X151378113Y-109527251D01*
X151392283Y-109553200D01*
X151391872Y-109558937D01*
X151394164Y-109564214D01*
X151389408Y-109593395D01*
X151387299Y-109622892D01*
X151383851Y-109627497D01*
X151382926Y-109633174D01*
X151351962Y-109671907D01*
X151352375Y-109672320D01*
X151348678Y-109676016D01*
X151348041Y-109676814D01*
X151347275Y-109677419D01*
X151227424Y-109797271D01*
X151138457Y-109941507D01*
X151138452Y-109941518D01*
X151085144Y-110102393D01*
X151075000Y-110201677D01*
X151075000Y-110250000D01*
X151901000Y-110250000D01*
X151968039Y-110269685D01*
X152013794Y-110322489D01*
X152025000Y-110374000D01*
X152025000Y-110500000D01*
X152151000Y-110500000D01*
X152218039Y-110519685D01*
X152263794Y-110572489D01*
X152275000Y-110624000D01*
X152275000Y-111474999D01*
X152298308Y-111474999D01*
X152298322Y-111474998D01*
X152397607Y-111464855D01*
X152558481Y-111411547D01*
X152558492Y-111411542D01*
X152702731Y-111322573D01*
X152711959Y-111313345D01*
X152773279Y-111279856D01*
X152842971Y-111284835D01*
X152887327Y-111313339D01*
X152896955Y-111322967D01*
X152896959Y-111322970D01*
X153041294Y-111411998D01*
X153041297Y-111411999D01*
X153041303Y-111412003D01*
X153202292Y-111465349D01*
X153301655Y-111475500D01*
X153848344Y-111475499D01*
X153848352Y-111475498D01*
X153848355Y-111475498D01*
X153902760Y-111469940D01*
X153947708Y-111465349D01*
X154108697Y-111412003D01*
X154253044Y-111322968D01*
X154372968Y-111203044D01*
X154462003Y-111058697D01*
X154515349Y-110897708D01*
X154525500Y-110798345D01*
X154525499Y-110204159D01*
X154531434Y-110183946D01*
X154532562Y-110162907D01*
X154541080Y-110151094D01*
X154545183Y-110137121D01*
X154561106Y-110123323D01*
X154573429Y-110106235D01*
X154586980Y-110100902D01*
X154597987Y-110091366D01*
X154618839Y-110088367D01*
X154638447Y-110080653D01*
X154663245Y-110081982D01*
X154667146Y-110081422D01*
X154673691Y-110082543D01*
X154799850Y-110107638D01*
X154861761Y-110140023D01*
X154863337Y-110141572D01*
X156385284Y-111663520D01*
X156462521Y-111708112D01*
X156510737Y-111758679D01*
X156523961Y-111827286D01*
X156497993Y-111892151D01*
X156441079Y-111932680D01*
X156400522Y-111939500D01*
X148818097Y-111939500D01*
X148751058Y-111919815D01*
X148705303Y-111867011D01*
X148695359Y-111797853D01*
X148724384Y-111734297D01*
X148730416Y-111727819D01*
X149265783Y-111192452D01*
X149659913Y-110798322D01*
X151075001Y-110798322D01*
X151085144Y-110897607D01*
X151138452Y-111058481D01*
X151138457Y-111058492D01*
X151227424Y-111202728D01*
X151227427Y-111202732D01*
X151347267Y-111322572D01*
X151347271Y-111322575D01*
X151491507Y-111411542D01*
X151491518Y-111411547D01*
X151652393Y-111464855D01*
X151751683Y-111474999D01*
X151775000Y-111474998D01*
X151775000Y-110750000D01*
X151075001Y-110750000D01*
X151075001Y-110798322D01*
X149659913Y-110798322D01*
X151084708Y-109373525D01*
X151097535Y-109366521D01*
X151107314Y-109355655D01*
X151127584Y-109350113D01*
X151146029Y-109340042D01*
X151160609Y-109341084D01*
X151174710Y-109337230D01*
X151194757Y-109343526D01*
G37*
%TD.AperFunction*%
%TA.AperFunction,Conductor*%
G36*
X158980701Y-105530383D02*
G01*
X158987180Y-105536415D01*
X159963181Y-106512416D01*
X159996666Y-106573739D01*
X159999500Y-106600097D01*
X159999500Y-108147870D01*
X159999501Y-108147876D01*
X160005908Y-108207483D01*
X160056202Y-108342328D01*
X160056206Y-108342335D01*
X160142452Y-108457544D01*
X160142455Y-108457547D01*
X160262745Y-108547597D01*
X160304616Y-108603531D01*
X160309600Y-108673222D01*
X160295823Y-108708859D01*
X160290425Y-108718207D01*
X160290424Y-108718210D01*
X160274544Y-108777472D01*
X160249499Y-108870943D01*
X160249499Y-108870945D01*
X160249499Y-109039046D01*
X160249500Y-109039059D01*
X160249500Y-109059995D01*
X160229815Y-109127034D01*
X160190600Y-109165532D01*
X160171955Y-109177032D01*
X160162324Y-109186663D01*
X160101000Y-109220146D01*
X160031308Y-109215159D01*
X159986965Y-109186660D01*
X159977732Y-109177427D01*
X159977728Y-109177424D01*
X159833492Y-109088457D01*
X159833481Y-109088452D01*
X159672606Y-109035144D01*
X159573322Y-109025000D01*
X159550000Y-109025000D01*
X159550000Y-109876000D01*
X159530315Y-109943039D01*
X159477511Y-109988794D01*
X159426000Y-110000000D01*
X159300000Y-110000000D01*
X159300000Y-110126000D01*
X159280315Y-110193039D01*
X159227511Y-110238794D01*
X159176000Y-110250000D01*
X158350001Y-110250000D01*
X158350001Y-110298322D01*
X158360144Y-110397609D01*
X158367397Y-110419497D01*
X158369798Y-110489326D01*
X158334066Y-110549367D01*
X158271545Y-110580559D01*
X158249691Y-110582500D01*
X157054098Y-110582500D01*
X156987059Y-110562815D01*
X156966417Y-110546181D01*
X156121913Y-109701677D01*
X158350000Y-109701677D01*
X158350000Y-109750000D01*
X159050000Y-109750000D01*
X159050000Y-109024999D01*
X159026693Y-109025000D01*
X159026674Y-109025001D01*
X158927392Y-109035144D01*
X158766518Y-109088452D01*
X158766507Y-109088457D01*
X158622271Y-109177424D01*
X158622267Y-109177427D01*
X158502427Y-109297267D01*
X158502424Y-109297271D01*
X158413457Y-109441507D01*
X158413452Y-109441518D01*
X158360144Y-109602393D01*
X158350000Y-109701677D01*
X156121913Y-109701677D01*
X155712573Y-109292337D01*
X155679088Y-109231014D01*
X155678637Y-109228847D01*
X155665837Y-109164497D01*
X155647737Y-109073503D01*
X155621368Y-109009842D01*
X155587397Y-108927827D01*
X155587390Y-108927814D01*
X155499789Y-108796711D01*
X155499786Y-108796707D01*
X155388292Y-108685213D01*
X155388288Y-108685210D01*
X155257185Y-108597609D01*
X155257172Y-108597602D01*
X155111501Y-108537264D01*
X155111489Y-108537261D01*
X154956845Y-108506500D01*
X154956842Y-108506500D01*
X154799158Y-108506500D01*
X154799155Y-108506500D01*
X154644510Y-108537261D01*
X154644498Y-108537264D01*
X154498827Y-108597602D01*
X154498814Y-108597609D01*
X154418391Y-108651347D01*
X154351713Y-108672225D01*
X154284333Y-108653740D01*
X154237643Y-108601762D01*
X154225500Y-108548245D01*
X154225500Y-108098950D01*
X154225542Y-108036371D01*
X154225500Y-108036159D01*
X154225500Y-108035931D01*
X154212798Y-107972077D01*
X154200629Y-107910679D01*
X154200626Y-107910672D01*
X154200502Y-107910264D01*
X154200501Y-107910256D01*
X154175953Y-107850992D01*
X154151673Y-107792263D01*
X154151550Y-107792079D01*
X154151465Y-107791873D01*
X154116303Y-107739250D01*
X154080557Y-107685672D01*
X154080529Y-107685638D01*
X154080383Y-107685492D01*
X154080276Y-107685331D01*
X154036223Y-107641278D01*
X154036218Y-107641269D01*
X154036217Y-107641271D01*
X153956319Y-107561264D01*
X153956314Y-107561260D01*
X153943394Y-107548322D01*
X156825001Y-107548322D01*
X156835144Y-107647607D01*
X156888452Y-107808481D01*
X156888457Y-107808492D01*
X156977424Y-107952728D01*
X156977427Y-107952732D01*
X157097267Y-108072572D01*
X157097271Y-108072575D01*
X157241507Y-108161542D01*
X157241518Y-108161547D01*
X157402393Y-108214855D01*
X157501683Y-108224999D01*
X158050000Y-108224999D01*
X158098308Y-108224999D01*
X158098322Y-108224998D01*
X158197607Y-108214855D01*
X158358481Y-108161547D01*
X158358492Y-108161542D01*
X158502728Y-108072575D01*
X158502732Y-108072572D01*
X158622572Y-107952732D01*
X158622575Y-107952728D01*
X158711542Y-107808492D01*
X158711547Y-107808481D01*
X158764855Y-107647606D01*
X158774999Y-107548322D01*
X158775000Y-107548306D01*
X158775000Y-107525000D01*
X158050000Y-107525000D01*
X158050000Y-108224999D01*
X157501683Y-108224999D01*
X157549999Y-108224998D01*
X157550000Y-108224998D01*
X157550000Y-107525000D01*
X156825001Y-107525000D01*
X156825001Y-107548322D01*
X153943394Y-107548322D01*
X153895162Y-107500025D01*
X153861719Y-107438679D01*
X153866751Y-107368991D01*
X153895219Y-107324725D01*
X154533127Y-106686819D01*
X154594450Y-106653334D01*
X154620808Y-106650500D01*
X156746893Y-106650500D01*
X156813932Y-106670185D01*
X156859687Y-106722989D01*
X156869631Y-106792147D01*
X156864599Y-106813504D01*
X156835144Y-106902393D01*
X156825000Y-107001677D01*
X156825000Y-107025000D01*
X158774999Y-107025000D01*
X158774999Y-107001692D01*
X158774998Y-107001677D01*
X158764855Y-106902392D01*
X158711547Y-106741518D01*
X158711542Y-106741507D01*
X158622575Y-106597271D01*
X158622572Y-106597267D01*
X158613339Y-106588034D01*
X158579854Y-106526711D01*
X158584838Y-106457019D01*
X158613343Y-106412668D01*
X158622968Y-106403044D01*
X158712003Y-106258697D01*
X158765349Y-106097708D01*
X158775500Y-105998345D01*
X158775499Y-105624094D01*
X158795183Y-105557057D01*
X158847987Y-105511302D01*
X158917146Y-105501358D01*
X158980701Y-105530383D01*
G37*
%TD.AperFunction*%
%TA.AperFunction,Conductor*%
G36*
X152863773Y-109138619D02*
G01*
X152911384Y-109189756D01*
X152924500Y-109245261D01*
X152924500Y-109598125D01*
X152915855Y-109627565D01*
X152909332Y-109657552D01*
X152905577Y-109662567D01*
X152904815Y-109665164D01*
X152888181Y-109685806D01*
X152887327Y-109686660D01*
X152826004Y-109720145D01*
X152756312Y-109715161D01*
X152711965Y-109686660D01*
X152702732Y-109677427D01*
X152702728Y-109677424D01*
X152593557Y-109610086D01*
X152546832Y-109558138D01*
X152535611Y-109489176D01*
X152555552Y-109435657D01*
X152607329Y-109358167D01*
X152639394Y-109310179D01*
X152646784Y-109292337D01*
X152685939Y-109197809D01*
X152729779Y-109143405D01*
X152796073Y-109121340D01*
X152863773Y-109138619D01*
G37*
%TD.AperFunction*%
%TA.AperFunction,Conductor*%
G36*
X144432644Y-105563416D02*
G01*
X144477745Y-105575501D01*
X144477748Y-105575501D01*
X144623859Y-105575501D01*
X144690898Y-105595186D01*
X144736653Y-105647990D01*
X144746798Y-105683314D01*
X144753304Y-105732728D01*
X144751095Y-105766472D01*
X144752874Y-105766707D01*
X144737000Y-105887272D01*
X144737000Y-105900500D01*
X144717315Y-105967539D01*
X144664511Y-106013294D01*
X144613000Y-106024500D01*
X144288800Y-106024500D01*
X144221761Y-106004815D01*
X144176006Y-105952011D01*
X144166062Y-105882853D01*
X144183262Y-105835403D01*
X144261542Y-105708492D01*
X144261545Y-105708484D01*
X144282850Y-105644190D01*
X144285927Y-105639745D01*
X144286569Y-105634379D01*
X144305600Y-105611329D01*
X144322622Y-105586744D01*
X144327614Y-105584668D01*
X144331055Y-105580501D01*
X144359529Y-105571398D01*
X144387138Y-105559920D01*
X144393830Y-105560434D01*
X144397607Y-105559227D01*
X144432644Y-105563416D01*
G37*
%TD.AperFunction*%
%TA.AperFunction,Conductor*%
G36*
X149945629Y-100196055D02*
G01*
X149962984Y-100207208D01*
X149988986Y-100227160D01*
X150030189Y-100283587D01*
X150036378Y-100319102D01*
X150037500Y-100320086D01*
X150120230Y-100309195D01*
X150153969Y-100311415D01*
X150154205Y-100309626D01*
X150162263Y-100310686D01*
X150162264Y-100310687D01*
X150274780Y-100325500D01*
X150274787Y-100325500D01*
X150500213Y-100325500D01*
X150500220Y-100325500D01*
X150612736Y-100310687D01*
X150612736Y-100310686D01*
X150620795Y-100309626D01*
X150621198Y-100312689D01*
X150653802Y-100312689D01*
X150654205Y-100309626D01*
X150662263Y-100310686D01*
X150662264Y-100310687D01*
X150774780Y-100325500D01*
X150774787Y-100325500D01*
X151000213Y-100325500D01*
X151000220Y-100325500D01*
X151112736Y-100310687D01*
X151112736Y-100310686D01*
X151120795Y-100309626D01*
X151121198Y-100312689D01*
X151153802Y-100312689D01*
X151154205Y-100309626D01*
X151162263Y-100310686D01*
X151162264Y-100310687D01*
X151274780Y-100325500D01*
X151274787Y-100325500D01*
X151500213Y-100325500D01*
X151500220Y-100325500D01*
X151612736Y-100310687D01*
X151612736Y-100310686D01*
X151620795Y-100309626D01*
X151621198Y-100312689D01*
X151653802Y-100312689D01*
X151654205Y-100309626D01*
X151662263Y-100310686D01*
X151662264Y-100310687D01*
X151774780Y-100325500D01*
X151774787Y-100325500D01*
X152000213Y-100325500D01*
X152000220Y-100325500D01*
X152112736Y-100310687D01*
X152112736Y-100310686D01*
X152120795Y-100309626D01*
X152121198Y-100312689D01*
X152153802Y-100312689D01*
X152154205Y-100309626D01*
X152162263Y-100310686D01*
X152162264Y-100310687D01*
X152274780Y-100325500D01*
X152274787Y-100325500D01*
X152500213Y-100325500D01*
X152500220Y-100325500D01*
X152612736Y-100310687D01*
X152612736Y-100310686D01*
X152620795Y-100309626D01*
X152621198Y-100312689D01*
X152653802Y-100312689D01*
X152654205Y-100309626D01*
X152662263Y-100310686D01*
X152662264Y-100310687D01*
X152774780Y-100325500D01*
X152774787Y-100325500D01*
X152938000Y-100325500D01*
X153005039Y-100345185D01*
X153050794Y-100397989D01*
X153062000Y-100449500D01*
X153062000Y-100612727D01*
X153077874Y-100733292D01*
X153074899Y-100733683D01*
X153074899Y-100766316D01*
X153077874Y-100766708D01*
X153076813Y-100774762D01*
X153076813Y-100774764D01*
X153074308Y-100793793D01*
X153062000Y-100887272D01*
X153062000Y-101112727D01*
X153077560Y-101230912D01*
X153077614Y-101231026D01*
X153077602Y-101231233D01*
X153077874Y-101233292D01*
X153077490Y-101233342D01*
X153076758Y-101247052D01*
X153077996Y-101266318D01*
X153076903Y-101274544D01*
X153076813Y-101274764D01*
X153069421Y-101330906D01*
X153069385Y-101331183D01*
X153055188Y-101363181D01*
X153041134Y-101394948D01*
X153041077Y-101394985D01*
X153041049Y-101395049D01*
X153011922Y-101414215D01*
X152982809Y-101433419D01*
X152982739Y-101433419D01*
X152982683Y-101433457D01*
X152948224Y-101433829D01*
X152912944Y-101434249D01*
X152912881Y-101434212D01*
X152912817Y-101434213D01*
X152911907Y-101433642D01*
X152858782Y-101402546D01*
X152475717Y-101019481D01*
X152475716Y-101019480D01*
X152388904Y-100969360D01*
X152388904Y-100969359D01*
X152388900Y-100969358D01*
X152338785Y-100940423D01*
X152186057Y-100899499D01*
X152027943Y-100899499D01*
X152020347Y-100899499D01*
X152020331Y-100899500D01*
X147323354Y-100899500D01*
X147322789Y-100899334D01*
X147322222Y-100899495D01*
X147289279Y-100889494D01*
X147256315Y-100879815D01*
X147255929Y-100879370D01*
X147255365Y-100879199D01*
X147233051Y-100852967D01*
X147210560Y-100827011D01*
X147210348Y-100826278D01*
X147210094Y-100825979D01*
X147202731Y-100799892D01*
X147200460Y-100792026D01*
X147200440Y-100791878D01*
X147198187Y-100774764D01*
X147198115Y-100774591D01*
X147197031Y-100766526D01*
X147200189Y-100745901D01*
X147200189Y-100733698D01*
X147197126Y-100733295D01*
X147200516Y-100707544D01*
X147213000Y-100612720D01*
X147213000Y-100449500D01*
X147232685Y-100382461D01*
X147285489Y-100336706D01*
X147337000Y-100325500D01*
X147500213Y-100325500D01*
X147500220Y-100325500D01*
X147612736Y-100310687D01*
X147752733Y-100252698D01*
X147812015Y-100207208D01*
X147877184Y-100182016D01*
X147945629Y-100196055D01*
X147962984Y-100207208D01*
X147988986Y-100227160D01*
X148030189Y-100283587D01*
X148036378Y-100319102D01*
X148037500Y-100320086D01*
X148120230Y-100309195D01*
X148153969Y-100311415D01*
X148154205Y-100309626D01*
X148162263Y-100310686D01*
X148162264Y-100310687D01*
X148274780Y-100325500D01*
X148274787Y-100325500D01*
X148500213Y-100325500D01*
X148500220Y-100325500D01*
X148612736Y-100310687D01*
X148612736Y-100310686D01*
X148620795Y-100309626D01*
X148621198Y-100312689D01*
X148653802Y-100312689D01*
X148654205Y-100309626D01*
X148662263Y-100310686D01*
X148662264Y-100310687D01*
X148774780Y-100325500D01*
X148774787Y-100325500D01*
X149000213Y-100325500D01*
X149000220Y-100325500D01*
X149112736Y-100310687D01*
X149112736Y-100310686D01*
X149120795Y-100309626D01*
X149121198Y-100312689D01*
X149153802Y-100312689D01*
X149154205Y-100309626D01*
X149162263Y-100310686D01*
X149162264Y-100310687D01*
X149274780Y-100325500D01*
X149274787Y-100325500D01*
X149500213Y-100325500D01*
X149500220Y-100325500D01*
X149612736Y-100310687D01*
X149752733Y-100252698D01*
X149812015Y-100207208D01*
X149877184Y-100182016D01*
X149945629Y-100196055D01*
G37*
%TD.AperFunction*%
%TA.AperFunction,Conductor*%
G36*
X147780066Y-95820185D02*
G01*
X147800722Y-95836833D01*
X148038197Y-96074396D01*
X148071671Y-96135724D01*
X148074500Y-96162059D01*
X148074500Y-96298336D01*
X148074501Y-96298355D01*
X148084650Y-96397707D01*
X148084651Y-96397710D01*
X148109589Y-96472967D01*
X148137925Y-96558481D01*
X148137998Y-96558699D01*
X148168538Y-96608211D01*
X148187000Y-96673309D01*
X148187000Y-96681494D01*
X148187000Y-96681496D01*
X148186999Y-96681496D01*
X148213918Y-96816822D01*
X148213921Y-96816832D01*
X148266722Y-96944306D01*
X148269594Y-96949678D01*
X148268292Y-96950374D01*
X148286980Y-97010054D01*
X148287000Y-97012269D01*
X148287000Y-97739146D01*
X148286930Y-97739382D01*
X148286999Y-97739619D01*
X148277084Y-97772914D01*
X148267315Y-97806185D01*
X148267129Y-97806345D01*
X148267059Y-97806582D01*
X148240677Y-97829266D01*
X148214511Y-97851940D01*
X148214205Y-97852029D01*
X148214081Y-97852136D01*
X148203120Y-97855260D01*
X148180179Y-97861950D01*
X148179639Y-97862025D01*
X148162264Y-97864313D01*
X148161742Y-97864529D01*
X148153594Y-97865669D01*
X148143981Y-97864249D01*
X148120229Y-97865804D01*
X148037500Y-97854911D01*
X148036949Y-97855394D01*
X148037281Y-97856835D01*
X148026658Y-97886385D01*
X148017815Y-97916502D01*
X148014560Y-97920040D01*
X148013645Y-97922586D01*
X147988987Y-97947838D01*
X147962986Y-97967789D01*
X147897819Y-97992984D01*
X147829374Y-97978946D01*
X147812015Y-97967790D01*
X147786012Y-97947838D01*
X147744810Y-97891410D01*
X147738620Y-97855894D01*
X147737499Y-97854911D01*
X147654770Y-97865804D01*
X147621027Y-97863593D01*
X147620793Y-97865374D01*
X147612736Y-97864313D01*
X147592951Y-97861708D01*
X147500227Y-97849500D01*
X147500220Y-97849500D01*
X147274780Y-97849500D01*
X147270857Y-97849757D01*
X147202674Y-97834496D01*
X147175071Y-97813703D01*
X146361319Y-96999951D01*
X146347694Y-96974999D01*
X146825000Y-96974999D01*
X146848308Y-96974999D01*
X146848322Y-96974998D01*
X146947607Y-96964855D01*
X147108481Y-96911547D01*
X147108492Y-96911542D01*
X147252728Y-96822575D01*
X147252732Y-96822572D01*
X147372572Y-96702732D01*
X147372575Y-96702728D01*
X147461542Y-96558492D01*
X147461547Y-96558481D01*
X147514855Y-96397606D01*
X147524999Y-96298322D01*
X147525000Y-96298309D01*
X147525000Y-96250000D01*
X146825000Y-96250000D01*
X146825000Y-96974999D01*
X146347694Y-96974999D01*
X146327834Y-96938628D01*
X146325000Y-96912270D01*
X146325000Y-96124000D01*
X146344685Y-96056961D01*
X146397489Y-96011206D01*
X146449000Y-96000000D01*
X146575000Y-96000000D01*
X146575000Y-95924500D01*
X146594685Y-95857461D01*
X146647489Y-95811706D01*
X146699000Y-95800500D01*
X147713027Y-95800500D01*
X147780066Y-95820185D01*
G37*
%TD.AperFunction*%
%TA.AperFunction,Conductor*%
G36*
X188943039Y-86019685D02*
G01*
X188988794Y-86072489D01*
X189000000Y-86124000D01*
X189000000Y-123876000D01*
X188980315Y-123943039D01*
X188927511Y-123988794D01*
X188876000Y-124000000D01*
X126124000Y-124000000D01*
X126056961Y-123980315D01*
X126011206Y-123927511D01*
X126000000Y-123876000D01*
X126000000Y-123481646D01*
X177544657Y-123481646D01*
X187282157Y-123481646D01*
X187282157Y-121363191D01*
X177544657Y-121363191D01*
X177544657Y-123481646D01*
X126000000Y-123481646D01*
X126000000Y-92973920D01*
X128749499Y-92973920D01*
X128778340Y-93118907D01*
X128778343Y-93118917D01*
X128834914Y-93255492D01*
X128862965Y-93297473D01*
X128862966Y-93297476D01*
X128917046Y-93378414D01*
X128917052Y-93378421D01*
X130891256Y-95352623D01*
X131530148Y-95991515D01*
X131530149Y-95991516D01*
X131583699Y-96045066D01*
X131634685Y-96096052D01*
X131757598Y-96178180D01*
X131757611Y-96178187D01*
X131857580Y-96219595D01*
X131894187Y-96234758D01*
X131894191Y-96234758D01*
X131894192Y-96234759D01*
X132033158Y-96262402D01*
X132095069Y-96294787D01*
X132129643Y-96355503D01*
X132125903Y-96425272D01*
X132085036Y-96481944D01*
X132022850Y-96507239D01*
X131808087Y-96531437D01*
X131808075Y-96531439D01*
X131534321Y-96593921D01*
X131534319Y-96593922D01*
X131269282Y-96686662D01*
X131016299Y-96808492D01*
X130778543Y-96957884D01*
X130645241Y-97064187D01*
X131608966Y-98027912D01*
X131478325Y-98122829D01*
X131350329Y-98250825D01*
X131255413Y-98381466D01*
X130291687Y-97417741D01*
X130185384Y-97551043D01*
X130035992Y-97788799D01*
X129914162Y-98041782D01*
X129821422Y-98306819D01*
X129821421Y-98306821D01*
X129758939Y-98580575D01*
X129758937Y-98580587D01*
X129727500Y-98859598D01*
X129727500Y-99140401D01*
X129758937Y-99419412D01*
X129758939Y-99419424D01*
X129821421Y-99693178D01*
X129821422Y-99693180D01*
X129914162Y-99958217D01*
X130035992Y-100211200D01*
X130185384Y-100448956D01*
X130291687Y-100582257D01*
X131255412Y-99618532D01*
X131350329Y-99749175D01*
X131478325Y-99877171D01*
X131608966Y-99972086D01*
X130645241Y-100935810D01*
X130645241Y-100935811D01*
X130778543Y-101042115D01*
X131016299Y-101191507D01*
X131269282Y-101313337D01*
X131534319Y-101406077D01*
X131534321Y-101406078D01*
X131808075Y-101468560D01*
X131808087Y-101468562D01*
X132087098Y-101499999D01*
X132087100Y-101500000D01*
X132367900Y-101500000D01*
X132367901Y-101499999D01*
X132646912Y-101468562D01*
X132646924Y-101468560D01*
X132920678Y-101406078D01*
X132920680Y-101406077D01*
X133185717Y-101313337D01*
X133438700Y-101191507D01*
X133676456Y-101042116D01*
X133809757Y-100935810D01*
X132846033Y-99972086D01*
X132976675Y-99877171D01*
X133104671Y-99749175D01*
X133199586Y-99618533D01*
X134163310Y-100582257D01*
X134269616Y-100448956D01*
X134419007Y-100211200D01*
X134540837Y-99958217D01*
X134633577Y-99693180D01*
X134633578Y-99693178D01*
X134696060Y-99419424D01*
X134696062Y-99419412D01*
X134727499Y-99140401D01*
X134727500Y-99140399D01*
X134727500Y-98859600D01*
X134727499Y-98859598D01*
X134696062Y-98580587D01*
X134696060Y-98580575D01*
X134633578Y-98306821D01*
X134633577Y-98306819D01*
X134540837Y-98041782D01*
X134419007Y-97788799D01*
X134269615Y-97551043D01*
X134163310Y-97417741D01*
X133199586Y-98381465D01*
X133104671Y-98250825D01*
X132976675Y-98122829D01*
X132846033Y-98027912D01*
X133809757Y-97064187D01*
X133676456Y-96957884D01*
X133438700Y-96808492D01*
X133185717Y-96686662D01*
X132920680Y-96593922D01*
X132920678Y-96593921D01*
X132646924Y-96531439D01*
X132646912Y-96531437D01*
X132463931Y-96510820D01*
X132399517Y-96483753D01*
X132359962Y-96426159D01*
X132357825Y-96356322D01*
X132393783Y-96296415D01*
X132456421Y-96265460D01*
X132477815Y-96263600D01*
X138718396Y-96263600D01*
X138765844Y-96273037D01*
X138789503Y-96282837D01*
X138789508Y-96282838D01*
X138789511Y-96282839D01*
X138944153Y-96313599D01*
X138944156Y-96313600D01*
X138944158Y-96313600D01*
X139101844Y-96313600D01*
X139101845Y-96313599D01*
X139196421Y-96294787D01*
X139256488Y-96282839D01*
X139256489Y-96282838D01*
X139256497Y-96282837D01*
X139280155Y-96273037D01*
X139327604Y-96263600D01*
X143958973Y-96263600D01*
X144026012Y-96283285D01*
X144071767Y-96336089D01*
X144082331Y-96374998D01*
X144084651Y-96397708D01*
X144084651Y-96397710D01*
X144137996Y-96558694D01*
X144138001Y-96558705D01*
X144227029Y-96703040D01*
X144227032Y-96703044D01*
X144238181Y-96714193D01*
X144271666Y-96775516D01*
X144273534Y-96792894D01*
X144273903Y-96792858D01*
X144274499Y-96798920D01*
X144303340Y-96943907D01*
X144303343Y-96943917D01*
X144359913Y-97080490D01*
X144359916Y-97080495D01*
X144380092Y-97110692D01*
X144442044Y-97203410D01*
X144442050Y-97203418D01*
X146561398Y-99322766D01*
X146588278Y-99362994D01*
X146621414Y-99442991D01*
X146621419Y-99443001D01*
X146703548Y-99565915D01*
X146707414Y-99570626D01*
X146705615Y-99572101D01*
X146715376Y-99589962D01*
X146731977Y-99615794D01*
X146732863Y-99621962D01*
X146734157Y-99624329D01*
X146737000Y-99650729D01*
X146737000Y-99725500D01*
X146717315Y-99792539D01*
X146664511Y-99838294D01*
X146613000Y-99849500D01*
X145980500Y-99849500D01*
X145913461Y-99829815D01*
X145867706Y-99777011D01*
X145857538Y-99730274D01*
X145857097Y-99730318D01*
X145856723Y-99726529D01*
X145856500Y-99725500D01*
X145856500Y-99724255D01*
X145856499Y-99724253D01*
X145841874Y-99650729D01*
X145825737Y-99569603D01*
X145824209Y-99565915D01*
X145765397Y-99423927D01*
X145765390Y-99423914D01*
X145677789Y-99292811D01*
X145677786Y-99292807D01*
X145566292Y-99181313D01*
X145566288Y-99181310D01*
X145435185Y-99093709D01*
X145435172Y-99093702D01*
X145289501Y-99033364D01*
X145289489Y-99033361D01*
X145134845Y-99002600D01*
X145134842Y-99002600D01*
X144977158Y-99002600D01*
X144977155Y-99002600D01*
X144822510Y-99033361D01*
X144822498Y-99033364D01*
X144676827Y-99093702D01*
X144676814Y-99093709D01*
X144545711Y-99181310D01*
X144545707Y-99181313D01*
X144434213Y-99292807D01*
X144434210Y-99292811D01*
X144346609Y-99423914D01*
X144346602Y-99423927D01*
X144286264Y-99569598D01*
X144286261Y-99569610D01*
X144255500Y-99724253D01*
X144255500Y-99881946D01*
X144276754Y-99988794D01*
X144286263Y-100036597D01*
X144315981Y-100108344D01*
X144326061Y-100132678D01*
X144335500Y-100180131D01*
X144335500Y-100738108D01*
X144335349Y-100816905D01*
X144335500Y-100817472D01*
X144335500Y-100818057D01*
X144349005Y-100868459D01*
X144355758Y-100893662D01*
X144355819Y-100893891D01*
X144375978Y-100969708D01*
X144376230Y-100970319D01*
X144376230Y-100970322D01*
X144376411Y-100970763D01*
X144376422Y-100970783D01*
X144376423Y-100970784D01*
X144390510Y-100995183D01*
X144415710Y-101038832D01*
X144415709Y-101038832D01*
X144415926Y-101039208D01*
X144454774Y-101106793D01*
X144455185Y-101107206D01*
X144455480Y-101107716D01*
X144511161Y-101163397D01*
X144700850Y-101353815D01*
X144734217Y-101415201D01*
X144737000Y-101441327D01*
X144737000Y-101612727D01*
X144752874Y-101733292D01*
X144749899Y-101733683D01*
X144749899Y-101766316D01*
X144752874Y-101766708D01*
X144751813Y-101774762D01*
X144751813Y-101774764D01*
X144750938Y-101781409D01*
X144737000Y-101887272D01*
X144737000Y-102112727D01*
X144746595Y-102185604D01*
X144751069Y-102219588D01*
X144752874Y-102233292D01*
X144749899Y-102233683D01*
X144749899Y-102266316D01*
X144752874Y-102266708D01*
X144751813Y-102274762D01*
X144751813Y-102274764D01*
X144750047Y-102288181D01*
X144737000Y-102387272D01*
X144737000Y-102612727D01*
X144752874Y-102733292D01*
X144749899Y-102733683D01*
X144749899Y-102766316D01*
X144752874Y-102766708D01*
X144737000Y-102887272D01*
X144737000Y-103112727D01*
X144752553Y-103230857D01*
X144752604Y-103230965D01*
X144752593Y-103231161D01*
X144752874Y-103233292D01*
X144752477Y-103233344D01*
X144751757Y-103246914D01*
X144753004Y-103266257D01*
X144751909Y-103274529D01*
X144751813Y-103274764D01*
X144737142Y-103386196D01*
X144736970Y-103387502D01*
X144722864Y-103419337D01*
X144708712Y-103451328D01*
X144708680Y-103451348D01*
X144708666Y-103451382D01*
X144679610Y-103470522D01*
X144650387Y-103489798D01*
X144650350Y-103489798D01*
X144650319Y-103489819D01*
X144615052Y-103490218D01*
X144580522Y-103490629D01*
X144580488Y-103490609D01*
X144580454Y-103490610D01*
X144579952Y-103490295D01*
X144526359Y-103458926D01*
X143980788Y-102913355D01*
X143980786Y-102913352D01*
X143861915Y-102794481D01*
X143861907Y-102794475D01*
X143757451Y-102734168D01*
X143757448Y-102734167D01*
X143755932Y-102733292D01*
X143724983Y-102715423D01*
X143572255Y-102674499D01*
X143414141Y-102674499D01*
X143406545Y-102674499D01*
X143406529Y-102674500D01*
X142913846Y-102674500D01*
X142905266Y-102671980D01*
X142896417Y-102673269D01*
X142872261Y-102662289D01*
X142846807Y-102654815D01*
X142840951Y-102648057D01*
X142832810Y-102644357D01*
X142818424Y-102622059D01*
X142801052Y-102602011D01*
X142798779Y-102591611D01*
X142794931Y-102585646D01*
X142789940Y-102551151D01*
X142789846Y-102550720D01*
X142789846Y-102550540D01*
X142789846Y-102538630D01*
X142789824Y-102538549D01*
X142789818Y-102534960D01*
X142789810Y-102534888D01*
X142789810Y-102534884D01*
X142757511Y-102372525D01*
X142749269Y-102352627D01*
X142694164Y-102219588D01*
X142679423Y-102197524D01*
X142602198Y-102081939D01*
X142560387Y-102040122D01*
X142485155Y-101964879D01*
X142485146Y-101964872D01*
X142347521Y-101872894D01*
X142196442Y-101810292D01*
X142194586Y-101809523D01*
X142194585Y-101809522D01*
X142194581Y-101809521D01*
X142032241Y-101777202D01*
X142032233Y-101777201D01*
X142032231Y-101777201D01*
X142028452Y-101777200D01*
X142028403Y-101777187D01*
X141949462Y-101777187D01*
X141949461Y-101777187D01*
X141876547Y-101777174D01*
X141876545Y-101777174D01*
X141869214Y-101777173D01*
X141868982Y-101777187D01*
X141747112Y-101777187D01*
X141746679Y-101777229D01*
X141584283Y-101809503D01*
X141431303Y-101872841D01*
X141358229Y-101921653D01*
X141291548Y-101942522D01*
X141224171Y-101924027D01*
X141220452Y-101921636D01*
X141147521Y-101872894D01*
X140996442Y-101810292D01*
X140994586Y-101809523D01*
X140994585Y-101809522D01*
X140994581Y-101809521D01*
X140832241Y-101777202D01*
X140832233Y-101777201D01*
X140832231Y-101777201D01*
X140828452Y-101777200D01*
X140828403Y-101777187D01*
X140749462Y-101777187D01*
X140749461Y-101777187D01*
X140676547Y-101777174D01*
X140676545Y-101777174D01*
X140669214Y-101777173D01*
X140668982Y-101777187D01*
X140547112Y-101777187D01*
X140546679Y-101777229D01*
X140384283Y-101809503D01*
X140281332Y-101852128D01*
X140231304Y-101872841D01*
X140093629Y-101964804D01*
X139976535Y-102081870D01*
X139884537Y-102219524D01*
X139821162Y-102372483D01*
X139790586Y-102526151D01*
X139788851Y-102534870D01*
X139788850Y-102538612D01*
X139788846Y-102538630D01*
X139788846Y-102550540D01*
X139779187Y-102583396D01*
X139769161Y-102617539D01*
X139769146Y-102617551D01*
X139769140Y-102617573D01*
X139741313Y-102641668D01*
X139716357Y-102663294D01*
X139716335Y-102663298D01*
X139716321Y-102663311D01*
X139716197Y-102663328D01*
X139664846Y-102674500D01*
X137860033Y-102674500D01*
X137792994Y-102654815D01*
X137787147Y-102650817D01*
X137769114Y-102637715D01*
X137586723Y-102544781D01*
X137392034Y-102481522D01*
X137217495Y-102453878D01*
X137189852Y-102449500D01*
X136985148Y-102449500D01*
X136960829Y-102453351D01*
X136782965Y-102481522D01*
X136588276Y-102544781D01*
X136405886Y-102637715D01*
X136240286Y-102758028D01*
X136240282Y-102758032D01*
X136175181Y-102823134D01*
X136113858Y-102856619D01*
X136044166Y-102851635D01*
X135999819Y-102823134D01*
X135934713Y-102758028D01*
X135769113Y-102637715D01*
X135769112Y-102637714D01*
X135769110Y-102637713D01*
X135678630Y-102591611D01*
X135586723Y-102544781D01*
X135392034Y-102481522D01*
X135217495Y-102453878D01*
X135189852Y-102449500D01*
X134985148Y-102449500D01*
X134960829Y-102453351D01*
X134782965Y-102481522D01*
X134588276Y-102544781D01*
X134405886Y-102637715D01*
X134240286Y-102758028D01*
X134095528Y-102902786D01*
X133975215Y-103068386D01*
X133882281Y-103250776D01*
X133819022Y-103445465D01*
X133787000Y-103647648D01*
X133787000Y-103852351D01*
X133819022Y-104054534D01*
X133882281Y-104249223D01*
X133975215Y-104431613D01*
X134095528Y-104597213D01*
X134240286Y-104741971D01*
X134405885Y-104862284D01*
X134405887Y-104862285D01*
X134405890Y-104862287D01*
X134459878Y-104889795D01*
X134510674Y-104937769D01*
X134527469Y-105005590D01*
X134504932Y-105071725D01*
X134459878Y-105110765D01*
X134406144Y-105138143D01*
X134361577Y-105170523D01*
X134361577Y-105170524D01*
X134978502Y-105787449D01*
X134904157Y-105807370D01*
X134795843Y-105869905D01*
X134707405Y-105958343D01*
X134644870Y-106066657D01*
X134624949Y-106141002D01*
X134008024Y-105524077D01*
X134008023Y-105524077D01*
X133975643Y-105568644D01*
X133882744Y-105750968D01*
X133819509Y-105945582D01*
X133787500Y-106147682D01*
X133787500Y-106352317D01*
X133819509Y-106554417D01*
X133882744Y-106749031D01*
X133975641Y-106931350D01*
X133975647Y-106931359D01*
X134008023Y-106975921D01*
X134008024Y-106975922D01*
X134624949Y-106358997D01*
X134644870Y-106433343D01*
X134707405Y-106541657D01*
X134795843Y-106630095D01*
X134904157Y-106692630D01*
X134978501Y-106712550D01*
X134361576Y-107329474D01*
X134406150Y-107361859D01*
X134588468Y-107454755D01*
X134783082Y-107517990D01*
X134985183Y-107550000D01*
X135189817Y-107550000D01*
X135391917Y-107517990D01*
X135586531Y-107454755D01*
X135767706Y-107362441D01*
X135836375Y-107349545D01*
X135901115Y-107375821D01*
X135923267Y-107398614D01*
X135929950Y-107407542D01*
X135929952Y-107407544D01*
X135929954Y-107407546D01*
X135933597Y-107410273D01*
X136045164Y-107493793D01*
X136045171Y-107493797D01*
X136180017Y-107544091D01*
X136180016Y-107544091D01*
X136186944Y-107544835D01*
X136239627Y-107550500D01*
X137935372Y-107550499D01*
X137994983Y-107544091D01*
X138129831Y-107493796D01*
X138245046Y-107407546D01*
X138331296Y-107292331D01*
X138381591Y-107157483D01*
X138388000Y-107097873D01*
X138387999Y-105575499D01*
X138407684Y-105508461D01*
X138460487Y-105462706D01*
X138511999Y-105451500D01*
X139587331Y-105451500D01*
X139587347Y-105451501D01*
X139594943Y-105451501D01*
X139753054Y-105451501D01*
X139753057Y-105451501D01*
X139905785Y-105410577D01*
X139955904Y-105381639D01*
X140042716Y-105331520D01*
X140154520Y-105219716D01*
X140154520Y-105219714D01*
X140164728Y-105209507D01*
X140164729Y-105209504D01*
X141012416Y-104361819D01*
X141073739Y-104328334D01*
X141100097Y-104325500D01*
X142411200Y-104325500D01*
X142478239Y-104345185D01*
X142523994Y-104397989D01*
X142533938Y-104467147D01*
X142516738Y-104514597D01*
X142438457Y-104641507D01*
X142438452Y-104641518D01*
X142385144Y-104802393D01*
X142375000Y-104901677D01*
X142375000Y-104925000D01*
X143226000Y-104925000D01*
X143293039Y-104944685D01*
X143338794Y-104997489D01*
X143350000Y-105049000D01*
X143350000Y-105301000D01*
X143330315Y-105368039D01*
X143277511Y-105413794D01*
X143226000Y-105425000D01*
X142375001Y-105425000D01*
X142375001Y-105448322D01*
X142385144Y-105547607D01*
X142438452Y-105708481D01*
X142438457Y-105708492D01*
X142527424Y-105852728D01*
X142527427Y-105852732D01*
X142536660Y-105861965D01*
X142570145Y-105923288D01*
X142565161Y-105992980D01*
X142536663Y-106037324D01*
X142527033Y-106046953D01*
X142527029Y-106046959D01*
X142438001Y-106191294D01*
X142437996Y-106191305D01*
X142384651Y-106352290D01*
X142374500Y-106451647D01*
X142374500Y-106658480D01*
X142354815Y-106725519D01*
X142338181Y-106746161D01*
X142100181Y-106984161D01*
X142038858Y-107017646D01*
X141969166Y-107012662D01*
X141924819Y-106984161D01*
X141910188Y-106969530D01*
X141872272Y-106946609D01*
X141764606Y-106881522D01*
X141602196Y-106830914D01*
X141602194Y-106830913D01*
X141602192Y-106830913D01*
X141552778Y-106826423D01*
X141531616Y-106824500D01*
X140868384Y-106824500D01*
X140849145Y-106826248D01*
X140797807Y-106830913D01*
X140635388Y-106881524D01*
X140610851Y-106896357D01*
X140543296Y-106914192D01*
X140499252Y-106904800D01*
X140454502Y-106886264D01*
X140454494Y-106886261D01*
X140299845Y-106855500D01*
X140299842Y-106855500D01*
X140142158Y-106855500D01*
X140142155Y-106855500D01*
X139987510Y-106886261D01*
X139987498Y-106886264D01*
X139841827Y-106946602D01*
X139841814Y-106946609D01*
X139710711Y-107034210D01*
X139710707Y-107034213D01*
X139599213Y-107145707D01*
X139599210Y-107145711D01*
X139511609Y-107276814D01*
X139511602Y-107276827D01*
X139451264Y-107422498D01*
X139451261Y-107422510D01*
X139420500Y-107577153D01*
X139420500Y-107577158D01*
X139420500Y-107734842D01*
X139421377Y-107739250D01*
X139426958Y-107767310D01*
X139420729Y-107836902D01*
X139377866Y-107892078D01*
X139311976Y-107915322D01*
X139305340Y-107915500D01*
X131503957Y-107915500D01*
X131503860Y-107915474D01*
X131424803Y-107915500D01*
X131345913Y-107915500D01*
X131345772Y-107915518D01*
X131269951Y-107935861D01*
X131269914Y-107935871D01*
X131228004Y-107947101D01*
X131193210Y-107956424D01*
X131193036Y-107956497D01*
X131125709Y-107995397D01*
X131125674Y-107995417D01*
X131056285Y-108035477D01*
X131056138Y-108035590D01*
X131056126Y-108035601D01*
X131056126Y-108035602D01*
X131001329Y-108090434D01*
X130964831Y-108126933D01*
X130939133Y-108152631D01*
X130938847Y-108152956D01*
X129479281Y-109613481D01*
X129479200Y-109613563D01*
X129421480Y-109671284D01*
X129421428Y-109671373D01*
X129421360Y-109671442D01*
X129421264Y-109671607D01*
X129421262Y-109671610D01*
X129403935Y-109701644D01*
X129382444Y-109738895D01*
X129342424Y-109808213D01*
X129342347Y-109808397D01*
X129322259Y-109883466D01*
X129322249Y-109883503D01*
X129301498Y-109960948D01*
X129301473Y-109961139D01*
X129301492Y-110016394D01*
X129301500Y-110041747D01*
X129301500Y-118899724D01*
X129301481Y-118980919D01*
X129301500Y-118980989D01*
X129301500Y-118981057D01*
X129306383Y-118999281D01*
X129321521Y-119055777D01*
X129321528Y-119055803D01*
X129342372Y-119133662D01*
X129342419Y-119133778D01*
X129367371Y-119176996D01*
X129382837Y-119203783D01*
X129421396Y-119270605D01*
X129421443Y-119270652D01*
X129421480Y-119270716D01*
X129479881Y-119329117D01*
X131423066Y-121273200D01*
X131437699Y-121287839D01*
X131471170Y-121349170D01*
X131466170Y-121418860D01*
X131424286Y-121474784D01*
X131358816Y-121499186D01*
X131349998Y-121499500D01*
X131221155Y-121499500D01*
X131066510Y-121530261D01*
X131066498Y-121530264D01*
X130920827Y-121590602D01*
X130920814Y-121590609D01*
X130789711Y-121678210D01*
X130789707Y-121678213D01*
X130678213Y-121789707D01*
X130678210Y-121789711D01*
X130590609Y-121920814D01*
X130590602Y-121920827D01*
X130530264Y-122066498D01*
X130530261Y-122066510D01*
X130499500Y-122221153D01*
X130499500Y-122378846D01*
X130530261Y-122533489D01*
X130530264Y-122533501D01*
X130590602Y-122679172D01*
X130590609Y-122679185D01*
X130678210Y-122810288D01*
X130678213Y-122810292D01*
X130789707Y-122921786D01*
X130789711Y-122921789D01*
X130920814Y-123009390D01*
X130920827Y-123009397D01*
X131066498Y-123069735D01*
X131066503Y-123069737D01*
X131221153Y-123100499D01*
X131221156Y-123100500D01*
X131221158Y-123100500D01*
X131378844Y-123100500D01*
X131378845Y-123100499D01*
X131533497Y-123069737D01*
X131679179Y-123009394D01*
X131751010Y-122961398D01*
X131769056Y-122955747D01*
X131784966Y-122945523D01*
X131815925Y-122941071D01*
X131817687Y-122940520D01*
X131819901Y-122940500D01*
X132025286Y-122940500D01*
X132092325Y-122960185D01*
X132099596Y-122965233D01*
X132128665Y-122986993D01*
X132128671Y-122986997D01*
X132263517Y-123037291D01*
X132263516Y-123037291D01*
X132270444Y-123038035D01*
X132323127Y-123043700D01*
X135212872Y-123043699D01*
X135272483Y-123037291D01*
X135407331Y-122986996D01*
X135522546Y-122900746D01*
X135608796Y-122785531D01*
X135659091Y-122650683D01*
X135665500Y-122591073D01*
X135665499Y-122088928D01*
X135659091Y-122029317D01*
X135608796Y-121894469D01*
X135608795Y-121894468D01*
X135608793Y-121894464D01*
X135522589Y-121779311D01*
X135498171Y-121713847D01*
X135513022Y-121645574D01*
X135522589Y-121630689D01*
X135608793Y-121515535D01*
X135608792Y-121515535D01*
X135608796Y-121515531D01*
X135659091Y-121380683D01*
X135665500Y-121321073D01*
X135665499Y-120818928D01*
X135659091Y-120759317D01*
X135649802Y-120734413D01*
X135608797Y-120624471D01*
X135608793Y-120624464D01*
X135522589Y-120509311D01*
X135498171Y-120443847D01*
X135513022Y-120375574D01*
X135522589Y-120360689D01*
X135608793Y-120245535D01*
X135608792Y-120245535D01*
X135608796Y-120245531D01*
X135659091Y-120110683D01*
X135665500Y-120051073D01*
X135665500Y-120051044D01*
X135935000Y-120051044D01*
X135941401Y-120110572D01*
X135941403Y-120110579D01*
X135991645Y-120245286D01*
X135991649Y-120245293D01*
X136078035Y-120360689D01*
X136102453Y-120426153D01*
X136087602Y-120494426D01*
X136078035Y-120509311D01*
X135991649Y-120624706D01*
X135991645Y-120624713D01*
X135941403Y-120759420D01*
X135941401Y-120759427D01*
X135935000Y-120818955D01*
X135935000Y-120866800D01*
X137628800Y-120866800D01*
X138035200Y-120866800D01*
X139729000Y-120866800D01*
X139729000Y-120818972D01*
X139728999Y-120818955D01*
X139722598Y-120759427D01*
X139722596Y-120759420D01*
X139672354Y-120624713D01*
X139672350Y-120624706D01*
X139585965Y-120509311D01*
X139561547Y-120443847D01*
X139576398Y-120375574D01*
X139585965Y-120360689D01*
X139672350Y-120245293D01*
X139672354Y-120245286D01*
X139722596Y-120110579D01*
X139722598Y-120110572D01*
X139728999Y-120051044D01*
X139729000Y-120051027D01*
X139729000Y-120003200D01*
X138035200Y-120003200D01*
X138035200Y-120866800D01*
X137628800Y-120866800D01*
X137628800Y-120003200D01*
X135935000Y-120003200D01*
X135935000Y-120051044D01*
X135665500Y-120051044D01*
X135665499Y-119789556D01*
X135665499Y-119548929D01*
X135665498Y-119548923D01*
X135665497Y-119548916D01*
X135659091Y-119489317D01*
X135608886Y-119354711D01*
X135608797Y-119354471D01*
X135608793Y-119354464D01*
X135522589Y-119239311D01*
X135498171Y-119173847D01*
X135513022Y-119105574D01*
X135522589Y-119090689D01*
X135608793Y-118975535D01*
X135608792Y-118975535D01*
X135608796Y-118975531D01*
X135659091Y-118840683D01*
X135665500Y-118781073D01*
X135665499Y-118278928D01*
X135665499Y-118278927D01*
X135934500Y-118278927D01*
X135934500Y-118278934D01*
X135934500Y-118278935D01*
X135934500Y-118278936D01*
X135934501Y-118781070D01*
X135940908Y-118840683D01*
X135991202Y-118975528D01*
X135991204Y-118975531D01*
X136077454Y-119090746D01*
X136077456Y-119090747D01*
X136077723Y-119091104D01*
X136102141Y-119156568D01*
X136087290Y-119224842D01*
X136077724Y-119239727D01*
X135991647Y-119354711D01*
X135991645Y-119354713D01*
X135941403Y-119489420D01*
X135941401Y-119489427D01*
X135935000Y-119548955D01*
X135935000Y-119596800D01*
X139729000Y-119596800D01*
X139729000Y-119548972D01*
X139728999Y-119548955D01*
X139722598Y-119489427D01*
X139722596Y-119489420D01*
X139672354Y-119354713D01*
X139672352Y-119354711D01*
X139586276Y-119239727D01*
X139561859Y-119174263D01*
X139576710Y-119105990D01*
X139586277Y-119091104D01*
X139586543Y-119090747D01*
X139586546Y-119090746D01*
X139672796Y-118975531D01*
X139723091Y-118840683D01*
X139729500Y-118781073D01*
X139729499Y-118278928D01*
X139723091Y-118219317D01*
X139692425Y-118137098D01*
X139672797Y-118084471D01*
X139672793Y-118084464D01*
X139586277Y-117968894D01*
X139561859Y-117903430D01*
X139576710Y-117835157D01*
X139586277Y-117820272D01*
X139672350Y-117705293D01*
X139672354Y-117705286D01*
X139722596Y-117570579D01*
X139722598Y-117570572D01*
X139728999Y-117511044D01*
X139729000Y-117511027D01*
X139729000Y-117463200D01*
X135935000Y-117463200D01*
X135935000Y-117511044D01*
X135941401Y-117570572D01*
X135941403Y-117570579D01*
X135991645Y-117705286D01*
X135991647Y-117705289D01*
X136077723Y-117820272D01*
X136102140Y-117885736D01*
X136087288Y-117954009D01*
X136077723Y-117968894D01*
X135991204Y-118084468D01*
X135991202Y-118084471D01*
X135940910Y-118219313D01*
X135940909Y-118219317D01*
X135934500Y-118278927D01*
X135665499Y-118278927D01*
X135659091Y-118219317D01*
X135628425Y-118137098D01*
X135608797Y-118084471D01*
X135608793Y-118084464D01*
X135522589Y-117969311D01*
X135498171Y-117903847D01*
X135513022Y-117835574D01*
X135522589Y-117820689D01*
X135608793Y-117705535D01*
X135608792Y-117705535D01*
X135608796Y-117705531D01*
X135659091Y-117570683D01*
X135665500Y-117511073D01*
X135665499Y-117008955D01*
X135935000Y-117008955D01*
X135935000Y-117056800D01*
X137628800Y-117056800D01*
X138035200Y-117056800D01*
X139729000Y-117056800D01*
X139729000Y-117008972D01*
X139728999Y-117008955D01*
X139722598Y-116949427D01*
X139722596Y-116949420D01*
X139672354Y-116814713D01*
X139672350Y-116814706D01*
X139586190Y-116699612D01*
X139586187Y-116699609D01*
X139471093Y-116613449D01*
X139471086Y-116613445D01*
X139336379Y-116563203D01*
X139336372Y-116563201D01*
X139276844Y-116556800D01*
X138035200Y-116556800D01*
X138035200Y-117056800D01*
X137628800Y-117056800D01*
X137628800Y-116556800D01*
X136387155Y-116556800D01*
X136327627Y-116563201D01*
X136327620Y-116563203D01*
X136192913Y-116613445D01*
X136192906Y-116613449D01*
X136077812Y-116699609D01*
X136077809Y-116699612D01*
X135991649Y-116814706D01*
X135991645Y-116814713D01*
X135941403Y-116949420D01*
X135941401Y-116949427D01*
X135935000Y-117008955D01*
X135665499Y-117008955D01*
X135665499Y-117008928D01*
X135659091Y-116949317D01*
X135647490Y-116918214D01*
X135608797Y-116814471D01*
X135608793Y-116814464D01*
X135522547Y-116699255D01*
X135522544Y-116699252D01*
X135407335Y-116613006D01*
X135407328Y-116613002D01*
X135272482Y-116562708D01*
X135272483Y-116562708D01*
X135212883Y-116556301D01*
X135212881Y-116556300D01*
X135212873Y-116556300D01*
X135212864Y-116556300D01*
X132323129Y-116556300D01*
X132323123Y-116556301D01*
X132263516Y-116562708D01*
X132128671Y-116613002D01*
X132128664Y-116613006D01*
X132013455Y-116699252D01*
X132013452Y-116699255D01*
X131927206Y-116814464D01*
X131927202Y-116814471D01*
X131876910Y-116949313D01*
X131876909Y-116949317D01*
X131870500Y-117008927D01*
X131870500Y-117008934D01*
X131870500Y-117008935D01*
X131870500Y-117511070D01*
X131870501Y-117511076D01*
X131876908Y-117570683D01*
X131927202Y-117705528D01*
X131927204Y-117705531D01*
X132013411Y-117820689D01*
X132037828Y-117886153D01*
X132022976Y-117954426D01*
X132013411Y-117969311D01*
X131927204Y-118084468D01*
X131927202Y-118084471D01*
X131876910Y-118219313D01*
X131876909Y-118219317D01*
X131870500Y-118278927D01*
X131870500Y-118278934D01*
X131870500Y-118278935D01*
X131870500Y-118278936D01*
X131870501Y-118781070D01*
X131876908Y-118840683D01*
X131927202Y-118975528D01*
X131927204Y-118975531D01*
X132013411Y-119090689D01*
X132037828Y-119156153D01*
X132022976Y-119224426D01*
X132013411Y-119239311D01*
X131927204Y-119354468D01*
X131927202Y-119354471D01*
X131876908Y-119489317D01*
X131870501Y-119548916D01*
X131870501Y-119548923D01*
X131870500Y-119548935D01*
X131870500Y-119722517D01*
X131850815Y-119789556D01*
X131798011Y-119835311D01*
X131728853Y-119845255D01*
X131665297Y-119816230D01*
X131658798Y-119810178D01*
X130538798Y-118689659D01*
X130505328Y-118628328D01*
X130502500Y-118601998D01*
X130502500Y-113079467D01*
X130522185Y-113012428D01*
X130574989Y-112966673D01*
X130644147Y-112956729D01*
X130703813Y-112982520D01*
X130778543Y-113042115D01*
X131016299Y-113191507D01*
X131269282Y-113313337D01*
X131534319Y-113406077D01*
X131534321Y-113406078D01*
X131808075Y-113468560D01*
X131808087Y-113468562D01*
X132087098Y-113499999D01*
X132087100Y-113500000D01*
X132367900Y-113500000D01*
X132367901Y-113499999D01*
X132646912Y-113468562D01*
X132646924Y-113468560D01*
X132920678Y-113406078D01*
X132920680Y-113406077D01*
X133185717Y-113313337D01*
X133438700Y-113191507D01*
X133676456Y-113042116D01*
X133809757Y-112935810D01*
X132846033Y-111972086D01*
X132976675Y-111877171D01*
X133104671Y-111749175D01*
X133199586Y-111618533D01*
X134163310Y-112582257D01*
X134269616Y-112448956D01*
X134419007Y-112211200D01*
X134540837Y-111958217D01*
X134633577Y-111693180D01*
X134633578Y-111693178D01*
X134696060Y-111419424D01*
X134696062Y-111419412D01*
X134727499Y-111140401D01*
X134727500Y-111140399D01*
X134727500Y-110859600D01*
X134727499Y-110859598D01*
X134696062Y-110580587D01*
X134696060Y-110580575D01*
X134633578Y-110306821D01*
X134633577Y-110306819D01*
X134540837Y-110041782D01*
X134419007Y-109788799D01*
X134269615Y-109551043D01*
X134163310Y-109417741D01*
X133199586Y-110381465D01*
X133104671Y-110250825D01*
X132976675Y-110122829D01*
X132846033Y-110027912D01*
X133721127Y-109152819D01*
X133782450Y-109119334D01*
X133808808Y-109116500D01*
X140100500Y-109116500D01*
X140167539Y-109136185D01*
X140213294Y-109188989D01*
X140224500Y-109240500D01*
X140224500Y-109631613D01*
X140230913Y-109702192D01*
X140230913Y-109702194D01*
X140230914Y-109702196D01*
X140281522Y-109864606D01*
X140367089Y-110006151D01*
X140369530Y-110010188D01*
X140489811Y-110130469D01*
X140489813Y-110130470D01*
X140489815Y-110130472D01*
X140539650Y-110160598D01*
X140586838Y-110212126D01*
X140599500Y-110266715D01*
X140599500Y-110536330D01*
X140599499Y-110536348D01*
X140599499Y-110702054D01*
X140599498Y-110702054D01*
X140599499Y-110702057D01*
X140640423Y-110854785D01*
X140640424Y-110854787D01*
X140640423Y-110854787D01*
X140654567Y-110879283D01*
X140654569Y-110879286D01*
X140714584Y-110983236D01*
X140731057Y-111051137D01*
X140708204Y-111117163D01*
X140681509Y-111144502D01*
X140617452Y-111192455D01*
X140531206Y-111307664D01*
X140531202Y-111307671D01*
X140480908Y-111442517D01*
X140474501Y-111502116D01*
X140474500Y-111502135D01*
X140474500Y-113297870D01*
X140474501Y-113297876D01*
X140480908Y-113357483D01*
X140531202Y-113492328D01*
X140531206Y-113492335D01*
X140617452Y-113607544D01*
X140617455Y-113607547D01*
X140732664Y-113693793D01*
X140732671Y-113693797D01*
X140867517Y-113744091D01*
X140867516Y-113744091D01*
X140874444Y-113744835D01*
X140927127Y-113750500D01*
X142722872Y-113750499D01*
X142782483Y-113744091D01*
X142917331Y-113693796D01*
X143032546Y-113607546D01*
X143118796Y-113492331D01*
X143167810Y-113360916D01*
X143209681Y-113304984D01*
X143275145Y-113280566D01*
X143343418Y-113295417D01*
X143371673Y-113316569D01*
X143485213Y-113430109D01*
X143657179Y-113555048D01*
X143657181Y-113555049D01*
X143657184Y-113555051D01*
X143846588Y-113651557D01*
X144048757Y-113717246D01*
X144258713Y-113750500D01*
X144258714Y-113750500D01*
X144471286Y-113750500D01*
X144471287Y-113750500D01*
X144681243Y-113717246D01*
X144883412Y-113651557D01*
X145072816Y-113555051D01*
X145164526Y-113488419D01*
X145230329Y-113464941D01*
X145298383Y-113480766D01*
X145340511Y-113519847D01*
X145372213Y-113567292D01*
X145483707Y-113678786D01*
X145483711Y-113678789D01*
X145614814Y-113766390D01*
X145614827Y-113766397D01*
X145714758Y-113807789D01*
X145760503Y-113826737D01*
X145901268Y-113854737D01*
X145915153Y-113857499D01*
X145915156Y-113857500D01*
X145915158Y-113857500D01*
X146072843Y-113857500D01*
X146114956Y-113849123D01*
X146146260Y-113842896D01*
X146215851Y-113849123D01*
X146271029Y-113891985D01*
X146288835Y-113927618D01*
X146331522Y-114064606D01*
X146419528Y-114210185D01*
X146538182Y-114328839D01*
X146571666Y-114390160D01*
X146574500Y-114416519D01*
X146574500Y-117706786D01*
X146568206Y-117745789D01*
X146534565Y-117847311D01*
X146534563Y-117847321D01*
X146524500Y-117945818D01*
X146524500Y-118479181D01*
X146534563Y-118577683D01*
X146587450Y-118737284D01*
X146587455Y-118737295D01*
X146675716Y-118880387D01*
X146675719Y-118880392D01*
X146708000Y-118912673D01*
X146741485Y-118973997D01*
X146736499Y-119043688D01*
X146708000Y-119088033D01*
X146676114Y-119119919D01*
X146587908Y-119262922D01*
X146587906Y-119262927D01*
X146535057Y-119422416D01*
X146525000Y-119520849D01*
X146525000Y-119537500D01*
X148474999Y-119537500D01*
X148474999Y-119520864D01*
X148474998Y-119520847D01*
X148464943Y-119422416D01*
X148412093Y-119262927D01*
X148412091Y-119262922D01*
X148323885Y-119119919D01*
X148292000Y-119088034D01*
X148258515Y-119026711D01*
X148263499Y-118957019D01*
X148292000Y-118912672D01*
X148305685Y-118898987D01*
X148324281Y-118880391D01*
X148412549Y-118737287D01*
X148465436Y-118577685D01*
X148475500Y-118479174D01*
X148475500Y-117945826D01*
X148465436Y-117847315D01*
X148412549Y-117687713D01*
X148412545Y-117687707D01*
X148412544Y-117687704D01*
X148324283Y-117544612D01*
X148324280Y-117544608D01*
X148205391Y-117425719D01*
X148205387Y-117425716D01*
X148062295Y-117337455D01*
X148062289Y-117337452D01*
X148062287Y-117337451D01*
X147902685Y-117284564D01*
X147902682Y-117284563D01*
X147886897Y-117282951D01*
X147822205Y-117256555D01*
X147782054Y-117199374D01*
X147775500Y-117159593D01*
X147775500Y-114416519D01*
X147784145Y-114387075D01*
X147790668Y-114357093D01*
X147794422Y-114352077D01*
X147795185Y-114349480D01*
X147811813Y-114328843D01*
X147912321Y-114228335D01*
X147973640Y-114194853D01*
X148043332Y-114199837D01*
X148087680Y-114228338D01*
X148189811Y-114330469D01*
X148189813Y-114330470D01*
X148189815Y-114330472D01*
X148335394Y-114418478D01*
X148497804Y-114469086D01*
X148568384Y-114475500D01*
X148568387Y-114475500D01*
X149081613Y-114475500D01*
X149081616Y-114475500D01*
X149152196Y-114469086D01*
X149314606Y-114418478D01*
X149460185Y-114330472D01*
X149580472Y-114210185D01*
X149610598Y-114160349D01*
X149662126Y-114113162D01*
X149716715Y-114100500D01*
X153987903Y-114100500D01*
X154054942Y-114120185D01*
X154075584Y-114136819D01*
X155184425Y-115245660D01*
X155217910Y-115306983D01*
X155218361Y-115309149D01*
X155249261Y-115464491D01*
X155249264Y-115464501D01*
X155309602Y-115610172D01*
X155309609Y-115610185D01*
X155397210Y-115741288D01*
X155397213Y-115741292D01*
X155508707Y-115852786D01*
X155508711Y-115852789D01*
X155639814Y-115940390D01*
X155639827Y-115940397D01*
X155785498Y-116000735D01*
X155785503Y-116000737D01*
X155940153Y-116031499D01*
X155940156Y-116031500D01*
X155940158Y-116031500D01*
X156097844Y-116031500D01*
X156097845Y-116031499D01*
X156252497Y-116000737D01*
X156398179Y-115940394D01*
X156529289Y-115852789D01*
X156640789Y-115741289D01*
X156728394Y-115610179D01*
X156788737Y-115464497D01*
X156819500Y-115309842D01*
X156819500Y-115152158D01*
X156819500Y-115152155D01*
X156819499Y-115152153D01*
X156810467Y-115106745D01*
X156788737Y-114997503D01*
X156769382Y-114950776D01*
X156728397Y-114851827D01*
X156728390Y-114851814D01*
X156640789Y-114720711D01*
X156640786Y-114720707D01*
X156607260Y-114687181D01*
X156573775Y-114625858D01*
X156578759Y-114556166D01*
X156620631Y-114500233D01*
X156686095Y-114475816D01*
X156694941Y-114475500D01*
X156756613Y-114475500D01*
X156756616Y-114475500D01*
X156827196Y-114469086D01*
X156989606Y-114418478D01*
X157135185Y-114330472D01*
X157237320Y-114228336D01*
X157245265Y-114223998D01*
X157250690Y-114216752D01*
X157275446Y-114207518D01*
X157298641Y-114194853D01*
X157307671Y-114195498D01*
X157316154Y-114192335D01*
X157341974Y-114197951D01*
X157368333Y-114199837D01*
X157377386Y-114205655D01*
X157384427Y-114207187D01*
X157412681Y-114228338D01*
X157513181Y-114328838D01*
X157546666Y-114390161D01*
X157549500Y-114416519D01*
X157549500Y-117150500D01*
X157529815Y-117217539D01*
X157477011Y-117263294D01*
X157425500Y-117274500D01*
X157195818Y-117274500D01*
X157097316Y-117284563D01*
X157097315Y-117284564D01*
X157018219Y-117310773D01*
X156937715Y-117337450D01*
X156937704Y-117337455D01*
X156794612Y-117425716D01*
X156794608Y-117425719D01*
X156675719Y-117544608D01*
X156675716Y-117544612D01*
X156587455Y-117687704D01*
X156587450Y-117687715D01*
X156581545Y-117705535D01*
X156534564Y-117847315D01*
X156534564Y-117847316D01*
X156534563Y-117847316D01*
X156524500Y-117945818D01*
X156524500Y-118479181D01*
X156534563Y-118577683D01*
X156587450Y-118737284D01*
X156587455Y-118737295D01*
X156675716Y-118880387D01*
X156675719Y-118880392D01*
X156708000Y-118912673D01*
X156741485Y-118973997D01*
X156736499Y-119043688D01*
X156708000Y-119088033D01*
X156676114Y-119119919D01*
X156587908Y-119262922D01*
X156587906Y-119262927D01*
X156535057Y-119422416D01*
X156525000Y-119520849D01*
X156525000Y-119537500D01*
X158474999Y-119537500D01*
X158474999Y-119520864D01*
X158474998Y-119520847D01*
X158464943Y-119422416D01*
X158412093Y-119262927D01*
X158412091Y-119262922D01*
X158323885Y-119119919D01*
X158292000Y-119088034D01*
X158258515Y-119026711D01*
X158263499Y-118957019D01*
X158292000Y-118912672D01*
X158305685Y-118898987D01*
X158324281Y-118880391D01*
X158412549Y-118737287D01*
X158465436Y-118577685D01*
X158475500Y-118479174D01*
X158475500Y-118137098D01*
X158495185Y-118070059D01*
X158511819Y-118049417D01*
X158523875Y-118037361D01*
X158630520Y-117930716D01*
X158646033Y-117903847D01*
X158687104Y-117832710D01*
X158687105Y-117832708D01*
X158709574Y-117793790D01*
X158709575Y-117793789D01*
X158709575Y-117793787D01*
X158709577Y-117793785D01*
X158750501Y-117641057D01*
X158750501Y-117482943D01*
X158750501Y-117475348D01*
X158750500Y-117475330D01*
X158750500Y-114416519D01*
X158770185Y-114349480D01*
X158786814Y-114328842D01*
X158905472Y-114210185D01*
X158993478Y-114064606D01*
X159044086Y-113902196D01*
X159050500Y-113831616D01*
X159050500Y-113264500D01*
X159070185Y-113197461D01*
X159122989Y-113151706D01*
X159174500Y-113140500D01*
X160207500Y-113140500D01*
X160274539Y-113160185D01*
X160320294Y-113212989D01*
X160330269Y-113258844D01*
X160330903Y-113258782D01*
X160331438Y-113264215D01*
X160331500Y-113264500D01*
X160331500Y-113264846D01*
X160362261Y-113419489D01*
X160362264Y-113419501D01*
X160422602Y-113565172D01*
X160422609Y-113565185D01*
X160510210Y-113696288D01*
X160510213Y-113696292D01*
X160621707Y-113807786D01*
X160621711Y-113807789D01*
X160752814Y-113895390D01*
X160752827Y-113895397D01*
X160871623Y-113944603D01*
X160898503Y-113955737D01*
X161048302Y-113985534D01*
X161053153Y-113986499D01*
X161053156Y-113986500D01*
X161053158Y-113986500D01*
X161210842Y-113986500D01*
X161215697Y-113985534D01*
X161285288Y-113991755D01*
X161340469Y-114034613D01*
X161352297Y-114058280D01*
X161353443Y-114057765D01*
X161356520Y-114064602D01*
X161356521Y-114064604D01*
X161356522Y-114064606D01*
X161439486Y-114201844D01*
X161444530Y-114210188D01*
X161564811Y-114330469D01*
X161564813Y-114330470D01*
X161564815Y-114330472D01*
X161710394Y-114418478D01*
X161872804Y-114469086D01*
X161943384Y-114475500D01*
X161943387Y-114475500D01*
X162456613Y-114475500D01*
X162456616Y-114475500D01*
X162527196Y-114469086D01*
X162689606Y-114418478D01*
X162835185Y-114330472D01*
X162858450Y-114307207D01*
X162937319Y-114228339D01*
X162998642Y-114194854D01*
X163068334Y-114199838D01*
X163112681Y-114228339D01*
X163214811Y-114330469D01*
X163214813Y-114330470D01*
X163214815Y-114330472D01*
X163360394Y-114418478D01*
X163522804Y-114469086D01*
X163593384Y-114475500D01*
X163924903Y-114475500D01*
X163991942Y-114495185D01*
X164012584Y-114511819D01*
X166827133Y-117326368D01*
X166860618Y-117387691D01*
X166855634Y-117457383D01*
X166813762Y-117513316D01*
X166804551Y-117519586D01*
X166794612Y-117525716D01*
X166794608Y-117525719D01*
X166675719Y-117644608D01*
X166675716Y-117644612D01*
X166587455Y-117787704D01*
X166587450Y-117787715D01*
X166571591Y-117835574D01*
X166534564Y-117947315D01*
X166534564Y-117947316D01*
X166534563Y-117947316D01*
X166524500Y-118045818D01*
X166524500Y-118579181D01*
X166534563Y-118677683D01*
X166587450Y-118837284D01*
X166587455Y-118837295D01*
X166675716Y-118980387D01*
X166675719Y-118980392D01*
X166708000Y-119012673D01*
X166741485Y-119073997D01*
X166736499Y-119143688D01*
X166708000Y-119188033D01*
X166676114Y-119219919D01*
X166587908Y-119362922D01*
X166587906Y-119362927D01*
X166535057Y-119522416D01*
X166525000Y-119620849D01*
X166525000Y-119637500D01*
X168474999Y-119637500D01*
X168474999Y-119620864D01*
X168474998Y-119620847D01*
X168464943Y-119522416D01*
X168412093Y-119362927D01*
X168412091Y-119362922D01*
X168323885Y-119219919D01*
X168292000Y-119188034D01*
X168258515Y-119126711D01*
X168263499Y-119057019D01*
X168292000Y-119012672D01*
X168306171Y-118998501D01*
X168324281Y-118980391D01*
X168412549Y-118837287D01*
X168465436Y-118677685D01*
X168475500Y-118579174D01*
X168475500Y-118045826D01*
X168465436Y-117947315D01*
X168412549Y-117787713D01*
X168412545Y-117787707D01*
X168412544Y-117787704D01*
X168324283Y-117644612D01*
X168324280Y-117644608D01*
X168205390Y-117525718D01*
X168159402Y-117497352D01*
X168152578Y-117489765D01*
X168143297Y-117485527D01*
X168129607Y-117464226D01*
X168112678Y-117445403D01*
X168110034Y-117433768D01*
X168105523Y-117426749D01*
X168100500Y-117391814D01*
X168100500Y-117239060D01*
X168100501Y-117239047D01*
X168100501Y-117070944D01*
X168096711Y-117056800D01*
X168059577Y-116918216D01*
X168059573Y-116918209D01*
X167980524Y-116781290D01*
X167980518Y-116781282D01*
X166639417Y-115440181D01*
X166605932Y-115378858D01*
X166610916Y-115309166D01*
X166652788Y-115253233D01*
X166718252Y-115228816D01*
X166727098Y-115228500D01*
X169895331Y-115228500D01*
X169895347Y-115228501D01*
X169902943Y-115228501D01*
X170061054Y-115228501D01*
X170061057Y-115228501D01*
X170213785Y-115187577D01*
X170240564Y-115172114D01*
X170302568Y-115155500D01*
X171145686Y-115155500D01*
X171145694Y-115155500D01*
X171182569Y-115152598D01*
X171182571Y-115152597D01*
X171182573Y-115152597D01*
X171224191Y-115140505D01*
X171340398Y-115106744D01*
X171481865Y-115023081D01*
X171598081Y-114906865D01*
X171681744Y-114765398D01*
X171727598Y-114607569D01*
X171730500Y-114570694D01*
X171730500Y-114139306D01*
X171727598Y-114102431D01*
X171681744Y-113944602D01*
X171598081Y-113803135D01*
X171598078Y-113803132D01*
X171593298Y-113796969D01*
X171595750Y-113795066D01*
X171569155Y-113746421D01*
X171574104Y-113676726D01*
X171594940Y-113644304D01*
X171593298Y-113643031D01*
X171598075Y-113636870D01*
X171598081Y-113636865D01*
X171681744Y-113495398D01*
X171727598Y-113337569D01*
X171730500Y-113300694D01*
X171730500Y-112869306D01*
X171727598Y-112832431D01*
X171681744Y-112674602D01*
X171598081Y-112533135D01*
X171598078Y-112533132D01*
X171593298Y-112526969D01*
X171595635Y-112525155D01*
X171568798Y-112476050D01*
X171573756Y-112406356D01*
X171594554Y-112373998D01*
X171592903Y-112372717D01*
X171597686Y-112366550D01*
X171681281Y-112225198D01*
X171727100Y-112067486D01*
X171727295Y-112065001D01*
X171727295Y-112065000D01*
X168782705Y-112065000D01*
X168782704Y-112065001D01*
X168782899Y-112067488D01*
X168782900Y-112067494D01*
X168828923Y-112225905D01*
X168828848Y-112252158D01*
X168832585Y-112278147D01*
X168828750Y-112286543D01*
X168828724Y-112295775D01*
X168814465Y-112317822D01*
X168803560Y-112341703D01*
X168795795Y-112346693D01*
X168790782Y-112354445D01*
X168766866Y-112365283D01*
X168744782Y-112379477D01*
X168731262Y-112381420D01*
X168727143Y-112383288D01*
X168709847Y-112384500D01*
X168703316Y-112384500D01*
X168655864Y-112375061D01*
X168511501Y-112315264D01*
X168511489Y-112315261D01*
X168356845Y-112284500D01*
X168356842Y-112284500D01*
X168199158Y-112284500D01*
X168199155Y-112284500D01*
X168044510Y-112315261D01*
X168044498Y-112315264D01*
X167900136Y-112375061D01*
X167852684Y-112384500D01*
X167521005Y-112384500D01*
X167385677Y-112411418D01*
X167385667Y-112411421D01*
X167258195Y-112464221D01*
X167258182Y-112464228D01*
X167143458Y-112540885D01*
X167138748Y-112544751D01*
X167137447Y-112543166D01*
X167084339Y-112572166D01*
X167057981Y-112575000D01*
X165825001Y-112575000D01*
X165825001Y-112598322D01*
X165835144Y-112697607D01*
X165888452Y-112858481D01*
X165888457Y-112858492D01*
X165977424Y-113002728D01*
X165977427Y-113002732D01*
X165986660Y-113011965D01*
X166020145Y-113073288D01*
X166015161Y-113142980D01*
X166001996Y-113168664D01*
X165995240Y-113178747D01*
X165977032Y-113196956D01*
X165907300Y-113310008D01*
X165905985Y-113311971D01*
X165880868Y-113332908D01*
X165856557Y-113354775D01*
X165854172Y-113355162D01*
X165852317Y-113356710D01*
X165819858Y-113360746D01*
X165787595Y-113365996D01*
X165785380Y-113365033D01*
X165782982Y-113365332D01*
X165753496Y-113351180D01*
X165723513Y-113338152D01*
X165720373Y-113335282D01*
X165719992Y-113335099D01*
X165719758Y-113334719D01*
X165715266Y-113330613D01*
X165708094Y-113323438D01*
X164562481Y-112177276D01*
X164562269Y-112177033D01*
X164535236Y-112150000D01*
X164499121Y-112113885D01*
X164444831Y-112059569D01*
X164444769Y-112059533D01*
X164444716Y-112059480D01*
X164444714Y-112059479D01*
X164444709Y-112059475D01*
X164375355Y-112019434D01*
X164375327Y-112019418D01*
X164367456Y-112014871D01*
X164319253Y-111964292D01*
X164306047Y-111895682D01*
X164332032Y-111830823D01*
X164388956Y-111790310D01*
X164429483Y-111783500D01*
X165719389Y-111783500D01*
X165786428Y-111803185D01*
X165832183Y-111855989D01*
X165842127Y-111925147D01*
X165837096Y-111946500D01*
X165835144Y-111952389D01*
X165835144Y-111952391D01*
X165825000Y-112051677D01*
X165825000Y-112075000D01*
X167774999Y-112075000D01*
X167774999Y-112051692D01*
X167774998Y-112051677D01*
X167764855Y-111952390D01*
X167762904Y-111946500D01*
X167760504Y-111876672D01*
X167796238Y-111816631D01*
X167858759Y-111785441D01*
X167880611Y-111783500D01*
X169530331Y-111783500D01*
X169530347Y-111783501D01*
X169537943Y-111783501D01*
X169696054Y-111783501D01*
X169696057Y-111783501D01*
X169848785Y-111742577D01*
X169898904Y-111713639D01*
X169985716Y-111663520D01*
X170053988Y-111595247D01*
X170060834Y-111590074D01*
X170085804Y-111580630D01*
X170109239Y-111567834D01*
X170123770Y-111566271D01*
X170126186Y-111565358D01*
X170128227Y-111565792D01*
X170135598Y-111565000D01*
X171727295Y-111565000D01*
X171727295Y-111564998D01*
X171727100Y-111562513D01*
X171681281Y-111404801D01*
X171597685Y-111263447D01*
X171592900Y-111257278D01*
X171595366Y-111255364D01*
X171568802Y-111206776D01*
X171573749Y-111137082D01*
X171594856Y-111104232D01*
X171593301Y-111103026D01*
X171598077Y-111096868D01*
X171598081Y-111096865D01*
X171681744Y-110955398D01*
X171727598Y-110797569D01*
X171730500Y-110760694D01*
X171730500Y-110329306D01*
X171727800Y-110294998D01*
X173732704Y-110294998D01*
X173732705Y-110295000D01*
X174955000Y-110295000D01*
X175455000Y-110295000D01*
X176677295Y-110295000D01*
X176677295Y-110294998D01*
X176677100Y-110292513D01*
X176631281Y-110134801D01*
X176547685Y-109993447D01*
X176547678Y-109993438D01*
X176431561Y-109877321D01*
X176431552Y-109877314D01*
X176290196Y-109793717D01*
X176290193Y-109793716D01*
X176132495Y-109747900D01*
X176132489Y-109747899D01*
X176095649Y-109745000D01*
X175455000Y-109745000D01*
X175455000Y-110295000D01*
X174955000Y-110295000D01*
X174955000Y-109745000D01*
X174314350Y-109745000D01*
X174277510Y-109747899D01*
X174277504Y-109747900D01*
X174119806Y-109793716D01*
X174119803Y-109793717D01*
X173978447Y-109877314D01*
X173978438Y-109877321D01*
X173862321Y-109993438D01*
X173862314Y-109993447D01*
X173778718Y-110134801D01*
X173732899Y-110292513D01*
X173732704Y-110294998D01*
X171727800Y-110294998D01*
X171727598Y-110292431D01*
X171715510Y-110250825D01*
X171686535Y-110151094D01*
X171681744Y-110134602D01*
X171598081Y-109993135D01*
X171598079Y-109993133D01*
X171598076Y-109993129D01*
X171481870Y-109876923D01*
X171481862Y-109876917D01*
X171391428Y-109823435D01*
X171340398Y-109793256D01*
X171340397Y-109793255D01*
X171340396Y-109793255D01*
X171340393Y-109793254D01*
X171182573Y-109747402D01*
X171182567Y-109747401D01*
X171145701Y-109744500D01*
X171145694Y-109744500D01*
X169364306Y-109744500D01*
X169364298Y-109744500D01*
X169327432Y-109747401D01*
X169327426Y-109747402D01*
X169169606Y-109793254D01*
X169169603Y-109793255D01*
X169028137Y-109876917D01*
X169028129Y-109876923D01*
X168911923Y-109993129D01*
X168911917Y-109993137D01*
X168828255Y-110134603D01*
X168828254Y-110134606D01*
X168782402Y-110292426D01*
X168782401Y-110292432D01*
X168779500Y-110329298D01*
X168779500Y-110458500D01*
X168759815Y-110525539D01*
X168707011Y-110571294D01*
X168655500Y-110582500D01*
X161900835Y-110582500D01*
X161833796Y-110562815D01*
X161788041Y-110510011D01*
X161778097Y-110440853D01*
X161783130Y-110419494D01*
X161790348Y-110397710D01*
X161790349Y-110397708D01*
X161800500Y-110298345D01*
X161800499Y-109701656D01*
X161797961Y-109676814D01*
X161790349Y-109602292D01*
X161790348Y-109602289D01*
X161775718Y-109558138D01*
X161737003Y-109441303D01*
X161736999Y-109441297D01*
X161736998Y-109441294D01*
X161647970Y-109296959D01*
X161647969Y-109296958D01*
X161647968Y-109296956D01*
X161587803Y-109236791D01*
X161554319Y-109175467D01*
X161559304Y-109105776D01*
X161587802Y-109061431D01*
X162012416Y-108636818D01*
X162073739Y-108603333D01*
X162100097Y-108600499D01*
X163147871Y-108600499D01*
X163147872Y-108600499D01*
X163207483Y-108594091D01*
X163342331Y-108543796D01*
X163457546Y-108457546D01*
X163543796Y-108342331D01*
X163594091Y-108207483D01*
X163600500Y-108147873D01*
X163600499Y-106152128D01*
X163594091Y-106092517D01*
X163590464Y-106082793D01*
X163543797Y-105957671D01*
X163543793Y-105957664D01*
X163457547Y-105842455D01*
X163457544Y-105842452D01*
X163342335Y-105756206D01*
X163342328Y-105756202D01*
X163207482Y-105705908D01*
X163207483Y-105705908D01*
X163147883Y-105699501D01*
X163147881Y-105699500D01*
X163147873Y-105699500D01*
X163147865Y-105699500D01*
X160900098Y-105699500D01*
X160833059Y-105679815D01*
X160812417Y-105663181D01*
X160139582Y-104990346D01*
X159461415Y-104312180D01*
X159427931Y-104250858D01*
X159432915Y-104181166D01*
X159474787Y-104125233D01*
X159540251Y-104100816D01*
X159549097Y-104100500D01*
X160037680Y-104100500D01*
X160104719Y-104120185D01*
X160136948Y-104150191D01*
X160142454Y-104157546D01*
X160142457Y-104157548D01*
X160257664Y-104243793D01*
X160257671Y-104243797D01*
X160392517Y-104294091D01*
X160392516Y-104294091D01*
X160399444Y-104294835D01*
X160452127Y-104300500D01*
X163147872Y-104300499D01*
X163207483Y-104294091D01*
X163342331Y-104243796D01*
X163457546Y-104157546D01*
X163543796Y-104042331D01*
X163594091Y-103907483D01*
X163600500Y-103847873D01*
X163600499Y-102418427D01*
X168825000Y-102418427D01*
X168825000Y-102425000D01*
X169550000Y-102425000D01*
X169550000Y-101775000D01*
X169549999Y-101774999D01*
X169468417Y-101775000D01*
X169397897Y-101781408D01*
X169397892Y-101781409D01*
X169235603Y-101831981D01*
X169090122Y-101919927D01*
X168969927Y-102040122D01*
X168881980Y-102185604D01*
X168831409Y-102347893D01*
X168825000Y-102418427D01*
X163600499Y-102418427D01*
X163600499Y-101852128D01*
X163594091Y-101792517D01*
X163588389Y-101777230D01*
X163543797Y-101657671D01*
X163543793Y-101657664D01*
X163457547Y-101542455D01*
X163457544Y-101542452D01*
X163342335Y-101456206D01*
X163342328Y-101456202D01*
X163207482Y-101405908D01*
X163207483Y-101405908D01*
X163147883Y-101399501D01*
X163147881Y-101399500D01*
X163147873Y-101399500D01*
X163147865Y-101399500D01*
X162524501Y-101399500D01*
X162457462Y-101379815D01*
X162411707Y-101327011D01*
X162400501Y-101275500D01*
X162400501Y-101145944D01*
X162400501Y-101145943D01*
X162359577Y-100993216D01*
X162343488Y-100965348D01*
X162280524Y-100856290D01*
X162280518Y-100856282D01*
X161561818Y-100137582D01*
X161528333Y-100076259D01*
X161525499Y-100049901D01*
X161525499Y-99701662D01*
X161525498Y-99701644D01*
X161515349Y-99602292D01*
X161515348Y-99602289D01*
X161503295Y-99565915D01*
X161462003Y-99441303D01*
X161461999Y-99441297D01*
X161461998Y-99441294D01*
X161372970Y-99296959D01*
X161372967Y-99296955D01*
X161253044Y-99177032D01*
X161253040Y-99177029D01*
X161108705Y-99088001D01*
X161108699Y-99087998D01*
X161108697Y-99087997D01*
X161092989Y-99082792D01*
X160947709Y-99034651D01*
X160848346Y-99024500D01*
X160301662Y-99024500D01*
X160301644Y-99024501D01*
X160202292Y-99034650D01*
X160202289Y-99034651D01*
X160041305Y-99087996D01*
X160041294Y-99088001D01*
X159896959Y-99177029D01*
X159896953Y-99177033D01*
X159887324Y-99186663D01*
X159826000Y-99220146D01*
X159756308Y-99215159D01*
X159711965Y-99186660D01*
X159702732Y-99177427D01*
X159702728Y-99177424D01*
X159558492Y-99088457D01*
X159558481Y-99088452D01*
X159397606Y-99035144D01*
X159298322Y-99025000D01*
X159275000Y-99025000D01*
X159275000Y-99876000D01*
X159255315Y-99943039D01*
X159202511Y-99988794D01*
X159151000Y-100000000D01*
X159025000Y-100000000D01*
X159025000Y-100126000D01*
X159005315Y-100193039D01*
X158952511Y-100238794D01*
X158901000Y-100250000D01*
X158075001Y-100250000D01*
X158075001Y-100298322D01*
X158085144Y-100397607D01*
X158131167Y-100536496D01*
X158133569Y-100606325D01*
X158097837Y-100666366D01*
X158035316Y-100697559D01*
X158013461Y-100699500D01*
X155662000Y-100699500D01*
X155594961Y-100679815D01*
X155549206Y-100627011D01*
X155538000Y-100575500D01*
X155538000Y-100387286D01*
X155537999Y-100387272D01*
X155532458Y-100345185D01*
X155523187Y-100274764D01*
X155465198Y-100134767D01*
X155372951Y-100014549D01*
X155252733Y-99922302D01*
X155252729Y-99922300D01*
X155189301Y-99896027D01*
X155112736Y-99864313D01*
X155098671Y-99862461D01*
X155000227Y-99849500D01*
X155000220Y-99849500D01*
X153662000Y-99849500D01*
X153653314Y-99846949D01*
X153644353Y-99848238D01*
X153620312Y-99837259D01*
X153594961Y-99829815D01*
X153589033Y-99822974D01*
X153580797Y-99819213D01*
X153566507Y-99796978D01*
X153549206Y-99777011D01*
X153546918Y-99766496D01*
X153543023Y-99760435D01*
X153538000Y-99725500D01*
X153538000Y-99701677D01*
X158075000Y-99701677D01*
X158075000Y-99750000D01*
X158775000Y-99750000D01*
X158775000Y-99024999D01*
X158751693Y-99025000D01*
X158751674Y-99025001D01*
X158652392Y-99035144D01*
X158491518Y-99088452D01*
X158491507Y-99088457D01*
X158347271Y-99177424D01*
X158347267Y-99177427D01*
X158227427Y-99297267D01*
X158227424Y-99297271D01*
X158138457Y-99441507D01*
X158138452Y-99441518D01*
X158085144Y-99602393D01*
X158075000Y-99701677D01*
X153538000Y-99701677D01*
X153538000Y-98387286D01*
X153537999Y-98387272D01*
X153533002Y-98349320D01*
X153523187Y-98274764D01*
X153465198Y-98134767D01*
X153372951Y-98014549D01*
X153252733Y-97922302D01*
X153252729Y-97922300D01*
X153189301Y-97896027D01*
X153112736Y-97864313D01*
X153094787Y-97861950D01*
X153000227Y-97849500D01*
X153000220Y-97849500D01*
X152774780Y-97849500D01*
X152774772Y-97849500D01*
X152687893Y-97860938D01*
X152662264Y-97864313D01*
X152662262Y-97864313D01*
X152654208Y-97865374D01*
X152653816Y-97862399D01*
X152621184Y-97862399D01*
X152620792Y-97865374D01*
X152612737Y-97864313D01*
X152612736Y-97864313D01*
X152583771Y-97860499D01*
X152500227Y-97849500D01*
X152500220Y-97849500D01*
X152274780Y-97849500D01*
X152274772Y-97849500D01*
X152187893Y-97860938D01*
X152162264Y-97864313D01*
X152162262Y-97864313D01*
X152154208Y-97865374D01*
X152153816Y-97862399D01*
X152121184Y-97862399D01*
X152120792Y-97865374D01*
X152112737Y-97864313D01*
X152112736Y-97864313D01*
X152083771Y-97860499D01*
X152000227Y-97849500D01*
X152000220Y-97849500D01*
X151774780Y-97849500D01*
X151774772Y-97849500D01*
X151687893Y-97860938D01*
X151662264Y-97864313D01*
X151662262Y-97864313D01*
X151654208Y-97865374D01*
X151653816Y-97862399D01*
X151621184Y-97862399D01*
X151620792Y-97865374D01*
X151612737Y-97864313D01*
X151612736Y-97864313D01*
X151583771Y-97860499D01*
X151500227Y-97849500D01*
X151500220Y-97849500D01*
X151274780Y-97849500D01*
X151274772Y-97849500D01*
X151187893Y-97860938D01*
X151162264Y-97864313D01*
X151162262Y-97864313D01*
X151154208Y-97865374D01*
X151153816Y-97862399D01*
X151121184Y-97862399D01*
X151120792Y-97865374D01*
X151112737Y-97864313D01*
X151112736Y-97864313D01*
X151083771Y-97860499D01*
X151000227Y-97849500D01*
X151000220Y-97849500D01*
X150774780Y-97849500D01*
X150774772Y-97849500D01*
X150687893Y-97860938D01*
X150662264Y-97864313D01*
X150662262Y-97864313D01*
X150654208Y-97865374D01*
X150653816Y-97862399D01*
X150621184Y-97862399D01*
X150620792Y-97865374D01*
X150612737Y-97864313D01*
X150612736Y-97864313D01*
X150583771Y-97860499D01*
X150500227Y-97849500D01*
X150500220Y-97849500D01*
X150274780Y-97849500D01*
X150274772Y-97849500D01*
X150172765Y-97862930D01*
X150172763Y-97862930D01*
X150162264Y-97864313D01*
X150022267Y-97922302D01*
X149978699Y-97955732D01*
X149978699Y-97955733D01*
X149976059Y-97957758D01*
X149962986Y-97967789D01*
X149897819Y-97992984D01*
X149829374Y-97978946D01*
X149812015Y-97967790D01*
X149786012Y-97947838D01*
X149744810Y-97891410D01*
X149738620Y-97855894D01*
X149737499Y-97854911D01*
X149654770Y-97865804D01*
X149621404Y-97865669D01*
X149613258Y-97864529D01*
X149612736Y-97864313D01*
X149595343Y-97862023D01*
X149594820Y-97861950D01*
X149563429Y-97847758D01*
X149531916Y-97833817D01*
X149531628Y-97833381D01*
X149531154Y-97833167D01*
X149512443Y-97804294D01*
X149493446Y-97775492D01*
X149493346Y-97774824D01*
X149493157Y-97774533D01*
X149493153Y-97773537D01*
X149488000Y-97739146D01*
X149488000Y-97054018D01*
X149507685Y-96986979D01*
X149524320Y-96966336D01*
X149569106Y-96921550D01*
X149569113Y-96921543D01*
X149572247Y-96916851D01*
X149610252Y-96880202D01*
X149703044Y-96822968D01*
X149712668Y-96813343D01*
X149773987Y-96779856D01*
X149843679Y-96784835D01*
X149888034Y-96813339D01*
X149897267Y-96822572D01*
X149897271Y-96822575D01*
X150041507Y-96911542D01*
X150041518Y-96911547D01*
X150202393Y-96964855D01*
X150301683Y-96974999D01*
X150825000Y-96974999D01*
X150848308Y-96974999D01*
X150848322Y-96974998D01*
X150947607Y-96964855D01*
X151108481Y-96911547D01*
X151108492Y-96911542D01*
X151252728Y-96822575D01*
X151252732Y-96822572D01*
X151372572Y-96702732D01*
X151372575Y-96702728D01*
X151461542Y-96558492D01*
X151461547Y-96558481D01*
X151514855Y-96397606D01*
X151524999Y-96298322D01*
X151525000Y-96298309D01*
X151525000Y-96250000D01*
X150825000Y-96250000D01*
X150825000Y-96974999D01*
X150301683Y-96974999D01*
X150325000Y-96974998D01*
X150325000Y-96124000D01*
X150344685Y-96056961D01*
X150397489Y-96011206D01*
X150449000Y-96000000D01*
X150575000Y-96000000D01*
X150575000Y-95874000D01*
X150594685Y-95806961D01*
X150647489Y-95761206D01*
X150699000Y-95750000D01*
X151524999Y-95750000D01*
X151524999Y-95701692D01*
X151524998Y-95701677D01*
X151514855Y-95602392D01*
X151461547Y-95441518D01*
X151461542Y-95441507D01*
X151372575Y-95297271D01*
X151372572Y-95297267D01*
X151252731Y-95177426D01*
X151247724Y-95174338D01*
X151201000Y-95122390D01*
X151189779Y-95053427D01*
X151217623Y-94989345D01*
X151275692Y-94950490D01*
X151312822Y-94944800D01*
X155890872Y-94944800D01*
X155957911Y-94964485D01*
X155978558Y-94981124D01*
X156174438Y-95177032D01*
X159229380Y-98232408D01*
X159234468Y-98237496D01*
X159234480Y-98237516D01*
X159294732Y-98297768D01*
X159296838Y-98299874D01*
X159346253Y-98349297D01*
X159346275Y-98349314D01*
X159346282Y-98349318D01*
X159346284Y-98349320D01*
X159421195Y-98392569D01*
X159421201Y-98392576D01*
X159421203Y-98392574D01*
X159483176Y-98428360D01*
X159483178Y-98428360D01*
X159483212Y-98428374D01*
X159483216Y-98428377D01*
X159558108Y-98448444D01*
X159635900Y-98469295D01*
X159635909Y-98469295D01*
X159635941Y-98469299D01*
X159635943Y-98469300D01*
X159635944Y-98469300D01*
X159707770Y-98469300D01*
X159794015Y-98469306D01*
X159794016Y-98469305D01*
X159802222Y-98469306D01*
X159802327Y-98469300D01*
X168809500Y-98469300D01*
X168876539Y-98488985D01*
X168922294Y-98541789D01*
X168933500Y-98593300D01*
X168933500Y-99931330D01*
X168933499Y-99931348D01*
X168933499Y-100097054D01*
X168933498Y-100097054D01*
X168950486Y-100160451D01*
X168974423Y-100249785D01*
X168998690Y-100291816D01*
X169053479Y-100386714D01*
X169053481Y-100386717D01*
X169172349Y-100505585D01*
X169172355Y-100505590D01*
X169941181Y-101274416D01*
X169974666Y-101335739D01*
X169977500Y-101362097D01*
X169977500Y-102551000D01*
X169957815Y-102618039D01*
X169905011Y-102663794D01*
X169853500Y-102675000D01*
X169800000Y-102675000D01*
X169800000Y-102801000D01*
X169780315Y-102868039D01*
X169727511Y-102913794D01*
X169676000Y-102925000D01*
X168825001Y-102925000D01*
X168825001Y-102931582D01*
X168831408Y-103002102D01*
X168831409Y-103002107D01*
X168881981Y-103164396D01*
X168969927Y-103309877D01*
X169072015Y-103411965D01*
X169105500Y-103473288D01*
X169100516Y-103542980D01*
X169072015Y-103587327D01*
X168969531Y-103689810D01*
X168969530Y-103689811D01*
X168881522Y-103835393D01*
X168830913Y-103997807D01*
X168824500Y-104068386D01*
X168824500Y-104581613D01*
X168830913Y-104652192D01*
X168830913Y-104652194D01*
X168830914Y-104652196D01*
X168881522Y-104814606D01*
X168953223Y-104933214D01*
X168969530Y-104960188D01*
X169089811Y-105080469D01*
X169089813Y-105080470D01*
X169089815Y-105080472D01*
X169235394Y-105168478D01*
X169397804Y-105219086D01*
X169468384Y-105225500D01*
X169468387Y-105225500D01*
X170131613Y-105225500D01*
X170131616Y-105225500D01*
X170202196Y-105219086D01*
X170364606Y-105168478D01*
X170510185Y-105080472D01*
X170630472Y-104960185D01*
X170718478Y-104814606D01*
X170769086Y-104652196D01*
X170775500Y-104581616D01*
X170775500Y-104249343D01*
X170795185Y-104182304D01*
X170811763Y-104161718D01*
X171001726Y-103971510D01*
X171002660Y-103970575D01*
X171058520Y-103914716D01*
X171058618Y-103914546D01*
X171058756Y-103914408D01*
X171094532Y-103852351D01*
X171098109Y-103846146D01*
X171098148Y-103846078D01*
X171104317Y-103835393D01*
X171137577Y-103777784D01*
X171137580Y-103777770D01*
X171137718Y-103777437D01*
X171137725Y-103777426D01*
X171158121Y-103701111D01*
X171178500Y-103625057D01*
X171178500Y-103624887D01*
X171178543Y-103624727D01*
X171178548Y-103624679D01*
X171178551Y-103624672D01*
X171178500Y-103545614D01*
X171178500Y-101141060D01*
X171178501Y-101141057D01*
X171178501Y-101092096D01*
X171192541Y-101044284D01*
X171198186Y-101025059D01*
X171198186Y-101025058D01*
X171198187Y-101025057D01*
X171250991Y-100979303D01*
X171302761Y-100971859D01*
X171320148Y-100969360D01*
X171320150Y-100969360D01*
X171355941Y-100985706D01*
X171383704Y-100998385D01*
X171390182Y-101004417D01*
X172467139Y-102081374D01*
X172467149Y-102081385D01*
X172471479Y-102085715D01*
X172471480Y-102085716D01*
X172583284Y-102197520D01*
X172583286Y-102197521D01*
X172583290Y-102197524D01*
X172706917Y-102268899D01*
X172720216Y-102276577D01*
X172832019Y-102306534D01*
X172872942Y-102317500D01*
X172872943Y-102317500D01*
X177192480Y-102317500D01*
X177259519Y-102337185D01*
X177305274Y-102389989D01*
X177315218Y-102459147D01*
X177286193Y-102522703D01*
X177280161Y-102529181D01*
X177219531Y-102589810D01*
X177219530Y-102589811D01*
X177131522Y-102735393D01*
X177080913Y-102897807D01*
X177077844Y-102931582D01*
X177075418Y-102958288D01*
X177074500Y-102968386D01*
X177074500Y-103631613D01*
X177080913Y-103702192D01*
X177080913Y-103702194D01*
X177080914Y-103702196D01*
X177131522Y-103864606D01*
X177212043Y-103997804D01*
X177219530Y-104010188D01*
X177339811Y-104130469D01*
X177339813Y-104130470D01*
X177339815Y-104130472D01*
X177485394Y-104218478D01*
X177647804Y-104269086D01*
X177718384Y-104275500D01*
X178064363Y-104275500D01*
X178093830Y-104284152D01*
X178123839Y-104290695D01*
X178128819Y-104294426D01*
X178131402Y-104295185D01*
X178152082Y-104311858D01*
X178242372Y-104402230D01*
X178275829Y-104463567D01*
X178276268Y-104465679D01*
X178307261Y-104621489D01*
X178307264Y-104621501D01*
X178367602Y-104767172D01*
X178367609Y-104767185D01*
X178455210Y-104898288D01*
X178455213Y-104898292D01*
X178566707Y-105009786D01*
X178566711Y-105009789D01*
X178697814Y-105097390D01*
X178697827Y-105097397D01*
X178843498Y-105157735D01*
X178843503Y-105157737D01*
X178998153Y-105188499D01*
X178998156Y-105188500D01*
X178998158Y-105188500D01*
X179155844Y-105188500D01*
X179155845Y-105188499D01*
X179310497Y-105157737D01*
X179456179Y-105097394D01*
X179587289Y-105009789D01*
X179698789Y-104898289D01*
X179786394Y-104767179D01*
X179786752Y-104766316D01*
X179810917Y-104707974D01*
X179846737Y-104621497D01*
X179877500Y-104466842D01*
X179877500Y-104383602D01*
X179897185Y-104316563D01*
X179949989Y-104270808D01*
X179964591Y-104265223D01*
X180114606Y-104218478D01*
X180260185Y-104130472D01*
X180380472Y-104010185D01*
X180468478Y-103864606D01*
X180468478Y-103864604D01*
X180472358Y-103858187D01*
X180474497Y-103859480D01*
X180512146Y-103815551D01*
X180579077Y-103795502D01*
X180579752Y-103795500D01*
X182016295Y-103795500D01*
X182083334Y-103815185D01*
X182129089Y-103867989D01*
X182130856Y-103872048D01*
X182199330Y-104037361D01*
X182199337Y-104037376D01*
X182323900Y-104253126D01*
X182475560Y-104450774D01*
X182475566Y-104450781D01*
X182651718Y-104626933D01*
X182651725Y-104626939D01*
X182849373Y-104778599D01*
X182951588Y-104837613D01*
X182999803Y-104888180D01*
X183013027Y-104956787D01*
X182987059Y-105021652D01*
X182951588Y-105052387D01*
X182849373Y-105111400D01*
X182651725Y-105263060D01*
X182651718Y-105263066D01*
X182475566Y-105439218D01*
X182475560Y-105439225D01*
X182323900Y-105636873D01*
X182199337Y-105852623D01*
X182199330Y-105852638D01*
X182128785Y-106022952D01*
X182084944Y-106077356D01*
X182018650Y-106099421D01*
X182014224Y-106099500D01*
X180416715Y-106099500D01*
X180349676Y-106079815D01*
X180310598Y-106039650D01*
X180304333Y-106029286D01*
X180280472Y-105989815D01*
X180280470Y-105989813D01*
X180280469Y-105989811D01*
X180160188Y-105869530D01*
X180153078Y-105865232D01*
X180014606Y-105781522D01*
X179852196Y-105730914D01*
X179852194Y-105730913D01*
X179852192Y-105730913D01*
X179802778Y-105726423D01*
X179781616Y-105724500D01*
X179268384Y-105724500D01*
X179249145Y-105726248D01*
X179197807Y-105730913D01*
X179035393Y-105781522D01*
X178889811Y-105869530D01*
X178889810Y-105869531D01*
X178787681Y-105971661D01*
X178726358Y-106005146D01*
X178656666Y-106000162D01*
X178612319Y-105971661D01*
X178510188Y-105869530D01*
X178503078Y-105865232D01*
X178364606Y-105781522D01*
X178202196Y-105730914D01*
X178202194Y-105730913D01*
X178202192Y-105730913D01*
X178152778Y-105726423D01*
X178131616Y-105724500D01*
X177618384Y-105724500D01*
X177599145Y-105726248D01*
X177547807Y-105730913D01*
X177526932Y-105737417D01*
X177385394Y-105781522D01*
X177385392Y-105781522D01*
X177385389Y-105781524D01*
X177378555Y-105784600D01*
X177377675Y-105782646D01*
X177324396Y-105797500D01*
X171923669Y-105797500D01*
X171923653Y-105797499D01*
X171916057Y-105797499D01*
X171757943Y-105797499D01*
X171650587Y-105826265D01*
X171605210Y-105838424D01*
X171605209Y-105838425D01*
X171558780Y-105865232D01*
X171558778Y-105865233D01*
X171468290Y-105917475D01*
X171468282Y-105917481D01*
X171356478Y-106029286D01*
X171169522Y-106216241D01*
X171108199Y-106249726D01*
X171043523Y-106246491D01*
X171001245Y-106232754D01*
X170861272Y-106210584D01*
X170791287Y-106199500D01*
X170578713Y-106199500D01*
X170530042Y-106207208D01*
X170368760Y-106232753D01*
X170166585Y-106298444D01*
X169977179Y-106394951D01*
X169805213Y-106519890D01*
X169654890Y-106670213D01*
X169529951Y-106842179D01*
X169433444Y-107031585D01*
X169367753Y-107233760D01*
X169334500Y-107443713D01*
X169334500Y-107656286D01*
X169356036Y-107792263D01*
X169367754Y-107866243D01*
X169423032Y-108036371D01*
X169433444Y-108068414D01*
X169529951Y-108257820D01*
X169654890Y-108429786D01*
X169805213Y-108580109D01*
X169977179Y-108705048D01*
X169977181Y-108705049D01*
X169977184Y-108705051D01*
X170166588Y-108801557D01*
X170368757Y-108867246D01*
X170578713Y-108900500D01*
X170578714Y-108900500D01*
X170791286Y-108900500D01*
X170791287Y-108900500D01*
X171001243Y-108867246D01*
X171203412Y-108801557D01*
X171392816Y-108705051D01*
X171479147Y-108642328D01*
X171564784Y-108580110D01*
X171564784Y-108580109D01*
X171564792Y-108580104D01*
X171678329Y-108466566D01*
X171739648Y-108433084D01*
X171809340Y-108438068D01*
X171865274Y-108479939D01*
X171882189Y-108510917D01*
X171931202Y-108642328D01*
X171931206Y-108642335D01*
X172017452Y-108757544D01*
X172017455Y-108757547D01*
X172132664Y-108843793D01*
X172132671Y-108843797D01*
X172267517Y-108894091D01*
X172267516Y-108894091D01*
X172274444Y-108894835D01*
X172327127Y-108900500D01*
X174122872Y-108900499D01*
X174182483Y-108894091D01*
X174317331Y-108843796D01*
X174432546Y-108757546D01*
X174518796Y-108642331D01*
X174569091Y-108507483D01*
X174575500Y-108447873D01*
X174575499Y-107122499D01*
X174595184Y-107055461D01*
X174647987Y-107009706D01*
X174699499Y-106998500D01*
X176858524Y-106998500D01*
X176925563Y-107018185D01*
X176971318Y-107070989D01*
X176980142Y-107098311D01*
X176980913Y-107102192D01*
X176980914Y-107102196D01*
X177031522Y-107264606D01*
X177117931Y-107407544D01*
X177119530Y-107410188D01*
X177239811Y-107530469D01*
X177239813Y-107530470D01*
X177239815Y-107530472D01*
X177385394Y-107618478D01*
X177547804Y-107669086D01*
X177618384Y-107675500D01*
X177618387Y-107675500D01*
X178131613Y-107675500D01*
X178131616Y-107675500D01*
X178202196Y-107669086D01*
X178364606Y-107618478D01*
X178510185Y-107530472D01*
X178546864Y-107493793D01*
X178612319Y-107428339D01*
X178673642Y-107394854D01*
X178743334Y-107399838D01*
X178787681Y-107428339D01*
X178889811Y-107530469D01*
X178889813Y-107530470D01*
X178889815Y-107530472D01*
X179035394Y-107618478D01*
X179197804Y-107669086D01*
X179268384Y-107675500D01*
X179268387Y-107675500D01*
X179781613Y-107675500D01*
X179781616Y-107675500D01*
X179852196Y-107669086D01*
X180014606Y-107618478D01*
X180160185Y-107530472D01*
X180280472Y-107410185D01*
X180310598Y-107360349D01*
X180362126Y-107313162D01*
X180416715Y-107300500D01*
X181680192Y-107300500D01*
X181747231Y-107320185D01*
X181792986Y-107372989D01*
X181802930Y-107442147D01*
X181773905Y-107505703D01*
X181767873Y-107512181D01*
X178151873Y-111128181D01*
X178090550Y-111161666D01*
X178064192Y-111164500D01*
X176724896Y-111164500D01*
X176657857Y-111144815D01*
X176612102Y-111092011D01*
X176602158Y-111022853D01*
X176618164Y-110977379D01*
X176631281Y-110955198D01*
X176677100Y-110797486D01*
X176677295Y-110795001D01*
X176677295Y-110795000D01*
X173732705Y-110795000D01*
X173732704Y-110795001D01*
X173732899Y-110797486D01*
X173778718Y-110955198D01*
X173862314Y-111096552D01*
X173867100Y-111102722D01*
X173864640Y-111104629D01*
X173891210Y-111153288D01*
X173886226Y-111222980D01*
X173865162Y-111255781D01*
X173866699Y-111256974D01*
X173861915Y-111263140D01*
X173778255Y-111404603D01*
X173778254Y-111404606D01*
X173732402Y-111562426D01*
X173732401Y-111562432D01*
X173729500Y-111599298D01*
X173729500Y-112030701D01*
X173732401Y-112067567D01*
X173732402Y-112067573D01*
X173778254Y-112225393D01*
X173778255Y-112225396D01*
X173861917Y-112366862D01*
X173866702Y-112373031D01*
X173864256Y-112374927D01*
X173890857Y-112423642D01*
X173885873Y-112493334D01*
X173865069Y-112525703D01*
X173866702Y-112526969D01*
X173861917Y-112533137D01*
X173778255Y-112674603D01*
X173778254Y-112674606D01*
X173732402Y-112832426D01*
X173732401Y-112832432D01*
X173729500Y-112869298D01*
X173729500Y-113300701D01*
X173732401Y-113337567D01*
X173732402Y-113337573D01*
X173778254Y-113495393D01*
X173778255Y-113495396D01*
X173861917Y-113636862D01*
X173866702Y-113643031D01*
X173864256Y-113644927D01*
X173890857Y-113693642D01*
X173885873Y-113763334D01*
X173865069Y-113795703D01*
X173866702Y-113796969D01*
X173861917Y-113803137D01*
X173778255Y-113944603D01*
X173778254Y-113944606D01*
X173732402Y-114102426D01*
X173732401Y-114102432D01*
X173729500Y-114139298D01*
X173729500Y-114570701D01*
X173732401Y-114607567D01*
X173732402Y-114607573D01*
X173763579Y-114714881D01*
X173763380Y-114784750D01*
X173732184Y-114837157D01*
X168468162Y-120101181D01*
X168406839Y-120134666D01*
X168380481Y-120137500D01*
X166525001Y-120137500D01*
X166525001Y-120154152D01*
X166535056Y-120252583D01*
X166587906Y-120412072D01*
X166587908Y-120412077D01*
X166676114Y-120555080D01*
X166708853Y-120587819D01*
X166742338Y-120649142D01*
X166737354Y-120718834D01*
X166695482Y-120774767D01*
X166630018Y-120799184D01*
X166621172Y-120799500D01*
X158276492Y-120799500D01*
X158209453Y-120779815D01*
X158163698Y-120727011D01*
X158153754Y-120657853D01*
X158182779Y-120594297D01*
X158199583Y-120578233D01*
X158205077Y-120573888D01*
X158323885Y-120455080D01*
X158412091Y-120312077D01*
X158412093Y-120312072D01*
X158464942Y-120152583D01*
X158474999Y-120054150D01*
X158475000Y-120054137D01*
X158475000Y-120037500D01*
X156525001Y-120037500D01*
X156525001Y-120054152D01*
X156535056Y-120152583D01*
X156587906Y-120312072D01*
X156587908Y-120312077D01*
X156676114Y-120455080D01*
X156794922Y-120573888D01*
X156800417Y-120578233D01*
X156840795Y-120635254D01*
X156843935Y-120705053D01*
X156808840Y-120765469D01*
X156746653Y-120797321D01*
X156723508Y-120799500D01*
X148276492Y-120799500D01*
X148209453Y-120779815D01*
X148163698Y-120727011D01*
X148153754Y-120657853D01*
X148182779Y-120594297D01*
X148199583Y-120578233D01*
X148205077Y-120573888D01*
X148323885Y-120455080D01*
X148412091Y-120312077D01*
X148412093Y-120312072D01*
X148464942Y-120152583D01*
X148474999Y-120054150D01*
X148475000Y-120054137D01*
X148475000Y-120037500D01*
X146525001Y-120037500D01*
X146525001Y-120054152D01*
X146535056Y-120152583D01*
X146587906Y-120312072D01*
X146587908Y-120312077D01*
X146676114Y-120455080D01*
X146794922Y-120573888D01*
X146800417Y-120578233D01*
X146840795Y-120635254D01*
X146843935Y-120705053D01*
X146808840Y-120765469D01*
X146746653Y-120797321D01*
X146723508Y-120799500D01*
X143663519Y-120799500D01*
X143596480Y-120779815D01*
X143575838Y-120763181D01*
X143197546Y-120384888D01*
X143197545Y-120384887D01*
X143082807Y-120308222D01*
X142955332Y-120255421D01*
X142955322Y-120255418D01*
X142819996Y-120228500D01*
X142819994Y-120228500D01*
X142819993Y-120228500D01*
X141496316Y-120228500D01*
X141448864Y-120219061D01*
X141304501Y-120159264D01*
X141304489Y-120159261D01*
X141149845Y-120128500D01*
X141149842Y-120128500D01*
X140992158Y-120128500D01*
X140992155Y-120128500D01*
X140837510Y-120159261D01*
X140837498Y-120159264D01*
X140691827Y-120219602D01*
X140691814Y-120219609D01*
X140560711Y-120307210D01*
X140560707Y-120307213D01*
X140449213Y-120418707D01*
X140449210Y-120418711D01*
X140361609Y-120549814D01*
X140361604Y-120549824D01*
X140301808Y-120694185D01*
X140274928Y-120734413D01*
X139772461Y-121236881D01*
X139711138Y-121270366D01*
X139684780Y-121273200D01*
X135935000Y-121273200D01*
X135935000Y-121321044D01*
X135941401Y-121380572D01*
X135941403Y-121380579D01*
X135991645Y-121515286D01*
X135991647Y-121515289D01*
X136077723Y-121630272D01*
X136102140Y-121695736D01*
X136087288Y-121764009D01*
X136077723Y-121778894D01*
X135991204Y-121894468D01*
X135991202Y-121894471D01*
X135940910Y-122029313D01*
X135940909Y-122029317D01*
X135934500Y-122088927D01*
X135934500Y-122088934D01*
X135934500Y-122088935D01*
X135934500Y-122591070D01*
X135934501Y-122591076D01*
X135940908Y-122650683D01*
X135991202Y-122785528D01*
X135991206Y-122785535D01*
X136077452Y-122900744D01*
X136077455Y-122900747D01*
X136192664Y-122986993D01*
X136192671Y-122986997D01*
X136327517Y-123037291D01*
X136327516Y-123037291D01*
X136334444Y-123038035D01*
X136387127Y-123043700D01*
X139276872Y-123043699D01*
X139300027Y-123041209D01*
X139313279Y-123040500D01*
X139728996Y-123040500D01*
X139820040Y-123022389D01*
X139864328Y-123013580D01*
X139928515Y-122986993D01*
X139991807Y-122960777D01*
X139991808Y-122960776D01*
X139991811Y-122960775D01*
X140106543Y-122884114D01*
X141265587Y-121725068D01*
X141272517Y-121720438D01*
X141275460Y-121716200D01*
X141305802Y-121698196D01*
X141448867Y-121638937D01*
X141496316Y-121629500D01*
X142409481Y-121629500D01*
X142476520Y-121649185D01*
X142497162Y-121665819D01*
X142875453Y-122044111D01*
X142875454Y-122044112D01*
X142990192Y-122120777D01*
X143117667Y-122173578D01*
X143117672Y-122173580D01*
X143117676Y-122173580D01*
X143117677Y-122173581D01*
X143253003Y-122200500D01*
X143253006Y-122200500D01*
X168128996Y-122200500D01*
X168220040Y-122182389D01*
X168264328Y-122173580D01*
X168328069Y-122147177D01*
X168391807Y-122120777D01*
X168391808Y-122120776D01*
X168391811Y-122120775D01*
X168506543Y-122044114D01*
X168914357Y-121636300D01*
X169326510Y-121224148D01*
X175358838Y-115191819D01*
X175420161Y-115158334D01*
X175446519Y-115155500D01*
X176095686Y-115155500D01*
X176095694Y-115155500D01*
X176132569Y-115152598D01*
X176132571Y-115152597D01*
X176132573Y-115152597D01*
X176174191Y-115140505D01*
X176290398Y-115106744D01*
X176431865Y-115023081D01*
X176548081Y-114906865D01*
X176561379Y-114884378D01*
X176612447Y-114836696D01*
X176668111Y-114823500D01*
X177312684Y-114823500D01*
X177360136Y-114832939D01*
X177484327Y-114884380D01*
X177504503Y-114892737D01*
X177659153Y-114923499D01*
X177659156Y-114923500D01*
X177659158Y-114923500D01*
X177816844Y-114923500D01*
X177816845Y-114923499D01*
X177971497Y-114892737D01*
X178117179Y-114832394D01*
X178248289Y-114744789D01*
X178359789Y-114633289D01*
X178447394Y-114502179D01*
X178507737Y-114356497D01*
X178538500Y-114201842D01*
X178538500Y-114044158D01*
X178538500Y-114044155D01*
X178538499Y-114044153D01*
X178520911Y-113955735D01*
X178507737Y-113889503D01*
X178483760Y-113831616D01*
X178447397Y-113743827D01*
X178447390Y-113743814D01*
X178356928Y-113608428D01*
X178336050Y-113541750D01*
X178345468Y-113492086D01*
X178369737Y-113433497D01*
X178400500Y-113278842D01*
X178400500Y-113274500D01*
X178420185Y-113207461D01*
X178472989Y-113161706D01*
X178524500Y-113150500D01*
X178802968Y-113150500D01*
X178887512Y-113133682D01*
X178928641Y-113125501D01*
X179047024Y-113076465D01*
X179087892Y-113049158D01*
X179153566Y-113005277D01*
X180106935Y-112051906D01*
X180168256Y-112018423D01*
X180237947Y-112023407D01*
X180242005Y-112025003D01*
X180320360Y-112057459D01*
X180492397Y-112091679D01*
X180492401Y-112091680D01*
X180492402Y-112091680D01*
X180667812Y-112091680D01*
X180667814Y-112091680D01*
X180839856Y-112057460D01*
X181001916Y-111990333D01*
X181147766Y-111892880D01*
X181164482Y-111876163D01*
X181164486Y-111876161D01*
X181209784Y-111830862D01*
X181209784Y-111830863D01*
X181261611Y-111779036D01*
X181261612Y-111779033D01*
X181339945Y-111700700D01*
X181339946Y-111700697D01*
X181344160Y-111696484D01*
X181344506Y-111696102D01*
X181347431Y-111693178D01*
X181356554Y-111684059D01*
X181454043Y-111538211D01*
X181521200Y-111376144D01*
X181555444Y-111204088D01*
X181555458Y-111028658D01*
X181548503Y-110993683D01*
X181554735Y-110924093D01*
X181597601Y-110868918D01*
X181663492Y-110845677D01*
X181670122Y-110845500D01*
X181718334Y-110845500D01*
X182037006Y-110845500D01*
X182104045Y-110865185D01*
X182149800Y-110917989D01*
X182151567Y-110922048D01*
X182199330Y-111037361D01*
X182199337Y-111037376D01*
X182323900Y-111253126D01*
X182475560Y-111450774D01*
X182475566Y-111450781D01*
X182651718Y-111626933D01*
X182651725Y-111626939D01*
X182849373Y-111778599D01*
X182951588Y-111837613D01*
X182999803Y-111888180D01*
X183013027Y-111956787D01*
X182987059Y-112021652D01*
X182951588Y-112052387D01*
X182849373Y-112111400D01*
X182651725Y-112263060D01*
X182651718Y-112263066D01*
X182475566Y-112439218D01*
X182475560Y-112439225D01*
X182323900Y-112636873D01*
X182199337Y-112852623D01*
X182199330Y-112852638D01*
X182103998Y-113082792D01*
X182039517Y-113323438D01*
X182007001Y-113570424D01*
X182007000Y-113570441D01*
X182007000Y-113819558D01*
X182007001Y-113819575D01*
X182039259Y-114064602D01*
X182039518Y-114066565D01*
X182075765Y-114201842D01*
X182103998Y-114307207D01*
X182199330Y-114537361D01*
X182199337Y-114537376D01*
X182323900Y-114753126D01*
X182475560Y-114950774D01*
X182475566Y-114950781D01*
X182651718Y-115126933D01*
X182651725Y-115126939D01*
X182849373Y-115278599D01*
X182951588Y-115337613D01*
X182999803Y-115388180D01*
X183013027Y-115456787D01*
X182987059Y-115521652D01*
X182951588Y-115552387D01*
X182849373Y-115611400D01*
X182651725Y-115763060D01*
X182651718Y-115763066D01*
X182475566Y-115939218D01*
X182475560Y-115939225D01*
X182323900Y-116136873D01*
X182199337Y-116352623D01*
X182199330Y-116352638D01*
X182103998Y-116582792D01*
X182039517Y-116823438D01*
X182007001Y-117070424D01*
X182007000Y-117070441D01*
X182007000Y-117319558D01*
X182007001Y-117319575D01*
X182039517Y-117566561D01*
X182103998Y-117807207D01*
X182199330Y-118037361D01*
X182199337Y-118037376D01*
X182323900Y-118253126D01*
X182475560Y-118450774D01*
X182475566Y-118450781D01*
X182651718Y-118626933D01*
X182651725Y-118626939D01*
X182849373Y-118778599D01*
X183065123Y-118903162D01*
X183065138Y-118903169D01*
X183164325Y-118944253D01*
X183295293Y-118998502D01*
X183535935Y-119062982D01*
X183782935Y-119095500D01*
X183782942Y-119095500D01*
X184032058Y-119095500D01*
X184032065Y-119095500D01*
X184279065Y-119062982D01*
X184519707Y-118998502D01*
X184749873Y-118903164D01*
X184965627Y-118778599D01*
X185163276Y-118626938D01*
X185339438Y-118450776D01*
X185491099Y-118253127D01*
X185615664Y-118037373D01*
X185711002Y-117807207D01*
X185775482Y-117566565D01*
X185808000Y-117319565D01*
X185808000Y-117070435D01*
X185775482Y-116823435D01*
X185711002Y-116582793D01*
X185615664Y-116352627D01*
X185491099Y-116136873D01*
X185386639Y-116000738D01*
X185339439Y-115939225D01*
X185339433Y-115939218D01*
X185163281Y-115763066D01*
X185163274Y-115763060D01*
X184965628Y-115611401D01*
X184913708Y-115581426D01*
X184863410Y-115552386D01*
X184815196Y-115501821D01*
X184801972Y-115433214D01*
X184827940Y-115368349D01*
X184863410Y-115337613D01*
X184965627Y-115278599D01*
X185163276Y-115126938D01*
X185339438Y-114950776D01*
X185491099Y-114753127D01*
X185615664Y-114537373D01*
X185711002Y-114307207D01*
X185775482Y-114066565D01*
X185808000Y-113819565D01*
X185808000Y-113570435D01*
X185775482Y-113323435D01*
X185711002Y-113082793D01*
X185650120Y-112935810D01*
X185615669Y-112852638D01*
X185615662Y-112852623D01*
X185491099Y-112636873D01*
X185339439Y-112439225D01*
X185339433Y-112439218D01*
X185163281Y-112263066D01*
X185163274Y-112263060D01*
X184965628Y-112111401D01*
X184889707Y-112067569D01*
X184863410Y-112052386D01*
X184815196Y-112001821D01*
X184801972Y-111933214D01*
X184827940Y-111868349D01*
X184863410Y-111837613D01*
X184965627Y-111778599D01*
X185163276Y-111626938D01*
X185339438Y-111450776D01*
X185491099Y-111253127D01*
X185615664Y-111037373D01*
X185711002Y-110807207D01*
X185775482Y-110566565D01*
X185808000Y-110319565D01*
X185808000Y-110070435D01*
X185775482Y-109823435D01*
X185711002Y-109582793D01*
X185642635Y-109417741D01*
X185615669Y-109352638D01*
X185615662Y-109352623D01*
X185491099Y-109136873D01*
X185339439Y-108939225D01*
X185339433Y-108939218D01*
X185163281Y-108763066D01*
X185163274Y-108763060D01*
X184965628Y-108611401D01*
X184911419Y-108580104D01*
X184863410Y-108552386D01*
X184815196Y-108501821D01*
X184801972Y-108433214D01*
X184827940Y-108368349D01*
X184863410Y-108337613D01*
X184965627Y-108278599D01*
X185163276Y-108126938D01*
X185339438Y-107950776D01*
X185491099Y-107753127D01*
X185615664Y-107537373D01*
X185711002Y-107307207D01*
X185775482Y-107066565D01*
X185808000Y-106819565D01*
X185808000Y-106570435D01*
X185775482Y-106323435D01*
X185711002Y-106082793D01*
X185644933Y-105923288D01*
X185615669Y-105852638D01*
X185615662Y-105852623D01*
X185491099Y-105636873D01*
X185339439Y-105439225D01*
X185339433Y-105439218D01*
X185163281Y-105263066D01*
X185163274Y-105263060D01*
X184965628Y-105111401D01*
X184912051Y-105080469D01*
X184863410Y-105052386D01*
X184815196Y-105001821D01*
X184801972Y-104933214D01*
X184827940Y-104868349D01*
X184863410Y-104837613D01*
X184965627Y-104778599D01*
X185163276Y-104626938D01*
X185339438Y-104450776D01*
X185491099Y-104253127D01*
X185615664Y-104037373D01*
X185711002Y-103807207D01*
X185775482Y-103566565D01*
X185808000Y-103319565D01*
X185808000Y-103070435D01*
X185775482Y-102823435D01*
X185711002Y-102582793D01*
X185631140Y-102389989D01*
X185615669Y-102352638D01*
X185615662Y-102352623D01*
X185491099Y-102136873D01*
X185339439Y-101939225D01*
X185339433Y-101939218D01*
X185163281Y-101763066D01*
X185163274Y-101763060D01*
X184965628Y-101611401D01*
X184913708Y-101581426D01*
X184863410Y-101552386D01*
X184815196Y-101501821D01*
X184801972Y-101433214D01*
X184827940Y-101368349D01*
X184863410Y-101337613D01*
X184965627Y-101278599D01*
X185163276Y-101126938D01*
X185339438Y-100950776D01*
X185491099Y-100753127D01*
X185615664Y-100537373D01*
X185711002Y-100307207D01*
X185775482Y-100066565D01*
X185808000Y-99819565D01*
X185808000Y-99570435D01*
X185775482Y-99323435D01*
X185711002Y-99082793D01*
X185639219Y-98909493D01*
X185615669Y-98852638D01*
X185615662Y-98852623D01*
X185491099Y-98636873D01*
X185339439Y-98439225D01*
X185339433Y-98439218D01*
X185163281Y-98263066D01*
X185163274Y-98263060D01*
X184965628Y-98111401D01*
X184913708Y-98081426D01*
X184863410Y-98052386D01*
X184815196Y-98001821D01*
X184801972Y-97933214D01*
X184827940Y-97868349D01*
X184863410Y-97837613D01*
X184965627Y-97778599D01*
X185163276Y-97626938D01*
X185339438Y-97450776D01*
X185491099Y-97253127D01*
X185615664Y-97037373D01*
X185711002Y-96807207D01*
X185775482Y-96566565D01*
X185808000Y-96319565D01*
X185808000Y-96070435D01*
X185775482Y-95823435D01*
X185711002Y-95582793D01*
X185615664Y-95352627D01*
X185583704Y-95297271D01*
X185491099Y-95136873D01*
X185339439Y-94939225D01*
X185339433Y-94939218D01*
X185207395Y-94807180D01*
X185173910Y-94745857D01*
X185178894Y-94676165D01*
X185220766Y-94620232D01*
X185286230Y-94595815D01*
X185295076Y-94595499D01*
X185355371Y-94595499D01*
X185355372Y-94595499D01*
X185414983Y-94589091D01*
X185549831Y-94538796D01*
X185665046Y-94452546D01*
X185751296Y-94337331D01*
X185801591Y-94202483D01*
X185808000Y-94142873D01*
X185807999Y-91247128D01*
X185801591Y-91187517D01*
X185796926Y-91175010D01*
X185751297Y-91052671D01*
X185751293Y-91052664D01*
X185665047Y-90937455D01*
X185665044Y-90937452D01*
X185549835Y-90851206D01*
X185549828Y-90851202D01*
X185414982Y-90800908D01*
X185414983Y-90800908D01*
X185355383Y-90794501D01*
X185355381Y-90794500D01*
X185355373Y-90794500D01*
X185355364Y-90794500D01*
X182459629Y-90794500D01*
X182459623Y-90794501D01*
X182400016Y-90800908D01*
X182265171Y-90851202D01*
X182265164Y-90851206D01*
X182149955Y-90937452D01*
X182149952Y-90937455D01*
X182063706Y-91052664D01*
X182063702Y-91052671D01*
X182013408Y-91187517D01*
X182007001Y-91247116D01*
X182007001Y-91247123D01*
X182007000Y-91247135D01*
X182007000Y-93021691D01*
X181987315Y-93088730D01*
X181970681Y-93109372D01*
X181701873Y-93378181D01*
X181640550Y-93411666D01*
X181614192Y-93414500D01*
X176374896Y-93414500D01*
X176307857Y-93394815D01*
X176262102Y-93342011D01*
X176252158Y-93272853D01*
X176268164Y-93227379D01*
X176281281Y-93205198D01*
X176327100Y-93047486D01*
X176327295Y-93045001D01*
X176327295Y-93045000D01*
X173382705Y-93045000D01*
X173382704Y-93045001D01*
X173382899Y-93047486D01*
X173428718Y-93205198D01*
X173512314Y-93346552D01*
X173517100Y-93352722D01*
X173514640Y-93354629D01*
X173541210Y-93403288D01*
X173536226Y-93472980D01*
X173515162Y-93505781D01*
X173516699Y-93506974D01*
X173511915Y-93513140D01*
X173428255Y-93654603D01*
X173428254Y-93654606D01*
X173382402Y-93812426D01*
X173382401Y-93812432D01*
X173379500Y-93849298D01*
X173379500Y-94280701D01*
X173382401Y-94317567D01*
X173382402Y-94317573D01*
X173428254Y-94475393D01*
X173428255Y-94475396D01*
X173428256Y-94475398D01*
X173456310Y-94522835D01*
X173511917Y-94616862D01*
X173516702Y-94623031D01*
X173514256Y-94624927D01*
X173540857Y-94673642D01*
X173535873Y-94743334D01*
X173515069Y-94775703D01*
X173516702Y-94776969D01*
X173511917Y-94783137D01*
X173428255Y-94924603D01*
X173428254Y-94924606D01*
X173382402Y-95082426D01*
X173382401Y-95082432D01*
X173379500Y-95119298D01*
X173379500Y-95550701D01*
X173382401Y-95587567D01*
X173382402Y-95587573D01*
X173428254Y-95745393D01*
X173428255Y-95745396D01*
X173511917Y-95886862D01*
X173516702Y-95893031D01*
X173514256Y-95894927D01*
X173540857Y-95943642D01*
X173535873Y-96013334D01*
X173515069Y-96045703D01*
X173516702Y-96046969D01*
X173511917Y-96053137D01*
X173428255Y-96194603D01*
X173428254Y-96194606D01*
X173382402Y-96352426D01*
X173382401Y-96352432D01*
X173379500Y-96389298D01*
X173379500Y-96820701D01*
X173382401Y-96857567D01*
X173382402Y-96857573D01*
X173428254Y-97015393D01*
X173428255Y-97015396D01*
X173428256Y-97015398D01*
X173437802Y-97031540D01*
X173511917Y-97156862D01*
X173511923Y-97156870D01*
X173628129Y-97273076D01*
X173628133Y-97273079D01*
X173628135Y-97273081D01*
X173769602Y-97356744D01*
X173811224Y-97368836D01*
X173927426Y-97402597D01*
X173927429Y-97402597D01*
X173927431Y-97402598D01*
X173964306Y-97405500D01*
X174613481Y-97405500D01*
X174680520Y-97425185D01*
X174701162Y-97441819D01*
X175851453Y-98592111D01*
X175851454Y-98592112D01*
X175971254Y-98672159D01*
X175969725Y-98674446D01*
X176011122Y-98715131D01*
X176026565Y-98783273D01*
X176002717Y-98848946D01*
X175947149Y-98891301D01*
X175902809Y-98899500D01*
X174749499Y-98899500D01*
X174682460Y-98879815D01*
X174636705Y-98827011D01*
X174625499Y-98775500D01*
X174625499Y-98602129D01*
X174625498Y-98602123D01*
X174624422Y-98592114D01*
X174619091Y-98542517D01*
X174618819Y-98541789D01*
X174568797Y-98407671D01*
X174568793Y-98407664D01*
X174482547Y-98292455D01*
X174482544Y-98292452D01*
X174367335Y-98206206D01*
X174367328Y-98206202D01*
X174232482Y-98155908D01*
X174232483Y-98155908D01*
X174172883Y-98149501D01*
X174172881Y-98149500D01*
X174172873Y-98149500D01*
X174172864Y-98149500D01*
X172377129Y-98149500D01*
X172377123Y-98149501D01*
X172317516Y-98155908D01*
X172182671Y-98206202D01*
X172182664Y-98206206D01*
X172067455Y-98292452D01*
X172067452Y-98292455D01*
X171981206Y-98407664D01*
X171981203Y-98407669D01*
X171932189Y-98539083D01*
X171890317Y-98595016D01*
X171824853Y-98619433D01*
X171756580Y-98604581D01*
X171728326Y-98583430D01*
X171614786Y-98469890D01*
X171442820Y-98344951D01*
X171253414Y-98248444D01*
X171253413Y-98248443D01*
X171253412Y-98248443D01*
X171051243Y-98182754D01*
X171051241Y-98182753D01*
X171051240Y-98182753D01*
X170889957Y-98157208D01*
X170841287Y-98149500D01*
X170628713Y-98149500D01*
X170589202Y-98155757D01*
X170418759Y-98182753D01*
X170418755Y-98182754D01*
X170296817Y-98222374D01*
X170226976Y-98224369D01*
X170167144Y-98188288D01*
X170136316Y-98125587D01*
X170134500Y-98104443D01*
X170134500Y-97529500D01*
X170154185Y-97462461D01*
X170206989Y-97416706D01*
X170258500Y-97405500D01*
X170795686Y-97405500D01*
X170795694Y-97405500D01*
X170832569Y-97402598D01*
X170832571Y-97402597D01*
X170832573Y-97402597D01*
X170874191Y-97390505D01*
X170990398Y-97356744D01*
X171131865Y-97273081D01*
X171248081Y-97156865D01*
X171331744Y-97015398D01*
X171377598Y-96857569D01*
X171380500Y-96820694D01*
X171380500Y-96389306D01*
X171377598Y-96352431D01*
X171376479Y-96348581D01*
X171331745Y-96194606D01*
X171331744Y-96194603D01*
X171331744Y-96194602D01*
X171248081Y-96053135D01*
X171248078Y-96053132D01*
X171243298Y-96046969D01*
X171245750Y-96045066D01*
X171219155Y-95996421D01*
X171224104Y-95926726D01*
X171244940Y-95894304D01*
X171243298Y-95893031D01*
X171248075Y-95886870D01*
X171248081Y-95886865D01*
X171331744Y-95745398D01*
X171365505Y-95629191D01*
X171377597Y-95587573D01*
X171377598Y-95587567D01*
X171380499Y-95550701D01*
X171380500Y-95550694D01*
X171380500Y-95119306D01*
X171377598Y-95082431D01*
X171369171Y-95053427D01*
X171331745Y-94924606D01*
X171331744Y-94924603D01*
X171331744Y-94924602D01*
X171248081Y-94783135D01*
X171248078Y-94783132D01*
X171243298Y-94776969D01*
X171245635Y-94775155D01*
X171218798Y-94726050D01*
X171223756Y-94656356D01*
X171244554Y-94623998D01*
X171242903Y-94622717D01*
X171247686Y-94616550D01*
X171331281Y-94475198D01*
X171377100Y-94317486D01*
X171377295Y-94315001D01*
X171377295Y-94315000D01*
X168432705Y-94315000D01*
X168432704Y-94315001D01*
X168432899Y-94317488D01*
X168432900Y-94317494D01*
X168478923Y-94475905D01*
X168478848Y-94502158D01*
X168482585Y-94528147D01*
X168478750Y-94536543D01*
X168478724Y-94545775D01*
X168464465Y-94567822D01*
X168453560Y-94591703D01*
X168445795Y-94596693D01*
X168440782Y-94604445D01*
X168416866Y-94615283D01*
X168394782Y-94629477D01*
X168381262Y-94631420D01*
X168377143Y-94633288D01*
X168359847Y-94634500D01*
X168131922Y-94634500D01*
X168107730Y-94632117D01*
X167959844Y-94602700D01*
X167959842Y-94602700D01*
X167802158Y-94602700D01*
X167802155Y-94602700D01*
X167647510Y-94633461D01*
X167647498Y-94633464D01*
X167501827Y-94693802D01*
X167501814Y-94693809D01*
X167370711Y-94781410D01*
X167370707Y-94781413D01*
X167259213Y-94892907D01*
X167259210Y-94892911D01*
X167241517Y-94919391D01*
X167235426Y-94924481D01*
X167232128Y-94931703D01*
X167208997Y-94946568D01*
X167187904Y-94964196D01*
X167178530Y-94966147D01*
X167173350Y-94969477D01*
X167138415Y-94974500D01*
X167038800Y-94974500D01*
X166971761Y-94954815D01*
X166926006Y-94902011D01*
X166916062Y-94832853D01*
X166933262Y-94785403D01*
X167011542Y-94658492D01*
X167011547Y-94658481D01*
X167064855Y-94497606D01*
X167074999Y-94398322D01*
X167075000Y-94398309D01*
X167075000Y-94375000D01*
X165125001Y-94375000D01*
X165125001Y-94398322D01*
X165135144Y-94497607D01*
X165188452Y-94658481D01*
X165188457Y-94658492D01*
X165266738Y-94785403D01*
X165268822Y-94793020D01*
X165273994Y-94798989D01*
X165277912Y-94826238D01*
X165285179Y-94852795D01*
X165282814Y-94860330D01*
X165283938Y-94868147D01*
X165272500Y-94893190D01*
X165264257Y-94919458D01*
X165258194Y-94924517D01*
X165254913Y-94931703D01*
X165231748Y-94946589D01*
X165210615Y-94964228D01*
X165201284Y-94966167D01*
X165196135Y-94969477D01*
X165161200Y-94974500D01*
X165041819Y-94974500D01*
X164974780Y-94954815D01*
X164954138Y-94938181D01*
X163952166Y-93936209D01*
X163867634Y-93851677D01*
X165125000Y-93851677D01*
X165125000Y-93875000D01*
X165850000Y-93875000D01*
X166350000Y-93875000D01*
X167074999Y-93875000D01*
X167074999Y-93851692D01*
X167074998Y-93851677D01*
X167064855Y-93752392D01*
X167011547Y-93591518D01*
X167011542Y-93591507D01*
X166922575Y-93447271D01*
X166922572Y-93447267D01*
X166802732Y-93327427D01*
X166802728Y-93327424D01*
X166658492Y-93238457D01*
X166658481Y-93238452D01*
X166497606Y-93185144D01*
X166398322Y-93175000D01*
X166350000Y-93175000D01*
X166350000Y-93875000D01*
X165850000Y-93875000D01*
X165850000Y-93175000D01*
X165849999Y-93174999D01*
X165801693Y-93175000D01*
X165801675Y-93175001D01*
X165702392Y-93185144D01*
X165541518Y-93238452D01*
X165541507Y-93238457D01*
X165397271Y-93327424D01*
X165397267Y-93327427D01*
X165277427Y-93447267D01*
X165277424Y-93447271D01*
X165188457Y-93591507D01*
X165188452Y-93591518D01*
X165135144Y-93752393D01*
X165125000Y-93851677D01*
X163867634Y-93851677D01*
X162148546Y-92132588D01*
X162148545Y-92132587D01*
X162033807Y-92055922D01*
X161906332Y-92003121D01*
X161906322Y-92003118D01*
X161770996Y-91976200D01*
X161770994Y-91976200D01*
X161770993Y-91976200D01*
X153640895Y-91976200D01*
X153573856Y-91956515D01*
X153528101Y-91903711D01*
X153518157Y-91834553D01*
X153547182Y-91770997D01*
X153578893Y-91744814D01*
X153641641Y-91708587D01*
X153854890Y-91544956D01*
X154044956Y-91354890D01*
X154064321Y-91329653D01*
X167717500Y-91329653D01*
X167717500Y-91487346D01*
X167748261Y-91641989D01*
X167748264Y-91642001D01*
X167808602Y-91787672D01*
X167808609Y-91787685D01*
X167896210Y-91918788D01*
X167896213Y-91918792D01*
X168007707Y-92030286D01*
X168007711Y-92030289D01*
X168138814Y-92117890D01*
X168138827Y-92117897D01*
X168284498Y-92178235D01*
X168284503Y-92178237D01*
X168284507Y-92178237D01*
X168284508Y-92178238D01*
X168395453Y-92200307D01*
X168457364Y-92232692D01*
X168491938Y-92293408D01*
X168488198Y-92363177D01*
X168478950Y-92382995D01*
X168478255Y-92384602D01*
X168432402Y-92542426D01*
X168432401Y-92542432D01*
X168429500Y-92579298D01*
X168429500Y-93010701D01*
X168432401Y-93047567D01*
X168432402Y-93047573D01*
X168478254Y-93205393D01*
X168478255Y-93205396D01*
X168478256Y-93205398D01*
X168507881Y-93255492D01*
X168561917Y-93346862D01*
X168566702Y-93353031D01*
X168564369Y-93354840D01*
X168591210Y-93403995D01*
X168586226Y-93473687D01*
X168565470Y-93506021D01*
X168567097Y-93507283D01*
X168562313Y-93513449D01*
X168478718Y-93654801D01*
X168432899Y-93812513D01*
X168432704Y-93814998D01*
X168432705Y-93815000D01*
X171377295Y-93815000D01*
X171377295Y-93814998D01*
X171377100Y-93812513D01*
X171331281Y-93654801D01*
X171247685Y-93513447D01*
X171242900Y-93507278D01*
X171245366Y-93505364D01*
X171218802Y-93456776D01*
X171223749Y-93387082D01*
X171244856Y-93354232D01*
X171243301Y-93353026D01*
X171248077Y-93346868D01*
X171248081Y-93346865D01*
X171331744Y-93205398D01*
X171377598Y-93047569D01*
X171380500Y-93010694D01*
X171380500Y-92579306D01*
X171377800Y-92544998D01*
X173382704Y-92544998D01*
X173382705Y-92545000D01*
X174605000Y-92545000D01*
X175105000Y-92545000D01*
X176327295Y-92545000D01*
X176327295Y-92544998D01*
X176327100Y-92542513D01*
X176281281Y-92384801D01*
X176197685Y-92243447D01*
X176197678Y-92243438D01*
X176081561Y-92127321D01*
X176081552Y-92127314D01*
X175940196Y-92043717D01*
X175940193Y-92043716D01*
X175782495Y-91997900D01*
X175782489Y-91997899D01*
X175745649Y-91995000D01*
X175105000Y-91995000D01*
X175105000Y-92545000D01*
X174605000Y-92545000D01*
X174605000Y-91995000D01*
X173964350Y-91995000D01*
X173927510Y-91997899D01*
X173927504Y-91997900D01*
X173769806Y-92043716D01*
X173769803Y-92043717D01*
X173628447Y-92127314D01*
X173628438Y-92127321D01*
X173512321Y-92243438D01*
X173512314Y-92243447D01*
X173428718Y-92384801D01*
X173382899Y-92542513D01*
X173382704Y-92544998D01*
X171377800Y-92544998D01*
X171377598Y-92542431D01*
X171331744Y-92384602D01*
X171248081Y-92243135D01*
X171248079Y-92243133D01*
X171248076Y-92243129D01*
X171131870Y-92126923D01*
X171131862Y-92126917D01*
X171011815Y-92055922D01*
X170990398Y-92043256D01*
X170990397Y-92043255D01*
X170990396Y-92043255D01*
X170990393Y-92043254D01*
X170832573Y-91997402D01*
X170832567Y-91997401D01*
X170795701Y-91994500D01*
X170795694Y-91994500D01*
X170004948Y-91994500D01*
X169937909Y-91974815D01*
X169917283Y-91958197D01*
X169657507Y-91698514D01*
X169352552Y-91393669D01*
X169319057Y-91332353D01*
X169318601Y-91330164D01*
X169287738Y-91175010D01*
X169287737Y-91175003D01*
X169277377Y-91149991D01*
X169227397Y-91029327D01*
X169227390Y-91029314D01*
X169139789Y-90898211D01*
X169139786Y-90898207D01*
X169028292Y-90786713D01*
X169028288Y-90786710D01*
X168897185Y-90699109D01*
X168897172Y-90699102D01*
X168751501Y-90638764D01*
X168751489Y-90638761D01*
X168596845Y-90608000D01*
X168596842Y-90608000D01*
X168439158Y-90608000D01*
X168439155Y-90608000D01*
X168284510Y-90638761D01*
X168284498Y-90638764D01*
X168138827Y-90699102D01*
X168138814Y-90699109D01*
X168007711Y-90786710D01*
X168007707Y-90786713D01*
X167896213Y-90898207D01*
X167896210Y-90898211D01*
X167808609Y-91029314D01*
X167808602Y-91029327D01*
X167748264Y-91174998D01*
X167748261Y-91175010D01*
X167717500Y-91329653D01*
X154064321Y-91329653D01*
X154208587Y-91141641D01*
X154342984Y-90908859D01*
X154445847Y-90660526D01*
X154515416Y-90400891D01*
X154550500Y-90134397D01*
X154550500Y-89865603D01*
X154515416Y-89599109D01*
X154445847Y-89339474D01*
X154409488Y-89251695D01*
X179956279Y-89251695D01*
X185164898Y-89251695D01*
X185164898Y-87087944D01*
X179956279Y-87087944D01*
X179956279Y-89251695D01*
X154409488Y-89251695D01*
X154385543Y-89193887D01*
X154342988Y-89091149D01*
X154342980Y-89091133D01*
X154287632Y-88995268D01*
X154208587Y-88858359D01*
X154044956Y-88645110D01*
X154044951Y-88645104D01*
X153854895Y-88455048D01*
X153854888Y-88455042D01*
X153641645Y-88291416D01*
X153641644Y-88291415D01*
X153641641Y-88291413D01*
X153548832Y-88237830D01*
X153408866Y-88157019D01*
X153408850Y-88157011D01*
X153160524Y-88054152D01*
X153030708Y-88019368D01*
X152900891Y-87984584D01*
X152900885Y-87984583D01*
X152900880Y-87984582D01*
X152634398Y-87949500D01*
X152634397Y-87949500D01*
X152365603Y-87949500D01*
X152365602Y-87949500D01*
X152099119Y-87984582D01*
X152099112Y-87984583D01*
X152099109Y-87984584D01*
X152044239Y-87999286D01*
X151839475Y-88054152D01*
X151591149Y-88157011D01*
X151591133Y-88157019D01*
X151358354Y-88291416D01*
X151145111Y-88455042D01*
X151145104Y-88455048D01*
X150955048Y-88645104D01*
X150955042Y-88645111D01*
X150791416Y-88858354D01*
X150657019Y-89091133D01*
X150657011Y-89091149D01*
X150554152Y-89339475D01*
X150484585Y-89599106D01*
X150484582Y-89599119D01*
X150449500Y-89865602D01*
X150449500Y-90134397D01*
X150484582Y-90400880D01*
X150484583Y-90400885D01*
X150484584Y-90400891D01*
X150502658Y-90468345D01*
X150554152Y-90660524D01*
X150657011Y-90908850D01*
X150657019Y-90908866D01*
X150709636Y-91000000D01*
X150791413Y-91141641D01*
X150791415Y-91141644D01*
X150791416Y-91141645D01*
X150955042Y-91354888D01*
X150955048Y-91354895D01*
X151145104Y-91544951D01*
X151145111Y-91544957D01*
X151218696Y-91601420D01*
X151358359Y-91708587D01*
X151421106Y-91744814D01*
X151469321Y-91795380D01*
X151482543Y-91863987D01*
X151456575Y-91928852D01*
X151399661Y-91969380D01*
X151359105Y-91976200D01*
X147224499Y-91976200D01*
X147157460Y-91956515D01*
X147111705Y-91903711D01*
X147100499Y-91852200D01*
X147100499Y-91149998D01*
X147100498Y-91149981D01*
X147089999Y-91047203D01*
X147089998Y-91047200D01*
X147053632Y-90937455D01*
X147034814Y-90880666D01*
X146942712Y-90731344D01*
X146898694Y-90687326D01*
X146865210Y-90626004D01*
X146870194Y-90556312D01*
X146898696Y-90511964D01*
X146942315Y-90468345D01*
X147034356Y-90319124D01*
X147034358Y-90319119D01*
X147089505Y-90152697D01*
X147089506Y-90152690D01*
X147099999Y-90049986D01*
X147100000Y-90049973D01*
X147100000Y-89175000D01*
X144500001Y-89175000D01*
X144500001Y-90049986D01*
X144510494Y-90152697D01*
X144565641Y-90319119D01*
X144565643Y-90319124D01*
X144657684Y-90468345D01*
X144701304Y-90511965D01*
X144734789Y-90573288D01*
X144729805Y-90642980D01*
X144701305Y-90687326D01*
X144657289Y-90731342D01*
X144565187Y-90880663D01*
X144565186Y-90880666D01*
X144510001Y-91047203D01*
X144510001Y-91047204D01*
X144510000Y-91047204D01*
X144499500Y-91149983D01*
X144499500Y-91450500D01*
X144479815Y-91517539D01*
X144427011Y-91563294D01*
X144375500Y-91574500D01*
X139734000Y-91574500D01*
X139666961Y-91554815D01*
X139621206Y-91502011D01*
X139610000Y-91450500D01*
X139610000Y-91250000D01*
X136610000Y-91250000D01*
X136610000Y-91451096D01*
X136612897Y-91493824D01*
X136658831Y-91678523D01*
X136743390Y-91849022D01*
X136743392Y-91849025D01*
X136862630Y-91997364D01*
X136931884Y-92053031D01*
X136940317Y-92065145D01*
X136952271Y-92073801D01*
X136959876Y-92093241D01*
X136971803Y-92110375D01*
X136972347Y-92125123D01*
X136977725Y-92138869D01*
X136973612Y-92159336D01*
X136974383Y-92180197D01*
X136966628Y-92194089D01*
X136963960Y-92207369D01*
X136949231Y-92225257D01*
X136943260Y-92235956D01*
X136937889Y-92241499D01*
X136862278Y-92302278D01*
X136780699Y-92403766D01*
X136776700Y-92407895D01*
X136751095Y-92422408D01*
X136726940Y-92439224D01*
X136721047Y-92439441D01*
X136715917Y-92442350D01*
X136686529Y-92440717D01*
X136657118Y-92441804D01*
X136651815Y-92438788D01*
X136646155Y-92438474D01*
X136627473Y-92424946D01*
X136599956Y-92409299D01*
X136065747Y-91875090D01*
X136038867Y-91834861D01*
X136038739Y-91834553D01*
X136019321Y-91787672D01*
X135982397Y-91698526D01*
X135982390Y-91698514D01*
X135894789Y-91567411D01*
X135894786Y-91567407D01*
X135783292Y-91455913D01*
X135783288Y-91455910D01*
X135652185Y-91368309D01*
X135652172Y-91368302D01*
X135506501Y-91307964D01*
X135506489Y-91307961D01*
X135351845Y-91277200D01*
X135351842Y-91277200D01*
X135194158Y-91277200D01*
X135194155Y-91277200D01*
X135039510Y-91307961D01*
X135039498Y-91307964D01*
X134893827Y-91368302D01*
X134893814Y-91368309D01*
X134762711Y-91455910D01*
X134762707Y-91455913D01*
X134651213Y-91567407D01*
X134651210Y-91567411D01*
X134563609Y-91698514D01*
X134563602Y-91698527D01*
X134503264Y-91844198D01*
X134503261Y-91844210D01*
X134472500Y-91998853D01*
X134472500Y-92156546D01*
X134503261Y-92311189D01*
X134503264Y-92311201D01*
X134563602Y-92456872D01*
X134563609Y-92456885D01*
X134651210Y-92587988D01*
X134651213Y-92587992D01*
X134762707Y-92699486D01*
X134762711Y-92699489D01*
X134893814Y-92787090D01*
X134893823Y-92787095D01*
X135045132Y-92849769D01*
X135044301Y-92851774D01*
X135086267Y-92876924D01*
X136053453Y-93844111D01*
X136053454Y-93844112D01*
X136053457Y-93844114D01*
X136168189Y-93920775D01*
X136295671Y-93973580D01*
X136321377Y-93978693D01*
X136376192Y-93989596D01*
X136431005Y-94000500D01*
X136431007Y-94000500D01*
X136592260Y-94000500D01*
X136659299Y-94020185D01*
X136703348Y-94069406D01*
X136742967Y-94149292D01*
X136742969Y-94149295D01*
X136862277Y-94297721D01*
X136862278Y-94297722D01*
X137010704Y-94417030D01*
X137010707Y-94417032D01*
X137181302Y-94501639D01*
X137181303Y-94501639D01*
X137181307Y-94501641D01*
X137248156Y-94518265D01*
X137308462Y-94553548D01*
X137340120Y-94615833D01*
X137333079Y-94685347D01*
X137289573Y-94740019D01*
X137223416Y-94762491D01*
X137218228Y-94762600D01*
X132475329Y-94762600D01*
X132408290Y-94742915D01*
X132387648Y-94726281D01*
X131273049Y-93611681D01*
X131239564Y-93550358D01*
X131244548Y-93480666D01*
X131286420Y-93424733D01*
X131351884Y-93400316D01*
X131360730Y-93400000D01*
X131560000Y-93400000D01*
X132060000Y-93400000D01*
X132367998Y-93400000D01*
X132368000Y-93399999D01*
X132487325Y-93389391D01*
X132487328Y-93389390D01*
X132682861Y-93333442D01*
X132863129Y-93239278D01*
X133020753Y-93110753D01*
X133149278Y-92953129D01*
X133243442Y-92772861D01*
X133299390Y-92577328D01*
X133299391Y-92577325D01*
X133309999Y-92458000D01*
X133310000Y-92457998D01*
X133310000Y-91250000D01*
X132060000Y-91250000D01*
X132060000Y-93400000D01*
X131560000Y-93400000D01*
X131560000Y-91124000D01*
X131579685Y-91056961D01*
X131632489Y-91011206D01*
X131684000Y-91000000D01*
X131810000Y-91000000D01*
X131810000Y-90874000D01*
X131829685Y-90806961D01*
X131882489Y-90761206D01*
X131934000Y-90750000D01*
X133310000Y-90750000D01*
X133310000Y-89542002D01*
X133309999Y-89541999D01*
X133299391Y-89422674D01*
X133299390Y-89422671D01*
X133243442Y-89227138D01*
X133149278Y-89046870D01*
X133072624Y-88952861D01*
X133045515Y-88888465D01*
X133057524Y-88819635D01*
X133104839Y-88768224D01*
X133168726Y-88750500D01*
X136485501Y-88750500D01*
X136552540Y-88770185D01*
X136598295Y-88822989D01*
X136609501Y-88874500D01*
X136609501Y-89151125D01*
X136612399Y-89193886D01*
X136612399Y-89193887D01*
X136658360Y-89378696D01*
X136742967Y-89549292D01*
X136742969Y-89549295D01*
X136862277Y-89697721D01*
X136862278Y-89697722D01*
X136931884Y-89753673D01*
X136971803Y-89811016D01*
X136974383Y-89880838D01*
X136938804Y-89940971D01*
X136931885Y-89946967D01*
X136862631Y-90002635D01*
X136743392Y-90150974D01*
X136743390Y-90150977D01*
X136658831Y-90321476D01*
X136612897Y-90506175D01*
X136610000Y-90548903D01*
X136610000Y-90750000D01*
X139610000Y-90750000D01*
X139610000Y-90548903D01*
X139607102Y-90506175D01*
X139561168Y-90321476D01*
X139476609Y-90150977D01*
X139476607Y-90150974D01*
X139357367Y-90002633D01*
X139357366Y-90002632D01*
X139288115Y-89946967D01*
X139248196Y-89889624D01*
X139245616Y-89819802D01*
X139281194Y-89759669D01*
X139288089Y-89753694D01*
X139357722Y-89697722D01*
X139477030Y-89549296D01*
X139561641Y-89378693D01*
X139607600Y-89193889D01*
X139610500Y-89151123D01*
X139610499Y-88248878D01*
X139607600Y-88206111D01*
X139561641Y-88021307D01*
X139543429Y-87984585D01*
X139477653Y-87851958D01*
X139477652Y-87851957D01*
X139477034Y-87850710D01*
X139477030Y-87850704D01*
X139436283Y-87800013D01*
X144500000Y-87800013D01*
X144500000Y-88675000D01*
X145550000Y-88675000D01*
X146050000Y-88675000D01*
X147099999Y-88675000D01*
X147099999Y-87800028D01*
X147099998Y-87800013D01*
X147089505Y-87697302D01*
X147034358Y-87530880D01*
X147034356Y-87530875D01*
X146942315Y-87381654D01*
X146818345Y-87257684D01*
X146669124Y-87165643D01*
X146669119Y-87165641D01*
X146634856Y-87154288D01*
X146502697Y-87110494D01*
X146502690Y-87110493D01*
X146399986Y-87100000D01*
X146050000Y-87100000D01*
X146050000Y-88675000D01*
X145550000Y-88675000D01*
X145550000Y-87100000D01*
X145200028Y-87100000D01*
X145200012Y-87100001D01*
X145097302Y-87110494D01*
X144930880Y-87165641D01*
X144930875Y-87165643D01*
X144781654Y-87257684D01*
X144657684Y-87381654D01*
X144565643Y-87530875D01*
X144565641Y-87530880D01*
X144510494Y-87697302D01*
X144510493Y-87697309D01*
X144500000Y-87800013D01*
X139436283Y-87800013D01*
X139357722Y-87702278D01*
X139357721Y-87702277D01*
X139209295Y-87582969D01*
X139209292Y-87582967D01*
X139038697Y-87498360D01*
X138853892Y-87452400D01*
X138828229Y-87450660D01*
X138811123Y-87449500D01*
X138811121Y-87449500D01*
X137972231Y-87449500D01*
X137905192Y-87429815D01*
X137893536Y-87420422D01*
X137893131Y-87420917D01*
X137888414Y-87417046D01*
X137814729Y-87367812D01*
X137814729Y-87367813D01*
X137765491Y-87334913D01*
X137628917Y-87278343D01*
X137628907Y-87278340D01*
X137483920Y-87249500D01*
X137483918Y-87249500D01*
X130826082Y-87249500D01*
X130826080Y-87249500D01*
X130681092Y-87278340D01*
X130681086Y-87278342D01*
X130544508Y-87334914D01*
X130544496Y-87334921D01*
X130495269Y-87367813D01*
X130421588Y-87417044D01*
X130421580Y-87417050D01*
X128917050Y-88921580D01*
X128917044Y-88921588D01*
X128867812Y-88995268D01*
X128867813Y-88995269D01*
X128834921Y-89044496D01*
X128834914Y-89044508D01*
X128778342Y-89181086D01*
X128778340Y-89181092D01*
X128749500Y-89326079D01*
X128749500Y-89326082D01*
X128749500Y-92973918D01*
X128749500Y-92973920D01*
X128749499Y-92973920D01*
X126000000Y-92973920D01*
X126000000Y-86124000D01*
X126019685Y-86056961D01*
X126072489Y-86011206D01*
X126124000Y-86000000D01*
X188876000Y-86000000D01*
X188943039Y-86019685D01*
G37*
%TD.AperFunction*%
%TD*%
M02*
