%TF.GenerationSoftware,KiCad,Pcbnew,9.0.4*%
%TF.CreationDate,2025-09-18T17:45:17-07:00*%
%TF.ProjectId,USBCAN-X2,55534243-414e-42d5-9832-2e6b69636164,rev?*%
%TF.SameCoordinates,Original*%
%TF.FileFunction,Legend,Top*%
%TF.FilePolarity,Positive*%
%FSLAX46Y46*%
G04 Gerber Fmt 4.6, Leading zero omitted, Abs format (unit mm)*
G04 Created by KiCad (PCBNEW 9.0.4) date 2025-09-18 17:45:17*
%MOMM*%
%LPD*%
G01*
G04 APERTURE LIST*
%ADD10C,0.100000*%
%ADD11C,0.150000*%
%ADD12C,0.120000*%
%ADD13C,0.550000*%
%ADD14C,0.152400*%
G04 APERTURE END LIST*
D10*
X154598763Y-89969226D02*
G75*
G02*
X150401237Y-89969226I-2098763J0D01*
G01*
X150401237Y-89969226D02*
G75*
G02*
X154598763Y-89969226I2098763J0D01*
G01*
D11*
X153788095Y-107454819D02*
X153788095Y-108264342D01*
X153788095Y-108264342D02*
X153835714Y-108359580D01*
X153835714Y-108359580D02*
X153883333Y-108407200D01*
X153883333Y-108407200D02*
X153978571Y-108454819D01*
X153978571Y-108454819D02*
X154169047Y-108454819D01*
X154169047Y-108454819D02*
X154264285Y-108407200D01*
X154264285Y-108407200D02*
X154311904Y-108359580D01*
X154311904Y-108359580D02*
X154359523Y-108264342D01*
X154359523Y-108264342D02*
X154359523Y-107454819D01*
X155359523Y-108454819D02*
X154788095Y-108454819D01*
X155073809Y-108454819D02*
X155073809Y-107454819D01*
X155073809Y-107454819D02*
X154978571Y-107597676D01*
X154978571Y-107597676D02*
X154883333Y-107692914D01*
X154883333Y-107692914D02*
X154788095Y-107740533D01*
X159933333Y-111859580D02*
X159885714Y-111907200D01*
X159885714Y-111907200D02*
X159742857Y-111954819D01*
X159742857Y-111954819D02*
X159647619Y-111954819D01*
X159647619Y-111954819D02*
X159504762Y-111907200D01*
X159504762Y-111907200D02*
X159409524Y-111811961D01*
X159409524Y-111811961D02*
X159361905Y-111716723D01*
X159361905Y-111716723D02*
X159314286Y-111526247D01*
X159314286Y-111526247D02*
X159314286Y-111383390D01*
X159314286Y-111383390D02*
X159361905Y-111192914D01*
X159361905Y-111192914D02*
X159409524Y-111097676D01*
X159409524Y-111097676D02*
X159504762Y-111002438D01*
X159504762Y-111002438D02*
X159647619Y-110954819D01*
X159647619Y-110954819D02*
X159742857Y-110954819D01*
X159742857Y-110954819D02*
X159885714Y-111002438D01*
X159885714Y-111002438D02*
X159933333Y-111050057D01*
X160409524Y-111954819D02*
X160600000Y-111954819D01*
X160600000Y-111954819D02*
X160695238Y-111907200D01*
X160695238Y-111907200D02*
X160742857Y-111859580D01*
X160742857Y-111859580D02*
X160838095Y-111716723D01*
X160838095Y-111716723D02*
X160885714Y-111526247D01*
X160885714Y-111526247D02*
X160885714Y-111145295D01*
X160885714Y-111145295D02*
X160838095Y-111050057D01*
X160838095Y-111050057D02*
X160790476Y-111002438D01*
X160790476Y-111002438D02*
X160695238Y-110954819D01*
X160695238Y-110954819D02*
X160504762Y-110954819D01*
X160504762Y-110954819D02*
X160409524Y-111002438D01*
X160409524Y-111002438D02*
X160361905Y-111050057D01*
X160361905Y-111050057D02*
X160314286Y-111145295D01*
X160314286Y-111145295D02*
X160314286Y-111383390D01*
X160314286Y-111383390D02*
X160361905Y-111478628D01*
X160361905Y-111478628D02*
X160409524Y-111526247D01*
X160409524Y-111526247D02*
X160504762Y-111573866D01*
X160504762Y-111573866D02*
X160695238Y-111573866D01*
X160695238Y-111573866D02*
X160790476Y-111526247D01*
X160790476Y-111526247D02*
X160838095Y-111478628D01*
X160838095Y-111478628D02*
X160885714Y-111383390D01*
X168824819Y-103666666D02*
X168348628Y-103999999D01*
X168824819Y-104238094D02*
X167824819Y-104238094D01*
X167824819Y-104238094D02*
X167824819Y-103857142D01*
X167824819Y-103857142D02*
X167872438Y-103761904D01*
X167872438Y-103761904D02*
X167920057Y-103714285D01*
X167920057Y-103714285D02*
X168015295Y-103666666D01*
X168015295Y-103666666D02*
X168158152Y-103666666D01*
X168158152Y-103666666D02*
X168253390Y-103714285D01*
X168253390Y-103714285D02*
X168301009Y-103761904D01*
X168301009Y-103761904D02*
X168348628Y-103857142D01*
X168348628Y-103857142D02*
X168348628Y-104238094D01*
X167824819Y-103333332D02*
X167824819Y-102714285D01*
X167824819Y-102714285D02*
X168205771Y-103047618D01*
X168205771Y-103047618D02*
X168205771Y-102904761D01*
X168205771Y-102904761D02*
X168253390Y-102809523D01*
X168253390Y-102809523D02*
X168301009Y-102761904D01*
X168301009Y-102761904D02*
X168396247Y-102714285D01*
X168396247Y-102714285D02*
X168634342Y-102714285D01*
X168634342Y-102714285D02*
X168729580Y-102761904D01*
X168729580Y-102761904D02*
X168777200Y-102809523D01*
X168777200Y-102809523D02*
X168824819Y-102904761D01*
X168824819Y-102904761D02*
X168824819Y-103190475D01*
X168824819Y-103190475D02*
X168777200Y-103285713D01*
X168777200Y-103285713D02*
X168729580Y-103333332D01*
X167454819Y-99833333D02*
X168169104Y-99833333D01*
X168169104Y-99833333D02*
X168311961Y-99880952D01*
X168311961Y-99880952D02*
X168407200Y-99976190D01*
X168407200Y-99976190D02*
X168454819Y-100119047D01*
X168454819Y-100119047D02*
X168454819Y-100214285D01*
X167454819Y-98928571D02*
X167454819Y-99119047D01*
X167454819Y-99119047D02*
X167502438Y-99214285D01*
X167502438Y-99214285D02*
X167550057Y-99261904D01*
X167550057Y-99261904D02*
X167692914Y-99357142D01*
X167692914Y-99357142D02*
X167883390Y-99404761D01*
X167883390Y-99404761D02*
X168264342Y-99404761D01*
X168264342Y-99404761D02*
X168359580Y-99357142D01*
X168359580Y-99357142D02*
X168407200Y-99309523D01*
X168407200Y-99309523D02*
X168454819Y-99214285D01*
X168454819Y-99214285D02*
X168454819Y-99023809D01*
X168454819Y-99023809D02*
X168407200Y-98928571D01*
X168407200Y-98928571D02*
X168359580Y-98880952D01*
X168359580Y-98880952D02*
X168264342Y-98833333D01*
X168264342Y-98833333D02*
X168026247Y-98833333D01*
X168026247Y-98833333D02*
X167931009Y-98880952D01*
X167931009Y-98880952D02*
X167883390Y-98928571D01*
X167883390Y-98928571D02*
X167835771Y-99023809D01*
X167835771Y-99023809D02*
X167835771Y-99214285D01*
X167835771Y-99214285D02*
X167883390Y-99309523D01*
X167883390Y-99309523D02*
X167931009Y-99357142D01*
X167931009Y-99357142D02*
X168026247Y-99404761D01*
X180854819Y-114133333D02*
X181569104Y-114133333D01*
X181569104Y-114133333D02*
X181711961Y-114180952D01*
X181711961Y-114180952D02*
X181807200Y-114276190D01*
X181807200Y-114276190D02*
X181854819Y-114419047D01*
X181854819Y-114419047D02*
X181854819Y-114514285D01*
X180950057Y-113704761D02*
X180902438Y-113657142D01*
X180902438Y-113657142D02*
X180854819Y-113561904D01*
X180854819Y-113561904D02*
X180854819Y-113323809D01*
X180854819Y-113323809D02*
X180902438Y-113228571D01*
X180902438Y-113228571D02*
X180950057Y-113180952D01*
X180950057Y-113180952D02*
X181045295Y-113133333D01*
X181045295Y-113133333D02*
X181140533Y-113133333D01*
X181140533Y-113133333D02*
X181283390Y-113180952D01*
X181283390Y-113180952D02*
X181854819Y-113752380D01*
X181854819Y-113752380D02*
X181854819Y-113133333D01*
X152633333Y-112289580D02*
X152585714Y-112337200D01*
X152585714Y-112337200D02*
X152442857Y-112384819D01*
X152442857Y-112384819D02*
X152347619Y-112384819D01*
X152347619Y-112384819D02*
X152204762Y-112337200D01*
X152204762Y-112337200D02*
X152109524Y-112241961D01*
X152109524Y-112241961D02*
X152061905Y-112146723D01*
X152061905Y-112146723D02*
X152014286Y-111956247D01*
X152014286Y-111956247D02*
X152014286Y-111813390D01*
X152014286Y-111813390D02*
X152061905Y-111622914D01*
X152061905Y-111622914D02*
X152109524Y-111527676D01*
X152109524Y-111527676D02*
X152204762Y-111432438D01*
X152204762Y-111432438D02*
X152347619Y-111384819D01*
X152347619Y-111384819D02*
X152442857Y-111384819D01*
X152442857Y-111384819D02*
X152585714Y-111432438D01*
X152585714Y-111432438D02*
X152633333Y-111480057D01*
X152966667Y-111384819D02*
X153633333Y-111384819D01*
X153633333Y-111384819D02*
X153204762Y-112384819D01*
X160333333Y-113954819D02*
X160000000Y-113478628D01*
X159761905Y-113954819D02*
X159761905Y-112954819D01*
X159761905Y-112954819D02*
X160142857Y-112954819D01*
X160142857Y-112954819D02*
X160238095Y-113002438D01*
X160238095Y-113002438D02*
X160285714Y-113050057D01*
X160285714Y-113050057D02*
X160333333Y-113145295D01*
X160333333Y-113145295D02*
X160333333Y-113288152D01*
X160333333Y-113288152D02*
X160285714Y-113383390D01*
X160285714Y-113383390D02*
X160238095Y-113431009D01*
X160238095Y-113431009D02*
X160142857Y-113478628D01*
X160142857Y-113478628D02*
X159761905Y-113478628D01*
X160666667Y-112954819D02*
X161333333Y-112954819D01*
X161333333Y-112954819D02*
X160904762Y-113954819D01*
X154658333Y-113954819D02*
X154325000Y-113478628D01*
X154086905Y-113954819D02*
X154086905Y-112954819D01*
X154086905Y-112954819D02*
X154467857Y-112954819D01*
X154467857Y-112954819D02*
X154563095Y-113002438D01*
X154563095Y-113002438D02*
X154610714Y-113050057D01*
X154610714Y-113050057D02*
X154658333Y-113145295D01*
X154658333Y-113145295D02*
X154658333Y-113288152D01*
X154658333Y-113288152D02*
X154610714Y-113383390D01*
X154610714Y-113383390D02*
X154563095Y-113431009D01*
X154563095Y-113431009D02*
X154467857Y-113478628D01*
X154467857Y-113478628D02*
X154086905Y-113478628D01*
X155039286Y-113050057D02*
X155086905Y-113002438D01*
X155086905Y-113002438D02*
X155182143Y-112954819D01*
X155182143Y-112954819D02*
X155420238Y-112954819D01*
X155420238Y-112954819D02*
X155515476Y-113002438D01*
X155515476Y-113002438D02*
X155563095Y-113050057D01*
X155563095Y-113050057D02*
X155610714Y-113145295D01*
X155610714Y-113145295D02*
X155610714Y-113240533D01*
X155610714Y-113240533D02*
X155563095Y-113383390D01*
X155563095Y-113383390D02*
X154991667Y-113954819D01*
X154991667Y-113954819D02*
X155610714Y-113954819D01*
X175533333Y-103654819D02*
X175200000Y-103178628D01*
X174961905Y-103654819D02*
X174961905Y-102654819D01*
X174961905Y-102654819D02*
X175342857Y-102654819D01*
X175342857Y-102654819D02*
X175438095Y-102702438D01*
X175438095Y-102702438D02*
X175485714Y-102750057D01*
X175485714Y-102750057D02*
X175533333Y-102845295D01*
X175533333Y-102845295D02*
X175533333Y-102988152D01*
X175533333Y-102988152D02*
X175485714Y-103083390D01*
X175485714Y-103083390D02*
X175438095Y-103131009D01*
X175438095Y-103131009D02*
X175342857Y-103178628D01*
X175342857Y-103178628D02*
X174961905Y-103178628D01*
X176438095Y-102654819D02*
X175961905Y-102654819D01*
X175961905Y-102654819D02*
X175914286Y-103131009D01*
X175914286Y-103131009D02*
X175961905Y-103083390D01*
X175961905Y-103083390D02*
X176057143Y-103035771D01*
X176057143Y-103035771D02*
X176295238Y-103035771D01*
X176295238Y-103035771D02*
X176390476Y-103083390D01*
X176390476Y-103083390D02*
X176438095Y-103131009D01*
X176438095Y-103131009D02*
X176485714Y-103226247D01*
X176485714Y-103226247D02*
X176485714Y-103464342D01*
X176485714Y-103464342D02*
X176438095Y-103559580D01*
X176438095Y-103559580D02*
X176390476Y-103607200D01*
X176390476Y-103607200D02*
X176295238Y-103654819D01*
X176295238Y-103654819D02*
X176057143Y-103654819D01*
X176057143Y-103654819D02*
X175961905Y-103607200D01*
X175961905Y-103607200D02*
X175914286Y-103559580D01*
X134198095Y-94954819D02*
X134198095Y-95764342D01*
X134198095Y-95764342D02*
X134245714Y-95859580D01*
X134245714Y-95859580D02*
X134293333Y-95907200D01*
X134293333Y-95907200D02*
X134388571Y-95954819D01*
X134388571Y-95954819D02*
X134579047Y-95954819D01*
X134579047Y-95954819D02*
X134674285Y-95907200D01*
X134674285Y-95907200D02*
X134721904Y-95859580D01*
X134721904Y-95859580D02*
X134769523Y-95764342D01*
X134769523Y-95764342D02*
X134769523Y-94954819D01*
X135198095Y-95050057D02*
X135245714Y-95002438D01*
X135245714Y-95002438D02*
X135340952Y-94954819D01*
X135340952Y-94954819D02*
X135579047Y-94954819D01*
X135579047Y-94954819D02*
X135674285Y-95002438D01*
X135674285Y-95002438D02*
X135721904Y-95050057D01*
X135721904Y-95050057D02*
X135769523Y-95145295D01*
X135769523Y-95145295D02*
X135769523Y-95240533D01*
X135769523Y-95240533D02*
X135721904Y-95383390D01*
X135721904Y-95383390D02*
X135150476Y-95954819D01*
X135150476Y-95954819D02*
X135769523Y-95954819D01*
X156759580Y-107466666D02*
X156807200Y-107514285D01*
X156807200Y-107514285D02*
X156854819Y-107657142D01*
X156854819Y-107657142D02*
X156854819Y-107752380D01*
X156854819Y-107752380D02*
X156807200Y-107895237D01*
X156807200Y-107895237D02*
X156711961Y-107990475D01*
X156711961Y-107990475D02*
X156616723Y-108038094D01*
X156616723Y-108038094D02*
X156426247Y-108085713D01*
X156426247Y-108085713D02*
X156283390Y-108085713D01*
X156283390Y-108085713D02*
X156092914Y-108038094D01*
X156092914Y-108038094D02*
X155997676Y-107990475D01*
X155997676Y-107990475D02*
X155902438Y-107895237D01*
X155902438Y-107895237D02*
X155854819Y-107752380D01*
X155854819Y-107752380D02*
X155854819Y-107657142D01*
X155854819Y-107657142D02*
X155902438Y-107514285D01*
X155902438Y-107514285D02*
X155950057Y-107466666D01*
X155854819Y-107133332D02*
X155854819Y-106514285D01*
X155854819Y-106514285D02*
X156235771Y-106847618D01*
X156235771Y-106847618D02*
X156235771Y-106704761D01*
X156235771Y-106704761D02*
X156283390Y-106609523D01*
X156283390Y-106609523D02*
X156331009Y-106561904D01*
X156331009Y-106561904D02*
X156426247Y-106514285D01*
X156426247Y-106514285D02*
X156664342Y-106514285D01*
X156664342Y-106514285D02*
X156759580Y-106561904D01*
X156759580Y-106561904D02*
X156807200Y-106609523D01*
X156807200Y-106609523D02*
X156854819Y-106704761D01*
X156854819Y-106704761D02*
X156854819Y-106990475D01*
X156854819Y-106990475D02*
X156807200Y-107085713D01*
X156807200Y-107085713D02*
X156759580Y-107133332D01*
X143084819Y-108716666D02*
X142608628Y-109049999D01*
X143084819Y-109288094D02*
X142084819Y-109288094D01*
X142084819Y-109288094D02*
X142084819Y-108907142D01*
X142084819Y-108907142D02*
X142132438Y-108811904D01*
X142132438Y-108811904D02*
X142180057Y-108764285D01*
X142180057Y-108764285D02*
X142275295Y-108716666D01*
X142275295Y-108716666D02*
X142418152Y-108716666D01*
X142418152Y-108716666D02*
X142513390Y-108764285D01*
X142513390Y-108764285D02*
X142561009Y-108811904D01*
X142561009Y-108811904D02*
X142608628Y-108907142D01*
X142608628Y-108907142D02*
X142608628Y-109288094D01*
X142418152Y-107859523D02*
X143084819Y-107859523D01*
X142037200Y-108097618D02*
X142751485Y-108335713D01*
X142751485Y-108335713D02*
X142751485Y-107716666D01*
X171618095Y-90754819D02*
X171618095Y-91564342D01*
X171618095Y-91564342D02*
X171665714Y-91659580D01*
X171665714Y-91659580D02*
X171713333Y-91707200D01*
X171713333Y-91707200D02*
X171808571Y-91754819D01*
X171808571Y-91754819D02*
X171999047Y-91754819D01*
X171999047Y-91754819D02*
X172094285Y-91707200D01*
X172094285Y-91707200D02*
X172141904Y-91659580D01*
X172141904Y-91659580D02*
X172189523Y-91564342D01*
X172189523Y-91564342D02*
X172189523Y-90754819D01*
X172570476Y-90754819D02*
X173189523Y-90754819D01*
X173189523Y-90754819D02*
X172856190Y-91135771D01*
X172856190Y-91135771D02*
X172999047Y-91135771D01*
X172999047Y-91135771D02*
X173094285Y-91183390D01*
X173094285Y-91183390D02*
X173141904Y-91231009D01*
X173141904Y-91231009D02*
X173189523Y-91326247D01*
X173189523Y-91326247D02*
X173189523Y-91564342D01*
X173189523Y-91564342D02*
X173141904Y-91659580D01*
X173141904Y-91659580D02*
X173094285Y-91707200D01*
X173094285Y-91707200D02*
X172999047Y-91754819D01*
X172999047Y-91754819D02*
X172713333Y-91754819D01*
X172713333Y-91754819D02*
X172618095Y-91707200D01*
X172618095Y-91707200D02*
X172570476Y-91659580D01*
X167904819Y-122588094D02*
X166904819Y-122588094D01*
X166904819Y-122588094D02*
X166904819Y-122349999D01*
X166904819Y-122349999D02*
X166952438Y-122207142D01*
X166952438Y-122207142D02*
X167047676Y-122111904D01*
X167047676Y-122111904D02*
X167142914Y-122064285D01*
X167142914Y-122064285D02*
X167333390Y-122016666D01*
X167333390Y-122016666D02*
X167476247Y-122016666D01*
X167476247Y-122016666D02*
X167666723Y-122064285D01*
X167666723Y-122064285D02*
X167761961Y-122111904D01*
X167761961Y-122111904D02*
X167857200Y-122207142D01*
X167857200Y-122207142D02*
X167904819Y-122349999D01*
X167904819Y-122349999D02*
X167904819Y-122588094D01*
X166904819Y-121683332D02*
X166904819Y-121064285D01*
X166904819Y-121064285D02*
X167285771Y-121397618D01*
X167285771Y-121397618D02*
X167285771Y-121254761D01*
X167285771Y-121254761D02*
X167333390Y-121159523D01*
X167333390Y-121159523D02*
X167381009Y-121111904D01*
X167381009Y-121111904D02*
X167476247Y-121064285D01*
X167476247Y-121064285D02*
X167714342Y-121064285D01*
X167714342Y-121064285D02*
X167809580Y-121111904D01*
X167809580Y-121111904D02*
X167857200Y-121159523D01*
X167857200Y-121159523D02*
X167904819Y-121254761D01*
X167904819Y-121254761D02*
X167904819Y-121540475D01*
X167904819Y-121540475D02*
X167857200Y-121635713D01*
X167857200Y-121635713D02*
X167809580Y-121683332D01*
X121966666Y-111954819D02*
X121966666Y-112669104D01*
X121966666Y-112669104D02*
X121919047Y-112811961D01*
X121919047Y-112811961D02*
X121823809Y-112907200D01*
X121823809Y-112907200D02*
X121680952Y-112954819D01*
X121680952Y-112954819D02*
X121585714Y-112954819D01*
X122966666Y-112954819D02*
X122395238Y-112954819D01*
X122680952Y-112954819D02*
X122680952Y-111954819D01*
X122680952Y-111954819D02*
X122585714Y-112097676D01*
X122585714Y-112097676D02*
X122490476Y-112192914D01*
X122490476Y-112192914D02*
X122395238Y-112240533D01*
X142933333Y-96409580D02*
X142885714Y-96457200D01*
X142885714Y-96457200D02*
X142742857Y-96504819D01*
X142742857Y-96504819D02*
X142647619Y-96504819D01*
X142647619Y-96504819D02*
X142504762Y-96457200D01*
X142504762Y-96457200D02*
X142409524Y-96361961D01*
X142409524Y-96361961D02*
X142361905Y-96266723D01*
X142361905Y-96266723D02*
X142314286Y-96076247D01*
X142314286Y-96076247D02*
X142314286Y-95933390D01*
X142314286Y-95933390D02*
X142361905Y-95742914D01*
X142361905Y-95742914D02*
X142409524Y-95647676D01*
X142409524Y-95647676D02*
X142504762Y-95552438D01*
X142504762Y-95552438D02*
X142647619Y-95504819D01*
X142647619Y-95504819D02*
X142742857Y-95504819D01*
X142742857Y-95504819D02*
X142885714Y-95552438D01*
X142885714Y-95552438D02*
X142933333Y-95600057D01*
X143314286Y-95600057D02*
X143361905Y-95552438D01*
X143361905Y-95552438D02*
X143457143Y-95504819D01*
X143457143Y-95504819D02*
X143695238Y-95504819D01*
X143695238Y-95504819D02*
X143790476Y-95552438D01*
X143790476Y-95552438D02*
X143838095Y-95600057D01*
X143838095Y-95600057D02*
X143885714Y-95695295D01*
X143885714Y-95695295D02*
X143885714Y-95790533D01*
X143885714Y-95790533D02*
X143838095Y-95933390D01*
X143838095Y-95933390D02*
X143266667Y-96504819D01*
X143266667Y-96504819D02*
X143885714Y-96504819D01*
X152233333Y-96409580D02*
X152185714Y-96457200D01*
X152185714Y-96457200D02*
X152042857Y-96504819D01*
X152042857Y-96504819D02*
X151947619Y-96504819D01*
X151947619Y-96504819D02*
X151804762Y-96457200D01*
X151804762Y-96457200D02*
X151709524Y-96361961D01*
X151709524Y-96361961D02*
X151661905Y-96266723D01*
X151661905Y-96266723D02*
X151614286Y-96076247D01*
X151614286Y-96076247D02*
X151614286Y-95933390D01*
X151614286Y-95933390D02*
X151661905Y-95742914D01*
X151661905Y-95742914D02*
X151709524Y-95647676D01*
X151709524Y-95647676D02*
X151804762Y-95552438D01*
X151804762Y-95552438D02*
X151947619Y-95504819D01*
X151947619Y-95504819D02*
X152042857Y-95504819D01*
X152042857Y-95504819D02*
X152185714Y-95552438D01*
X152185714Y-95552438D02*
X152233333Y-95600057D01*
X153090476Y-95838152D02*
X153090476Y-96504819D01*
X152852381Y-95457200D02*
X152614286Y-96171485D01*
X152614286Y-96171485D02*
X153233333Y-96171485D01*
X175433333Y-107154819D02*
X175100000Y-106678628D01*
X174861905Y-107154819D02*
X174861905Y-106154819D01*
X174861905Y-106154819D02*
X175242857Y-106154819D01*
X175242857Y-106154819D02*
X175338095Y-106202438D01*
X175338095Y-106202438D02*
X175385714Y-106250057D01*
X175385714Y-106250057D02*
X175433333Y-106345295D01*
X175433333Y-106345295D02*
X175433333Y-106488152D01*
X175433333Y-106488152D02*
X175385714Y-106583390D01*
X175385714Y-106583390D02*
X175338095Y-106631009D01*
X175338095Y-106631009D02*
X175242857Y-106678628D01*
X175242857Y-106678628D02*
X174861905Y-106678628D01*
X176290476Y-106154819D02*
X176100000Y-106154819D01*
X176100000Y-106154819D02*
X176004762Y-106202438D01*
X176004762Y-106202438D02*
X175957143Y-106250057D01*
X175957143Y-106250057D02*
X175861905Y-106392914D01*
X175861905Y-106392914D02*
X175814286Y-106583390D01*
X175814286Y-106583390D02*
X175814286Y-106964342D01*
X175814286Y-106964342D02*
X175861905Y-107059580D01*
X175861905Y-107059580D02*
X175909524Y-107107200D01*
X175909524Y-107107200D02*
X176004762Y-107154819D01*
X176004762Y-107154819D02*
X176195238Y-107154819D01*
X176195238Y-107154819D02*
X176290476Y-107107200D01*
X176290476Y-107107200D02*
X176338095Y-107059580D01*
X176338095Y-107059580D02*
X176385714Y-106964342D01*
X176385714Y-106964342D02*
X176385714Y-106726247D01*
X176385714Y-106726247D02*
X176338095Y-106631009D01*
X176338095Y-106631009D02*
X176290476Y-106583390D01*
X176290476Y-106583390D02*
X176195238Y-106535771D01*
X176195238Y-106535771D02*
X176004762Y-106535771D01*
X176004762Y-106535771D02*
X175909524Y-106583390D01*
X175909524Y-106583390D02*
X175861905Y-106631009D01*
X175861905Y-106631009D02*
X175814286Y-106726247D01*
X159157142Y-98859580D02*
X159109523Y-98907200D01*
X159109523Y-98907200D02*
X158966666Y-98954819D01*
X158966666Y-98954819D02*
X158871428Y-98954819D01*
X158871428Y-98954819D02*
X158728571Y-98907200D01*
X158728571Y-98907200D02*
X158633333Y-98811961D01*
X158633333Y-98811961D02*
X158585714Y-98716723D01*
X158585714Y-98716723D02*
X158538095Y-98526247D01*
X158538095Y-98526247D02*
X158538095Y-98383390D01*
X158538095Y-98383390D02*
X158585714Y-98192914D01*
X158585714Y-98192914D02*
X158633333Y-98097676D01*
X158633333Y-98097676D02*
X158728571Y-98002438D01*
X158728571Y-98002438D02*
X158871428Y-97954819D01*
X158871428Y-97954819D02*
X158966666Y-97954819D01*
X158966666Y-97954819D02*
X159109523Y-98002438D01*
X159109523Y-98002438D02*
X159157142Y-98050057D01*
X160109523Y-98954819D02*
X159538095Y-98954819D01*
X159823809Y-98954819D02*
X159823809Y-97954819D01*
X159823809Y-97954819D02*
X159728571Y-98097676D01*
X159728571Y-98097676D02*
X159633333Y-98192914D01*
X159633333Y-98192914D02*
X159538095Y-98240533D01*
X160728571Y-97954819D02*
X160823809Y-97954819D01*
X160823809Y-97954819D02*
X160919047Y-98002438D01*
X160919047Y-98002438D02*
X160966666Y-98050057D01*
X160966666Y-98050057D02*
X161014285Y-98145295D01*
X161014285Y-98145295D02*
X161061904Y-98335771D01*
X161061904Y-98335771D02*
X161061904Y-98573866D01*
X161061904Y-98573866D02*
X161014285Y-98764342D01*
X161014285Y-98764342D02*
X160966666Y-98859580D01*
X160966666Y-98859580D02*
X160919047Y-98907200D01*
X160919047Y-98907200D02*
X160823809Y-98954819D01*
X160823809Y-98954819D02*
X160728571Y-98954819D01*
X160728571Y-98954819D02*
X160633333Y-98907200D01*
X160633333Y-98907200D02*
X160585714Y-98859580D01*
X160585714Y-98859580D02*
X160538095Y-98764342D01*
X160538095Y-98764342D02*
X160490476Y-98573866D01*
X160490476Y-98573866D02*
X160490476Y-98335771D01*
X160490476Y-98335771D02*
X160538095Y-98145295D01*
X160538095Y-98145295D02*
X160585714Y-98050057D01*
X160585714Y-98050057D02*
X160633333Y-98002438D01*
X160633333Y-98002438D02*
X160728571Y-97954819D01*
X147954819Y-122638094D02*
X146954819Y-122638094D01*
X146954819Y-122638094D02*
X146954819Y-122399999D01*
X146954819Y-122399999D02*
X147002438Y-122257142D01*
X147002438Y-122257142D02*
X147097676Y-122161904D01*
X147097676Y-122161904D02*
X147192914Y-122114285D01*
X147192914Y-122114285D02*
X147383390Y-122066666D01*
X147383390Y-122066666D02*
X147526247Y-122066666D01*
X147526247Y-122066666D02*
X147716723Y-122114285D01*
X147716723Y-122114285D02*
X147811961Y-122161904D01*
X147811961Y-122161904D02*
X147907200Y-122257142D01*
X147907200Y-122257142D02*
X147954819Y-122399999D01*
X147954819Y-122399999D02*
X147954819Y-122638094D01*
X147954819Y-121114285D02*
X147954819Y-121685713D01*
X147954819Y-121399999D02*
X146954819Y-121399999D01*
X146954819Y-121399999D02*
X147097676Y-121495237D01*
X147097676Y-121495237D02*
X147192914Y-121590475D01*
X147192914Y-121590475D02*
X147240533Y-121685713D01*
X165029580Y-95066666D02*
X165077200Y-95114285D01*
X165077200Y-95114285D02*
X165124819Y-95257142D01*
X165124819Y-95257142D02*
X165124819Y-95352380D01*
X165124819Y-95352380D02*
X165077200Y-95495237D01*
X165077200Y-95495237D02*
X164981961Y-95590475D01*
X164981961Y-95590475D02*
X164886723Y-95638094D01*
X164886723Y-95638094D02*
X164696247Y-95685713D01*
X164696247Y-95685713D02*
X164553390Y-95685713D01*
X164553390Y-95685713D02*
X164362914Y-95638094D01*
X164362914Y-95638094D02*
X164267676Y-95590475D01*
X164267676Y-95590475D02*
X164172438Y-95495237D01*
X164172438Y-95495237D02*
X164124819Y-95352380D01*
X164124819Y-95352380D02*
X164124819Y-95257142D01*
X164124819Y-95257142D02*
X164172438Y-95114285D01*
X164172438Y-95114285D02*
X164220057Y-95066666D01*
X164124819Y-94209523D02*
X164124819Y-94399999D01*
X164124819Y-94399999D02*
X164172438Y-94495237D01*
X164172438Y-94495237D02*
X164220057Y-94542856D01*
X164220057Y-94542856D02*
X164362914Y-94638094D01*
X164362914Y-94638094D02*
X164553390Y-94685713D01*
X164553390Y-94685713D02*
X164934342Y-94685713D01*
X164934342Y-94685713D02*
X165029580Y-94638094D01*
X165029580Y-94638094D02*
X165077200Y-94590475D01*
X165077200Y-94590475D02*
X165124819Y-94495237D01*
X165124819Y-94495237D02*
X165124819Y-94304761D01*
X165124819Y-94304761D02*
X165077200Y-94209523D01*
X165077200Y-94209523D02*
X165029580Y-94161904D01*
X165029580Y-94161904D02*
X164934342Y-94114285D01*
X164934342Y-94114285D02*
X164696247Y-94114285D01*
X164696247Y-94114285D02*
X164601009Y-94161904D01*
X164601009Y-94161904D02*
X164553390Y-94209523D01*
X164553390Y-94209523D02*
X164505771Y-94304761D01*
X164505771Y-94304761D02*
X164505771Y-94495237D01*
X164505771Y-94495237D02*
X164553390Y-94590475D01*
X164553390Y-94590475D02*
X164601009Y-94638094D01*
X164601009Y-94638094D02*
X164696247Y-94685713D01*
X142279580Y-106116666D02*
X142327200Y-106164285D01*
X142327200Y-106164285D02*
X142374819Y-106307142D01*
X142374819Y-106307142D02*
X142374819Y-106402380D01*
X142374819Y-106402380D02*
X142327200Y-106545237D01*
X142327200Y-106545237D02*
X142231961Y-106640475D01*
X142231961Y-106640475D02*
X142136723Y-106688094D01*
X142136723Y-106688094D02*
X141946247Y-106735713D01*
X141946247Y-106735713D02*
X141803390Y-106735713D01*
X141803390Y-106735713D02*
X141612914Y-106688094D01*
X141612914Y-106688094D02*
X141517676Y-106640475D01*
X141517676Y-106640475D02*
X141422438Y-106545237D01*
X141422438Y-106545237D02*
X141374819Y-106402380D01*
X141374819Y-106402380D02*
X141374819Y-106307142D01*
X141374819Y-106307142D02*
X141422438Y-106164285D01*
X141422438Y-106164285D02*
X141470057Y-106116666D01*
X142374819Y-105164285D02*
X142374819Y-105735713D01*
X142374819Y-105449999D02*
X141374819Y-105449999D01*
X141374819Y-105449999D02*
X141517676Y-105545237D01*
X141517676Y-105545237D02*
X141612914Y-105640475D01*
X141612914Y-105640475D02*
X141660533Y-105735713D01*
X141404819Y-115533333D02*
X142119104Y-115533333D01*
X142119104Y-115533333D02*
X142261961Y-115580952D01*
X142261961Y-115580952D02*
X142357200Y-115676190D01*
X142357200Y-115676190D02*
X142404819Y-115819047D01*
X142404819Y-115819047D02*
X142404819Y-115914285D01*
X141404819Y-115152380D02*
X141404819Y-114533333D01*
X141404819Y-114533333D02*
X141785771Y-114866666D01*
X141785771Y-114866666D02*
X141785771Y-114723809D01*
X141785771Y-114723809D02*
X141833390Y-114628571D01*
X141833390Y-114628571D02*
X141881009Y-114580952D01*
X141881009Y-114580952D02*
X141976247Y-114533333D01*
X141976247Y-114533333D02*
X142214342Y-114533333D01*
X142214342Y-114533333D02*
X142309580Y-114580952D01*
X142309580Y-114580952D02*
X142357200Y-114628571D01*
X142357200Y-114628571D02*
X142404819Y-114723809D01*
X142404819Y-114723809D02*
X142404819Y-115009523D01*
X142404819Y-115009523D02*
X142357200Y-115104761D01*
X142357200Y-115104761D02*
X142309580Y-115152380D01*
X167679819Y-107883333D02*
X168394104Y-107883333D01*
X168394104Y-107883333D02*
X168536961Y-107930952D01*
X168536961Y-107930952D02*
X168632200Y-108026190D01*
X168632200Y-108026190D02*
X168679819Y-108169047D01*
X168679819Y-108169047D02*
X168679819Y-108264285D01*
X167679819Y-106930952D02*
X167679819Y-107407142D01*
X167679819Y-107407142D02*
X168156009Y-107454761D01*
X168156009Y-107454761D02*
X168108390Y-107407142D01*
X168108390Y-107407142D02*
X168060771Y-107311904D01*
X168060771Y-107311904D02*
X168060771Y-107073809D01*
X168060771Y-107073809D02*
X168108390Y-106978571D01*
X168108390Y-106978571D02*
X168156009Y-106930952D01*
X168156009Y-106930952D02*
X168251247Y-106883333D01*
X168251247Y-106883333D02*
X168489342Y-106883333D01*
X168489342Y-106883333D02*
X168584580Y-106930952D01*
X168584580Y-106930952D02*
X168632200Y-106978571D01*
X168632200Y-106978571D02*
X168679819Y-107073809D01*
X168679819Y-107073809D02*
X168679819Y-107311904D01*
X168679819Y-107311904D02*
X168632200Y-107407142D01*
X168632200Y-107407142D02*
X168584580Y-107454761D01*
X157954819Y-122638094D02*
X156954819Y-122638094D01*
X156954819Y-122638094D02*
X156954819Y-122399999D01*
X156954819Y-122399999D02*
X157002438Y-122257142D01*
X157002438Y-122257142D02*
X157097676Y-122161904D01*
X157097676Y-122161904D02*
X157192914Y-122114285D01*
X157192914Y-122114285D02*
X157383390Y-122066666D01*
X157383390Y-122066666D02*
X157526247Y-122066666D01*
X157526247Y-122066666D02*
X157716723Y-122114285D01*
X157716723Y-122114285D02*
X157811961Y-122161904D01*
X157811961Y-122161904D02*
X157907200Y-122257142D01*
X157907200Y-122257142D02*
X157954819Y-122399999D01*
X157954819Y-122399999D02*
X157954819Y-122638094D01*
X157050057Y-121685713D02*
X157002438Y-121638094D01*
X157002438Y-121638094D02*
X156954819Y-121542856D01*
X156954819Y-121542856D02*
X156954819Y-121304761D01*
X156954819Y-121304761D02*
X157002438Y-121209523D01*
X157002438Y-121209523D02*
X157050057Y-121161904D01*
X157050057Y-121161904D02*
X157145295Y-121114285D01*
X157145295Y-121114285D02*
X157240533Y-121114285D01*
X157240533Y-121114285D02*
X157383390Y-121161904D01*
X157383390Y-121161904D02*
X157954819Y-121733332D01*
X157954819Y-121733332D02*
X157954819Y-121114285D01*
X148359580Y-87166666D02*
X148407200Y-87214285D01*
X148407200Y-87214285D02*
X148454819Y-87357142D01*
X148454819Y-87357142D02*
X148454819Y-87452380D01*
X148454819Y-87452380D02*
X148407200Y-87595237D01*
X148407200Y-87595237D02*
X148311961Y-87690475D01*
X148311961Y-87690475D02*
X148216723Y-87738094D01*
X148216723Y-87738094D02*
X148026247Y-87785713D01*
X148026247Y-87785713D02*
X147883390Y-87785713D01*
X147883390Y-87785713D02*
X147692914Y-87738094D01*
X147692914Y-87738094D02*
X147597676Y-87690475D01*
X147597676Y-87690475D02*
X147502438Y-87595237D01*
X147502438Y-87595237D02*
X147454819Y-87452380D01*
X147454819Y-87452380D02*
X147454819Y-87357142D01*
X147454819Y-87357142D02*
X147502438Y-87214285D01*
X147502438Y-87214285D02*
X147550057Y-87166666D01*
X147454819Y-86261904D02*
X147454819Y-86738094D01*
X147454819Y-86738094D02*
X147931009Y-86785713D01*
X147931009Y-86785713D02*
X147883390Y-86738094D01*
X147883390Y-86738094D02*
X147835771Y-86642856D01*
X147835771Y-86642856D02*
X147835771Y-86404761D01*
X147835771Y-86404761D02*
X147883390Y-86309523D01*
X147883390Y-86309523D02*
X147931009Y-86261904D01*
X147931009Y-86261904D02*
X148026247Y-86214285D01*
X148026247Y-86214285D02*
X148264342Y-86214285D01*
X148264342Y-86214285D02*
X148359580Y-86261904D01*
X148359580Y-86261904D02*
X148407200Y-86309523D01*
X148407200Y-86309523D02*
X148454819Y-86404761D01*
X148454819Y-86404761D02*
X148454819Y-86642856D01*
X148454819Y-86642856D02*
X148407200Y-86738094D01*
X148407200Y-86738094D02*
X148359580Y-86785713D01*
X172018095Y-115929819D02*
X172018095Y-116739342D01*
X172018095Y-116739342D02*
X172065714Y-116834580D01*
X172065714Y-116834580D02*
X172113333Y-116882200D01*
X172113333Y-116882200D02*
X172208571Y-116929819D01*
X172208571Y-116929819D02*
X172399047Y-116929819D01*
X172399047Y-116929819D02*
X172494285Y-116882200D01*
X172494285Y-116882200D02*
X172541904Y-116834580D01*
X172541904Y-116834580D02*
X172589523Y-116739342D01*
X172589523Y-116739342D02*
X172589523Y-115929819D01*
X173494285Y-116263152D02*
X173494285Y-116929819D01*
X173256190Y-115882200D02*
X173018095Y-116596485D01*
X173018095Y-116596485D02*
X173637142Y-116596485D01*
X164378628Y-105476190D02*
X164854819Y-105476190D01*
X163854819Y-105809523D02*
X164378628Y-105476190D01*
X164378628Y-105476190D02*
X163854819Y-105142857D01*
X164854819Y-104285714D02*
X164854819Y-104857142D01*
X164854819Y-104571428D02*
X163854819Y-104571428D01*
X163854819Y-104571428D02*
X163997676Y-104666666D01*
X163997676Y-104666666D02*
X164092914Y-104761904D01*
X164092914Y-104761904D02*
X164140533Y-104857142D01*
X165729580Y-113266666D02*
X165777200Y-113314285D01*
X165777200Y-113314285D02*
X165824819Y-113457142D01*
X165824819Y-113457142D02*
X165824819Y-113552380D01*
X165824819Y-113552380D02*
X165777200Y-113695237D01*
X165777200Y-113695237D02*
X165681961Y-113790475D01*
X165681961Y-113790475D02*
X165586723Y-113838094D01*
X165586723Y-113838094D02*
X165396247Y-113885713D01*
X165396247Y-113885713D02*
X165253390Y-113885713D01*
X165253390Y-113885713D02*
X165062914Y-113838094D01*
X165062914Y-113838094D02*
X164967676Y-113790475D01*
X164967676Y-113790475D02*
X164872438Y-113695237D01*
X164872438Y-113695237D02*
X164824819Y-113552380D01*
X164824819Y-113552380D02*
X164824819Y-113457142D01*
X164824819Y-113457142D02*
X164872438Y-113314285D01*
X164872438Y-113314285D02*
X164920057Y-113266666D01*
X165253390Y-112695237D02*
X165205771Y-112790475D01*
X165205771Y-112790475D02*
X165158152Y-112838094D01*
X165158152Y-112838094D02*
X165062914Y-112885713D01*
X165062914Y-112885713D02*
X165015295Y-112885713D01*
X165015295Y-112885713D02*
X164920057Y-112838094D01*
X164920057Y-112838094D02*
X164872438Y-112790475D01*
X164872438Y-112790475D02*
X164824819Y-112695237D01*
X164824819Y-112695237D02*
X164824819Y-112504761D01*
X164824819Y-112504761D02*
X164872438Y-112409523D01*
X164872438Y-112409523D02*
X164920057Y-112361904D01*
X164920057Y-112361904D02*
X165015295Y-112314285D01*
X165015295Y-112314285D02*
X165062914Y-112314285D01*
X165062914Y-112314285D02*
X165158152Y-112361904D01*
X165158152Y-112361904D02*
X165205771Y-112409523D01*
X165205771Y-112409523D02*
X165253390Y-112504761D01*
X165253390Y-112504761D02*
X165253390Y-112695237D01*
X165253390Y-112695237D02*
X165301009Y-112790475D01*
X165301009Y-112790475D02*
X165348628Y-112838094D01*
X165348628Y-112838094D02*
X165443866Y-112885713D01*
X165443866Y-112885713D02*
X165634342Y-112885713D01*
X165634342Y-112885713D02*
X165729580Y-112838094D01*
X165729580Y-112838094D02*
X165777200Y-112790475D01*
X165777200Y-112790475D02*
X165824819Y-112695237D01*
X165824819Y-112695237D02*
X165824819Y-112504761D01*
X165824819Y-112504761D02*
X165777200Y-112409523D01*
X165777200Y-112409523D02*
X165729580Y-112361904D01*
X165729580Y-112361904D02*
X165634342Y-112314285D01*
X165634342Y-112314285D02*
X165443866Y-112314285D01*
X165443866Y-112314285D02*
X165348628Y-112361904D01*
X165348628Y-112361904D02*
X165301009Y-112409523D01*
X165301009Y-112409523D02*
X165253390Y-112504761D01*
X130354819Y-120233333D02*
X131069104Y-120233333D01*
X131069104Y-120233333D02*
X131211961Y-120280952D01*
X131211961Y-120280952D02*
X131307200Y-120376190D01*
X131307200Y-120376190D02*
X131354819Y-120519047D01*
X131354819Y-120519047D02*
X131354819Y-120614285D01*
X130688152Y-119328571D02*
X131354819Y-119328571D01*
X130307200Y-119566666D02*
X131021485Y-119804761D01*
X131021485Y-119804761D02*
X131021485Y-119185714D01*
X133267257Y-124485713D02*
X133219638Y-124438094D01*
X133219638Y-124438094D02*
X133172019Y-124342856D01*
X133172019Y-124342856D02*
X133172019Y-124104761D01*
X133172019Y-124104761D02*
X133219638Y-124009523D01*
X133219638Y-124009523D02*
X133267257Y-123961904D01*
X133267257Y-123961904D02*
X133362495Y-123914285D01*
X133362495Y-123914285D02*
X133457733Y-123914285D01*
X133457733Y-123914285D02*
X133600590Y-123961904D01*
X133600590Y-123961904D02*
X134172019Y-124533332D01*
X134172019Y-124533332D02*
X134172019Y-123914285D01*
X138337619Y-123914285D02*
X138337619Y-124485713D01*
X138337619Y-124199999D02*
X137337619Y-124199999D01*
X137337619Y-124199999D02*
X137480476Y-124295237D01*
X137480476Y-124295237D02*
X137575714Y-124390475D01*
X137575714Y-124390475D02*
X137623333Y-124485713D01*
X134154819Y-114790476D02*
X134154819Y-115361904D01*
X134154819Y-115076190D02*
X133154819Y-115076190D01*
X133154819Y-115076190D02*
X133297676Y-115171428D01*
X133297676Y-115171428D02*
X133392914Y-115266666D01*
X133392914Y-115266666D02*
X133440533Y-115361904D01*
X133154819Y-114171428D02*
X133154819Y-114076190D01*
X133154819Y-114076190D02*
X133202438Y-113980952D01*
X133202438Y-113980952D02*
X133250057Y-113933333D01*
X133250057Y-113933333D02*
X133345295Y-113885714D01*
X133345295Y-113885714D02*
X133535771Y-113838095D01*
X133535771Y-113838095D02*
X133773866Y-113838095D01*
X133773866Y-113838095D02*
X133964342Y-113885714D01*
X133964342Y-113885714D02*
X134059580Y-113933333D01*
X134059580Y-113933333D02*
X134107200Y-113980952D01*
X134107200Y-113980952D02*
X134154819Y-114076190D01*
X134154819Y-114076190D02*
X134154819Y-114171428D01*
X134154819Y-114171428D02*
X134107200Y-114266666D01*
X134107200Y-114266666D02*
X134059580Y-114314285D01*
X134059580Y-114314285D02*
X133964342Y-114361904D01*
X133964342Y-114361904D02*
X133773866Y-114409523D01*
X133773866Y-114409523D02*
X133535771Y-114409523D01*
X133535771Y-114409523D02*
X133345295Y-114361904D01*
X133345295Y-114361904D02*
X133250057Y-114314285D01*
X133250057Y-114314285D02*
X133202438Y-114266666D01*
X133202438Y-114266666D02*
X133154819Y-114171428D01*
X138337619Y-114990475D02*
X138337619Y-114799999D01*
X138337619Y-114799999D02*
X138290000Y-114704761D01*
X138290000Y-114704761D02*
X138242380Y-114657142D01*
X138242380Y-114657142D02*
X138099523Y-114561904D01*
X138099523Y-114561904D02*
X137909047Y-114514285D01*
X137909047Y-114514285D02*
X137528095Y-114514285D01*
X137528095Y-114514285D02*
X137432857Y-114561904D01*
X137432857Y-114561904D02*
X137385238Y-114609523D01*
X137385238Y-114609523D02*
X137337619Y-114704761D01*
X137337619Y-114704761D02*
X137337619Y-114895237D01*
X137337619Y-114895237D02*
X137385238Y-114990475D01*
X137385238Y-114990475D02*
X137432857Y-115038094D01*
X137432857Y-115038094D02*
X137528095Y-115085713D01*
X137528095Y-115085713D02*
X137766190Y-115085713D01*
X137766190Y-115085713D02*
X137861428Y-115038094D01*
X137861428Y-115038094D02*
X137909047Y-114990475D01*
X137909047Y-114990475D02*
X137956666Y-114895237D01*
X137956666Y-114895237D02*
X137956666Y-114704761D01*
X137956666Y-114704761D02*
X137909047Y-114609523D01*
X137909047Y-114609523D02*
X137861428Y-114561904D01*
X137861428Y-114561904D02*
X137766190Y-114514285D01*
X150333333Y-113954819D02*
X150000000Y-113478628D01*
X149761905Y-113954819D02*
X149761905Y-112954819D01*
X149761905Y-112954819D02*
X150142857Y-112954819D01*
X150142857Y-112954819D02*
X150238095Y-113002438D01*
X150238095Y-113002438D02*
X150285714Y-113050057D01*
X150285714Y-113050057D02*
X150333333Y-113145295D01*
X150333333Y-113145295D02*
X150333333Y-113288152D01*
X150333333Y-113288152D02*
X150285714Y-113383390D01*
X150285714Y-113383390D02*
X150238095Y-113431009D01*
X150238095Y-113431009D02*
X150142857Y-113478628D01*
X150142857Y-113478628D02*
X149761905Y-113478628D01*
X151285714Y-113954819D02*
X150714286Y-113954819D01*
X151000000Y-113954819D02*
X151000000Y-112954819D01*
X151000000Y-112954819D02*
X150904762Y-113097676D01*
X150904762Y-113097676D02*
X150809524Y-113192914D01*
X150809524Y-113192914D02*
X150714286Y-113240533D01*
D12*
%TO.C,U1*%
X146527500Y-99640000D02*
X146527500Y-100090000D01*
X146527500Y-106860000D02*
X146527500Y-106410000D01*
X146977500Y-99640000D02*
X146527500Y-99640000D01*
X146977500Y-106860000D02*
X146527500Y-106860000D01*
X153297500Y-99640000D02*
X153747500Y-99640000D01*
X153297500Y-106860000D02*
X153747500Y-106860000D01*
X153747500Y-99640000D02*
X153747500Y-100090000D01*
X153747500Y-106860000D02*
X153747500Y-106410000D01*
X154677500Y-106880000D02*
X153997500Y-106880000D01*
X154337500Y-106410000D01*
X154677500Y-106880000D01*
G36*
X154677500Y-106880000D02*
G01*
X153997500Y-106880000D01*
X154337500Y-106410000D01*
X154677500Y-106880000D01*
G37*
%TO.C,C9*%
X159934420Y-109490000D02*
X160215580Y-109490000D01*
X159934420Y-110510000D02*
X160215580Y-110510000D01*
%TO.C,R3*%
X169277500Y-103737258D02*
X169277500Y-103262742D01*
X170322500Y-103737258D02*
X170322500Y-103262742D01*
%TO.C,J6*%
X169355000Y-98120000D02*
X169355000Y-100880000D01*
X172005000Y-98120000D02*
X169355000Y-98120000D01*
X172005000Y-98120000D02*
X172005000Y-100880000D01*
X172005000Y-100880000D02*
X169355000Y-100880000D01*
X173275000Y-98120000D02*
X174655000Y-98120000D01*
X174655000Y-98120000D02*
X174655000Y-99500000D01*
%TO.C,J2*%
X182707500Y-90245000D02*
X191907500Y-90245000D01*
X182707500Y-90845000D02*
X182707500Y-90245000D01*
X182707500Y-119645000D02*
X182707500Y-119045000D01*
X191907500Y-90245000D02*
X191907500Y-119645000D01*
X191907500Y-119645000D02*
X182707500Y-119645000D01*
D13*
X181382500Y-92745000D02*
G75*
G02*
X180832500Y-92745000I-275000J0D01*
G01*
X180832500Y-92745000D02*
G75*
G02*
X181382500Y-92745000I275000J0D01*
G01*
D12*
%TO.C,C7*%
X152940580Y-109990000D02*
X152659420Y-109990000D01*
X152940580Y-111010000D02*
X152659420Y-111010000D01*
%TO.C,R7*%
X162787742Y-112977500D02*
X163262258Y-112977500D01*
X162787742Y-114022500D02*
X163262258Y-114022500D01*
%TO.C,R2*%
X157087742Y-112977500D02*
X157562258Y-112977500D01*
X157087742Y-114022500D02*
X157562258Y-114022500D01*
%TO.C,R5*%
X178562742Y-102777500D02*
X179037258Y-102777500D01*
X178562742Y-103822500D02*
X179037258Y-103822500D01*
%TO.C,U2*%
X133050000Y-87590000D02*
X133050000Y-88850000D01*
X133050000Y-94410000D02*
X133050000Y-93150000D01*
X136810000Y-87590000D02*
X133050000Y-87590000D01*
X136810000Y-94410000D02*
X133050000Y-94410000D01*
X138330000Y-94640000D02*
X137850000Y-94640000D01*
X138090000Y-94310000D01*
X138330000Y-94640000D01*
G36*
X138330000Y-94640000D02*
G01*
X137850000Y-94640000D01*
X138090000Y-94310000D01*
X138330000Y-94640000D01*
G37*
%TO.C,C3*%
X157290000Y-106359420D02*
X157290000Y-106640580D01*
X158310000Y-106359420D02*
X158310000Y-106640580D01*
%TO.C,R4*%
X140677500Y-108312742D02*
X140677500Y-108787258D01*
X141722500Y-108312742D02*
X141722500Y-108787258D01*
%TO.C,U3*%
X172380000Y-92140000D02*
X170430000Y-92140000D01*
X172380000Y-92140000D02*
X174330000Y-92140000D01*
X172380000Y-97260000D02*
X170430000Y-97260000D01*
X172380000Y-97260000D02*
X174330000Y-97260000D01*
X169680000Y-92235000D02*
X169440000Y-91905000D01*
X169920000Y-91905000D01*
X169680000Y-92235000D01*
G36*
X169680000Y-92235000D02*
G01*
X169440000Y-91905000D01*
X169920000Y-91905000D01*
X169680000Y-92235000D01*
G37*
%TO.C,D3*%
X166765000Y-118300000D02*
X166765000Y-120585000D01*
X166765000Y-120585000D02*
X168235000Y-120585000D01*
X168235000Y-120585000D02*
X168235000Y-118300000D01*
%TO.C,J1*%
X121817500Y-98890000D02*
X121817500Y-111110000D01*
X121817500Y-98890000D02*
X129787500Y-98890000D01*
X121817500Y-111110000D02*
X129787500Y-111110000D01*
X138437500Y-98890000D02*
X134687500Y-98890000D01*
X138437500Y-98890000D02*
X138437500Y-111110000D01*
X138437500Y-111110000D02*
X134687500Y-111110000D01*
X138637500Y-106250000D02*
X139137500Y-106750000D01*
X139137500Y-105750000D02*
X138637500Y-106250000D01*
X139137500Y-106750000D02*
X139137500Y-105750000D01*
%TO.C,C2*%
X145659420Y-95490000D02*
X145940580Y-95490000D01*
X145659420Y-96510000D02*
X145940580Y-96510000D01*
%TO.C,C4*%
X149659420Y-95490000D02*
X149940580Y-95490000D01*
X149659420Y-96510000D02*
X149940580Y-96510000D01*
%TO.C,R6*%
X178937258Y-106177500D02*
X178462742Y-106177500D01*
X178937258Y-107222500D02*
X178462742Y-107222500D01*
%TO.C,C10*%
X159940580Y-99490000D02*
X159659420Y-99490000D01*
X159940580Y-100510000D02*
X159659420Y-100510000D01*
%TO.C,D1*%
X146765000Y-118200000D02*
X146765000Y-120485000D01*
X146765000Y-120485000D02*
X148235000Y-120485000D01*
X148235000Y-120485000D02*
X148235000Y-118200000D01*
%TO.C,C6*%
X165590000Y-95040580D02*
X165590000Y-94759420D01*
X166610000Y-95040580D02*
X166610000Y-94759420D01*
%TO.C,C1*%
X142840000Y-106090580D02*
X142840000Y-105809420D01*
X143860000Y-106090580D02*
X143860000Y-105809420D01*
%TO.C,J3*%
X140445000Y-113780000D02*
X140445000Y-112400000D01*
X141825000Y-113780000D02*
X140445000Y-113780000D01*
X143095000Y-111020000D02*
X145745000Y-111020000D01*
X143095000Y-113780000D02*
X143095000Y-111020000D01*
X143095000Y-113780000D02*
X145745000Y-113780000D01*
X145745000Y-113780000D02*
X145745000Y-111020000D01*
%TO.C,J5*%
X169305000Y-106170000D02*
X169305000Y-108930000D01*
X171955000Y-106170000D02*
X169305000Y-106170000D01*
X171955000Y-106170000D02*
X171955000Y-108930000D01*
X171955000Y-108930000D02*
X169305000Y-108930000D01*
X173225000Y-106170000D02*
X174605000Y-106170000D01*
X174605000Y-106170000D02*
X174605000Y-107550000D01*
%TO.C,D2*%
X156765000Y-118200000D02*
X156765000Y-120485000D01*
X156765000Y-120485000D02*
X158235000Y-120485000D01*
X158235000Y-120485000D02*
X158235000Y-118200000D01*
%TO.C,C5*%
X143540000Y-88340000D02*
X144740000Y-88340000D01*
X143540000Y-91795563D02*
X143540000Y-88340000D01*
X144604437Y-92860000D02*
X143540000Y-91795563D01*
X144604437Y-92860000D02*
X144740000Y-92860000D01*
X146995563Y-92860000D02*
X146860000Y-92860000D01*
X146995563Y-92860000D02*
X148060000Y-91795563D01*
X148060000Y-88340000D02*
X146860000Y-88340000D01*
X148060000Y-91795563D02*
X148060000Y-88340000D01*
%TO.C,U4*%
X172730000Y-109890000D02*
X170780000Y-109890000D01*
X172730000Y-109890000D02*
X174680000Y-109890000D01*
X172730000Y-115010000D02*
X170780000Y-115010000D01*
X172730000Y-115010000D02*
X174680000Y-115010000D01*
X170030000Y-109985000D02*
X169790000Y-109655000D01*
X170270000Y-109655000D01*
X170030000Y-109985000D01*
G36*
X170030000Y-109985000D02*
G01*
X169790000Y-109655000D01*
X170270000Y-109655000D01*
X170030000Y-109985000D01*
G37*
%TO.C,Y1*%
X159940000Y-102000000D02*
X159940000Y-108000000D01*
X163660000Y-102000000D02*
X163660000Y-108000000D01*
%TO.C,C8*%
X166290000Y-113240580D02*
X166290000Y-112959420D01*
X167310000Y-113240580D02*
X167310000Y-112959420D01*
D14*
%TO.C,J4*%
X133133000Y-123500000D02*
X138467000Y-123500000D01*
X138467000Y-116100000D02*
X133133000Y-116100000D01*
X140130000Y-122340000D02*
X141400000Y-121705000D01*
X141400000Y-121705000D02*
X141400000Y-122975000D01*
X141400000Y-122975000D02*
X140130000Y-122340000D01*
D12*
%TO.C,R1*%
X148237258Y-112977500D02*
X147762742Y-112977500D01*
X148237258Y-114022500D02*
X147762742Y-114022500D01*
%TD*%
M02*
