%TF.GenerationSoftware,KiCad,Pcbnew,9.0.4*%
%TF.CreationDate,2025-09-19T16:30:07-07:00*%
%TF.ProjectId,USBCAN-X2,55534243-414e-42d5-9832-2e6b69636164,rev?*%
%TF.SameCoordinates,Original*%
%TF.FileFunction,Copper,L1,Top*%
%TF.FilePolarity,Positive*%
%FSLAX46Y46*%
G04 Gerber Fmt 4.6, Leading zero omitted, Abs format (unit mm)*
G04 Created by KiCad (PCBNEW 9.0.4) date 2025-09-19 16:30:07*
%MOMM*%
%LPD*%
G01*
G04 APERTURE LIST*
G04 Aperture macros list*
%AMRoundRect*
0 Rectangle with rounded corners*
0 $1 Rounding radius*
0 $2 $3 $4 $5 $6 $7 $8 $9 X,Y pos of 4 corners*
0 Add a 4 corners polygon primitive as box body*
4,1,4,$2,$3,$4,$5,$6,$7,$8,$9,$2,$3,0*
0 Add four circle primitives for the rounded corners*
1,1,$1+$1,$2,$3*
1,1,$1+$1,$4,$5*
1,1,$1+$1,$6,$7*
1,1,$1+$1,$8,$9*
0 Add four rect primitives between the rounded corners*
20,1,$1+$1,$2,$3,$4,$5,0*
20,1,$1+$1,$4,$5,$6,$7,0*
20,1,$1+$1,$6,$7,$8,$9,0*
20,1,$1+$1,$8,$9,$2,$3,0*%
G04 Aperture macros list end*
%ADD10C,0.100000*%
%TA.AperFunction,NonConductor*%
%ADD11C,0.100000*%
%TD*%
%ADD12C,0.150000*%
%TA.AperFunction,NonConductor*%
%ADD13C,0.150000*%
%TD*%
%TA.AperFunction,ComponentPad*%
%ADD14R,1.700000X1.700000*%
%TD*%
%TA.AperFunction,ComponentPad*%
%ADD15C,1.700000*%
%TD*%
%TA.AperFunction,SMDPad,CuDef*%
%ADD16RoundRect,0.075000X0.662500X0.075000X-0.662500X0.075000X-0.662500X-0.075000X0.662500X-0.075000X0*%
%TD*%
%TA.AperFunction,SMDPad,CuDef*%
%ADD17RoundRect,0.075000X0.075000X0.662500X-0.075000X0.662500X-0.075000X-0.662500X0.075000X-0.662500X0*%
%TD*%
%TA.AperFunction,SMDPad,CuDef*%
%ADD18RoundRect,0.225000X-0.225000X-0.250000X0.225000X-0.250000X0.225000X0.250000X-0.225000X0.250000X0*%
%TD*%
%TA.AperFunction,SMDPad,CuDef*%
%ADD19RoundRect,0.200000X-0.275000X0.200000X-0.275000X-0.200000X0.275000X-0.200000X0.275000X0.200000X0*%
%TD*%
%TA.AperFunction,ComponentPad*%
%ADD20R,2.800000X2.800000*%
%TD*%
%TA.AperFunction,ComponentPad*%
%ADD21C,2.800000*%
%TD*%
%TA.AperFunction,SMDPad,CuDef*%
%ADD22RoundRect,0.225000X0.225000X0.250000X-0.225000X0.250000X-0.225000X-0.250000X0.225000X-0.250000X0*%
%TD*%
%TA.AperFunction,SMDPad,CuDef*%
%ADD23RoundRect,0.200000X-0.200000X-0.275000X0.200000X-0.275000X0.200000X0.275000X-0.200000X0.275000X0*%
%TD*%
%TA.AperFunction,SMDPad,CuDef*%
%ADD24RoundRect,0.375000X0.625000X0.375000X-0.625000X0.375000X-0.625000X-0.375000X0.625000X-0.375000X0*%
%TD*%
%TA.AperFunction,SMDPad,CuDef*%
%ADD25RoundRect,0.500000X0.500000X1.400000X-0.500000X1.400000X-0.500000X-1.400000X0.500000X-1.400000X0*%
%TD*%
%TA.AperFunction,SMDPad,CuDef*%
%ADD26RoundRect,0.225000X-0.250000X0.225000X-0.250000X-0.225000X0.250000X-0.225000X0.250000X0.225000X0*%
%TD*%
%TA.AperFunction,SMDPad,CuDef*%
%ADD27RoundRect,0.150000X-0.825000X-0.150000X0.825000X-0.150000X0.825000X0.150000X-0.825000X0.150000X0*%
%TD*%
%TA.AperFunction,HeatsinkPad*%
%ADD28R,2.290000X3.000000*%
%TD*%
%TA.AperFunction,SMDPad,CuDef*%
%ADD29RoundRect,0.218750X0.256250X-0.218750X0.256250X0.218750X-0.256250X0.218750X-0.256250X-0.218750X0*%
%TD*%
%TA.AperFunction,ComponentPad*%
%ADD30R,1.600000X1.600000*%
%TD*%
%TA.AperFunction,ComponentPad*%
%ADD31C,1.600000*%
%TD*%
%TA.AperFunction,ComponentPad*%
%ADD32C,4.000000*%
%TD*%
%TA.AperFunction,SMDPad,CuDef*%
%ADD33RoundRect,0.225000X0.250000X-0.225000X0.250000X0.225000X-0.250000X0.225000X-0.250000X-0.225000X0*%
%TD*%
%TA.AperFunction,SMDPad,CuDef*%
%ADD34RoundRect,0.250000X0.550000X-1.075000X0.550000X1.075000X-0.550000X1.075000X-0.550000X-1.075000X0*%
%TD*%
%TA.AperFunction,SMDPad,CuDef*%
%ADD35R,2.600000X1.900000*%
%TD*%
%TA.AperFunction,SMDPad,CuDef*%
%ADD36R,2.794000X0.406400*%
%TD*%
%TA.AperFunction,SMDPad,CuDef*%
%ADD37RoundRect,0.200000X0.200000X0.275000X-0.200000X0.275000X-0.200000X-0.275000X0.200000X-0.275000X0*%
%TD*%
%TA.AperFunction,ViaPad*%
%ADD38C,0.600000*%
%TD*%
%TA.AperFunction,ViaPad*%
%ADD39C,3.100000*%
%TD*%
%TA.AperFunction,ViaPad*%
%ADD40C,2.800000*%
%TD*%
%TA.AperFunction,Conductor*%
%ADD41C,0.400000*%
%TD*%
%TA.AperFunction,Conductor*%
%ADD42C,0.200000*%
%TD*%
%TA.AperFunction,Conductor*%
%ADD43C,0.500000*%
%TD*%
%TA.AperFunction,Conductor*%
%ADD44C,0.300000*%
%TD*%
G04 APERTURE END LIST*
D10*
D11*
X170403884Y-121822419D02*
X170403884Y-122631942D01*
X170403884Y-122631942D02*
X170451503Y-122727180D01*
X170451503Y-122727180D02*
X170499122Y-122774800D01*
X170499122Y-122774800D02*
X170594360Y-122822419D01*
X170594360Y-122822419D02*
X170784836Y-122822419D01*
X170784836Y-122822419D02*
X170880074Y-122774800D01*
X170880074Y-122774800D02*
X170927693Y-122727180D01*
X170927693Y-122727180D02*
X170975312Y-122631942D01*
X170975312Y-122631942D02*
X170975312Y-121822419D01*
X171403884Y-122774800D02*
X171546741Y-122822419D01*
X171546741Y-122822419D02*
X171784836Y-122822419D01*
X171784836Y-122822419D02*
X171880074Y-122774800D01*
X171880074Y-122774800D02*
X171927693Y-122727180D01*
X171927693Y-122727180D02*
X171975312Y-122631942D01*
X171975312Y-122631942D02*
X171975312Y-122536704D01*
X171975312Y-122536704D02*
X171927693Y-122441466D01*
X171927693Y-122441466D02*
X171880074Y-122393847D01*
X171880074Y-122393847D02*
X171784836Y-122346228D01*
X171784836Y-122346228D02*
X171594360Y-122298609D01*
X171594360Y-122298609D02*
X171499122Y-122250990D01*
X171499122Y-122250990D02*
X171451503Y-122203371D01*
X171451503Y-122203371D02*
X171403884Y-122108133D01*
X171403884Y-122108133D02*
X171403884Y-122012895D01*
X171403884Y-122012895D02*
X171451503Y-121917657D01*
X171451503Y-121917657D02*
X171499122Y-121870038D01*
X171499122Y-121870038D02*
X171594360Y-121822419D01*
X171594360Y-121822419D02*
X171832455Y-121822419D01*
X171832455Y-121822419D02*
X171975312Y-121870038D01*
X172737217Y-122298609D02*
X172880074Y-122346228D01*
X172880074Y-122346228D02*
X172927693Y-122393847D01*
X172927693Y-122393847D02*
X172975312Y-122489085D01*
X172975312Y-122489085D02*
X172975312Y-122631942D01*
X172975312Y-122631942D02*
X172927693Y-122727180D01*
X172927693Y-122727180D02*
X172880074Y-122774800D01*
X172880074Y-122774800D02*
X172784836Y-122822419D01*
X172784836Y-122822419D02*
X172403884Y-122822419D01*
X172403884Y-122822419D02*
X172403884Y-121822419D01*
X172403884Y-121822419D02*
X172737217Y-121822419D01*
X172737217Y-121822419D02*
X172832455Y-121870038D01*
X172832455Y-121870038D02*
X172880074Y-121917657D01*
X172880074Y-121917657D02*
X172927693Y-122012895D01*
X172927693Y-122012895D02*
X172927693Y-122108133D01*
X172927693Y-122108133D02*
X172880074Y-122203371D01*
X172880074Y-122203371D02*
X172832455Y-122250990D01*
X172832455Y-122250990D02*
X172737217Y-122298609D01*
X172737217Y-122298609D02*
X172403884Y-122298609D01*
X173975312Y-122727180D02*
X173927693Y-122774800D01*
X173927693Y-122774800D02*
X173784836Y-122822419D01*
X173784836Y-122822419D02*
X173689598Y-122822419D01*
X173689598Y-122822419D02*
X173546741Y-122774800D01*
X173546741Y-122774800D02*
X173451503Y-122679561D01*
X173451503Y-122679561D02*
X173403884Y-122584323D01*
X173403884Y-122584323D02*
X173356265Y-122393847D01*
X173356265Y-122393847D02*
X173356265Y-122250990D01*
X173356265Y-122250990D02*
X173403884Y-122060514D01*
X173403884Y-122060514D02*
X173451503Y-121965276D01*
X173451503Y-121965276D02*
X173546741Y-121870038D01*
X173546741Y-121870038D02*
X173689598Y-121822419D01*
X173689598Y-121822419D02*
X173784836Y-121822419D01*
X173784836Y-121822419D02*
X173927693Y-121870038D01*
X173927693Y-121870038D02*
X173975312Y-121917657D01*
X174356265Y-122536704D02*
X174832455Y-122536704D01*
X174261027Y-122822419D02*
X174594360Y-121822419D01*
X174594360Y-121822419D02*
X174927693Y-122822419D01*
X175261027Y-122822419D02*
X175261027Y-121822419D01*
X175261027Y-121822419D02*
X175832455Y-122822419D01*
X175832455Y-122822419D02*
X175832455Y-121822419D01*
X176308646Y-122441466D02*
X177070551Y-122441466D01*
X177451503Y-121822419D02*
X178118169Y-122822419D01*
X178118169Y-121822419D02*
X177451503Y-122822419D01*
X178451503Y-121917657D02*
X178499122Y-121870038D01*
X178499122Y-121870038D02*
X178594360Y-121822419D01*
X178594360Y-121822419D02*
X178832455Y-121822419D01*
X178832455Y-121822419D02*
X178927693Y-121870038D01*
X178927693Y-121870038D02*
X178975312Y-121917657D01*
X178975312Y-121917657D02*
X179022931Y-122012895D01*
X179022931Y-122012895D02*
X179022931Y-122108133D01*
X179022931Y-122108133D02*
X178975312Y-122250990D01*
X178975312Y-122250990D02*
X178403884Y-122822419D01*
X178403884Y-122822419D02*
X179022931Y-122822419D01*
D12*
D13*
X183308207Y-122882069D02*
X182974874Y-122405878D01*
X182736779Y-122882069D02*
X182736779Y-121882069D01*
X182736779Y-121882069D02*
X183117731Y-121882069D01*
X183117731Y-121882069D02*
X183212969Y-121929688D01*
X183212969Y-121929688D02*
X183260588Y-121977307D01*
X183260588Y-121977307D02*
X183308207Y-122072545D01*
X183308207Y-122072545D02*
X183308207Y-122215402D01*
X183308207Y-122215402D02*
X183260588Y-122310640D01*
X183260588Y-122310640D02*
X183212969Y-122358259D01*
X183212969Y-122358259D02*
X183117731Y-122405878D01*
X183117731Y-122405878D02*
X182736779Y-122405878D01*
X183736779Y-122358259D02*
X184070112Y-122358259D01*
X184212969Y-122882069D02*
X183736779Y-122882069D01*
X183736779Y-122882069D02*
X183736779Y-121882069D01*
X183736779Y-121882069D02*
X184212969Y-121882069D01*
X184498684Y-121882069D02*
X184832017Y-122882069D01*
X184832017Y-122882069D02*
X185165350Y-121882069D01*
X186784398Y-122882069D02*
X186212970Y-122882069D01*
X186498684Y-122882069D02*
X186498684Y-121882069D01*
X186498684Y-121882069D02*
X186403446Y-122024926D01*
X186403446Y-122024926D02*
X186308208Y-122120164D01*
X186308208Y-122120164D02*
X186212970Y-122167783D01*
D14*
%TO.P,J7,1,Pin_1*%
%TO.N,GND*%
X152550000Y-114950000D03*
D15*
%TO.P,J7,2,Pin_2*%
%TO.N,SWDCLK*%
X152550000Y-117490000D03*
%TO.P,J7,3,Pin_3*%
%TO.N,SWDIO*%
X152550000Y-120030000D03*
%TO.P,J7,4,Pin_4*%
%TO.N,3.3V*%
X152550000Y-122570000D03*
%TD*%
D16*
%TO.P,U1,1,VBAT*%
%TO.N,3.3V*%
X154300000Y-106000000D03*
%TO.P,U1,2,PC13*%
%TO.N,unconnected-(U1-PC13-Pad2)*%
X154300000Y-105500000D03*
%TO.P,U1,3,PC14*%
%TO.N,unconnected-(U1-PC14-Pad3)*%
X154300000Y-105000000D03*
%TO.P,U1,4,PC15*%
%TO.N,unconnected-(U1-PC15-Pad4)*%
X154300000Y-104500000D03*
%TO.P,U1,5,PF0*%
%TO.N,Net-(U1-PF0)*%
X154300000Y-104000000D03*
%TO.P,U1,6,PF1*%
%TO.N,Net-(U1-PF1)*%
X154300000Y-103500000D03*
%TO.P,U1,7,PG10*%
%TO.N,unconnected-(U1-PG10-Pad7)*%
X154300000Y-103000000D03*
%TO.P,U1,8,PA0*%
%TO.N,/LED_PA0*%
X154300000Y-102500000D03*
%TO.P,U1,9,PA1*%
%TO.N,/LED_PA1*%
X154300000Y-102000000D03*
%TO.P,U1,10,PA2*%
%TO.N,/LED_PA2*%
X154300000Y-101500000D03*
%TO.P,U1,11,PA3*%
%TO.N,unconnected-(U1-PA3-Pad11)*%
X154300000Y-101000000D03*
%TO.P,U1,12,PA4*%
%TO.N,unconnected-(U1-PA4-Pad12)*%
X154300000Y-100500000D03*
D17*
%TO.P,U1,13,PA5*%
%TO.N,unconnected-(U1-PA5-Pad13)*%
X152887500Y-99087500D03*
%TO.P,U1,14,PA6*%
%TO.N,unconnected-(U1-PA6-Pad14)*%
X152387500Y-99087500D03*
%TO.P,U1,15,PA7*%
%TO.N,unconnected-(U1-PA7-Pad15)*%
X151887500Y-99087500D03*
%TO.P,U1,16,PB0*%
%TO.N,unconnected-(U1-PB0-Pad16)*%
X151387500Y-99087500D03*
%TO.P,U1,17,PB1*%
%TO.N,unconnected-(U1-PB1-Pad17)*%
X150887500Y-99087500D03*
%TO.P,U1,18,PB2*%
%TO.N,unconnected-(U1-PB2-Pad18)*%
X150387500Y-99087500D03*
%TO.P,U1,19,VSSA*%
%TO.N,GND*%
X149887500Y-99087500D03*
%TO.P,U1,20,VREF+*%
%TO.N,3.3V*%
X149387500Y-99087500D03*
%TO.P,U1,21,VDDA*%
X148887500Y-99087500D03*
%TO.P,U1,22,PB10*%
%TO.N,unconnected-(U1-PB10-Pad22)*%
X148387500Y-99087500D03*
%TO.P,U1,23,VSS*%
%TO.N,GND*%
X147887500Y-99087500D03*
%TO.P,U1,24,VDD*%
%TO.N,3.3V*%
X147387500Y-99087500D03*
D16*
%TO.P,U1,25,PB11*%
%TO.N,unconnected-(U1-PB11-Pad25)*%
X145975000Y-100500000D03*
%TO.P,U1,26,PB12*%
%TO.N,CAN2_RX*%
X145975000Y-101000000D03*
%TO.P,U1,27,PB13*%
%TO.N,CAN2_TX*%
X145975000Y-101500000D03*
%TO.P,U1,28,PB14*%
%TO.N,unconnected-(U1-PB14-Pad28)*%
X145975000Y-102000000D03*
%TO.P,U1,29,PB15*%
%TO.N,unconnected-(U1-PB15-Pad29)*%
X145975000Y-102500000D03*
%TO.P,U1,30,PA8*%
%TO.N,unconnected-(U1-PA8-Pad30)*%
X145975000Y-103000000D03*
%TO.P,U1,31,PA9*%
%TO.N,unconnected-(U1-PA9-Pad31)*%
X145975000Y-103500000D03*
%TO.P,U1,32,PA10*%
%TO.N,unconnected-(U1-PA10-Pad32)*%
X145975000Y-104000000D03*
%TO.P,U1,33,PA11*%
%TO.N,USB_N*%
X145975000Y-104500000D03*
%TO.P,U1,34,PA12*%
%TO.N,USB_P*%
X145975000Y-105000000D03*
%TO.P,U1,35,VSS*%
%TO.N,GND*%
X145975000Y-105500000D03*
%TO.P,U1,36,VDD*%
%TO.N,3.3V*%
X145975000Y-106000000D03*
D17*
%TO.P,U1,37,PA13*%
%TO.N,SWDIO*%
X147387500Y-107412500D03*
%TO.P,U1,38,PA14*%
%TO.N,SWDCLK*%
X147887500Y-107412500D03*
%TO.P,U1,39,PA15*%
%TO.N,unconnected-(U1-PA15-Pad39)*%
X148387500Y-107412500D03*
%TO.P,U1,40,PB3*%
%TO.N,unconnected-(U1-PB3-Pad40)*%
X148887500Y-107412500D03*
%TO.P,U1,41,PB4*%
%TO.N,unconnected-(U1-PB4-Pad41)*%
X149387500Y-107412500D03*
%TO.P,U1,42,PB5*%
%TO.N,unconnected-(U1-PB5-Pad42)*%
X149887500Y-107412500D03*
%TO.P,U1,43,PB6*%
%TO.N,unconnected-(U1-PB6-Pad43)*%
X150387500Y-107412500D03*
%TO.P,U1,44,PB7*%
%TO.N,unconnected-(U1-PB7-Pad44)*%
X150887500Y-107412500D03*
%TO.P,U1,45,PB8*%
%TO.N,CAN1_RX*%
X151387500Y-107412500D03*
%TO.P,U1,46,PB9*%
%TO.N,CAN1_TX*%
X151887500Y-107412500D03*
%TO.P,U1,47,VSS*%
%TO.N,GND*%
X152387500Y-107412500D03*
%TO.P,U1,48,VDD*%
%TO.N,3.3V*%
X152887500Y-107412500D03*
%TD*%
D18*
%TO.P,C9,1*%
%TO.N,GND*%
X159300000Y-110000000D03*
%TO.P,C9,2*%
%TO.N,Net-(U1-PF0)*%
X160850000Y-110000000D03*
%TD*%
D19*
%TO.P,R3,1*%
%TO.N,CAN1_RX*%
X144400000Y-115275000D03*
%TO.P,R3,2*%
%TO.N,GND*%
X144400000Y-116925000D03*
%TD*%
D14*
%TO.P,J6,1,Pin_1*%
%TO.N,CAN1_N*%
X177600000Y-100700000D03*
D15*
%TO.P,J6,2,Pin_2*%
%TO.N,Net-(J2-Pin_4)*%
X177600000Y-103240000D03*
%TD*%
D20*
%TO.P,J2,1,Pin_1*%
%TO.N,CAN1_P*%
X183907500Y-92695000D03*
D21*
%TO.P,J2,2,Pin_2*%
%TO.N,CAN1_N*%
X183907500Y-96195000D03*
%TO.P,J2,3,Pin_3*%
X183907500Y-99695000D03*
%TO.P,J2,4,Pin_4*%
%TO.N,Net-(J2-Pin_4)*%
X183907500Y-103195000D03*
%TO.P,J2,5,Pin_5*%
%TO.N,CAN2_P*%
X183907500Y-106695000D03*
%TO.P,J2,6,Pin_6*%
%TO.N,CAN2_N*%
X183907500Y-110195000D03*
%TO.P,J2,7,Pin_7*%
X183907500Y-113695000D03*
%TO.P,J2,8,Pin_8*%
%TO.N,Net-(J2-Pin_8)*%
X183907500Y-117195000D03*
%TD*%
D22*
%TO.P,C7,1*%
%TO.N,3.3V*%
X153575000Y-110500000D03*
%TO.P,C7,2*%
%TO.N,GND*%
X152025000Y-110500000D03*
%TD*%
D23*
%TO.P,R7,1*%
%TO.N,/LED_PA2*%
X162200000Y-113500000D03*
%TO.P,R7,2*%
%TO.N,Net-(D3-A)*%
X163850000Y-113500000D03*
%TD*%
%TO.P,R2,1*%
%TO.N,/LED_PA1*%
X156500000Y-113500000D03*
%TO.P,R2,2*%
%TO.N,Net-(D2-A)*%
X158150000Y-113500000D03*
%TD*%
D19*
%TO.P,R5,1*%
%TO.N,CAN1_P*%
X178500000Y-94575000D03*
%TO.P,R5,2*%
%TO.N,Net-(J2-Pin_4)*%
X178500000Y-96225000D03*
%TD*%
D24*
%TO.P,U2,1,VI*%
%TO.N,5V*%
X138110000Y-93300000D03*
%TO.P,U2,2,GND*%
%TO.N,GND*%
X138110000Y-91000000D03*
D25*
X131810000Y-91000000D03*
D24*
%TO.P,U2,3,VO*%
%TO.N,3.3V*%
X138110000Y-88700000D03*
%TD*%
D26*
%TO.P,C3,1*%
%TO.N,3.3V*%
X157800000Y-105725000D03*
%TO.P,C3,2*%
%TO.N,GND*%
X157800000Y-107275000D03*
%TD*%
D19*
%TO.P,R4,1*%
%TO.N,3.3V*%
X141200000Y-107725000D03*
%TO.P,R4,2*%
%TO.N,Net-(J3-Pin_1)*%
X141200000Y-109375000D03*
%TD*%
D27*
%TO.P,U3,1,TXD*%
%TO.N,CAN1_TX*%
X169905000Y-92795000D03*
%TO.P,U3,2,VSS*%
%TO.N,GND*%
X169905000Y-94065000D03*
%TO.P,U3,3,VDD*%
%TO.N,5V*%
X169905000Y-95335000D03*
%TO.P,U3,4,RXD*%
%TO.N,CAN1_RX*%
X169905000Y-96605000D03*
%TO.P,U3,5,VIO*%
%TO.N,3.3V*%
X174855000Y-96605000D03*
%TO.P,U3,6,CANL*%
%TO.N,CAN1_N*%
X174855000Y-95335000D03*
%TO.P,U3,7,CANH*%
%TO.N,CAN1_P*%
X174855000Y-94065000D03*
%TO.P,U3,8,STBY*%
%TO.N,GND*%
X174855000Y-92795000D03*
D28*
%TO.P,U3,9,VSS*%
X172380000Y-94700000D03*
%TD*%
D29*
%TO.P,D3,1,K*%
%TO.N,GND*%
X167500000Y-119887500D03*
%TO.P,D3,2,A*%
%TO.N,Net-(D3-A)*%
X167500000Y-118312500D03*
%TD*%
D30*
%TO.P,J1,1,VBUS*%
%TO.N,5V*%
X137087500Y-106250000D03*
D31*
%TO.P,J1,2,D-*%
%TO.N,USB_N*%
X137087500Y-103750000D03*
%TO.P,J1,3,D+*%
%TO.N,USB_P*%
X135087500Y-103750000D03*
%TO.P,J1,4,GND*%
%TO.N,GND*%
X135087500Y-106250000D03*
D32*
%TO.P,J1,5,Shield*%
X132227500Y-111000000D03*
X132227500Y-99000000D03*
%TD*%
D18*
%TO.P,C2,1*%
%TO.N,3.3V*%
X145025000Y-96000000D03*
%TO.P,C2,2*%
%TO.N,GND*%
X146575000Y-96000000D03*
%TD*%
%TO.P,C4,1*%
%TO.N,3.3V*%
X149025000Y-96000000D03*
%TO.P,C4,2*%
%TO.N,GND*%
X150575000Y-96000000D03*
%TD*%
D19*
%TO.P,R6,1*%
%TO.N,CAN2_P*%
X178500000Y-108175000D03*
%TO.P,R6,2*%
%TO.N,Net-(J2-Pin_8)*%
X178500000Y-109825000D03*
%TD*%
D22*
%TO.P,C10,1*%
%TO.N,Net-(U1-PF1)*%
X160575000Y-100000000D03*
%TO.P,C10,2*%
%TO.N,GND*%
X159025000Y-100000000D03*
%TD*%
D29*
%TO.P,D1,1,K*%
%TO.N,GND*%
X147500000Y-119787500D03*
%TO.P,D1,2,A*%
%TO.N,Net-(D1-A)*%
X147500000Y-118212500D03*
%TD*%
D33*
%TO.P,C6,1*%
%TO.N,5V*%
X166100000Y-95675000D03*
%TO.P,C6,2*%
%TO.N,GND*%
X166100000Y-94125000D03*
%TD*%
%TO.P,C1,1*%
%TO.N,3.3V*%
X143350000Y-106725000D03*
%TO.P,C1,2*%
%TO.N,GND*%
X143350000Y-105175000D03*
%TD*%
D14*
%TO.P,J3,1,Pin_1*%
%TO.N,Net-(J3-Pin_1)*%
X141825000Y-112400000D03*
D15*
%TO.P,J3,2,Pin_2*%
%TO.N,CAN1_RX*%
X144365000Y-112400000D03*
%TD*%
D14*
%TO.P,J5,1,Pin_1*%
%TO.N,CAN2_N*%
X177600000Y-114625000D03*
D15*
%TO.P,J5,2,Pin_2*%
%TO.N,Net-(J2-Pin_8)*%
X177600000Y-117165000D03*
%TD*%
D29*
%TO.P,D2,1,K*%
%TO.N,GND*%
X157500000Y-119787500D03*
%TO.P,D2,2,A*%
%TO.N,Net-(D2-A)*%
X157500000Y-118212500D03*
%TD*%
D34*
%TO.P,C5,1*%
%TO.N,5V*%
X145800000Y-92275000D03*
%TO.P,C5,2*%
%TO.N,GND*%
X145800000Y-88925000D03*
%TD*%
D27*
%TO.P,U4,1,TXD*%
%TO.N,CAN2_TX*%
X169995000Y-106445000D03*
%TO.P,U4,2,VSS*%
%TO.N,GND*%
X169995000Y-107715000D03*
%TO.P,U4,3,VDD*%
%TO.N,5V*%
X169995000Y-108985000D03*
%TO.P,U4,4,RXD*%
%TO.N,CAN2_RX*%
X169995000Y-110255000D03*
%TO.P,U4,5,VIO*%
%TO.N,3.3V*%
X174945000Y-110255000D03*
%TO.P,U4,6,CANL*%
%TO.N,CAN2_N*%
X174945000Y-108985000D03*
%TO.P,U4,7,CANH*%
%TO.N,CAN2_P*%
X174945000Y-107715000D03*
%TO.P,U4,8,STBY*%
%TO.N,GND*%
X174945000Y-106445000D03*
D28*
%TO.P,U4,9,VSS*%
X172470000Y-108350000D03*
%TD*%
D35*
%TO.P,Y1,1,1*%
%TO.N,Net-(U1-PF1)*%
X161800000Y-102850000D03*
%TO.P,Y1,2,2*%
%TO.N,Net-(U1-PF0)*%
X161800000Y-107150000D03*
%TD*%
D33*
%TO.P,C8,1*%
%TO.N,5V*%
X167200000Y-109175000D03*
%TO.P,C8,2*%
%TO.N,GND*%
X167200000Y-107625000D03*
%TD*%
D36*
%TO.P,J4,1,Pin_1*%
%TO.N,3.3V*%
X137832000Y-122340000D03*
%TO.P,J4,2,Pin_2*%
%TO.N,SWDIO*%
X133768000Y-122340000D03*
%TO.P,J4,3,Pin_3*%
%TO.N,GND*%
X137832000Y-121070000D03*
%TO.P,J4,4,Pin_4*%
%TO.N,SWDCLK*%
X133768000Y-121070000D03*
%TO.P,J4,5,Pin_5*%
%TO.N,GND*%
X137832000Y-119800000D03*
%TO.P,J4,6,Pin_6*%
%TO.N,unconnected-(J4-Pin_6-Pad6)*%
X133768000Y-119800000D03*
%TO.P,J4,7,Pin_7*%
%TO.N,unconnected-(J4-Pin_7-Pad7)*%
X137832000Y-118530000D03*
%TO.P,J4,8,Pin_8*%
%TO.N,unconnected-(J4-Pin_8-Pad8)*%
X133768000Y-118530000D03*
%TO.P,J4,9,Pin_9*%
%TO.N,GND*%
X137832000Y-117260000D03*
%TO.P,J4,10,Pin_10*%
%TO.N,unconnected-(J4-Pin_10-Pad10)*%
X133768000Y-117260000D03*
%TD*%
D37*
%TO.P,R1,1*%
%TO.N,/LED_PA0*%
X148825000Y-113500000D03*
%TO.P,R1,2*%
%TO.N,Net-(D1-A)*%
X147175000Y-113500000D03*
%TD*%
D38*
%TO.N,GND*%
X142200000Y-118000000D03*
X142200000Y-116975000D03*
%TO.N,SWDCLK*%
X131325000Y-121075000D03*
%TO.N,CAN2_TX*%
X144225000Y-101500000D03*
X144625000Y-109625000D03*
%TO.N,GND*%
X141600000Y-104775000D03*
X150000000Y-122900000D03*
X162500000Y-122950000D03*
X160025000Y-122950000D03*
X147750000Y-97350000D03*
X157775000Y-108875000D03*
D39*
%TO.N,*%
X152500000Y-90000000D03*
D38*
%TO.N,/LED_PA0*%
X156019000Y-115231000D03*
X156459000Y-102874000D03*
%TO.N,/LED_PA1*%
X155584000Y-102020000D03*
X155318000Y-113172000D03*
%TO.N,GND*%
X165000000Y-111000000D03*
X172100000Y-103000000D03*
X166000000Y-103000000D03*
X174000000Y-103000000D03*
D40*
X186264398Y-88162869D03*
D38*
X150525000Y-110600000D03*
X166000000Y-102000000D03*
%TO.N,CAN1_RX*%
X158700000Y-96000000D03*
%TO.N,3.3V*%
X140221000Y-107656000D03*
X140200000Y-95513100D03*
X141650000Y-119275000D03*
X176700000Y-96600000D03*
X140100000Y-88700000D03*
%TO.N,5V*%
X167200000Y-110400000D03*
X167881000Y-95403200D03*
X138100000Y-95400000D03*
%TO.N,CAN2_TX*%
X154878000Y-109307000D03*
X149075000Y-109475000D03*
%TO.N,/LED_PA2*%
X161132000Y-113186000D03*
X158981000Y-101300000D03*
%TO.N,SWDIO*%
X146442000Y-107342000D03*
X131300000Y-122300000D03*
%TO.N,SWDCLK*%
X147900000Y-109475000D03*
%TO.N,CAN1_TX*%
X151930000Y-108931000D03*
X166900000Y-92800000D03*
%TO.N,CAN2_RX*%
X145994000Y-113057000D03*
X144225000Y-100525000D03*
%TD*%
D41*
%TO.N,3.3V*%
X145300000Y-121500000D02*
X152550000Y-121500000D01*
X144200000Y-120400000D02*
X145300000Y-121500000D01*
X141712000Y-120400000D02*
X144200000Y-120400000D01*
X141612000Y-119313000D02*
X141612000Y-120388000D01*
X141650000Y-120338000D02*
X141712000Y-120400000D01*
X141612000Y-120388000D02*
X139660000Y-122340000D01*
X141650000Y-119275000D02*
X141612000Y-119313000D01*
X139660000Y-122340000D02*
X137832000Y-122340000D01*
X141650000Y-119275000D02*
X141650000Y-120338000D01*
D42*
%TO.N,SWDCLK*%
X131330000Y-121070000D02*
X131325000Y-121075000D01*
X133768000Y-121070000D02*
X131330000Y-121070000D01*
%TO.N,CAN2_RX*%
X144334100Y-100525000D02*
X144225000Y-100525000D01*
X145975000Y-101000000D02*
X144809100Y-101000000D01*
X144809100Y-101000000D02*
X144334100Y-100525000D01*
%TO.N,CAN2_TX*%
X144225000Y-101500000D02*
X145975000Y-101500000D01*
X145275000Y-110275000D02*
X144625000Y-109625000D01*
X148200000Y-110275000D02*
X145275000Y-110275000D01*
X149075000Y-109475000D02*
X148275000Y-110275000D01*
X148275000Y-110275000D02*
X148200000Y-110275000D01*
D43*
%TO.N,3.3V*%
X145025000Y-96000000D02*
X145025000Y-94825000D01*
X145025000Y-94825000D02*
X147850300Y-94825000D01*
X147850300Y-94825000D02*
X148213000Y-95187700D01*
X140888100Y-94825000D02*
X145025000Y-94825000D01*
X148213000Y-95187700D02*
X149025000Y-96000000D01*
X140200000Y-95513100D02*
X140888100Y-94825000D01*
D41*
%TO.N,5V*%
X138110000Y-95015000D02*
X138110000Y-93300000D01*
X138100000Y-95025000D02*
X138110000Y-95015000D01*
X138100000Y-95400000D02*
X138100000Y-95025000D01*
X138135000Y-93275000D02*
X138110000Y-93300000D01*
X140600000Y-93275000D02*
X138135000Y-93275000D01*
X141600000Y-92275000D02*
X140600000Y-93275000D01*
X145800000Y-92275000D02*
X141600000Y-92275000D01*
D42*
%TO.N,GND*%
X150575000Y-96850000D02*
X150575000Y-96000000D01*
X149887500Y-97537500D02*
X150575000Y-96850000D01*
D44*
X149887500Y-99087500D02*
X149887500Y-97537500D01*
D42*
X147887500Y-97487500D02*
X147750000Y-97350000D01*
D44*
X147887500Y-99087500D02*
X147887500Y-97487500D01*
D42*
%TO.N,3.3V*%
X152550000Y-122570000D02*
X152550000Y-121500000D01*
D41*
X152550000Y-121500000D02*
X168060000Y-121500000D01*
D42*
%TO.N,GND*%
X147500000Y-119787500D02*
X147499500Y-119788000D01*
%TO.N,/LED_PA0*%
X154288000Y-113500000D02*
X156019000Y-115231000D01*
X156459000Y-102874000D02*
X155530000Y-102874000D01*
X155157000Y-102500000D02*
X154300000Y-102500000D01*
X155530000Y-102874000D02*
X155157000Y-102500000D01*
X148825000Y-113500000D02*
X154288000Y-113500000D01*
%TO.N,Net-(D1-A)*%
X147175000Y-113500000D02*
X147175000Y-117888000D01*
X147175000Y-117888000D02*
X147500000Y-118212000D01*
X147500000Y-118212500D02*
X147500000Y-118212000D01*
%TO.N,/LED_PA1*%
X155646000Y-113500000D02*
X155318000Y-113172000D01*
X155564000Y-102000000D02*
X155584000Y-102020000D01*
X156500000Y-113500000D02*
X155646000Y-113500000D01*
X154300000Y-102000000D02*
X155564000Y-102000000D01*
%TO.N,Net-(D2-A)*%
X158150000Y-117562000D02*
X157500000Y-118212000D01*
X157500000Y-118212500D02*
X157500000Y-118212000D01*
X158150000Y-113500000D02*
X158150000Y-117562000D01*
%TO.N,GND*%
X152388000Y-107975000D02*
X152388000Y-107413000D01*
X159300000Y-108775000D02*
X159300000Y-110000000D01*
X138681000Y-119800000D02*
X138773000Y-119800000D01*
X138681000Y-119800000D02*
X137832000Y-119800000D01*
X152388000Y-108538000D02*
X152388000Y-107975000D01*
X167500000Y-119887500D02*
X167500000Y-119888000D01*
X138427000Y-91000000D02*
X138110000Y-91000000D01*
X149887500Y-99087500D02*
X149888000Y-99087500D01*
X147500500Y-119788000D02*
X147500000Y-119787500D01*
X152532000Y-108682000D02*
X152388000Y-108538000D01*
X157600000Y-119888000D02*
X157500000Y-119788000D01*
X135088000Y-106295000D02*
X135088000Y-106250000D01*
X138773000Y-119800000D02*
X138681000Y-119800000D01*
X152532000Y-110399000D02*
X152532000Y-108682000D01*
X143805000Y-105500000D02*
X145975000Y-105500000D01*
X135087500Y-106250000D02*
X135088000Y-106250000D01*
X157800000Y-107275000D02*
X159300000Y-108775000D01*
X170298000Y-94065000D02*
X169905000Y-94065000D01*
X143350000Y-105175000D02*
X143675000Y-105500000D01*
X132228000Y-112177000D02*
X132228000Y-111000000D01*
X152388000Y-107975000D02*
X152388000Y-107412000D01*
X143675000Y-105500000D02*
X143805000Y-105500000D01*
X157500000Y-119787500D02*
X157500000Y-119788000D01*
X152025000Y-110500000D02*
X152431000Y-110500000D01*
X147887500Y-99087500D02*
X147888000Y-99087500D01*
X152431000Y-110500000D02*
X152532000Y-110399000D01*
X132228000Y-112177000D02*
X132227500Y-112176500D01*
X152388000Y-107413000D02*
X152387500Y-107412500D01*
%TO.N,CAN1_RX*%
X151388000Y-107413000D02*
X151387500Y-107412500D01*
X151388000Y-107816500D02*
X151388000Y-107413000D01*
X158700000Y-96000000D02*
X162500000Y-96000000D01*
X145126000Y-111639000D02*
X144365000Y-112400000D01*
X144400000Y-115275000D02*
X144400000Y-112435000D01*
X162500000Y-96000000D02*
X163105000Y-96605000D01*
X151388000Y-107816500D02*
X151388000Y-108221000D01*
X151388000Y-108221000D02*
X147970000Y-111639000D01*
X147970000Y-111639000D02*
X145126000Y-111639000D01*
X144400000Y-112435000D02*
X144365000Y-112400000D01*
X163105000Y-96605000D02*
X169905000Y-96605000D01*
X151388000Y-107412000D02*
X151388000Y-107816500D01*
D41*
%TO.N,3.3V*%
X149025000Y-96475000D02*
X148887500Y-96612500D01*
D42*
X152887500Y-107412500D02*
X152888400Y-107412500D01*
X152910300Y-107434400D02*
X152888000Y-107412000D01*
D41*
X168060000Y-121500000D02*
X174945000Y-114615000D01*
D44*
X154300000Y-106000000D02*
X157525000Y-106000000D01*
X152888000Y-107412000D02*
X154300000Y-106000000D01*
D42*
X157525000Y-106000000D02*
X157800000Y-105725000D01*
D44*
X145250000Y-106725000D02*
X145975000Y-106000000D01*
D42*
X148887500Y-99087500D02*
X148888000Y-99087500D01*
D43*
X145025000Y-96725000D02*
X147286500Y-98986500D01*
X140100000Y-88700000D02*
X138110000Y-88700000D01*
D44*
X153575000Y-108100000D02*
X152910300Y-107434400D01*
D42*
X148888000Y-99087500D02*
X149387500Y-99087500D01*
X152888400Y-107412500D02*
X152910300Y-107434400D01*
D41*
X140221000Y-107656000D02*
X141131000Y-107656000D01*
D44*
X153575000Y-110500000D02*
X153575000Y-108100000D01*
D43*
X174855000Y-96605000D02*
X176695000Y-96605000D01*
D41*
X174945000Y-114615000D02*
X174945000Y-110255000D01*
D42*
X149025000Y-96000000D02*
X149025000Y-96475000D01*
X141131000Y-107656000D02*
X141200000Y-107725000D01*
D43*
X145025000Y-96000000D02*
X145025000Y-96725000D01*
D41*
X143350000Y-106725000D02*
X145250000Y-106725000D01*
D43*
X147286500Y-98986500D02*
X147286500Y-99087500D01*
D44*
X145975000Y-106000000D02*
X154300000Y-106000000D01*
X148887500Y-96612500D02*
X148887500Y-99087500D01*
D41*
X142350000Y-107725000D02*
X143350000Y-106725000D01*
X141200000Y-107725000D02*
X142350000Y-107725000D01*
D42*
X149387500Y-99087500D02*
X149388000Y-99087500D01*
X176695000Y-96605000D02*
X176700000Y-96600000D01*
%TO.N,Net-(J3-Pin_1)*%
X141825000Y-111248000D02*
X141200000Y-110623000D01*
X141200000Y-110623000D02*
X141200000Y-109375000D01*
X141825000Y-112400000D02*
X141825000Y-111248000D01*
D41*
%TO.N,5V*%
X167609200Y-95675000D02*
X167881000Y-95403200D01*
X146202000Y-92676700D02*
X161702000Y-92676700D01*
D42*
X167881000Y-95403200D02*
X167949000Y-95335000D01*
D41*
X164700300Y-95675000D02*
X166100000Y-95675000D01*
D42*
X167390000Y-108985000D02*
X167200000Y-109175000D01*
D41*
X169995000Y-108985000D02*
X167390000Y-108985000D01*
X161702000Y-92676700D02*
X164700300Y-95675000D01*
D42*
X167772000Y-95403200D02*
X167881000Y-95403200D01*
D41*
X166100000Y-95675000D02*
X167609200Y-95675000D01*
X167949000Y-95335000D02*
X169905000Y-95335000D01*
D42*
X145800000Y-92275000D02*
X146202000Y-92676700D01*
D41*
X167200000Y-109175000D02*
X167200000Y-110400000D01*
D42*
%TO.N,CAN2_TX*%
X166455000Y-106445000D02*
X169995000Y-106445000D01*
X161717000Y-111183000D02*
X166455000Y-106445000D01*
X154878000Y-109307000D02*
X156754000Y-111183000D01*
X156754000Y-111183000D02*
X161717000Y-111183000D01*
%TO.N,/LED_PA2*%
X155252000Y-101500000D02*
X154300000Y-101500000D01*
X158981000Y-101300000D02*
X155452000Y-101300000D01*
X161132000Y-113186000D02*
X161886000Y-113186000D01*
X161886000Y-113186000D02*
X162200000Y-113500000D01*
X155452000Y-101300000D02*
X155252000Y-101500000D01*
%TO.N,SWDIO*%
X147317000Y-107342000D02*
X147388000Y-107412000D01*
X133768000Y-122340000D02*
X131340000Y-122340000D01*
X146442000Y-107342000D02*
X146659000Y-107342000D01*
X147387500Y-107412500D02*
X147388000Y-107412000D01*
X146442000Y-107342000D02*
X146659000Y-107342000D01*
X146659000Y-107342000D02*
X147317000Y-107342000D01*
X146659000Y-107342000D02*
X146442000Y-107342000D01*
X131340000Y-122340000D02*
X131300000Y-122300000D01*
%TO.N,SWDCLK*%
X147887500Y-109462500D02*
X147900000Y-109475000D01*
X147887500Y-107412500D02*
X147887500Y-109462500D01*
X147888000Y-107413000D02*
X147887500Y-107412500D01*
X147888000Y-107412000D02*
X147888000Y-107825000D01*
X147888000Y-107825000D02*
X147888000Y-107413000D01*
%TO.N,USB_P*%
X136188500Y-104851000D02*
X135087500Y-103750000D01*
X139674000Y-104851000D02*
X136188500Y-104851000D01*
X144843749Y-104975000D02*
X144556802Y-104975000D01*
X135087500Y-103750000D02*
X135088000Y-103750000D01*
X143306802Y-103725000D02*
X140800000Y-103725000D01*
X144556802Y-104975000D02*
X143306802Y-103725000D01*
X140800000Y-103725000D02*
X139674000Y-104851000D01*
X145975000Y-105000000D02*
X144868749Y-105000000D01*
X144868749Y-105000000D02*
X144843749Y-104975000D01*
%TO.N,CAN1_TX*%
X151908500Y-107433500D02*
X151887500Y-107412500D01*
X169900000Y-92800000D02*
X169905000Y-92795000D01*
X151909000Y-107433500D02*
X151930000Y-107455000D01*
X166900000Y-92800000D02*
X169900000Y-92800000D01*
X151888000Y-107412000D02*
X151909000Y-107433500D01*
X151909000Y-107433500D02*
X151908500Y-107433500D01*
X151930000Y-107455000D02*
X151930000Y-108931000D01*
%TO.N,CAN2_RX*%
X145994000Y-113057000D02*
X146511000Y-112540000D01*
X166160000Y-112540000D02*
X168445000Y-110255000D01*
X146511000Y-112540000D02*
X166160000Y-112540000D01*
X168445000Y-110255000D02*
X169995000Y-110255000D01*
%TO.N,CAN1_P*%
X183908000Y-92695000D02*
X183907500Y-92695000D01*
D44*
X179787499Y-94065000D02*
X174855000Y-94065000D01*
X180854726Y-94065000D02*
X179787499Y-94065000D01*
X183907500Y-92695000D02*
X183305000Y-92695000D01*
X183305000Y-92695000D02*
X181935000Y-94065000D01*
X181935000Y-94065000D02*
X180854726Y-94065000D01*
%TO.N,CAN1_N*%
X177600000Y-95335000D02*
X183037500Y-95335000D01*
D42*
X183907500Y-99695000D02*
X183907700Y-99694800D01*
X183478000Y-95765000D02*
X183907500Y-96194500D01*
X177600000Y-100700000D02*
X177600000Y-95335000D01*
X183902500Y-96200000D02*
X183907500Y-96195000D01*
D44*
X183037500Y-95335000D02*
X183902500Y-96200000D01*
D42*
X183712000Y-99500000D02*
X183907700Y-99694800D01*
X183478000Y-95765000D02*
X183908000Y-96195000D01*
X183907500Y-96194500D02*
X183907500Y-96195000D01*
X183907700Y-99694800D02*
X183908000Y-99695000D01*
D44*
X174855000Y-95335000D02*
X177600000Y-95335000D01*
D42*
%TO.N,CAN2_P*%
X183396612Y-107003388D02*
X183599112Y-107003388D01*
X183599112Y-107003388D02*
X183907500Y-106695000D01*
X179935504Y-107715000D02*
X181752344Y-107715000D01*
X183505000Y-106695000D02*
X183907500Y-106695000D01*
X181752344Y-107715000D02*
X182685000Y-107715000D01*
X183905000Y-106697500D02*
X183907500Y-106695000D01*
X183902000Y-106700000D02*
X183905000Y-106697500D01*
X174945000Y-107715000D02*
X179935504Y-107715000D01*
X182685000Y-107715000D02*
X183396612Y-107003388D01*
X183905000Y-106697500D02*
X183908000Y-106695000D01*
%TO.N,CAN2_N*%
X183907500Y-113694500D02*
X183821700Y-113608600D01*
X177600000Y-108985000D02*
X177374983Y-108985000D01*
X183907500Y-110195000D02*
X183907700Y-110194800D01*
X177600000Y-114625000D02*
X177600000Y-108985000D01*
X180820390Y-108985000D02*
X177600000Y-108985000D01*
X183298000Y-113085000D02*
X183821700Y-113608600D01*
X183907500Y-110195000D02*
X182697500Y-108985000D01*
X183907500Y-113695000D02*
X183907500Y-113694500D01*
X177374983Y-108985000D02*
X174945000Y-108985000D01*
X183907700Y-110194800D02*
X183908000Y-110195000D01*
X182697500Y-108985000D02*
X180820390Y-108985000D01*
X183821700Y-113608600D02*
X183908000Y-113695000D01*
%TO.N,USB_N*%
X140149346Y-103275000D02*
X140029346Y-103275000D01*
X141349346Y-103275000D02*
X141229346Y-103275000D01*
X140989346Y-103035000D02*
X140989346Y-102617687D01*
X144743198Y-104525000D02*
X143493198Y-103275000D01*
X140029346Y-103275000D02*
X138673025Y-103275000D01*
X138673025Y-103275000D02*
X137562500Y-103275000D01*
X144868749Y-104500000D02*
X144843749Y-104525000D01*
X141589346Y-102617687D02*
X141589346Y-103035000D01*
X143493198Y-103275000D02*
X142429346Y-103275000D01*
X142189346Y-103035000D02*
X142189346Y-102617687D01*
X141949346Y-102377687D02*
X141829346Y-102377687D01*
X144843749Y-104525000D02*
X144743198Y-104525000D01*
X137562500Y-103275000D02*
X137087500Y-103750000D01*
X140749346Y-102377687D02*
X140629346Y-102377687D01*
X145975000Y-104500000D02*
X144868749Y-104500000D01*
X140389346Y-102617687D02*
X140389346Y-103035000D01*
X142429346Y-103275000D02*
G75*
G02*
X142189300Y-103035000I-46J240000D01*
G01*
X141829346Y-102377687D02*
G75*
G03*
X141589287Y-102617687I-46J-240013D01*
G01*
X140389346Y-103035000D02*
G75*
G02*
X140149346Y-103275046I-240046J0D01*
G01*
X141589346Y-103035000D02*
G75*
G02*
X141349346Y-103275046I-240046J0D01*
G01*
X142189346Y-102617687D02*
G75*
G03*
X141949346Y-102377654I-240046J-13D01*
G01*
X140989346Y-102617687D02*
G75*
G03*
X140749346Y-102377654I-240046J-13D01*
G01*
X141229346Y-103275000D02*
G75*
G02*
X140989300Y-103035000I-46J240000D01*
G01*
X140629346Y-102377687D02*
G75*
G03*
X140389287Y-102617687I-46J-240013D01*
G01*
%TO.N,Net-(J2-Pin_8)*%
X179300000Y-115465000D02*
X177600000Y-117165000D01*
X183877500Y-117165000D02*
X183907500Y-117195000D01*
X179300000Y-110625000D02*
X179300000Y-115465000D01*
X177600000Y-117165000D02*
X183877500Y-117165000D01*
X178500000Y-109825000D02*
X179300000Y-110625000D01*
%TO.N,Net-(J2-Pin_4)*%
X179400000Y-101440000D02*
X177600000Y-103240000D01*
X183908000Y-103195000D02*
X183907500Y-103195000D01*
X179400000Y-97125000D02*
X179400000Y-101440000D01*
X177600000Y-103240000D02*
X183862500Y-103240000D01*
X183862500Y-103240000D02*
X183907500Y-103195000D01*
X178500000Y-96225000D02*
X179400000Y-97125000D01*
%TO.N,Net-(U1-PF0)*%
X161800000Y-108000000D02*
X160850000Y-108950000D01*
X161800000Y-107150000D02*
X161450000Y-107150000D01*
X161800000Y-107150000D02*
X161800000Y-108000000D01*
X160850000Y-108950000D02*
X160850000Y-110000000D01*
X158300000Y-104000000D02*
X154300000Y-104000000D01*
X161450000Y-107150000D02*
X158300000Y-104000000D01*
%TO.N,Net-(U1-PF1)*%
X161150000Y-103500000D02*
X154300000Y-103500000D01*
X161800000Y-102850000D02*
X161150000Y-103500000D01*
X161800000Y-102850000D02*
X161800000Y-101225000D01*
X161800000Y-101225000D02*
X160575000Y-100000000D01*
X161800000Y-102850000D02*
X161800000Y-103000000D01*
%TO.N,Net-(D3-A)*%
X163850000Y-113500000D02*
X167500000Y-117150000D01*
X167500000Y-118312500D02*
X167500000Y-118312000D01*
X167500000Y-117150000D02*
X167500000Y-118312000D01*
%TD*%
%TA.AperFunction,Conductor*%
%TO.N,GND*%
G36*
X188943039Y-86019685D02*
G01*
X188988794Y-86072489D01*
X189000000Y-86124000D01*
X189000000Y-123876000D01*
X188980315Y-123943039D01*
X188927511Y-123988794D01*
X188876000Y-124000000D01*
X153234696Y-124000000D01*
X153167657Y-123980315D01*
X153121902Y-123927511D01*
X153111958Y-123858353D01*
X153140983Y-123794797D01*
X153178401Y-123765515D01*
X153183585Y-123762873D01*
X153257816Y-123725051D01*
X153354371Y-123654899D01*
X153429786Y-123600109D01*
X153429788Y-123600106D01*
X153429792Y-123600104D01*
X153565951Y-123463945D01*
X182156279Y-123463945D01*
X187364898Y-123463945D01*
X187364898Y-121300194D01*
X182156279Y-121300194D01*
X182156279Y-123463945D01*
X153565951Y-123463945D01*
X153580104Y-123449792D01*
X153580106Y-123449788D01*
X153580109Y-123449786D01*
X153629615Y-123381646D01*
X169844657Y-123381646D01*
X179582157Y-123381646D01*
X179582157Y-121263191D01*
X169844657Y-121263191D01*
X169844657Y-123381646D01*
X153629615Y-123381646D01*
X153705048Y-123277820D01*
X153705047Y-123277820D01*
X153705051Y-123277816D01*
X153801557Y-123088412D01*
X153867246Y-122886243D01*
X153900500Y-122676287D01*
X153900500Y-122463713D01*
X153881523Y-122343897D01*
X153890478Y-122274604D01*
X153935474Y-122221152D01*
X154002225Y-122200513D01*
X154003996Y-122200500D01*
X168128996Y-122200500D01*
X168220040Y-122182389D01*
X168264328Y-122173580D01*
X168328069Y-122147177D01*
X168391807Y-122120777D01*
X168391808Y-122120776D01*
X168391811Y-122120775D01*
X168506543Y-122044114D01*
X168965369Y-121585288D01*
X169426510Y-121124148D01*
X174476660Y-116073996D01*
X175489113Y-115061543D01*
X175502669Y-115041256D01*
X175565775Y-114946811D01*
X175618580Y-114819328D01*
X175620924Y-114807547D01*
X175637633Y-114723541D01*
X175645500Y-114683993D01*
X175645500Y-111179500D01*
X175665185Y-111112461D01*
X175717989Y-111066706D01*
X175769500Y-111055500D01*
X175835686Y-111055500D01*
X175835694Y-111055500D01*
X175872569Y-111052598D01*
X175872571Y-111052597D01*
X175872573Y-111052597D01*
X175924973Y-111037373D01*
X176030398Y-111006744D01*
X176171865Y-110923081D01*
X176288081Y-110806865D01*
X176371744Y-110665398D01*
X176417598Y-110507569D01*
X176420500Y-110470694D01*
X176420500Y-110039306D01*
X176417598Y-110002431D01*
X176395468Y-109926261D01*
X176375781Y-109858497D01*
X176371744Y-109844602D01*
X176343753Y-109797271D01*
X176329175Y-109772620D01*
X176311992Y-109704896D01*
X176334152Y-109638634D01*
X176388619Y-109594871D01*
X176435907Y-109585500D01*
X176875500Y-109585500D01*
X176942539Y-109605185D01*
X176988294Y-109657989D01*
X176999500Y-109709500D01*
X176999500Y-113150500D01*
X176979815Y-113217539D01*
X176927011Y-113263294D01*
X176875501Y-113274500D01*
X176702130Y-113274500D01*
X176702123Y-113274501D01*
X176642516Y-113280908D01*
X176507671Y-113331202D01*
X176507664Y-113331206D01*
X176392455Y-113417452D01*
X176392452Y-113417455D01*
X176306206Y-113532664D01*
X176306202Y-113532671D01*
X176255908Y-113667517D01*
X176249501Y-113727116D01*
X176249500Y-113727135D01*
X176249500Y-115522870D01*
X176249501Y-115522876D01*
X176255908Y-115582483D01*
X176306202Y-115717328D01*
X176306206Y-115717335D01*
X176392452Y-115832544D01*
X176392455Y-115832547D01*
X176507664Y-115918793D01*
X176507671Y-115918797D01*
X176639082Y-115967810D01*
X176695016Y-116009681D01*
X176719433Y-116075145D01*
X176704582Y-116143418D01*
X176683431Y-116171673D01*
X176569889Y-116285215D01*
X176444951Y-116457179D01*
X176348444Y-116646585D01*
X176282753Y-116848760D01*
X176266810Y-116949420D01*
X176249500Y-117058713D01*
X176249500Y-117271287D01*
X176251603Y-117284563D01*
X176280058Y-117464226D01*
X176282754Y-117481243D01*
X176320134Y-117596287D01*
X176348444Y-117683414D01*
X176444951Y-117872820D01*
X176569890Y-118044786D01*
X176720213Y-118195109D01*
X176892179Y-118320048D01*
X176892181Y-118320049D01*
X176892184Y-118320051D01*
X177081588Y-118416557D01*
X177283757Y-118482246D01*
X177493713Y-118515500D01*
X177493714Y-118515500D01*
X177706286Y-118515500D01*
X177706287Y-118515500D01*
X177916243Y-118482246D01*
X178118412Y-118416557D01*
X178307816Y-118320051D01*
X178329789Y-118304086D01*
X178479786Y-118195109D01*
X178479788Y-118195106D01*
X178479792Y-118195104D01*
X178630104Y-118044792D01*
X178630106Y-118044788D01*
X178630109Y-118044786D01*
X178702003Y-117945831D01*
X178755051Y-117872816D01*
X178755349Y-117872230D01*
X178775235Y-117833205D01*
X178823209Y-117782409D01*
X178885719Y-117765500D01*
X182003868Y-117765500D01*
X182070907Y-117785185D01*
X182116662Y-117837989D01*
X182118429Y-117842047D01*
X182199333Y-118037366D01*
X182199337Y-118037376D01*
X182323900Y-118253126D01*
X182475560Y-118450774D01*
X182475566Y-118450781D01*
X182651718Y-118626933D01*
X182651725Y-118626939D01*
X182849373Y-118778599D01*
X183065123Y-118903162D01*
X183065138Y-118903169D01*
X183164325Y-118944253D01*
X183295293Y-118998502D01*
X183535935Y-119062982D01*
X183782935Y-119095500D01*
X183782942Y-119095500D01*
X184032058Y-119095500D01*
X184032065Y-119095500D01*
X184279065Y-119062982D01*
X184519707Y-118998502D01*
X184749873Y-118903164D01*
X184965627Y-118778599D01*
X185163276Y-118626938D01*
X185339438Y-118450776D01*
X185491099Y-118253127D01*
X185615664Y-118037373D01*
X185711002Y-117807207D01*
X185775482Y-117566565D01*
X185808000Y-117319565D01*
X185808000Y-117070435D01*
X185775482Y-116823435D01*
X185711002Y-116582793D01*
X185644753Y-116422853D01*
X185615669Y-116352638D01*
X185615662Y-116352623D01*
X185491099Y-116136873D01*
X185339439Y-115939225D01*
X185339433Y-115939218D01*
X185163281Y-115763066D01*
X185163274Y-115763060D01*
X184965628Y-115611401D01*
X184913708Y-115581426D01*
X184863410Y-115552386D01*
X184815196Y-115501821D01*
X184801972Y-115433214D01*
X184827940Y-115368349D01*
X184863410Y-115337613D01*
X184965627Y-115278599D01*
X185163276Y-115126938D01*
X185339438Y-114950776D01*
X185491099Y-114753127D01*
X185615664Y-114537373D01*
X185711002Y-114307207D01*
X185775482Y-114066565D01*
X185808000Y-113819565D01*
X185808000Y-113570435D01*
X185775482Y-113323435D01*
X185711002Y-113082793D01*
X185615664Y-112852627D01*
X185491099Y-112636873D01*
X185339438Y-112439224D01*
X185339433Y-112439218D01*
X185163281Y-112263066D01*
X185163274Y-112263060D01*
X184965628Y-112111401D01*
X184913708Y-112081426D01*
X184863410Y-112052386D01*
X184815196Y-112001821D01*
X184801972Y-111933214D01*
X184827940Y-111868349D01*
X184863410Y-111837613D01*
X184965627Y-111778599D01*
X185163276Y-111626938D01*
X185339438Y-111450776D01*
X185491099Y-111253127D01*
X185615664Y-111037373D01*
X185711002Y-110807207D01*
X185775482Y-110566565D01*
X185808000Y-110319565D01*
X185808000Y-110070435D01*
X185775482Y-109823435D01*
X185711002Y-109582793D01*
X185633693Y-109396153D01*
X185615669Y-109352638D01*
X185615662Y-109352623D01*
X185491099Y-109136873D01*
X185339439Y-108939225D01*
X185339433Y-108939218D01*
X185163281Y-108763066D01*
X185163274Y-108763060D01*
X184965628Y-108611401D01*
X184901896Y-108574606D01*
X184863410Y-108552386D01*
X184815196Y-108501821D01*
X184801972Y-108433214D01*
X184827940Y-108368349D01*
X184863410Y-108337613D01*
X184965627Y-108278599D01*
X185163276Y-108126938D01*
X185339438Y-107950776D01*
X185491099Y-107753127D01*
X185615664Y-107537373D01*
X185711002Y-107307207D01*
X185775482Y-107066565D01*
X185808000Y-106819565D01*
X185808000Y-106570435D01*
X185775482Y-106323435D01*
X185711002Y-106082793D01*
X185632572Y-105893447D01*
X185615669Y-105852638D01*
X185615662Y-105852623D01*
X185491099Y-105636873D01*
X185339439Y-105439225D01*
X185339433Y-105439218D01*
X185163281Y-105263066D01*
X185163274Y-105263060D01*
X184965628Y-105111401D01*
X184913708Y-105081426D01*
X184863410Y-105052386D01*
X184815196Y-105001821D01*
X184801972Y-104933214D01*
X184827940Y-104868349D01*
X184863410Y-104837613D01*
X184965627Y-104778599D01*
X185163276Y-104626938D01*
X185339438Y-104450776D01*
X185491099Y-104253127D01*
X185615664Y-104037373D01*
X185711002Y-103807207D01*
X185775482Y-103566565D01*
X185808000Y-103319565D01*
X185808000Y-103070435D01*
X185775482Y-102823435D01*
X185711002Y-102582793D01*
X185646810Y-102427819D01*
X185615669Y-102352638D01*
X185615662Y-102352623D01*
X185491099Y-102136873D01*
X185339439Y-101939225D01*
X185339433Y-101939218D01*
X185163281Y-101763066D01*
X185163274Y-101763060D01*
X184965628Y-101611401D01*
X184909233Y-101578842D01*
X184863410Y-101552386D01*
X184815196Y-101501821D01*
X184801972Y-101433214D01*
X184827940Y-101368349D01*
X184863410Y-101337613D01*
X184965627Y-101278599D01*
X185163276Y-101126938D01*
X185339438Y-100950776D01*
X185491099Y-100753127D01*
X185615664Y-100537373D01*
X185711002Y-100307207D01*
X185775482Y-100066565D01*
X185808000Y-99819565D01*
X185808000Y-99570435D01*
X185775482Y-99323435D01*
X185711002Y-99082793D01*
X185639219Y-98909493D01*
X185615669Y-98852638D01*
X185615662Y-98852623D01*
X185491099Y-98636873D01*
X185339439Y-98439225D01*
X185339433Y-98439218D01*
X185163281Y-98263066D01*
X185163274Y-98263060D01*
X184965628Y-98111401D01*
X184913708Y-98081426D01*
X184863410Y-98052386D01*
X184815196Y-98001821D01*
X184801972Y-97933214D01*
X184827940Y-97868349D01*
X184863410Y-97837613D01*
X184965627Y-97778599D01*
X185163276Y-97626938D01*
X185339438Y-97450776D01*
X185491099Y-97253127D01*
X185615664Y-97037373D01*
X185711002Y-96807207D01*
X185775482Y-96566565D01*
X185808000Y-96319565D01*
X185808000Y-96070435D01*
X185775482Y-95823435D01*
X185711002Y-95582793D01*
X185649475Y-95434253D01*
X185615669Y-95352638D01*
X185615662Y-95352623D01*
X185491099Y-95136873D01*
X185339439Y-94939225D01*
X185339433Y-94939218D01*
X185207395Y-94807180D01*
X185173910Y-94745857D01*
X185178894Y-94676165D01*
X185220766Y-94620232D01*
X185286230Y-94595815D01*
X185295076Y-94595499D01*
X185355371Y-94595499D01*
X185355372Y-94595499D01*
X185414983Y-94589091D01*
X185549831Y-94538796D01*
X185665046Y-94452546D01*
X185751296Y-94337331D01*
X185801591Y-94202483D01*
X185808000Y-94142873D01*
X185807999Y-91247128D01*
X185801591Y-91187517D01*
X185787597Y-91149998D01*
X185751297Y-91052671D01*
X185751293Y-91052664D01*
X185665047Y-90937455D01*
X185665044Y-90937452D01*
X185549835Y-90851206D01*
X185549828Y-90851202D01*
X185414982Y-90800908D01*
X185414983Y-90800908D01*
X185355383Y-90794501D01*
X185355381Y-90794500D01*
X185355373Y-90794500D01*
X185355364Y-90794500D01*
X182459629Y-90794500D01*
X182459623Y-90794501D01*
X182400016Y-90800908D01*
X182265171Y-90851202D01*
X182265164Y-90851206D01*
X182149955Y-90937452D01*
X182149952Y-90937455D01*
X182063706Y-91052664D01*
X182063702Y-91052671D01*
X182013408Y-91187517D01*
X182007001Y-91247116D01*
X182007001Y-91247123D01*
X182007000Y-91247135D01*
X182007000Y-93021691D01*
X181987315Y-93088730D01*
X181970681Y-93109372D01*
X181701873Y-93378181D01*
X181640550Y-93411666D01*
X181614192Y-93414500D01*
X176374896Y-93414500D01*
X176307857Y-93394815D01*
X176262102Y-93342011D01*
X176252158Y-93272853D01*
X176268164Y-93227379D01*
X176281281Y-93205198D01*
X176327100Y-93047486D01*
X176327295Y-93045001D01*
X176327295Y-93045000D01*
X173382705Y-93045000D01*
X173382704Y-93045001D01*
X173382899Y-93047486D01*
X173428718Y-93205198D01*
X173512314Y-93346552D01*
X173517100Y-93352722D01*
X173514640Y-93354629D01*
X173541210Y-93403288D01*
X173536226Y-93472980D01*
X173515162Y-93505781D01*
X173516699Y-93506974D01*
X173511915Y-93513140D01*
X173428255Y-93654603D01*
X173428254Y-93654606D01*
X173382402Y-93812426D01*
X173382401Y-93812432D01*
X173379500Y-93849298D01*
X173379500Y-94280701D01*
X173382401Y-94317567D01*
X173382402Y-94317573D01*
X173428254Y-94475393D01*
X173428255Y-94475396D01*
X173511917Y-94616862D01*
X173516702Y-94623031D01*
X173514256Y-94624927D01*
X173540857Y-94673642D01*
X173535873Y-94743334D01*
X173515069Y-94775703D01*
X173516702Y-94776969D01*
X173511917Y-94783137D01*
X173428255Y-94924603D01*
X173428254Y-94924606D01*
X173382402Y-95082426D01*
X173382401Y-95082432D01*
X173379500Y-95119298D01*
X173379500Y-95550701D01*
X173382401Y-95587567D01*
X173382402Y-95587573D01*
X173428254Y-95745393D01*
X173428255Y-95745396D01*
X173428256Y-95745398D01*
X173456301Y-95792819D01*
X173511917Y-95886862D01*
X173516702Y-95893031D01*
X173514256Y-95894927D01*
X173540857Y-95943642D01*
X173535873Y-96013334D01*
X173515069Y-96045703D01*
X173516702Y-96046969D01*
X173511917Y-96053137D01*
X173428255Y-96194603D01*
X173428254Y-96194606D01*
X173382402Y-96352426D01*
X173382401Y-96352432D01*
X173379500Y-96389298D01*
X173379500Y-96820701D01*
X173382401Y-96857567D01*
X173382402Y-96857573D01*
X173428254Y-97015393D01*
X173428255Y-97015396D01*
X173428256Y-97015398D01*
X173439600Y-97034579D01*
X173511917Y-97156862D01*
X173511923Y-97156870D01*
X173628129Y-97273076D01*
X173628133Y-97273079D01*
X173628135Y-97273081D01*
X173769602Y-97356744D01*
X173782269Y-97360424D01*
X173927426Y-97402597D01*
X173927429Y-97402597D01*
X173927431Y-97402598D01*
X173964306Y-97405500D01*
X173964314Y-97405500D01*
X175745686Y-97405500D01*
X175745694Y-97405500D01*
X175782569Y-97402598D01*
X175782571Y-97402597D01*
X175782573Y-97402597D01*
X175927733Y-97360424D01*
X175962328Y-97355500D01*
X176407467Y-97355500D01*
X176454919Y-97364938D01*
X176466503Y-97369737D01*
X176612305Y-97398739D01*
X176621153Y-97400499D01*
X176621156Y-97400500D01*
X176621158Y-97400500D01*
X176778843Y-97400500D01*
X176794564Y-97397372D01*
X176851309Y-97386085D01*
X176920899Y-97392312D01*
X176976077Y-97435174D01*
X176999322Y-97501063D01*
X176999500Y-97507702D01*
X176999500Y-99225500D01*
X176979815Y-99292539D01*
X176927011Y-99338294D01*
X176875501Y-99349500D01*
X176702130Y-99349500D01*
X176702123Y-99349501D01*
X176642516Y-99355908D01*
X176507671Y-99406202D01*
X176507664Y-99406206D01*
X176392455Y-99492452D01*
X176392452Y-99492455D01*
X176306206Y-99607664D01*
X176306202Y-99607671D01*
X176255908Y-99742517D01*
X176249501Y-99802116D01*
X176249500Y-99802135D01*
X176249500Y-101597870D01*
X176249501Y-101597876D01*
X176255908Y-101657483D01*
X176306202Y-101792328D01*
X176306206Y-101792335D01*
X176392452Y-101907544D01*
X176392455Y-101907547D01*
X176507664Y-101993793D01*
X176507671Y-101993797D01*
X176639082Y-102042810D01*
X176695016Y-102084681D01*
X176719433Y-102150145D01*
X176704582Y-102218418D01*
X176683431Y-102246673D01*
X176569889Y-102360215D01*
X176444951Y-102532179D01*
X176348444Y-102721585D01*
X176348443Y-102721587D01*
X176348443Y-102721588D01*
X176339211Y-102750000D01*
X176282753Y-102923760D01*
X176249500Y-103133713D01*
X176249500Y-103346286D01*
X176272361Y-103490629D01*
X176282754Y-103556243D01*
X176337663Y-103725236D01*
X176348444Y-103758414D01*
X176444951Y-103947820D01*
X176569890Y-104119786D01*
X176720213Y-104270109D01*
X176892179Y-104395048D01*
X176892181Y-104395049D01*
X176892184Y-104395051D01*
X177081588Y-104491557D01*
X177283757Y-104557246D01*
X177493713Y-104590500D01*
X177493714Y-104590500D01*
X177706286Y-104590500D01*
X177706287Y-104590500D01*
X177916243Y-104557246D01*
X178118412Y-104491557D01*
X178307816Y-104395051D01*
X178399645Y-104328334D01*
X178479786Y-104270109D01*
X178479788Y-104270106D01*
X178479792Y-104270104D01*
X178630104Y-104119792D01*
X178630106Y-104119788D01*
X178630109Y-104119786D01*
X178754925Y-103947989D01*
X178755051Y-103947816D01*
X178755349Y-103947230D01*
X178775235Y-103908205D01*
X178823209Y-103857409D01*
X178885719Y-103840500D01*
X182034934Y-103840500D01*
X182101973Y-103860185D01*
X182147728Y-103912989D01*
X182149495Y-103917047D01*
X182199332Y-104037366D01*
X182199337Y-104037376D01*
X182323900Y-104253126D01*
X182475560Y-104450774D01*
X182475566Y-104450781D01*
X182651718Y-104626933D01*
X182651725Y-104626939D01*
X182849373Y-104778599D01*
X182951588Y-104837613D01*
X182999803Y-104888180D01*
X183013027Y-104956787D01*
X182987059Y-105021652D01*
X182951588Y-105052387D01*
X182849373Y-105111400D01*
X182651725Y-105263060D01*
X182651718Y-105263066D01*
X182475566Y-105439218D01*
X182475560Y-105439225D01*
X182323900Y-105636873D01*
X182199337Y-105852623D01*
X182199330Y-105852638D01*
X182103998Y-106082792D01*
X182039517Y-106323438D01*
X182007001Y-106570424D01*
X182007000Y-106570441D01*
X182007000Y-106819558D01*
X182007001Y-106819575D01*
X182027373Y-106974315D01*
X182016607Y-107043350D01*
X181970227Y-107095606D01*
X181904434Y-107114500D01*
X176435326Y-107114500D01*
X176368287Y-107094815D01*
X176322532Y-107042011D01*
X176312588Y-106972853D01*
X176328594Y-106927379D01*
X176371281Y-106855198D01*
X176417100Y-106697486D01*
X176417295Y-106695001D01*
X176417295Y-106695000D01*
X173472705Y-106695000D01*
X173472704Y-106695001D01*
X173472899Y-106697486D01*
X173518718Y-106855198D01*
X173602314Y-106996552D01*
X173607100Y-107002722D01*
X173604640Y-107004629D01*
X173631210Y-107053288D01*
X173626226Y-107122980D01*
X173605162Y-107155781D01*
X173606699Y-107156974D01*
X173601915Y-107163140D01*
X173518255Y-107304603D01*
X173518254Y-107304606D01*
X173472402Y-107462426D01*
X173472401Y-107462432D01*
X173469500Y-107499298D01*
X173469500Y-107930701D01*
X173472401Y-107967567D01*
X173472402Y-107967573D01*
X173518254Y-108125393D01*
X173518255Y-108125396D01*
X173518256Y-108125398D01*
X173539631Y-108161542D01*
X173601917Y-108266862D01*
X173606702Y-108273031D01*
X173604256Y-108274927D01*
X173630857Y-108323642D01*
X173625873Y-108393334D01*
X173605069Y-108425703D01*
X173606702Y-108426969D01*
X173601917Y-108433137D01*
X173518255Y-108574603D01*
X173518254Y-108574606D01*
X173472402Y-108732426D01*
X173472401Y-108732432D01*
X173469500Y-108769298D01*
X173469500Y-109200701D01*
X173472401Y-109237567D01*
X173472402Y-109237573D01*
X173518254Y-109395393D01*
X173518255Y-109395396D01*
X173518256Y-109395398D01*
X173531470Y-109417741D01*
X173601917Y-109536862D01*
X173606702Y-109543031D01*
X173604256Y-109544927D01*
X173630857Y-109593642D01*
X173625873Y-109663334D01*
X173605069Y-109695703D01*
X173606702Y-109696969D01*
X173601917Y-109703137D01*
X173518255Y-109844603D01*
X173518254Y-109844606D01*
X173472402Y-110002426D01*
X173472401Y-110002432D01*
X173469500Y-110039298D01*
X173469500Y-110470701D01*
X173472401Y-110507567D01*
X173472402Y-110507573D01*
X173518254Y-110665393D01*
X173518255Y-110665396D01*
X173601917Y-110806862D01*
X173601923Y-110806870D01*
X173718129Y-110923076D01*
X173718133Y-110923079D01*
X173718135Y-110923081D01*
X173859602Y-111006744D01*
X173892205Y-111016216D01*
X174017426Y-111052597D01*
X174017429Y-111052597D01*
X174017431Y-111052598D01*
X174054306Y-111055500D01*
X174120500Y-111055500D01*
X174187539Y-111075185D01*
X174233294Y-111127989D01*
X174244500Y-111179500D01*
X174244500Y-114273481D01*
X174224815Y-114340520D01*
X174208181Y-114361162D01*
X168468162Y-120101181D01*
X168406839Y-120134666D01*
X168380481Y-120137500D01*
X166525001Y-120137500D01*
X166525001Y-120154152D01*
X166535056Y-120252583D01*
X166587906Y-120412072D01*
X166587908Y-120412077D01*
X166676114Y-120555080D01*
X166708853Y-120587819D01*
X166742338Y-120649142D01*
X166737354Y-120718834D01*
X166695482Y-120774767D01*
X166630018Y-120799184D01*
X166621172Y-120799500D01*
X158276492Y-120799500D01*
X158209453Y-120779815D01*
X158163698Y-120727011D01*
X158153754Y-120657853D01*
X158182779Y-120594297D01*
X158199583Y-120578233D01*
X158205077Y-120573888D01*
X158323885Y-120455080D01*
X158412091Y-120312077D01*
X158412093Y-120312072D01*
X158464942Y-120152583D01*
X158474999Y-120054150D01*
X158475000Y-120054137D01*
X158475000Y-120037500D01*
X156525001Y-120037500D01*
X156525001Y-120054152D01*
X156535056Y-120152583D01*
X156587906Y-120312072D01*
X156587908Y-120312077D01*
X156676114Y-120455080D01*
X156794922Y-120573888D01*
X156800417Y-120578233D01*
X156840795Y-120635254D01*
X156843935Y-120705053D01*
X156808840Y-120765469D01*
X156746653Y-120797321D01*
X156723508Y-120799500D01*
X153875971Y-120799500D01*
X153808932Y-120779815D01*
X153763177Y-120727011D01*
X153753233Y-120657853D01*
X153765486Y-120619205D01*
X153788576Y-120573888D01*
X153801557Y-120548412D01*
X153867246Y-120346243D01*
X153900500Y-120136287D01*
X153900500Y-119923713D01*
X153867246Y-119713757D01*
X153801557Y-119511588D01*
X153705051Y-119322184D01*
X153705049Y-119322181D01*
X153705048Y-119322179D01*
X153580109Y-119150213D01*
X153429786Y-118999890D01*
X153257820Y-118874951D01*
X153257115Y-118874591D01*
X153249054Y-118870485D01*
X153198259Y-118822512D01*
X153181463Y-118754692D01*
X153203999Y-118688556D01*
X153249054Y-118649515D01*
X153257816Y-118645051D01*
X153350541Y-118577683D01*
X153429786Y-118520109D01*
X153429788Y-118520106D01*
X153429792Y-118520104D01*
X153580104Y-118369792D01*
X153580106Y-118369788D01*
X153580109Y-118369786D01*
X153705048Y-118197820D01*
X153705047Y-118197820D01*
X153705051Y-118197816D01*
X153801557Y-118008412D01*
X153867246Y-117806243D01*
X153900500Y-117596287D01*
X153900500Y-117383713D01*
X153867246Y-117173757D01*
X153801557Y-116971588D01*
X153705051Y-116782184D01*
X153705049Y-116782181D01*
X153705048Y-116782179D01*
X153580109Y-116610213D01*
X153466181Y-116496285D01*
X153432696Y-116434962D01*
X153437680Y-116365270D01*
X153479552Y-116309337D01*
X153510529Y-116292422D01*
X153642086Y-116243354D01*
X153642093Y-116243350D01*
X153757187Y-116157190D01*
X153757190Y-116157187D01*
X153843350Y-116042093D01*
X153843354Y-116042086D01*
X153893596Y-115907379D01*
X153893598Y-115907372D01*
X153899999Y-115847844D01*
X153900000Y-115847827D01*
X153900000Y-115200000D01*
X152983012Y-115200000D01*
X153015925Y-115142993D01*
X153050000Y-115015826D01*
X153050000Y-114884174D01*
X153015925Y-114757007D01*
X152983012Y-114700000D01*
X153900000Y-114700000D01*
X153900000Y-114260597D01*
X153919685Y-114193558D01*
X153972489Y-114147803D01*
X154041647Y-114137859D01*
X154105203Y-114166884D01*
X154111681Y-114172916D01*
X155184425Y-115245660D01*
X155217910Y-115306983D01*
X155218361Y-115309149D01*
X155249261Y-115464491D01*
X155249264Y-115464501D01*
X155309602Y-115610172D01*
X155309609Y-115610185D01*
X155397210Y-115741288D01*
X155397212Y-115741291D01*
X155508707Y-115852786D01*
X155508711Y-115852789D01*
X155639814Y-115940390D01*
X155639827Y-115940397D01*
X155785498Y-116000735D01*
X155785503Y-116000737D01*
X155934990Y-116030472D01*
X155940153Y-116031499D01*
X155940156Y-116031500D01*
X155940158Y-116031500D01*
X156097844Y-116031500D01*
X156097845Y-116031499D01*
X156252497Y-116000737D01*
X156398179Y-115940394D01*
X156529289Y-115852789D01*
X156549534Y-115832544D01*
X156640788Y-115741291D01*
X156640789Y-115741289D01*
X156728394Y-115610179D01*
X156788737Y-115464497D01*
X156819500Y-115309842D01*
X156819500Y-115152158D01*
X156819500Y-115152155D01*
X156819499Y-115152153D01*
X156801476Y-115061545D01*
X156788737Y-114997503D01*
X156769382Y-114950776D01*
X156728397Y-114851827D01*
X156728390Y-114851814D01*
X156640789Y-114720711D01*
X156640786Y-114720707D01*
X156607260Y-114687181D01*
X156573775Y-114625858D01*
X156578759Y-114556166D01*
X156620631Y-114500233D01*
X156686095Y-114475816D01*
X156694941Y-114475500D01*
X156756613Y-114475500D01*
X156756616Y-114475500D01*
X156827196Y-114469086D01*
X156989606Y-114418478D01*
X157135185Y-114330472D01*
X157237320Y-114228336D01*
X157245265Y-114223998D01*
X157250690Y-114216752D01*
X157275446Y-114207518D01*
X157298641Y-114194853D01*
X157307671Y-114195498D01*
X157316154Y-114192335D01*
X157341974Y-114197951D01*
X157368333Y-114199837D01*
X157377386Y-114205655D01*
X157384427Y-114207187D01*
X157412681Y-114228338D01*
X157513181Y-114328838D01*
X157546666Y-114390161D01*
X157549500Y-114416519D01*
X157549500Y-117150500D01*
X157529815Y-117217539D01*
X157477011Y-117263294D01*
X157425500Y-117274500D01*
X157195818Y-117274500D01*
X157097316Y-117284563D01*
X157097315Y-117284564D01*
X157018219Y-117310773D01*
X156937715Y-117337450D01*
X156937704Y-117337455D01*
X156794612Y-117425716D01*
X156794608Y-117425719D01*
X156675719Y-117544608D01*
X156675716Y-117544612D01*
X156587455Y-117687704D01*
X156587450Y-117687715D01*
X156581545Y-117705535D01*
X156534564Y-117847315D01*
X156534564Y-117847316D01*
X156534563Y-117847316D01*
X156524500Y-117945818D01*
X156524500Y-118479181D01*
X156534563Y-118577683D01*
X156587450Y-118737284D01*
X156587455Y-118737295D01*
X156675716Y-118880387D01*
X156675719Y-118880392D01*
X156708000Y-118912673D01*
X156741485Y-118973997D01*
X156736499Y-119043688D01*
X156708000Y-119088033D01*
X156676114Y-119119919D01*
X156587908Y-119262922D01*
X156587906Y-119262927D01*
X156535057Y-119422416D01*
X156525000Y-119520849D01*
X156525000Y-119537500D01*
X158474999Y-119537500D01*
X158474999Y-119520864D01*
X158474998Y-119520847D01*
X158464943Y-119422416D01*
X158412093Y-119262927D01*
X158412091Y-119262922D01*
X158323885Y-119119919D01*
X158292000Y-119088034D01*
X158258515Y-119026711D01*
X158263499Y-118957019D01*
X158292000Y-118912672D01*
X158301510Y-118903162D01*
X158324281Y-118880391D01*
X158412549Y-118737287D01*
X158465436Y-118577685D01*
X158475500Y-118479174D01*
X158475500Y-118137098D01*
X158495185Y-118070059D01*
X158511819Y-118049417D01*
X158552824Y-118008412D01*
X158630520Y-117930716D01*
X158646033Y-117903847D01*
X158687104Y-117832710D01*
X158687105Y-117832708D01*
X158709574Y-117793790D01*
X158709575Y-117793789D01*
X158709575Y-117793787D01*
X158709577Y-117793785D01*
X158750501Y-117641057D01*
X158750501Y-117482943D01*
X158750501Y-117475348D01*
X158750500Y-117475330D01*
X158750500Y-114416519D01*
X158770185Y-114349480D01*
X158786814Y-114328842D01*
X158905472Y-114210185D01*
X158993478Y-114064606D01*
X159044086Y-113902196D01*
X159050500Y-113831616D01*
X159050500Y-113264500D01*
X159070185Y-113197461D01*
X159122989Y-113151706D01*
X159174500Y-113140500D01*
X160207500Y-113140500D01*
X160274539Y-113160185D01*
X160320294Y-113212989D01*
X160330269Y-113258844D01*
X160330903Y-113258782D01*
X160331438Y-113264215D01*
X160331500Y-113264500D01*
X160331500Y-113264846D01*
X160362261Y-113419489D01*
X160362264Y-113419501D01*
X160422602Y-113565172D01*
X160422609Y-113565185D01*
X160510210Y-113696288D01*
X160510213Y-113696292D01*
X160621707Y-113807786D01*
X160621711Y-113807789D01*
X160752814Y-113895390D01*
X160752827Y-113895397D01*
X160830629Y-113927623D01*
X160898503Y-113955737D01*
X161048302Y-113985534D01*
X161053153Y-113986499D01*
X161053156Y-113986500D01*
X161053158Y-113986500D01*
X161210842Y-113986500D01*
X161215697Y-113985534D01*
X161285288Y-113991755D01*
X161340469Y-114034613D01*
X161352297Y-114058280D01*
X161353443Y-114057765D01*
X161356520Y-114064602D01*
X161356521Y-114064604D01*
X161356522Y-114064606D01*
X161438273Y-114199838D01*
X161444530Y-114210188D01*
X161564811Y-114330469D01*
X161564813Y-114330470D01*
X161564815Y-114330472D01*
X161710394Y-114418478D01*
X161872804Y-114469086D01*
X161943384Y-114475500D01*
X161943387Y-114475500D01*
X162456613Y-114475500D01*
X162456616Y-114475500D01*
X162527196Y-114469086D01*
X162689606Y-114418478D01*
X162835185Y-114330472D01*
X162858450Y-114307207D01*
X162937319Y-114228339D01*
X162998642Y-114194854D01*
X163068334Y-114199838D01*
X163112681Y-114228339D01*
X163214811Y-114330469D01*
X163214813Y-114330470D01*
X163214815Y-114330472D01*
X163360394Y-114418478D01*
X163522804Y-114469086D01*
X163593384Y-114475500D01*
X163924903Y-114475500D01*
X163991942Y-114495185D01*
X164012584Y-114511819D01*
X166827133Y-117326368D01*
X166860618Y-117387691D01*
X166855634Y-117457383D01*
X166813762Y-117513316D01*
X166804551Y-117519586D01*
X166794612Y-117525716D01*
X166794608Y-117525719D01*
X166675719Y-117644608D01*
X166675716Y-117644612D01*
X166587455Y-117787704D01*
X166587450Y-117787715D01*
X166571591Y-117835574D01*
X166534564Y-117947315D01*
X166534564Y-117947316D01*
X166534563Y-117947316D01*
X166524500Y-118045818D01*
X166524500Y-118579181D01*
X166534563Y-118677683D01*
X166587450Y-118837284D01*
X166587455Y-118837295D01*
X166675716Y-118980387D01*
X166675719Y-118980392D01*
X166708000Y-119012673D01*
X166741485Y-119073997D01*
X166736499Y-119143688D01*
X166708000Y-119188033D01*
X166676114Y-119219919D01*
X166587908Y-119362922D01*
X166587906Y-119362927D01*
X166535057Y-119522416D01*
X166525000Y-119620849D01*
X166525000Y-119637500D01*
X168474999Y-119637500D01*
X168474999Y-119620864D01*
X168474998Y-119620847D01*
X168464943Y-119522416D01*
X168412093Y-119362927D01*
X168412091Y-119362922D01*
X168323885Y-119219919D01*
X168292000Y-119188034D01*
X168258515Y-119126711D01*
X168263499Y-119057019D01*
X168292000Y-119012672D01*
X168306171Y-118998501D01*
X168324281Y-118980391D01*
X168412549Y-118837287D01*
X168465436Y-118677685D01*
X168475500Y-118579174D01*
X168475500Y-118045826D01*
X168465436Y-117947315D01*
X168412549Y-117787713D01*
X168412545Y-117787707D01*
X168412544Y-117787704D01*
X168324283Y-117644612D01*
X168324280Y-117644608D01*
X168205390Y-117525718D01*
X168159402Y-117497352D01*
X168152578Y-117489765D01*
X168143297Y-117485527D01*
X168129607Y-117464226D01*
X168112678Y-117445403D01*
X168110034Y-117433768D01*
X168105523Y-117426749D01*
X168100500Y-117391814D01*
X168100500Y-117239060D01*
X168100501Y-117239047D01*
X168100501Y-117070944D01*
X168096711Y-117056800D01*
X168059577Y-116918216D01*
X168019475Y-116848757D01*
X167980524Y-116781290D01*
X167980518Y-116781282D01*
X164786819Y-113587583D01*
X164772115Y-113560655D01*
X164755523Y-113534837D01*
X164754631Y-113528636D01*
X164753334Y-113526260D01*
X164750500Y-113499902D01*
X164750500Y-113264500D01*
X164770185Y-113197461D01*
X164822989Y-113151706D01*
X164874500Y-113140500D01*
X166073331Y-113140500D01*
X166073347Y-113140501D01*
X166080943Y-113140501D01*
X166239054Y-113140501D01*
X166239057Y-113140501D01*
X166391785Y-113099577D01*
X166450286Y-113065801D01*
X166528716Y-113020520D01*
X166640520Y-112908716D01*
X166640520Y-112908714D01*
X166650724Y-112898511D01*
X166650727Y-112898506D01*
X168610906Y-110938328D01*
X168672227Y-110904845D01*
X168741919Y-110909829D01*
X168761706Y-110919279D01*
X168768135Y-110923081D01*
X168909602Y-111006744D01*
X168942205Y-111016216D01*
X169067426Y-111052597D01*
X169067429Y-111052597D01*
X169067431Y-111052598D01*
X169104306Y-111055500D01*
X169104314Y-111055500D01*
X170885686Y-111055500D01*
X170885694Y-111055500D01*
X170922569Y-111052598D01*
X170922571Y-111052597D01*
X170922573Y-111052597D01*
X170974973Y-111037373D01*
X171080398Y-111006744D01*
X171221865Y-110923081D01*
X171338081Y-110806865D01*
X171421744Y-110665398D01*
X171467598Y-110507569D01*
X171470500Y-110470694D01*
X171470500Y-110039306D01*
X171467598Y-110002431D01*
X171445468Y-109926261D01*
X171425781Y-109858497D01*
X171421744Y-109844602D01*
X171338081Y-109703135D01*
X171338078Y-109703132D01*
X171333298Y-109696969D01*
X171335750Y-109695066D01*
X171309155Y-109646421D01*
X171314104Y-109576726D01*
X171334940Y-109544304D01*
X171333298Y-109543031D01*
X171338075Y-109536870D01*
X171338081Y-109536865D01*
X171421744Y-109395398D01*
X171461407Y-109258878D01*
X171467597Y-109237573D01*
X171467598Y-109237567D01*
X171468284Y-109228847D01*
X171470500Y-109200694D01*
X171470500Y-108769306D01*
X171467598Y-108732431D01*
X171465580Y-108725486D01*
X171427357Y-108593921D01*
X171421744Y-108574602D01*
X171338081Y-108433135D01*
X171338078Y-108433132D01*
X171333298Y-108426969D01*
X171335635Y-108425155D01*
X171308798Y-108376050D01*
X171313756Y-108306356D01*
X171334554Y-108273998D01*
X171332903Y-108272717D01*
X171337686Y-108266550D01*
X171421281Y-108125198D01*
X171467100Y-107967486D01*
X171467295Y-107965001D01*
X171467295Y-107965000D01*
X168522705Y-107965000D01*
X168522704Y-107965001D01*
X168522899Y-107967488D01*
X168522900Y-107967494D01*
X168568923Y-108125905D01*
X168568848Y-108152158D01*
X168572585Y-108178147D01*
X168568750Y-108186543D01*
X168568724Y-108195775D01*
X168554465Y-108217822D01*
X168543560Y-108241703D01*
X168535795Y-108246693D01*
X168530782Y-108254445D01*
X168506866Y-108265283D01*
X168484782Y-108279477D01*
X168471262Y-108281420D01*
X168467143Y-108283288D01*
X168449847Y-108284500D01*
X168241509Y-108284500D01*
X168174470Y-108264815D01*
X168128715Y-108212011D01*
X168118771Y-108142853D01*
X168123803Y-108121496D01*
X168164855Y-107997606D01*
X168174999Y-107898322D01*
X168175000Y-107898309D01*
X168175000Y-107875000D01*
X167324000Y-107875000D01*
X167256961Y-107855315D01*
X167211206Y-107802511D01*
X167200000Y-107751000D01*
X167200000Y-107499000D01*
X167219685Y-107431961D01*
X167272489Y-107386206D01*
X167324000Y-107375000D01*
X168174999Y-107375000D01*
X168174999Y-107351692D01*
X168174998Y-107351677D01*
X168164855Y-107252391D01*
X168150313Y-107208503D01*
X168149334Y-107180043D01*
X168145281Y-107151853D01*
X168148149Y-107145572D01*
X168147912Y-107138675D01*
X168162473Y-107114206D01*
X168174306Y-107088297D01*
X168180114Y-107084564D01*
X168183644Y-107078633D01*
X168209126Y-107065919D01*
X168233084Y-107050523D01*
X168242781Y-107049128D01*
X168246164Y-107047441D01*
X168268019Y-107045500D01*
X168504674Y-107045500D01*
X168571713Y-107065185D01*
X168617468Y-107117989D01*
X168627412Y-107187147D01*
X168611406Y-107232621D01*
X168568718Y-107304801D01*
X168522899Y-107462513D01*
X168522704Y-107464998D01*
X168522705Y-107465000D01*
X171467295Y-107465000D01*
X171467295Y-107464998D01*
X171467100Y-107462513D01*
X171421281Y-107304801D01*
X171337685Y-107163447D01*
X171332900Y-107157278D01*
X171335366Y-107155364D01*
X171308802Y-107106776D01*
X171313749Y-107037082D01*
X171334856Y-107004232D01*
X171333301Y-107003026D01*
X171338077Y-106996868D01*
X171338081Y-106996865D01*
X171421744Y-106855398D01*
X171459478Y-106725519D01*
X171467597Y-106697573D01*
X171467598Y-106697567D01*
X171470500Y-106660694D01*
X171470500Y-106229306D01*
X171467800Y-106194998D01*
X173472704Y-106194998D01*
X173472705Y-106195000D01*
X174695000Y-106195000D01*
X175195000Y-106195000D01*
X176417295Y-106195000D01*
X176417295Y-106194998D01*
X176417100Y-106192513D01*
X176371281Y-106034801D01*
X176287685Y-105893447D01*
X176287678Y-105893438D01*
X176171561Y-105777321D01*
X176171552Y-105777314D01*
X176030196Y-105693717D01*
X176030193Y-105693716D01*
X175872495Y-105647900D01*
X175872489Y-105647899D01*
X175835649Y-105645000D01*
X175195000Y-105645000D01*
X175195000Y-106195000D01*
X174695000Y-106195000D01*
X174695000Y-105645000D01*
X174054350Y-105645000D01*
X174017510Y-105647899D01*
X174017504Y-105647900D01*
X173859806Y-105693716D01*
X173859803Y-105693717D01*
X173718447Y-105777314D01*
X173718438Y-105777321D01*
X173602321Y-105893438D01*
X173602314Y-105893447D01*
X173518718Y-106034801D01*
X173472899Y-106192513D01*
X173472704Y-106194998D01*
X171467800Y-106194998D01*
X171467598Y-106192431D01*
X171467270Y-106191303D01*
X171421745Y-106034606D01*
X171421744Y-106034603D01*
X171421744Y-106034602D01*
X171338081Y-105893135D01*
X171338080Y-105893134D01*
X171338076Y-105893129D01*
X171221870Y-105776923D01*
X171221862Y-105776917D01*
X171090956Y-105699500D01*
X171080398Y-105693256D01*
X171080397Y-105693255D01*
X171080396Y-105693255D01*
X171080393Y-105693254D01*
X170922573Y-105647402D01*
X170922567Y-105647401D01*
X170885701Y-105644500D01*
X170885694Y-105644500D01*
X169104306Y-105644500D01*
X169104298Y-105644500D01*
X169067432Y-105647401D01*
X169067426Y-105647402D01*
X168909606Y-105693254D01*
X168909603Y-105693255D01*
X168768137Y-105776917D01*
X168768129Y-105776923D01*
X168736874Y-105808180D01*
X168675552Y-105841666D01*
X168649192Y-105844500D01*
X166541669Y-105844500D01*
X166541653Y-105844499D01*
X166534057Y-105844499D01*
X166375943Y-105844499D01*
X166261397Y-105875192D01*
X166223214Y-105885423D01*
X166212682Y-105891504D01*
X166209869Y-105893129D01*
X166209860Y-105893134D01*
X166209857Y-105893135D01*
X166086290Y-105964475D01*
X166086282Y-105964481D01*
X165974478Y-106076286D01*
X163812180Y-108238583D01*
X163750857Y-108272068D01*
X163681165Y-108267084D01*
X163625232Y-108225212D01*
X163600815Y-108159748D01*
X163600499Y-108150902D01*
X163600499Y-108147882D01*
X163600500Y-108147873D01*
X163600499Y-106152128D01*
X163594091Y-106092517D01*
X163590464Y-106082793D01*
X163543797Y-105957671D01*
X163543793Y-105957664D01*
X163457547Y-105842455D01*
X163457544Y-105842452D01*
X163342335Y-105756206D01*
X163342328Y-105756202D01*
X163207482Y-105705908D01*
X163207483Y-105705908D01*
X163147883Y-105699501D01*
X163147881Y-105699500D01*
X163147873Y-105699500D01*
X163147865Y-105699500D01*
X160900098Y-105699500D01*
X160833059Y-105679815D01*
X160812417Y-105663181D01*
X160139582Y-104990346D01*
X159461415Y-104312180D01*
X159427931Y-104250858D01*
X159432915Y-104181166D01*
X159474787Y-104125233D01*
X159540251Y-104100816D01*
X159549097Y-104100500D01*
X160037680Y-104100500D01*
X160104719Y-104120185D01*
X160136948Y-104150191D01*
X160142454Y-104157546D01*
X160142457Y-104157548D01*
X160257664Y-104243793D01*
X160257671Y-104243797D01*
X160392517Y-104294091D01*
X160392516Y-104294091D01*
X160399444Y-104294835D01*
X160452127Y-104300500D01*
X163147872Y-104300499D01*
X163207483Y-104294091D01*
X163342331Y-104243796D01*
X163457546Y-104157546D01*
X163543796Y-104042331D01*
X163594091Y-103907483D01*
X163600500Y-103847873D01*
X163600499Y-101852128D01*
X163594091Y-101792517D01*
X163588389Y-101777230D01*
X163543797Y-101657671D01*
X163543793Y-101657664D01*
X163457547Y-101542455D01*
X163457544Y-101542452D01*
X163342335Y-101456206D01*
X163342328Y-101456202D01*
X163207482Y-101405908D01*
X163207483Y-101405908D01*
X163147883Y-101399501D01*
X163147881Y-101399500D01*
X163147873Y-101399500D01*
X163147865Y-101399500D01*
X162524501Y-101399500D01*
X162457462Y-101379815D01*
X162411707Y-101327011D01*
X162400501Y-101275500D01*
X162400501Y-101145944D01*
X162400501Y-101145943D01*
X162359577Y-100993216D01*
X162343488Y-100965348D01*
X162280524Y-100856290D01*
X162280518Y-100856282D01*
X161561818Y-100137582D01*
X161528333Y-100076259D01*
X161525499Y-100049901D01*
X161525499Y-99701662D01*
X161525498Y-99701644D01*
X161515349Y-99602292D01*
X161515348Y-99602289D01*
X161503295Y-99565915D01*
X161462003Y-99441303D01*
X161461999Y-99441297D01*
X161461998Y-99441294D01*
X161372970Y-99296959D01*
X161372967Y-99296955D01*
X161253044Y-99177032D01*
X161253040Y-99177029D01*
X161108705Y-99088001D01*
X161108699Y-99087998D01*
X161108697Y-99087997D01*
X161092989Y-99082792D01*
X160947709Y-99034651D01*
X160848346Y-99024500D01*
X160301662Y-99024500D01*
X160301644Y-99024501D01*
X160202292Y-99034650D01*
X160202289Y-99034651D01*
X160041305Y-99087996D01*
X160041294Y-99088001D01*
X159896959Y-99177029D01*
X159896953Y-99177033D01*
X159887324Y-99186663D01*
X159826000Y-99220146D01*
X159756308Y-99215159D01*
X159711965Y-99186660D01*
X159702732Y-99177427D01*
X159702728Y-99177424D01*
X159558492Y-99088457D01*
X159558481Y-99088452D01*
X159397606Y-99035144D01*
X159298322Y-99025000D01*
X159275000Y-99025000D01*
X159275000Y-99876000D01*
X159255315Y-99943039D01*
X159202511Y-99988794D01*
X159151000Y-100000000D01*
X159025000Y-100000000D01*
X159025000Y-100126000D01*
X159005315Y-100193039D01*
X158952511Y-100238794D01*
X158901000Y-100250000D01*
X158075001Y-100250000D01*
X158075001Y-100298322D01*
X158085144Y-100397607D01*
X158131167Y-100536496D01*
X158133569Y-100606325D01*
X158097837Y-100666366D01*
X158035316Y-100697559D01*
X158013461Y-100699500D01*
X155662000Y-100699500D01*
X155594961Y-100679815D01*
X155549206Y-100627011D01*
X155538000Y-100575500D01*
X155538000Y-100387286D01*
X155537999Y-100387272D01*
X155532458Y-100345185D01*
X155523187Y-100274764D01*
X155465198Y-100134767D01*
X155372951Y-100014549D01*
X155252733Y-99922302D01*
X155252729Y-99922300D01*
X155189301Y-99896027D01*
X155112736Y-99864313D01*
X155098671Y-99862461D01*
X155000227Y-99849500D01*
X155000220Y-99849500D01*
X153662000Y-99849500D01*
X153653314Y-99846949D01*
X153644353Y-99848238D01*
X153620312Y-99837259D01*
X153594961Y-99829815D01*
X153589033Y-99822974D01*
X153580797Y-99819213D01*
X153566507Y-99796978D01*
X153549206Y-99777011D01*
X153546918Y-99766496D01*
X153543023Y-99760435D01*
X153538000Y-99725500D01*
X153538000Y-99701677D01*
X158075000Y-99701677D01*
X158075000Y-99750000D01*
X158775000Y-99750000D01*
X158775000Y-99024999D01*
X158751693Y-99025000D01*
X158751674Y-99025001D01*
X158652392Y-99035144D01*
X158491518Y-99088452D01*
X158491507Y-99088457D01*
X158347271Y-99177424D01*
X158347267Y-99177427D01*
X158227427Y-99297267D01*
X158227424Y-99297271D01*
X158138457Y-99441507D01*
X158138452Y-99441518D01*
X158085144Y-99602393D01*
X158075000Y-99701677D01*
X153538000Y-99701677D01*
X153538000Y-98387286D01*
X153537999Y-98387272D01*
X153527407Y-98306821D01*
X153523187Y-98274764D01*
X153465198Y-98134767D01*
X153372951Y-98014549D01*
X153252733Y-97922302D01*
X153252729Y-97922300D01*
X153189301Y-97896027D01*
X153112736Y-97864313D01*
X153098198Y-97862399D01*
X153000227Y-97849500D01*
X153000220Y-97849500D01*
X152774780Y-97849500D01*
X152774772Y-97849500D01*
X152687893Y-97860938D01*
X152662264Y-97864313D01*
X152662262Y-97864313D01*
X152654208Y-97865374D01*
X152653816Y-97862399D01*
X152621184Y-97862399D01*
X152620792Y-97865374D01*
X152612737Y-97864313D01*
X152612736Y-97864313D01*
X152583771Y-97860499D01*
X152500227Y-97849500D01*
X152500220Y-97849500D01*
X152274780Y-97849500D01*
X152274772Y-97849500D01*
X152187893Y-97860938D01*
X152162264Y-97864313D01*
X152162262Y-97864313D01*
X152154208Y-97865374D01*
X152153816Y-97862399D01*
X152121184Y-97862399D01*
X152120792Y-97865374D01*
X152112737Y-97864313D01*
X152112736Y-97864313D01*
X152083771Y-97860499D01*
X152000227Y-97849500D01*
X152000220Y-97849500D01*
X151774780Y-97849500D01*
X151774772Y-97849500D01*
X151687893Y-97860938D01*
X151662264Y-97864313D01*
X151662262Y-97864313D01*
X151654208Y-97865374D01*
X151653816Y-97862399D01*
X151621184Y-97862399D01*
X151620792Y-97865374D01*
X151612737Y-97864313D01*
X151612736Y-97864313D01*
X151583771Y-97860499D01*
X151500227Y-97849500D01*
X151500220Y-97849500D01*
X151274780Y-97849500D01*
X151274772Y-97849500D01*
X151187893Y-97860938D01*
X151162264Y-97864313D01*
X151162262Y-97864313D01*
X151154208Y-97865374D01*
X151153816Y-97862399D01*
X151121184Y-97862399D01*
X151120792Y-97865374D01*
X151112737Y-97864313D01*
X151112736Y-97864313D01*
X151083771Y-97860499D01*
X151000227Y-97849500D01*
X151000220Y-97849500D01*
X150774780Y-97849500D01*
X150774772Y-97849500D01*
X150687893Y-97860938D01*
X150662264Y-97864313D01*
X150662262Y-97864313D01*
X150654208Y-97865374D01*
X150653816Y-97862399D01*
X150621184Y-97862399D01*
X150620792Y-97865374D01*
X150612737Y-97864313D01*
X150612736Y-97864313D01*
X150583771Y-97860499D01*
X150500227Y-97849500D01*
X150500220Y-97849500D01*
X150274780Y-97849500D01*
X150274772Y-97849500D01*
X150172765Y-97862930D01*
X150172763Y-97862930D01*
X150162264Y-97864313D01*
X150022267Y-97922302D01*
X149978699Y-97955732D01*
X149978699Y-97955733D01*
X149976059Y-97957758D01*
X149962986Y-97967789D01*
X149897819Y-97992984D01*
X149829374Y-97978946D01*
X149812015Y-97967790D01*
X149786012Y-97947838D01*
X149744810Y-97891410D01*
X149738620Y-97855894D01*
X149737499Y-97854911D01*
X149678186Y-97862721D01*
X149609151Y-97851956D01*
X149556895Y-97805576D01*
X149538000Y-97739782D01*
X149538000Y-97003822D01*
X149544126Y-96982958D01*
X149545534Y-96961259D01*
X149555753Y-96943359D01*
X149557685Y-96936783D01*
X149562243Y-96930171D01*
X149567202Y-96923453D01*
X149569113Y-96921543D01*
X149573875Y-96914415D01*
X149575593Y-96912089D01*
X149583075Y-96906409D01*
X149610252Y-96880202D01*
X149703044Y-96822968D01*
X149712668Y-96813343D01*
X149773987Y-96779856D01*
X149843679Y-96784835D01*
X149888034Y-96813339D01*
X149897267Y-96822572D01*
X149897271Y-96822575D01*
X150041507Y-96911542D01*
X150041518Y-96911547D01*
X150202393Y-96964855D01*
X150301683Y-96974999D01*
X150825000Y-96974999D01*
X150848308Y-96974999D01*
X150848322Y-96974998D01*
X150947607Y-96964855D01*
X151108481Y-96911547D01*
X151108492Y-96911542D01*
X151252728Y-96822575D01*
X151252732Y-96822572D01*
X151372572Y-96702732D01*
X151372575Y-96702728D01*
X151461542Y-96558492D01*
X151461547Y-96558481D01*
X151514855Y-96397606D01*
X151524999Y-96298322D01*
X151525000Y-96298309D01*
X151525000Y-96250000D01*
X150825000Y-96250000D01*
X150825000Y-96974999D01*
X150301683Y-96974999D01*
X150325000Y-96974998D01*
X150325000Y-95750000D01*
X150825000Y-95750000D01*
X151524999Y-95750000D01*
X151524999Y-95701692D01*
X151524998Y-95701677D01*
X151514855Y-95602392D01*
X151461547Y-95441518D01*
X151461542Y-95441507D01*
X151372575Y-95297271D01*
X151372572Y-95297267D01*
X151252732Y-95177427D01*
X151252728Y-95177424D01*
X151108492Y-95088457D01*
X151108481Y-95088452D01*
X150947606Y-95035144D01*
X150848322Y-95025000D01*
X150825000Y-95025000D01*
X150825000Y-95750000D01*
X150325000Y-95750000D01*
X150325000Y-95024999D01*
X150301693Y-95025000D01*
X150301674Y-95025001D01*
X150202392Y-95035144D01*
X150041518Y-95088452D01*
X150041507Y-95088457D01*
X149897271Y-95177424D01*
X149897265Y-95177428D01*
X149888031Y-95186663D01*
X149826707Y-95220146D01*
X149757015Y-95215159D01*
X149712672Y-95186660D01*
X149703044Y-95177032D01*
X149703040Y-95177029D01*
X149558705Y-95088001D01*
X149558699Y-95087998D01*
X149558697Y-95087997D01*
X149541885Y-95082426D01*
X149397709Y-95034651D01*
X149298352Y-95024500D01*
X149298345Y-95024500D01*
X149162407Y-95024500D01*
X149095368Y-95004815D01*
X149074709Y-94988165D01*
X149061049Y-94974500D01*
X148800273Y-94713626D01*
X148795988Y-94709340D01*
X148795951Y-94709284D01*
X148742734Y-94656067D01*
X148742733Y-94656065D01*
X148687312Y-94600624D01*
X148687089Y-94600422D01*
X148328721Y-94242052D01*
X148328714Y-94242046D01*
X148255029Y-94192812D01*
X148255029Y-94192813D01*
X148205791Y-94159913D01*
X148069217Y-94103343D01*
X148069207Y-94103340D01*
X147924220Y-94074500D01*
X147924218Y-94074500D01*
X146986230Y-94074500D01*
X146919191Y-94054815D01*
X146873436Y-94002011D01*
X146863492Y-93932853D01*
X146892517Y-93869297D01*
X146898549Y-93862819D01*
X146913971Y-93847397D01*
X146942712Y-93818656D01*
X147034814Y-93669334D01*
X147089999Y-93502797D01*
X147091450Y-93488596D01*
X147117847Y-93423904D01*
X147175029Y-93383754D01*
X147214808Y-93377200D01*
X161360481Y-93377200D01*
X161427520Y-93396885D01*
X161448162Y-93413519D01*
X163827462Y-95792819D01*
X163860947Y-95854142D01*
X163855963Y-95923834D01*
X163814091Y-95979767D01*
X163748627Y-96004184D01*
X163739781Y-96004500D01*
X163405097Y-96004500D01*
X163338058Y-95984815D01*
X163317416Y-95968181D01*
X162987590Y-95638355D01*
X162987588Y-95638352D01*
X162868717Y-95519481D01*
X162868716Y-95519480D01*
X162778283Y-95467269D01*
X162731785Y-95440423D01*
X162579057Y-95399499D01*
X162420943Y-95399499D01*
X162413347Y-95399499D01*
X162413331Y-95399500D01*
X159279766Y-95399500D01*
X159212727Y-95379815D01*
X159210875Y-95378602D01*
X159079185Y-95290609D01*
X159079172Y-95290602D01*
X158933501Y-95230264D01*
X158933489Y-95230261D01*
X158778845Y-95199500D01*
X158778842Y-95199500D01*
X158621158Y-95199500D01*
X158621155Y-95199500D01*
X158466510Y-95230261D01*
X158466498Y-95230264D01*
X158320827Y-95290602D01*
X158320814Y-95290609D01*
X158189711Y-95378210D01*
X158189707Y-95378213D01*
X158078213Y-95489707D01*
X158078210Y-95489711D01*
X157990609Y-95620814D01*
X157990602Y-95620827D01*
X157930264Y-95766498D01*
X157930261Y-95766510D01*
X157899500Y-95921153D01*
X157899500Y-96078846D01*
X157930261Y-96233489D01*
X157930264Y-96233501D01*
X157990602Y-96379172D01*
X157990609Y-96379185D01*
X158078210Y-96510288D01*
X158078213Y-96510292D01*
X158189707Y-96621786D01*
X158189711Y-96621789D01*
X158320814Y-96709390D01*
X158320827Y-96709397D01*
X158466498Y-96769735D01*
X158466503Y-96769737D01*
X158613205Y-96798918D01*
X158621153Y-96800499D01*
X158621156Y-96800500D01*
X158621158Y-96800500D01*
X158778844Y-96800500D01*
X158778845Y-96800499D01*
X158933497Y-96769737D01*
X159079179Y-96709394D01*
X159079185Y-96709390D01*
X159210875Y-96621398D01*
X159277553Y-96600520D01*
X159279766Y-96600500D01*
X162199903Y-96600500D01*
X162266942Y-96620185D01*
X162287584Y-96636819D01*
X162620139Y-96969374D01*
X162620149Y-96969385D01*
X162624479Y-96973715D01*
X162624480Y-96973716D01*
X162736284Y-97085520D01*
X162794423Y-97119086D01*
X162833819Y-97141831D01*
X162873212Y-97164576D01*
X162873214Y-97164576D01*
X162873215Y-97164577D01*
X163025942Y-97205500D01*
X163025943Y-97205500D01*
X168559192Y-97205500D01*
X168626231Y-97225185D01*
X168646874Y-97241820D01*
X168678129Y-97273076D01*
X168678133Y-97273079D01*
X168678135Y-97273081D01*
X168819602Y-97356744D01*
X168832269Y-97360424D01*
X168977426Y-97402597D01*
X168977429Y-97402597D01*
X168977431Y-97402598D01*
X169014306Y-97405500D01*
X169014314Y-97405500D01*
X170795686Y-97405500D01*
X170795694Y-97405500D01*
X170832569Y-97402598D01*
X170832571Y-97402597D01*
X170832573Y-97402597D01*
X170874191Y-97390505D01*
X170990398Y-97356744D01*
X171131865Y-97273081D01*
X171248081Y-97156865D01*
X171331744Y-97015398D01*
X171377598Y-96857569D01*
X171380500Y-96820694D01*
X171380500Y-96389306D01*
X171377598Y-96352431D01*
X171377259Y-96351265D01*
X171339846Y-96222490D01*
X171331744Y-96194602D01*
X171248081Y-96053135D01*
X171248078Y-96053132D01*
X171243298Y-96046969D01*
X171245750Y-96045066D01*
X171219155Y-95996421D01*
X171224104Y-95926726D01*
X171244940Y-95894304D01*
X171243298Y-95893031D01*
X171248075Y-95886870D01*
X171248081Y-95886865D01*
X171331744Y-95745398D01*
X171370553Y-95611818D01*
X171377597Y-95587573D01*
X171377598Y-95587567D01*
X171380499Y-95550701D01*
X171380500Y-95550694D01*
X171380500Y-95119306D01*
X171377598Y-95082431D01*
X171363716Y-95034651D01*
X171340868Y-94956007D01*
X171331744Y-94924602D01*
X171248081Y-94783135D01*
X171248078Y-94783132D01*
X171243298Y-94776969D01*
X171245635Y-94775155D01*
X171218798Y-94726050D01*
X171223756Y-94656356D01*
X171244554Y-94623998D01*
X171242903Y-94622717D01*
X171247686Y-94616550D01*
X171331281Y-94475198D01*
X171377100Y-94317486D01*
X171377295Y-94315001D01*
X171377295Y-94315000D01*
X168432705Y-94315000D01*
X168432704Y-94315001D01*
X168432899Y-94317488D01*
X168432900Y-94317494D01*
X168478923Y-94475905D01*
X168478848Y-94502158D01*
X168482585Y-94528147D01*
X168478750Y-94536543D01*
X168478724Y-94545775D01*
X168464465Y-94567822D01*
X168453560Y-94591703D01*
X168445795Y-94596693D01*
X168440782Y-94604445D01*
X168416866Y-94615283D01*
X168394782Y-94629477D01*
X168381262Y-94631420D01*
X168377143Y-94633288D01*
X168359847Y-94634500D01*
X168131922Y-94634500D01*
X168107730Y-94632117D01*
X167959844Y-94602700D01*
X167959842Y-94602700D01*
X167802158Y-94602700D01*
X167802155Y-94602700D01*
X167647510Y-94633461D01*
X167647498Y-94633464D01*
X167501827Y-94693802D01*
X167501814Y-94693809D01*
X167370711Y-94781410D01*
X167370707Y-94781413D01*
X167259213Y-94892907D01*
X167259210Y-94892911D01*
X167241517Y-94919391D01*
X167235426Y-94924481D01*
X167232128Y-94931703D01*
X167208997Y-94946568D01*
X167187904Y-94964196D01*
X167178530Y-94966147D01*
X167173350Y-94969477D01*
X167138415Y-94974500D01*
X167038800Y-94974500D01*
X166971761Y-94954815D01*
X166926006Y-94902011D01*
X166916062Y-94832853D01*
X166933262Y-94785403D01*
X167011542Y-94658492D01*
X167011547Y-94658481D01*
X167064855Y-94497606D01*
X167074999Y-94398322D01*
X167075000Y-94398309D01*
X167075000Y-94375000D01*
X165125001Y-94375000D01*
X165125001Y-94398322D01*
X165135144Y-94497607D01*
X165188452Y-94658481D01*
X165188457Y-94658492D01*
X165266738Y-94785403D01*
X165268822Y-94793020D01*
X165273994Y-94798989D01*
X165277912Y-94826238D01*
X165285179Y-94852795D01*
X165282814Y-94860330D01*
X165283938Y-94868147D01*
X165272500Y-94893190D01*
X165264257Y-94919458D01*
X165258194Y-94924517D01*
X165254913Y-94931703D01*
X165231748Y-94946589D01*
X165210615Y-94964228D01*
X165201284Y-94966167D01*
X165196135Y-94969477D01*
X165161200Y-94974500D01*
X165041819Y-94974500D01*
X164974780Y-94954815D01*
X164954138Y-94938181D01*
X163952166Y-93936209D01*
X163867634Y-93851677D01*
X165125000Y-93851677D01*
X165125000Y-93875000D01*
X165850000Y-93875000D01*
X165850000Y-93175000D01*
X165849999Y-93174999D01*
X165801693Y-93175000D01*
X165801675Y-93175001D01*
X165702392Y-93185144D01*
X165541518Y-93238452D01*
X165541507Y-93238457D01*
X165397271Y-93327424D01*
X165397267Y-93327427D01*
X165277427Y-93447267D01*
X165277424Y-93447271D01*
X165188457Y-93591507D01*
X165188452Y-93591518D01*
X165135144Y-93752393D01*
X165125000Y-93851677D01*
X163867634Y-93851677D01*
X162818705Y-92802747D01*
X162737111Y-92721153D01*
X166099500Y-92721153D01*
X166099500Y-92878846D01*
X166130261Y-93033489D01*
X166130264Y-93033501D01*
X166190602Y-93179172D01*
X166190609Y-93179185D01*
X166278210Y-93310288D01*
X166278213Y-93310292D01*
X166313680Y-93345758D01*
X166347166Y-93407080D01*
X166350000Y-93433440D01*
X166350000Y-93875000D01*
X167074999Y-93875000D01*
X167074999Y-93851692D01*
X167074998Y-93851677D01*
X167064855Y-93752392D01*
X167056137Y-93726081D01*
X167053735Y-93656253D01*
X167089467Y-93596211D01*
X167128567Y-93573753D01*
X167127869Y-93572068D01*
X167279172Y-93509397D01*
X167279172Y-93509396D01*
X167279179Y-93509394D01*
X167289055Y-93502795D01*
X167410875Y-93421398D01*
X167477553Y-93400520D01*
X167479766Y-93400500D01*
X168411717Y-93400500D01*
X168478756Y-93420185D01*
X168524511Y-93472989D01*
X168534455Y-93542147D01*
X168518449Y-93587621D01*
X168478718Y-93654801D01*
X168432899Y-93812513D01*
X168432704Y-93814998D01*
X168432705Y-93815000D01*
X171377295Y-93815000D01*
X171377295Y-93814998D01*
X171377100Y-93812513D01*
X171331281Y-93654801D01*
X171247685Y-93513447D01*
X171242900Y-93507278D01*
X171245366Y-93505364D01*
X171218802Y-93456776D01*
X171223749Y-93387082D01*
X171244856Y-93354232D01*
X171243301Y-93353026D01*
X171248077Y-93346868D01*
X171248081Y-93346865D01*
X171331744Y-93205398D01*
X171377598Y-93047569D01*
X171380500Y-93010694D01*
X171380500Y-92579306D01*
X171377800Y-92544998D01*
X173382704Y-92544998D01*
X173382705Y-92545000D01*
X174605000Y-92545000D01*
X175105000Y-92545000D01*
X176327295Y-92545000D01*
X176327295Y-92544998D01*
X176327100Y-92542513D01*
X176281281Y-92384801D01*
X176197685Y-92243447D01*
X176197678Y-92243438D01*
X176081561Y-92127321D01*
X176081552Y-92127314D01*
X175940196Y-92043717D01*
X175940193Y-92043716D01*
X175782495Y-91997900D01*
X175782489Y-91997899D01*
X175745649Y-91995000D01*
X175105000Y-91995000D01*
X175105000Y-92545000D01*
X174605000Y-92545000D01*
X174605000Y-91995000D01*
X173964350Y-91995000D01*
X173927510Y-91997899D01*
X173927504Y-91997900D01*
X173769806Y-92043716D01*
X173769803Y-92043717D01*
X173628447Y-92127314D01*
X173628438Y-92127321D01*
X173512321Y-92243438D01*
X173512314Y-92243447D01*
X173428718Y-92384801D01*
X173382899Y-92542513D01*
X173382704Y-92544998D01*
X171377800Y-92544998D01*
X171377598Y-92542431D01*
X171376363Y-92538181D01*
X171331745Y-92384606D01*
X171331744Y-92384603D01*
X171331744Y-92384602D01*
X171248081Y-92243135D01*
X171248079Y-92243133D01*
X171248076Y-92243129D01*
X171131870Y-92126923D01*
X171131862Y-92126917D01*
X171006930Y-92053033D01*
X170990398Y-92043256D01*
X170990397Y-92043255D01*
X170990396Y-92043255D01*
X170990393Y-92043254D01*
X170832573Y-91997402D01*
X170832567Y-91997401D01*
X170795701Y-91994500D01*
X170795694Y-91994500D01*
X169014306Y-91994500D01*
X169014298Y-91994500D01*
X168977432Y-91997401D01*
X168977426Y-91997402D01*
X168819606Y-92043254D01*
X168819603Y-92043255D01*
X168678137Y-92126917D01*
X168678129Y-92126923D01*
X168641874Y-92163180D01*
X168580552Y-92196666D01*
X168554192Y-92199500D01*
X167479766Y-92199500D01*
X167412727Y-92179815D01*
X167410875Y-92178602D01*
X167279185Y-92090609D01*
X167279172Y-92090602D01*
X167133501Y-92030264D01*
X167133489Y-92030261D01*
X166978845Y-91999500D01*
X166978842Y-91999500D01*
X166821158Y-91999500D01*
X166821155Y-91999500D01*
X166666510Y-92030261D01*
X166666498Y-92030264D01*
X166520827Y-92090602D01*
X166520814Y-92090609D01*
X166389711Y-92178210D01*
X166389707Y-92178213D01*
X166278213Y-92289707D01*
X166278210Y-92289711D01*
X166190609Y-92420814D01*
X166190602Y-92420827D01*
X166130264Y-92566498D01*
X166130261Y-92566510D01*
X166099500Y-92721153D01*
X162737111Y-92721153D01*
X162148545Y-92132587D01*
X162033807Y-92055922D01*
X161906332Y-92003121D01*
X161906322Y-92003118D01*
X161770996Y-91976200D01*
X161770994Y-91976200D01*
X161770993Y-91976200D01*
X153640895Y-91976200D01*
X153573856Y-91956515D01*
X153528101Y-91903711D01*
X153518157Y-91834553D01*
X153547182Y-91770997D01*
X153578893Y-91744814D01*
X153641641Y-91708587D01*
X153854890Y-91544956D01*
X154044956Y-91354890D01*
X154208587Y-91141641D01*
X154342984Y-90908859D01*
X154445847Y-90660526D01*
X154515416Y-90400891D01*
X154550500Y-90134397D01*
X154550500Y-89865603D01*
X154515416Y-89599109D01*
X154445847Y-89339474D01*
X154392337Y-89210289D01*
X154342988Y-89091149D01*
X154342980Y-89091133D01*
X154251970Y-88933501D01*
X154208587Y-88858359D01*
X154044956Y-88645110D01*
X154044951Y-88645104D01*
X153854895Y-88455048D01*
X153854888Y-88455042D01*
X153641645Y-88291416D01*
X153641644Y-88291415D01*
X153641641Y-88291413D01*
X153548832Y-88237830D01*
X153408866Y-88157019D01*
X153408850Y-88157011D01*
X153160524Y-88054152D01*
X153030708Y-88019368D01*
X152900891Y-87984584D01*
X152900885Y-87984583D01*
X152900880Y-87984582D01*
X152634398Y-87949500D01*
X152634397Y-87949500D01*
X152365603Y-87949500D01*
X152365602Y-87949500D01*
X152099119Y-87984582D01*
X152099112Y-87984583D01*
X152099109Y-87984584D01*
X152044239Y-87999286D01*
X151839475Y-88054152D01*
X151591149Y-88157011D01*
X151591133Y-88157019D01*
X151358354Y-88291416D01*
X151145111Y-88455042D01*
X151145104Y-88455048D01*
X150955048Y-88645104D01*
X150955042Y-88645111D01*
X150791416Y-88858354D01*
X150657019Y-89091133D01*
X150657011Y-89091149D01*
X150554152Y-89339475D01*
X150484585Y-89599106D01*
X150484582Y-89599119D01*
X150449500Y-89865602D01*
X150449500Y-90134397D01*
X150484582Y-90400880D01*
X150484583Y-90400885D01*
X150484584Y-90400891D01*
X150502658Y-90468345D01*
X150554152Y-90660524D01*
X150657011Y-90908850D01*
X150657019Y-90908866D01*
X150736887Y-91047200D01*
X150791413Y-91141641D01*
X150791415Y-91141644D01*
X150791416Y-91141645D01*
X150955042Y-91354888D01*
X150955048Y-91354895D01*
X151145104Y-91544951D01*
X151145111Y-91544957D01*
X151218693Y-91601418D01*
X151358359Y-91708587D01*
X151421106Y-91744814D01*
X151469321Y-91795380D01*
X151482543Y-91863987D01*
X151456575Y-91928852D01*
X151399661Y-91969380D01*
X151359105Y-91976200D01*
X147224499Y-91976200D01*
X147157460Y-91956515D01*
X147111705Y-91903711D01*
X147100499Y-91852200D01*
X147100499Y-91149998D01*
X147100498Y-91149981D01*
X147089999Y-91047203D01*
X147089998Y-91047200D01*
X147053632Y-90937455D01*
X147034814Y-90880666D01*
X146942712Y-90731344D01*
X146898694Y-90687326D01*
X146865210Y-90626004D01*
X146870194Y-90556312D01*
X146898696Y-90511964D01*
X146942315Y-90468345D01*
X147034356Y-90319124D01*
X147034358Y-90319119D01*
X147089505Y-90152697D01*
X147089506Y-90152690D01*
X147099999Y-90049986D01*
X147100000Y-90049973D01*
X147100000Y-89175000D01*
X144500001Y-89175000D01*
X144500001Y-90049986D01*
X144510494Y-90152697D01*
X144565641Y-90319119D01*
X144565643Y-90319124D01*
X144657684Y-90468345D01*
X144701304Y-90511965D01*
X144734789Y-90573288D01*
X144729805Y-90642980D01*
X144701305Y-90687326D01*
X144657289Y-90731342D01*
X144565187Y-90880663D01*
X144565186Y-90880666D01*
X144510001Y-91047203D01*
X144510001Y-91047204D01*
X144510000Y-91047204D01*
X144499500Y-91149983D01*
X144499500Y-91450500D01*
X144479815Y-91517539D01*
X144427011Y-91563294D01*
X144375500Y-91574500D01*
X141531004Y-91574500D01*
X141395677Y-91601418D01*
X141395667Y-91601421D01*
X141268192Y-91654222D01*
X141153454Y-91730887D01*
X141153453Y-91730888D01*
X140346162Y-92538181D01*
X140284839Y-92571666D01*
X140258481Y-92574500D01*
X139615341Y-92574500D01*
X139548302Y-92554815D01*
X139504253Y-92505596D01*
X139477030Y-92450704D01*
X139357722Y-92302278D01*
X139288112Y-92246324D01*
X139248196Y-92188985D01*
X139245616Y-92119163D01*
X139281194Y-92059030D01*
X139288115Y-92053033D01*
X139357366Y-91997367D01*
X139357367Y-91997366D01*
X139476607Y-91849025D01*
X139476609Y-91849022D01*
X139561168Y-91678523D01*
X139607102Y-91493824D01*
X139610000Y-91451096D01*
X139610000Y-91250000D01*
X136610000Y-91250000D01*
X136610000Y-91451096D01*
X136612897Y-91493824D01*
X136658831Y-91678523D01*
X136743390Y-91849022D01*
X136743392Y-91849025D01*
X136862630Y-91997364D01*
X136931884Y-92053031D01*
X136971803Y-92110375D01*
X136974383Y-92180197D01*
X136938805Y-92240329D01*
X136931885Y-92246326D01*
X136862276Y-92302280D01*
X136742969Y-92450704D01*
X136742967Y-92450707D01*
X136658360Y-92621302D01*
X136612400Y-92806107D01*
X136609500Y-92848879D01*
X136609500Y-93751122D01*
X136609501Y-93751125D01*
X136612399Y-93793886D01*
X136612399Y-93793887D01*
X136658360Y-93978696D01*
X136742967Y-94149292D01*
X136742969Y-94149295D01*
X136862277Y-94297721D01*
X136862278Y-94297722D01*
X137010704Y-94417030D01*
X137010707Y-94417032D01*
X137129415Y-94475905D01*
X137181307Y-94501641D01*
X137315426Y-94534995D01*
X137340389Y-94549600D01*
X137366703Y-94561617D01*
X137370181Y-94567030D01*
X137375733Y-94570278D01*
X137388837Y-94596058D01*
X137404477Y-94620395D01*
X137405766Y-94629365D01*
X137407392Y-94632563D01*
X137409500Y-94655329D01*
X137409500Y-94893521D01*
X137407117Y-94917713D01*
X137399500Y-94956005D01*
X137399500Y-94974684D01*
X137390061Y-95022136D01*
X137330264Y-95166498D01*
X137330261Y-95166510D01*
X137299500Y-95321153D01*
X137299500Y-95478846D01*
X137330261Y-95633489D01*
X137330264Y-95633501D01*
X137390602Y-95779172D01*
X137390609Y-95779185D01*
X137478210Y-95910288D01*
X137478213Y-95910292D01*
X137589707Y-96021786D01*
X137589711Y-96021789D01*
X137720814Y-96109390D01*
X137720827Y-96109397D01*
X137866498Y-96169735D01*
X137866503Y-96169737D01*
X137991507Y-96194602D01*
X138021153Y-96200499D01*
X138021156Y-96200500D01*
X138021158Y-96200500D01*
X138178844Y-96200500D01*
X138178845Y-96200499D01*
X138333497Y-96169737D01*
X138479179Y-96109394D01*
X138610289Y-96021789D01*
X138721789Y-95910289D01*
X138809394Y-95779179D01*
X138869737Y-95633497D01*
X138900500Y-95478842D01*
X138900500Y-95321158D01*
X138900500Y-95321155D01*
X138900499Y-95321153D01*
X138869739Y-95166511D01*
X138869736Y-95166501D01*
X138850187Y-95119306D01*
X138819938Y-95046278D01*
X138810500Y-94998827D01*
X138810500Y-94655329D01*
X138830185Y-94588290D01*
X138882989Y-94542535D01*
X138904562Y-94534997D01*
X139038693Y-94501641D01*
X139209296Y-94417030D01*
X139357722Y-94297722D01*
X139477030Y-94149296D01*
X139480220Y-94142864D01*
X139529051Y-94044406D01*
X139576472Y-93993093D01*
X139640139Y-93975500D01*
X140399829Y-93975500D01*
X140466868Y-93995185D01*
X140512623Y-94047989D01*
X140522567Y-94117147D01*
X140493542Y-94180703D01*
X140468720Y-94202602D01*
X140409684Y-94242048D01*
X140409680Y-94242051D01*
X139884704Y-94767027D01*
X139844478Y-94793906D01*
X139820826Y-94803703D01*
X139820814Y-94803709D01*
X139689711Y-94891310D01*
X139689707Y-94891313D01*
X139578213Y-95002807D01*
X139578210Y-95002811D01*
X139490609Y-95133914D01*
X139490602Y-95133927D01*
X139430264Y-95279598D01*
X139430261Y-95279610D01*
X139399500Y-95434253D01*
X139399500Y-95591946D01*
X139430261Y-95746589D01*
X139430264Y-95746601D01*
X139490602Y-95892272D01*
X139490609Y-95892285D01*
X139578210Y-96023388D01*
X139578213Y-96023392D01*
X139689707Y-96134886D01*
X139689711Y-96134889D01*
X139820814Y-96222490D01*
X139820827Y-96222497D01*
X139966498Y-96282835D01*
X139966503Y-96282837D01*
X140121153Y-96313599D01*
X140121156Y-96313600D01*
X140121158Y-96313600D01*
X140278844Y-96313600D01*
X140278845Y-96313599D01*
X140433497Y-96282837D01*
X140579179Y-96222494D01*
X140710289Y-96134889D01*
X140821789Y-96023389D01*
X140909394Y-95892279D01*
X140919192Y-95868621D01*
X140946067Y-95828398D01*
X141162649Y-95611816D01*
X141223971Y-95578334D01*
X141250329Y-95575500D01*
X143950500Y-95575500D01*
X144017539Y-95595185D01*
X144063294Y-95647989D01*
X144074500Y-95699500D01*
X144074500Y-96298337D01*
X144074501Y-96298355D01*
X144084650Y-96397707D01*
X144084651Y-96397710D01*
X144137996Y-96558694D01*
X144138001Y-96558705D01*
X144227029Y-96703040D01*
X144227032Y-96703044D01*
X144238181Y-96714193D01*
X144271666Y-96775516D01*
X144273534Y-96792894D01*
X144273903Y-96792858D01*
X144274499Y-96798920D01*
X144303340Y-96943907D01*
X144303342Y-96943913D01*
X144342054Y-97037373D01*
X144359916Y-97080494D01*
X144359918Y-97080499D01*
X144363268Y-97085511D01*
X144363271Y-97085521D01*
X144363274Y-97085520D01*
X144416096Y-97164576D01*
X144442051Y-97203420D01*
X144442052Y-97203421D01*
X146561398Y-99322766D01*
X146588278Y-99362994D01*
X146621414Y-99442991D01*
X146621419Y-99443001D01*
X146703548Y-99565915D01*
X146707414Y-99570626D01*
X146705615Y-99572101D01*
X146715376Y-99589962D01*
X146731977Y-99615794D01*
X146732863Y-99621962D01*
X146734157Y-99624329D01*
X146737000Y-99650729D01*
X146737000Y-99725500D01*
X146717315Y-99792539D01*
X146664511Y-99838294D01*
X146613000Y-99849500D01*
X145274772Y-99849500D01*
X145162264Y-99864313D01*
X145162263Y-99864313D01*
X145022269Y-99922300D01*
X145022267Y-99922301D01*
X144956961Y-99972412D01*
X144891792Y-99997605D01*
X144823347Y-99983566D01*
X144793795Y-99961716D01*
X144735292Y-99903213D01*
X144735288Y-99903210D01*
X144604185Y-99815609D01*
X144604172Y-99815602D01*
X144458501Y-99755264D01*
X144458489Y-99755261D01*
X144303845Y-99724500D01*
X144303842Y-99724500D01*
X144146158Y-99724500D01*
X144146155Y-99724500D01*
X143991510Y-99755261D01*
X143991498Y-99755264D01*
X143845827Y-99815602D01*
X143845814Y-99815609D01*
X143714711Y-99903210D01*
X143714707Y-99903213D01*
X143603213Y-100014707D01*
X143603210Y-100014711D01*
X143515609Y-100145814D01*
X143515602Y-100145827D01*
X143455264Y-100291498D01*
X143455261Y-100291510D01*
X143424500Y-100446153D01*
X143424500Y-100603846D01*
X143455261Y-100758489D01*
X143455264Y-100758501D01*
X143515602Y-100904171D01*
X143515607Y-100904180D01*
X143541953Y-100943611D01*
X143562829Y-101010289D01*
X143544343Y-101077669D01*
X143541953Y-101081389D01*
X143515607Y-101120819D01*
X143515602Y-101120828D01*
X143455264Y-101266498D01*
X143455261Y-101266510D01*
X143424500Y-101421153D01*
X143424500Y-101578846D01*
X143455261Y-101733489D01*
X143455264Y-101733501D01*
X143515602Y-101879172D01*
X143515609Y-101879185D01*
X143603210Y-102010288D01*
X143603213Y-102010292D01*
X143714707Y-102121786D01*
X143714711Y-102121789D01*
X143845814Y-102209390D01*
X143845827Y-102209397D01*
X143983244Y-102266316D01*
X143991503Y-102269737D01*
X144146153Y-102300499D01*
X144146156Y-102300500D01*
X144146158Y-102300500D01*
X144303844Y-102300500D01*
X144303845Y-102300499D01*
X144458497Y-102269737D01*
X144571005Y-102223134D01*
X144640474Y-102215666D01*
X144702953Y-102246941D01*
X144738605Y-102307030D01*
X144741397Y-102353879D01*
X144737000Y-102387279D01*
X144737000Y-102612727D01*
X144744971Y-102673269D01*
X144751332Y-102721585D01*
X144752874Y-102733292D01*
X144749899Y-102733683D01*
X144749899Y-102766316D01*
X144752874Y-102766708D01*
X144737000Y-102887272D01*
X144737000Y-103112727D01*
X144752553Y-103230857D01*
X144752604Y-103230965D01*
X144752593Y-103231161D01*
X144752874Y-103233292D01*
X144752477Y-103233344D01*
X144751757Y-103246914D01*
X144753004Y-103266257D01*
X144751909Y-103274529D01*
X144751813Y-103274764D01*
X144737142Y-103386196D01*
X144736970Y-103387502D01*
X144722864Y-103419337D01*
X144708712Y-103451328D01*
X144708680Y-103451348D01*
X144708666Y-103451382D01*
X144679610Y-103470522D01*
X144650387Y-103489798D01*
X144650350Y-103489798D01*
X144650319Y-103489819D01*
X144615052Y-103490218D01*
X144580522Y-103490629D01*
X144580488Y-103490609D01*
X144580454Y-103490610D01*
X144579952Y-103490295D01*
X144526359Y-103458926D01*
X143980788Y-102913355D01*
X143980786Y-102913352D01*
X143861915Y-102794481D01*
X143861907Y-102794475D01*
X143757451Y-102734168D01*
X143757448Y-102734167D01*
X143755932Y-102733292D01*
X143724983Y-102715423D01*
X143572255Y-102674499D01*
X143414141Y-102674499D01*
X143406545Y-102674499D01*
X143406529Y-102674500D01*
X142913846Y-102674500D01*
X142905266Y-102671980D01*
X142896417Y-102673269D01*
X142872261Y-102662289D01*
X142846807Y-102654815D01*
X142840951Y-102648057D01*
X142832810Y-102644357D01*
X142818424Y-102622059D01*
X142801052Y-102602011D01*
X142798779Y-102591611D01*
X142794931Y-102585646D01*
X142789940Y-102551151D01*
X142789846Y-102550720D01*
X142789846Y-102550540D01*
X142789846Y-102538630D01*
X142789824Y-102538549D01*
X142789818Y-102534960D01*
X142789810Y-102534888D01*
X142789810Y-102534884D01*
X142757511Y-102372525D01*
X142749269Y-102352627D01*
X142694164Y-102219588D01*
X142687353Y-102209394D01*
X142602198Y-102081939D01*
X142589996Y-102069735D01*
X142485155Y-101964879D01*
X142485146Y-101964872D01*
X142347521Y-101872894D01*
X142196442Y-101810292D01*
X142194586Y-101809523D01*
X142194585Y-101809522D01*
X142194581Y-101809521D01*
X142032241Y-101777202D01*
X142032233Y-101777201D01*
X142032231Y-101777201D01*
X142028452Y-101777200D01*
X142028403Y-101777187D01*
X141949462Y-101777187D01*
X141949461Y-101777187D01*
X141876547Y-101777174D01*
X141876545Y-101777174D01*
X141869214Y-101777173D01*
X141868982Y-101777187D01*
X141747112Y-101777187D01*
X141746679Y-101777229D01*
X141584283Y-101809503D01*
X141431303Y-101872841D01*
X141358229Y-101921653D01*
X141291548Y-101942522D01*
X141224171Y-101924027D01*
X141220452Y-101921636D01*
X141147521Y-101872894D01*
X140996442Y-101810292D01*
X140994586Y-101809523D01*
X140994585Y-101809522D01*
X140994581Y-101809521D01*
X140832241Y-101777202D01*
X140832233Y-101777201D01*
X140832231Y-101777201D01*
X140828452Y-101777200D01*
X140828403Y-101777187D01*
X140749462Y-101777187D01*
X140749461Y-101777187D01*
X140676547Y-101777174D01*
X140676545Y-101777174D01*
X140669214Y-101777173D01*
X140668982Y-101777187D01*
X140547112Y-101777187D01*
X140546679Y-101777229D01*
X140388278Y-101808709D01*
X140384283Y-101809503D01*
X140281332Y-101852128D01*
X140231304Y-101872841D01*
X140093629Y-101964804D01*
X139976535Y-102081870D01*
X139884537Y-102219524D01*
X139821162Y-102372483D01*
X139789386Y-102532179D01*
X139788851Y-102534870D01*
X139788850Y-102538612D01*
X139788846Y-102538630D01*
X139788846Y-102550540D01*
X139778677Y-102585129D01*
X139769161Y-102617539D01*
X139769146Y-102617551D01*
X139769140Y-102617573D01*
X139741313Y-102641668D01*
X139716357Y-102663294D01*
X139716335Y-102663298D01*
X139716321Y-102663311D01*
X139716197Y-102663328D01*
X139664846Y-102674500D01*
X137860033Y-102674500D01*
X137792994Y-102654815D01*
X137787147Y-102650817D01*
X137769114Y-102637715D01*
X137586723Y-102544781D01*
X137392034Y-102481522D01*
X137217495Y-102453878D01*
X137189852Y-102449500D01*
X136985148Y-102449500D01*
X136960829Y-102453351D01*
X136782965Y-102481522D01*
X136588276Y-102544781D01*
X136405886Y-102637715D01*
X136240286Y-102758028D01*
X136240282Y-102758032D01*
X136175181Y-102823134D01*
X136113858Y-102856619D01*
X136044166Y-102851635D01*
X135999819Y-102823134D01*
X135934713Y-102758028D01*
X135769113Y-102637715D01*
X135769112Y-102637714D01*
X135769110Y-102637713D01*
X135678630Y-102591611D01*
X135586723Y-102544781D01*
X135392034Y-102481522D01*
X135217495Y-102453878D01*
X135189852Y-102449500D01*
X134985148Y-102449500D01*
X134960829Y-102453351D01*
X134782965Y-102481522D01*
X134588276Y-102544781D01*
X134405886Y-102637715D01*
X134240286Y-102758028D01*
X134095528Y-102902786D01*
X133975215Y-103068386D01*
X133882281Y-103250776D01*
X133819022Y-103445465D01*
X133787000Y-103647648D01*
X133787000Y-103852351D01*
X133819022Y-104054534D01*
X133882281Y-104249223D01*
X133975215Y-104431613D01*
X134095528Y-104597213D01*
X134240286Y-104741971D01*
X134405885Y-104862284D01*
X134405887Y-104862285D01*
X134405890Y-104862287D01*
X134459878Y-104889795D01*
X134510674Y-104937769D01*
X134527469Y-105005590D01*
X134504932Y-105071725D01*
X134459878Y-105110765D01*
X134406144Y-105138143D01*
X134361577Y-105170523D01*
X134361577Y-105170524D01*
X134978502Y-105787449D01*
X134904157Y-105807370D01*
X134795843Y-105869905D01*
X134707405Y-105958343D01*
X134644870Y-106066657D01*
X134624949Y-106141002D01*
X134008024Y-105524077D01*
X134008023Y-105524077D01*
X133975643Y-105568644D01*
X133882744Y-105750968D01*
X133819509Y-105945582D01*
X133787500Y-106147682D01*
X133787500Y-106352317D01*
X133819509Y-106554417D01*
X133882744Y-106749031D01*
X133975641Y-106931350D01*
X133975647Y-106931359D01*
X134008023Y-106975921D01*
X134008024Y-106975922D01*
X134624949Y-106358997D01*
X134644870Y-106433343D01*
X134707405Y-106541657D01*
X134795843Y-106630095D01*
X134904157Y-106692630D01*
X134978501Y-106712550D01*
X134361576Y-107329474D01*
X134406150Y-107361859D01*
X134588468Y-107454755D01*
X134783082Y-107517990D01*
X134985183Y-107550000D01*
X135189817Y-107550000D01*
X135391917Y-107517990D01*
X135586531Y-107454755D01*
X135767706Y-107362441D01*
X135836375Y-107349545D01*
X135901115Y-107375821D01*
X135923267Y-107398614D01*
X135929950Y-107407542D01*
X135929952Y-107407544D01*
X135929954Y-107407546D01*
X135929957Y-107407548D01*
X136045164Y-107493793D01*
X136045171Y-107493797D01*
X136180017Y-107544091D01*
X136180016Y-107544091D01*
X136186944Y-107544835D01*
X136239627Y-107550500D01*
X137935372Y-107550499D01*
X137994983Y-107544091D01*
X138129831Y-107493796D01*
X138245046Y-107407546D01*
X138331296Y-107292331D01*
X138381591Y-107157483D01*
X138388000Y-107097873D01*
X138387999Y-105575499D01*
X138407684Y-105508461D01*
X138460487Y-105462706D01*
X138511999Y-105451500D01*
X139587331Y-105451500D01*
X139587347Y-105451501D01*
X139594943Y-105451501D01*
X139753054Y-105451501D01*
X139753057Y-105451501D01*
X139905785Y-105410577D01*
X139955904Y-105381639D01*
X140042716Y-105331520D01*
X140154520Y-105219716D01*
X140154520Y-105219714D01*
X140164728Y-105209507D01*
X140164729Y-105209504D01*
X141012416Y-104361819D01*
X141073739Y-104328334D01*
X141100097Y-104325500D01*
X142411200Y-104325500D01*
X142478239Y-104345185D01*
X142523994Y-104397989D01*
X142533938Y-104467147D01*
X142516738Y-104514597D01*
X142438457Y-104641507D01*
X142438452Y-104641518D01*
X142385144Y-104802393D01*
X142375000Y-104901677D01*
X142375000Y-104925000D01*
X143226000Y-104925000D01*
X143293039Y-104944685D01*
X143338794Y-104997489D01*
X143350000Y-105049000D01*
X143350000Y-105301000D01*
X143330315Y-105368039D01*
X143277511Y-105413794D01*
X143226000Y-105425000D01*
X142375001Y-105425000D01*
X142375001Y-105448322D01*
X142385144Y-105547607D01*
X142438452Y-105708481D01*
X142438457Y-105708492D01*
X142527424Y-105852728D01*
X142527427Y-105852732D01*
X142536660Y-105861965D01*
X142570145Y-105923288D01*
X142565161Y-105992980D01*
X142536663Y-106037324D01*
X142527033Y-106046953D01*
X142527029Y-106046959D01*
X142438001Y-106191294D01*
X142437996Y-106191305D01*
X142384651Y-106352290D01*
X142374500Y-106451647D01*
X142374500Y-106658480D01*
X142354815Y-106725519D01*
X142338181Y-106746161D01*
X142100181Y-106984161D01*
X142038858Y-107017646D01*
X141969166Y-107012662D01*
X141924819Y-106984161D01*
X141910188Y-106969530D01*
X141872272Y-106946609D01*
X141764606Y-106881522D01*
X141602196Y-106830914D01*
X141602194Y-106830913D01*
X141602192Y-106830913D01*
X141552778Y-106826423D01*
X141531616Y-106824500D01*
X140868384Y-106824500D01*
X140849145Y-106826248D01*
X140797807Y-106830913D01*
X140635388Y-106881524D01*
X140610851Y-106896357D01*
X140543296Y-106914192D01*
X140499252Y-106904800D01*
X140454502Y-106886264D01*
X140454494Y-106886261D01*
X140299845Y-106855500D01*
X140299842Y-106855500D01*
X140142158Y-106855500D01*
X140142155Y-106855500D01*
X139987510Y-106886261D01*
X139987498Y-106886264D01*
X139841827Y-106946602D01*
X139841814Y-106946609D01*
X139710711Y-107034210D01*
X139710707Y-107034213D01*
X139599213Y-107145707D01*
X139599210Y-107145711D01*
X139511609Y-107276814D01*
X139511602Y-107276827D01*
X139451264Y-107422498D01*
X139451261Y-107422510D01*
X139420500Y-107577153D01*
X139420500Y-107734846D01*
X139451261Y-107889489D01*
X139451264Y-107889501D01*
X139511602Y-108035172D01*
X139511609Y-108035185D01*
X139599210Y-108166288D01*
X139599213Y-108166292D01*
X139710707Y-108277786D01*
X139710711Y-108277789D01*
X139841814Y-108365390D01*
X139841827Y-108365397D01*
X139986098Y-108425155D01*
X139987503Y-108425737D01*
X140133722Y-108454822D01*
X140142153Y-108456499D01*
X140142156Y-108456500D01*
X140142158Y-108456500D01*
X140299841Y-108456500D01*
X140299842Y-108456500D01*
X140339575Y-108448596D01*
X140409163Y-108454822D01*
X140464342Y-108497683D01*
X140487588Y-108563573D01*
X140471522Y-108631570D01*
X140451448Y-108657894D01*
X140369529Y-108739813D01*
X140281522Y-108885393D01*
X140230913Y-109047807D01*
X140224500Y-109118386D01*
X140224500Y-109631613D01*
X140230913Y-109702192D01*
X140230913Y-109702194D01*
X140230914Y-109702196D01*
X140281522Y-109864606D01*
X140367089Y-110006151D01*
X140369530Y-110010188D01*
X140489811Y-110130469D01*
X140489813Y-110130470D01*
X140489815Y-110130472D01*
X140539650Y-110160598D01*
X140586838Y-110212126D01*
X140599500Y-110266715D01*
X140599500Y-110536330D01*
X140599499Y-110536348D01*
X140599499Y-110543943D01*
X140599499Y-110702057D01*
X140602715Y-110714059D01*
X140640421Y-110854781D01*
X140640422Y-110854783D01*
X140640423Y-110854785D01*
X140640836Y-110855500D01*
X140706063Y-110968477D01*
X140714585Y-110983237D01*
X140731057Y-111051137D01*
X140708204Y-111117164D01*
X140708199Y-111117167D01*
X140681509Y-111144502D01*
X140617452Y-111192455D01*
X140531206Y-111307664D01*
X140531202Y-111307671D01*
X140480908Y-111442517D01*
X140474501Y-111502116D01*
X140474500Y-111502135D01*
X140474500Y-113297870D01*
X140474501Y-113297876D01*
X140480908Y-113357483D01*
X140531202Y-113492328D01*
X140531206Y-113492335D01*
X140617452Y-113607544D01*
X140617455Y-113607547D01*
X140732664Y-113693793D01*
X140732671Y-113693797D01*
X140867517Y-113744091D01*
X140867516Y-113744091D01*
X140874444Y-113744835D01*
X140927127Y-113750500D01*
X142722872Y-113750499D01*
X142782483Y-113744091D01*
X142917331Y-113693796D01*
X143032546Y-113607546D01*
X143118796Y-113492331D01*
X143167810Y-113360916D01*
X143209681Y-113304984D01*
X143275145Y-113280566D01*
X143343418Y-113295417D01*
X143371673Y-113316569D01*
X143485213Y-113430109D01*
X143651972Y-113551264D01*
X143657184Y-113555051D01*
X143731794Y-113593066D01*
X143782590Y-113641040D01*
X143799500Y-113703551D01*
X143799500Y-114383284D01*
X143779815Y-114450323D01*
X143739652Y-114489400D01*
X143689811Y-114519530D01*
X143569530Y-114639811D01*
X143481522Y-114785393D01*
X143430913Y-114947807D01*
X143426397Y-114997510D01*
X143424500Y-115018384D01*
X143424500Y-115531616D01*
X143425631Y-115544057D01*
X143430913Y-115602192D01*
X143430913Y-115602194D01*
X143430914Y-115602196D01*
X143481522Y-115764606D01*
X143567827Y-115907372D01*
X143569530Y-115910188D01*
X143672015Y-116012673D01*
X143705500Y-116073996D01*
X143700516Y-116143688D01*
X143672015Y-116188035D01*
X143569928Y-116290121D01*
X143569927Y-116290122D01*
X143481980Y-116435604D01*
X143431409Y-116597893D01*
X143425000Y-116668427D01*
X143425000Y-116675000D01*
X145374999Y-116675000D01*
X145374999Y-116668417D01*
X145368591Y-116597897D01*
X145368590Y-116597892D01*
X145318018Y-116435603D01*
X145230072Y-116290122D01*
X145127984Y-116188034D01*
X145094499Y-116126711D01*
X145099483Y-116057019D01*
X145127983Y-116012673D01*
X145230472Y-115910185D01*
X145318478Y-115764606D01*
X145369086Y-115602196D01*
X145375500Y-115531616D01*
X145375500Y-115018384D01*
X145369086Y-114947804D01*
X145318478Y-114785394D01*
X145230472Y-114639815D01*
X145230470Y-114639813D01*
X145230469Y-114639811D01*
X145110188Y-114519530D01*
X145060348Y-114489400D01*
X145013162Y-114437871D01*
X145000500Y-114383284D01*
X145000500Y-113667884D01*
X145002341Y-113661611D01*
X145001152Y-113655181D01*
X145012065Y-113628496D01*
X145020185Y-113600845D01*
X145025739Y-113595062D01*
X145027601Y-113590511D01*
X145039185Y-113581064D01*
X145053325Y-113566345D01*
X145060444Y-113561354D01*
X145072816Y-113555051D01*
X145165425Y-113487766D01*
X145166234Y-113487200D01*
X145198373Y-113476343D01*
X145230330Y-113464941D01*
X145231394Y-113465188D01*
X145232429Y-113464839D01*
X145265328Y-113473079D01*
X145298384Y-113480766D01*
X145299259Y-113481578D01*
X145300205Y-113481815D01*
X145304886Y-113486797D01*
X145340511Y-113519847D01*
X145372213Y-113567292D01*
X145483707Y-113678786D01*
X145483711Y-113678789D01*
X145614814Y-113766390D01*
X145614827Y-113766397D01*
X145714758Y-113807789D01*
X145760503Y-113826737D01*
X145915153Y-113857499D01*
X145915156Y-113857500D01*
X145915158Y-113857500D01*
X146072843Y-113857500D01*
X146114956Y-113849123D01*
X146146260Y-113842896D01*
X146215851Y-113849123D01*
X146271029Y-113891985D01*
X146288835Y-113927618D01*
X146331522Y-114064606D01*
X146419528Y-114210185D01*
X146538182Y-114328839D01*
X146571666Y-114390160D01*
X146574500Y-114416519D01*
X146574500Y-117706786D01*
X146568206Y-117745789D01*
X146534565Y-117847311D01*
X146534563Y-117847321D01*
X146524500Y-117945818D01*
X146524500Y-118479181D01*
X146534563Y-118577683D01*
X146587450Y-118737284D01*
X146587455Y-118737295D01*
X146675716Y-118880387D01*
X146675719Y-118880392D01*
X146708000Y-118912673D01*
X146741485Y-118973997D01*
X146736499Y-119043688D01*
X146708000Y-119088033D01*
X146676114Y-119119919D01*
X146587908Y-119262922D01*
X146587906Y-119262927D01*
X146535057Y-119422416D01*
X146525000Y-119520849D01*
X146525000Y-119537500D01*
X148474999Y-119537500D01*
X148474999Y-119520864D01*
X148474998Y-119520847D01*
X148464943Y-119422416D01*
X148412093Y-119262927D01*
X148412091Y-119262922D01*
X148323885Y-119119919D01*
X148292000Y-119088034D01*
X148258515Y-119026711D01*
X148263499Y-118957019D01*
X148292000Y-118912672D01*
X148301510Y-118903162D01*
X148324281Y-118880391D01*
X148412549Y-118737287D01*
X148465436Y-118577685D01*
X148475500Y-118479174D01*
X148475500Y-117945826D01*
X148465436Y-117847315D01*
X148412549Y-117687713D01*
X148412545Y-117687707D01*
X148412544Y-117687704D01*
X148324283Y-117544612D01*
X148324280Y-117544608D01*
X148205391Y-117425719D01*
X148205387Y-117425716D01*
X148062295Y-117337455D01*
X148062289Y-117337452D01*
X148062287Y-117337451D01*
X147902685Y-117284564D01*
X147902682Y-117284563D01*
X147886897Y-117282951D01*
X147822205Y-117256555D01*
X147782054Y-117199374D01*
X147775500Y-117159593D01*
X147775500Y-114416519D01*
X147784145Y-114387075D01*
X147790668Y-114357093D01*
X147794422Y-114352077D01*
X147795185Y-114349480D01*
X147811813Y-114328843D01*
X147912321Y-114228335D01*
X147973640Y-114194853D01*
X148043332Y-114199837D01*
X148087680Y-114228338D01*
X148189811Y-114330469D01*
X148189813Y-114330470D01*
X148189815Y-114330472D01*
X148335394Y-114418478D01*
X148497804Y-114469086D01*
X148568384Y-114475500D01*
X148568387Y-114475500D01*
X149081613Y-114475500D01*
X149081616Y-114475500D01*
X149152196Y-114469086D01*
X149314606Y-114418478D01*
X149460185Y-114330472D01*
X149580472Y-114210185D01*
X149610598Y-114160349D01*
X149662126Y-114113162D01*
X149716715Y-114100500D01*
X151076000Y-114100500D01*
X151143039Y-114120185D01*
X151188794Y-114172989D01*
X151200000Y-114224500D01*
X151200000Y-114700000D01*
X152116988Y-114700000D01*
X152084075Y-114757007D01*
X152050000Y-114884174D01*
X152050000Y-115015826D01*
X152084075Y-115142993D01*
X152116988Y-115200000D01*
X151200000Y-115200000D01*
X151200000Y-115847844D01*
X151206401Y-115907372D01*
X151206403Y-115907379D01*
X151256645Y-116042086D01*
X151256649Y-116042093D01*
X151342809Y-116157187D01*
X151342812Y-116157190D01*
X151457906Y-116243350D01*
X151457913Y-116243354D01*
X151589470Y-116292422D01*
X151645404Y-116334293D01*
X151669821Y-116399758D01*
X151654969Y-116468031D01*
X151633819Y-116496285D01*
X151519889Y-116610215D01*
X151394951Y-116782179D01*
X151298444Y-116971585D01*
X151232753Y-117173760D01*
X151199500Y-117383713D01*
X151199500Y-117596286D01*
X151230781Y-117793790D01*
X151232754Y-117806243D01*
X151285738Y-117969311D01*
X151298444Y-118008414D01*
X151394951Y-118197820D01*
X151519890Y-118369786D01*
X151670213Y-118520109D01*
X151842182Y-118645050D01*
X151850946Y-118649516D01*
X151901742Y-118697491D01*
X151918536Y-118765312D01*
X151895998Y-118831447D01*
X151850946Y-118870484D01*
X151842182Y-118874949D01*
X151670213Y-118999890D01*
X151519890Y-119150213D01*
X151394951Y-119322179D01*
X151298444Y-119511585D01*
X151232753Y-119713760D01*
X151199500Y-119923713D01*
X151199500Y-120136286D01*
X151227342Y-120312077D01*
X151232754Y-120346243D01*
X151285738Y-120509311D01*
X151298444Y-120548414D01*
X151334514Y-120619205D01*
X151347410Y-120687874D01*
X151321134Y-120752614D01*
X151264028Y-120792872D01*
X151224029Y-120799500D01*
X148276492Y-120799500D01*
X148209453Y-120779815D01*
X148163698Y-120727011D01*
X148153754Y-120657853D01*
X148182779Y-120594297D01*
X148199583Y-120578233D01*
X148205077Y-120573888D01*
X148323885Y-120455080D01*
X148412091Y-120312077D01*
X148412093Y-120312072D01*
X148464942Y-120152583D01*
X148474999Y-120054150D01*
X148475000Y-120054137D01*
X148475000Y-120037500D01*
X146525001Y-120037500D01*
X146525001Y-120054152D01*
X146535056Y-120152583D01*
X146587906Y-120312072D01*
X146587908Y-120312077D01*
X146676114Y-120455080D01*
X146794922Y-120573888D01*
X146800417Y-120578233D01*
X146840795Y-120635254D01*
X146843935Y-120705053D01*
X146808840Y-120765469D01*
X146746653Y-120797321D01*
X146723508Y-120799500D01*
X145641519Y-120799500D01*
X145574480Y-120779815D01*
X145553838Y-120763181D01*
X144646546Y-119855888D01*
X144646545Y-119855887D01*
X144531807Y-119779222D01*
X144404332Y-119726421D01*
X144404322Y-119726418D01*
X144268996Y-119699500D01*
X144268994Y-119699500D01*
X144268993Y-119699500D01*
X142526200Y-119699500D01*
X142459161Y-119679815D01*
X142413406Y-119627011D01*
X142403462Y-119557853D01*
X142411639Y-119528048D01*
X142414867Y-119520253D01*
X142419737Y-119508497D01*
X142450500Y-119353842D01*
X142450500Y-119196158D01*
X142450500Y-119196155D01*
X142450499Y-119196153D01*
X142432564Y-119105990D01*
X142419737Y-119041503D01*
X142402503Y-118999896D01*
X142359397Y-118895827D01*
X142359390Y-118895814D01*
X142271789Y-118764711D01*
X142271786Y-118764707D01*
X142160292Y-118653213D01*
X142160288Y-118653210D01*
X142029185Y-118565609D01*
X142029172Y-118565602D01*
X141883501Y-118505264D01*
X141883489Y-118505261D01*
X141728845Y-118474500D01*
X141728842Y-118474500D01*
X141571158Y-118474500D01*
X141571155Y-118474500D01*
X141416510Y-118505261D01*
X141416498Y-118505264D01*
X141270827Y-118565602D01*
X141270814Y-118565609D01*
X141139711Y-118653210D01*
X141139707Y-118653213D01*
X141028213Y-118764707D01*
X141028210Y-118764711D01*
X140940609Y-118895814D01*
X140940602Y-118895827D01*
X140880264Y-119041498D01*
X140880261Y-119041510D01*
X140849500Y-119196153D01*
X140849500Y-119353846D01*
X140880261Y-119508489D01*
X140880264Y-119508501D01*
X140902061Y-119561123D01*
X140911500Y-119608575D01*
X140911500Y-120046481D01*
X140891815Y-120113520D01*
X140875181Y-120134162D01*
X139772462Y-121236881D01*
X139711139Y-121270366D01*
X139684781Y-121273200D01*
X135935000Y-121273200D01*
X135935000Y-121321044D01*
X135941401Y-121380572D01*
X135941403Y-121380579D01*
X135991645Y-121515286D01*
X135991647Y-121515289D01*
X136077723Y-121630272D01*
X136102140Y-121695736D01*
X136087288Y-121764009D01*
X136077723Y-121778894D01*
X135991204Y-121894468D01*
X135991202Y-121894471D01*
X135940910Y-122029313D01*
X135940909Y-122029317D01*
X135934500Y-122088927D01*
X135934500Y-122088934D01*
X135934500Y-122088935D01*
X135934500Y-122591070D01*
X135934501Y-122591076D01*
X135940908Y-122650683D01*
X135991202Y-122785528D01*
X135991206Y-122785535D01*
X136077452Y-122900744D01*
X136077455Y-122900747D01*
X136192664Y-122986993D01*
X136192671Y-122986997D01*
X136327517Y-123037291D01*
X136327516Y-123037291D01*
X136334444Y-123038035D01*
X136387127Y-123043700D01*
X139276872Y-123043699D01*
X139300027Y-123041209D01*
X139313279Y-123040500D01*
X139728996Y-123040500D01*
X139820040Y-123022389D01*
X139864328Y-123013580D01*
X139928515Y-122986993D01*
X139991807Y-122960777D01*
X139991808Y-122960776D01*
X139991811Y-122960775D01*
X140106543Y-122884114D01*
X141853838Y-121136819D01*
X141915161Y-121103334D01*
X141941519Y-121100500D01*
X143858481Y-121100500D01*
X143925520Y-121120185D01*
X143946162Y-121136819D01*
X144853453Y-122044111D01*
X144853454Y-122044112D01*
X144968192Y-122120777D01*
X145095667Y-122173578D01*
X145095672Y-122173580D01*
X145095676Y-122173580D01*
X145095677Y-122173581D01*
X145231003Y-122200500D01*
X145231006Y-122200500D01*
X145231007Y-122200500D01*
X151096004Y-122200500D01*
X151163043Y-122220185D01*
X151208798Y-122272989D01*
X151218742Y-122342147D01*
X151218477Y-122343898D01*
X151199500Y-122463713D01*
X151199500Y-122676286D01*
X151232416Y-122884114D01*
X151232754Y-122886243D01*
X151292375Y-123069738D01*
X151298444Y-123088414D01*
X151394951Y-123277820D01*
X151519890Y-123449786D01*
X151670213Y-123600109D01*
X151831134Y-123717023D01*
X151842184Y-123725051D01*
X151913932Y-123761608D01*
X151921599Y-123765515D01*
X151972395Y-123813490D01*
X151989190Y-123881311D01*
X151966653Y-123947446D01*
X151911937Y-123990897D01*
X151865304Y-124000000D01*
X126124000Y-124000000D01*
X126056961Y-123980315D01*
X126011206Y-123927511D01*
X126000000Y-123876000D01*
X126000000Y-122221154D01*
X130499500Y-122221154D01*
X130499500Y-122378846D01*
X130530261Y-122533489D01*
X130530264Y-122533501D01*
X130590602Y-122679172D01*
X130590609Y-122679185D01*
X130678210Y-122810288D01*
X130678213Y-122810292D01*
X130789707Y-122921786D01*
X130789711Y-122921789D01*
X130920814Y-123009390D01*
X130920827Y-123009397D01*
X131066498Y-123069735D01*
X131066503Y-123069737D01*
X131221153Y-123100499D01*
X131221156Y-123100500D01*
X131221158Y-123100500D01*
X131378844Y-123100500D01*
X131378845Y-123100499D01*
X131533497Y-123069737D01*
X131679179Y-123009394D01*
X131751010Y-122961398D01*
X131769056Y-122955747D01*
X131784966Y-122945523D01*
X131815925Y-122941071D01*
X131817687Y-122940520D01*
X131819901Y-122940500D01*
X132025286Y-122940500D01*
X132092325Y-122960185D01*
X132099596Y-122965233D01*
X132128665Y-122986993D01*
X132128671Y-122986997D01*
X132263517Y-123037291D01*
X132263516Y-123037291D01*
X132270444Y-123038035D01*
X132323127Y-123043700D01*
X135212872Y-123043699D01*
X135272483Y-123037291D01*
X135407331Y-122986996D01*
X135522546Y-122900746D01*
X135608796Y-122785531D01*
X135659091Y-122650683D01*
X135665500Y-122591073D01*
X135665499Y-122088928D01*
X135659091Y-122029317D01*
X135608796Y-121894469D01*
X135608795Y-121894468D01*
X135608793Y-121894464D01*
X135522589Y-121779311D01*
X135498171Y-121713847D01*
X135513022Y-121645574D01*
X135522589Y-121630689D01*
X135608793Y-121515535D01*
X135608792Y-121515535D01*
X135608796Y-121515531D01*
X135659091Y-121380683D01*
X135665500Y-121321073D01*
X135665499Y-120818928D01*
X135659091Y-120759317D01*
X135621247Y-120657853D01*
X135608797Y-120624471D01*
X135608793Y-120624464D01*
X135522589Y-120509311D01*
X135498171Y-120443847D01*
X135513022Y-120375574D01*
X135522589Y-120360689D01*
X135608793Y-120245535D01*
X135608792Y-120245535D01*
X135608796Y-120245531D01*
X135659091Y-120110683D01*
X135665500Y-120051073D01*
X135665500Y-120051044D01*
X135935000Y-120051044D01*
X135941401Y-120110572D01*
X135941403Y-120110579D01*
X135991645Y-120245286D01*
X135991649Y-120245293D01*
X136078035Y-120360689D01*
X136102453Y-120426153D01*
X136087602Y-120494426D01*
X136078035Y-120509311D01*
X135991649Y-120624706D01*
X135991645Y-120624713D01*
X135941403Y-120759420D01*
X135941401Y-120759427D01*
X135935000Y-120818955D01*
X135935000Y-120866800D01*
X137628800Y-120866800D01*
X138035200Y-120866800D01*
X139729000Y-120866800D01*
X139729000Y-120818972D01*
X139728999Y-120818955D01*
X139722598Y-120759427D01*
X139722596Y-120759420D01*
X139672354Y-120624713D01*
X139672350Y-120624706D01*
X139585965Y-120509311D01*
X139561547Y-120443847D01*
X139576398Y-120375574D01*
X139585965Y-120360689D01*
X139672350Y-120245293D01*
X139672354Y-120245286D01*
X139722596Y-120110579D01*
X139722598Y-120110572D01*
X139728999Y-120051044D01*
X139729000Y-120051027D01*
X139729000Y-120003200D01*
X138035200Y-120003200D01*
X138035200Y-120866800D01*
X137628800Y-120866800D01*
X137628800Y-120003200D01*
X135935000Y-120003200D01*
X135935000Y-120051044D01*
X135665500Y-120051044D01*
X135665499Y-119779225D01*
X135665499Y-119548929D01*
X135665498Y-119548923D01*
X135664270Y-119537500D01*
X135659091Y-119489317D01*
X135608886Y-119354711D01*
X135608797Y-119354471D01*
X135608793Y-119354464D01*
X135522589Y-119239311D01*
X135498171Y-119173847D01*
X135513022Y-119105574D01*
X135522589Y-119090689D01*
X135608793Y-118975535D01*
X135608792Y-118975535D01*
X135608796Y-118975531D01*
X135659091Y-118840683D01*
X135665500Y-118781073D01*
X135665499Y-118278928D01*
X135665499Y-118278927D01*
X135934500Y-118278927D01*
X135934500Y-118278934D01*
X135934500Y-118278935D01*
X135934500Y-118278936D01*
X135934501Y-118781070D01*
X135940908Y-118840683D01*
X135991202Y-118975528D01*
X135991204Y-118975531D01*
X136077454Y-119090746D01*
X136077456Y-119090747D01*
X136077723Y-119091104D01*
X136102141Y-119156568D01*
X136087290Y-119224842D01*
X136077724Y-119239727D01*
X135991647Y-119354711D01*
X135991645Y-119354713D01*
X135941403Y-119489420D01*
X135941401Y-119489427D01*
X135935000Y-119548955D01*
X135935000Y-119596800D01*
X139729000Y-119596800D01*
X139729000Y-119548972D01*
X139728999Y-119548955D01*
X139722598Y-119489427D01*
X139722596Y-119489420D01*
X139672354Y-119354713D01*
X139672352Y-119354711D01*
X139586276Y-119239727D01*
X139561859Y-119174263D01*
X139576710Y-119105990D01*
X139586277Y-119091104D01*
X139586543Y-119090747D01*
X139586546Y-119090746D01*
X139672796Y-118975531D01*
X139723091Y-118840683D01*
X139729500Y-118781073D01*
X139729499Y-118278928D01*
X139723091Y-118219317D01*
X139692425Y-118137098D01*
X139672797Y-118084471D01*
X139672793Y-118084464D01*
X139586277Y-117968894D01*
X139561859Y-117903430D01*
X139576710Y-117835157D01*
X139586277Y-117820272D01*
X139672350Y-117705293D01*
X139672354Y-117705286D01*
X139722596Y-117570579D01*
X139722598Y-117570572D01*
X139728999Y-117511044D01*
X139729000Y-117511027D01*
X139729000Y-117463200D01*
X135935000Y-117463200D01*
X135935000Y-117511044D01*
X135941401Y-117570572D01*
X135941403Y-117570579D01*
X135991645Y-117705286D01*
X135991647Y-117705289D01*
X136077723Y-117820272D01*
X136102140Y-117885736D01*
X136087288Y-117954009D01*
X136077723Y-117968894D01*
X135991204Y-118084468D01*
X135991202Y-118084471D01*
X135940910Y-118219313D01*
X135940909Y-118219317D01*
X135934500Y-118278927D01*
X135665499Y-118278927D01*
X135659091Y-118219317D01*
X135628425Y-118137098D01*
X135608797Y-118084471D01*
X135608793Y-118084464D01*
X135522589Y-117969311D01*
X135498171Y-117903847D01*
X135513022Y-117835574D01*
X135522589Y-117820689D01*
X135608793Y-117705535D01*
X135608792Y-117705535D01*
X135608796Y-117705531D01*
X135659091Y-117570683D01*
X135665500Y-117511073D01*
X135665499Y-117181582D01*
X143425001Y-117181582D01*
X143431408Y-117252102D01*
X143431409Y-117252107D01*
X143481981Y-117414396D01*
X143569927Y-117559877D01*
X143690122Y-117680072D01*
X143835604Y-117768019D01*
X143835603Y-117768019D01*
X143997894Y-117818590D01*
X143997892Y-117818590D01*
X144068418Y-117824999D01*
X144650000Y-117824999D01*
X144731581Y-117824999D01*
X144802102Y-117818591D01*
X144802107Y-117818590D01*
X144964396Y-117768018D01*
X145109877Y-117680072D01*
X145230072Y-117559877D01*
X145318019Y-117414395D01*
X145368590Y-117252106D01*
X145375000Y-117181572D01*
X145375000Y-117175000D01*
X144650000Y-117175000D01*
X144650000Y-117824999D01*
X144068418Y-117824999D01*
X144149999Y-117824998D01*
X144150000Y-117824998D01*
X144150000Y-117175000D01*
X143425001Y-117175000D01*
X143425001Y-117181582D01*
X135665499Y-117181582D01*
X135665499Y-117008955D01*
X135935000Y-117008955D01*
X135935000Y-117056800D01*
X137628800Y-117056800D01*
X138035200Y-117056800D01*
X139729000Y-117056800D01*
X139729000Y-117008972D01*
X139728999Y-117008955D01*
X139722598Y-116949427D01*
X139722596Y-116949420D01*
X139672354Y-116814713D01*
X139672350Y-116814706D01*
X139586190Y-116699612D01*
X139586187Y-116699609D01*
X139471093Y-116613449D01*
X139471086Y-116613445D01*
X139336379Y-116563203D01*
X139336372Y-116563201D01*
X139276844Y-116556800D01*
X138035200Y-116556800D01*
X138035200Y-117056800D01*
X137628800Y-117056800D01*
X137628800Y-116556800D01*
X136387155Y-116556800D01*
X136327627Y-116563201D01*
X136327620Y-116563203D01*
X136192913Y-116613445D01*
X136192906Y-116613449D01*
X136077812Y-116699609D01*
X136077809Y-116699612D01*
X135991649Y-116814706D01*
X135991645Y-116814713D01*
X135941403Y-116949420D01*
X135941401Y-116949427D01*
X135935000Y-117008955D01*
X135665499Y-117008955D01*
X135665499Y-117008928D01*
X135659091Y-116949317D01*
X135647490Y-116918214D01*
X135608797Y-116814471D01*
X135608793Y-116814464D01*
X135522547Y-116699255D01*
X135522544Y-116699252D01*
X135407335Y-116613006D01*
X135407328Y-116613002D01*
X135272482Y-116562708D01*
X135272483Y-116562708D01*
X135212883Y-116556301D01*
X135212881Y-116556300D01*
X135212873Y-116556300D01*
X135212864Y-116556300D01*
X132323129Y-116556300D01*
X132323123Y-116556301D01*
X132263516Y-116562708D01*
X132128671Y-116613002D01*
X132128664Y-116613006D01*
X132013455Y-116699252D01*
X132013452Y-116699255D01*
X131927206Y-116814464D01*
X131927202Y-116814471D01*
X131876910Y-116949313D01*
X131876909Y-116949317D01*
X131870500Y-117008927D01*
X131870500Y-117008934D01*
X131870500Y-117008935D01*
X131870500Y-117511070D01*
X131870501Y-117511076D01*
X131876908Y-117570683D01*
X131927202Y-117705528D01*
X131927204Y-117705531D01*
X132013411Y-117820689D01*
X132037828Y-117886153D01*
X132022976Y-117954426D01*
X132013411Y-117969311D01*
X131927204Y-118084468D01*
X131927202Y-118084471D01*
X131876910Y-118219313D01*
X131876909Y-118219317D01*
X131870500Y-118278927D01*
X131870500Y-118278934D01*
X131870500Y-118278935D01*
X131870500Y-118278936D01*
X131870501Y-118781070D01*
X131876908Y-118840683D01*
X131927202Y-118975528D01*
X131927204Y-118975531D01*
X132013411Y-119090689D01*
X132037828Y-119156153D01*
X132022976Y-119224426D01*
X132013411Y-119239311D01*
X131927204Y-119354468D01*
X131927202Y-119354471D01*
X131901861Y-119422416D01*
X131876909Y-119489317D01*
X131870500Y-119548927D01*
X131870500Y-119548934D01*
X131870500Y-119548935D01*
X131870500Y-120051070D01*
X131870501Y-120051076D01*
X131876909Y-120110684D01*
X131926705Y-120244197D01*
X131931689Y-120313888D01*
X131898203Y-120375211D01*
X131836880Y-120408695D01*
X131767188Y-120403710D01*
X131741632Y-120390631D01*
X131704184Y-120365609D01*
X131704172Y-120365602D01*
X131558501Y-120305264D01*
X131558489Y-120305261D01*
X131403845Y-120274500D01*
X131403842Y-120274500D01*
X131246158Y-120274500D01*
X131246155Y-120274500D01*
X131091510Y-120305261D01*
X131091498Y-120305264D01*
X130945827Y-120365602D01*
X130945814Y-120365609D01*
X130814711Y-120453210D01*
X130814707Y-120453213D01*
X130703213Y-120564707D01*
X130703210Y-120564711D01*
X130615609Y-120695814D01*
X130615602Y-120695827D01*
X130555264Y-120841498D01*
X130555261Y-120841510D01*
X130524500Y-120996153D01*
X130524500Y-121153846D01*
X130555261Y-121308489D01*
X130555264Y-121308501D01*
X130615602Y-121454172D01*
X130615609Y-121454185D01*
X130703210Y-121585288D01*
X130703213Y-121585292D01*
X130705240Y-121587319D01*
X130705962Y-121588642D01*
X130707076Y-121589999D01*
X130706818Y-121590210D01*
X130738725Y-121648642D01*
X130733741Y-121718334D01*
X130705240Y-121762681D01*
X130678213Y-121789707D01*
X130678210Y-121789711D01*
X130590609Y-121920814D01*
X130590602Y-121920827D01*
X130530264Y-122066498D01*
X130530261Y-122066510D01*
X130499500Y-122221154D01*
X126000000Y-122221154D01*
X126000000Y-110859598D01*
X129727500Y-110859598D01*
X129727500Y-111140401D01*
X129758937Y-111419412D01*
X129758939Y-111419424D01*
X129821421Y-111693178D01*
X129821422Y-111693180D01*
X129914162Y-111958217D01*
X130035992Y-112211200D01*
X130185384Y-112448956D01*
X130291687Y-112582257D01*
X131255412Y-111618532D01*
X131350329Y-111749175D01*
X131478325Y-111877171D01*
X131608966Y-111972086D01*
X130645241Y-112935810D01*
X130645241Y-112935811D01*
X130778543Y-113042115D01*
X131016299Y-113191507D01*
X131269282Y-113313337D01*
X131534319Y-113406077D01*
X131534321Y-113406078D01*
X131808075Y-113468560D01*
X131808087Y-113468562D01*
X132087098Y-113499999D01*
X132087100Y-113500000D01*
X132367900Y-113500000D01*
X132367901Y-113499999D01*
X132646912Y-113468562D01*
X132646924Y-113468560D01*
X132920678Y-113406078D01*
X132920680Y-113406077D01*
X133185717Y-113313337D01*
X133438700Y-113191507D01*
X133676456Y-113042116D01*
X133809757Y-112935810D01*
X132846033Y-111972086D01*
X132976675Y-111877171D01*
X133104671Y-111749175D01*
X133199586Y-111618533D01*
X134163310Y-112582257D01*
X134269616Y-112448956D01*
X134419007Y-112211200D01*
X134540837Y-111958217D01*
X134633577Y-111693180D01*
X134633578Y-111693178D01*
X134696060Y-111419424D01*
X134696062Y-111419412D01*
X134727499Y-111140401D01*
X134727500Y-111140399D01*
X134727500Y-110859600D01*
X134727499Y-110859598D01*
X134696062Y-110580587D01*
X134696060Y-110580575D01*
X134633578Y-110306821D01*
X134633577Y-110306819D01*
X134540837Y-110041782D01*
X134419007Y-109788799D01*
X134269615Y-109551043D01*
X134163310Y-109417741D01*
X133199586Y-110381465D01*
X133104671Y-110250825D01*
X132976675Y-110122829D01*
X132846033Y-110027912D01*
X133809757Y-109064187D01*
X133676456Y-108957884D01*
X133438700Y-108808492D01*
X133185717Y-108686662D01*
X132920680Y-108593922D01*
X132920678Y-108593921D01*
X132646924Y-108531439D01*
X132646912Y-108531437D01*
X132367901Y-108500000D01*
X132087098Y-108500000D01*
X131808087Y-108531437D01*
X131808075Y-108531439D01*
X131534321Y-108593921D01*
X131534319Y-108593922D01*
X131269282Y-108686662D01*
X131016299Y-108808492D01*
X130778543Y-108957884D01*
X130645241Y-109064187D01*
X131608966Y-110027912D01*
X131478325Y-110122829D01*
X131350329Y-110250825D01*
X131255413Y-110381466D01*
X130291687Y-109417741D01*
X130185384Y-109551043D01*
X130035992Y-109788799D01*
X129914162Y-110041782D01*
X129821422Y-110306819D01*
X129821421Y-110306821D01*
X129758939Y-110580575D01*
X129758937Y-110580587D01*
X129727500Y-110859598D01*
X126000000Y-110859598D01*
X126000000Y-98859598D01*
X129727500Y-98859598D01*
X129727500Y-99140401D01*
X129758937Y-99419412D01*
X129758939Y-99419424D01*
X129821421Y-99693178D01*
X129821422Y-99693180D01*
X129914162Y-99958217D01*
X130035992Y-100211200D01*
X130185384Y-100448956D01*
X130291687Y-100582257D01*
X131255412Y-99618532D01*
X131350329Y-99749175D01*
X131478325Y-99877171D01*
X131608966Y-99972086D01*
X130645241Y-100935810D01*
X130645241Y-100935811D01*
X130778543Y-101042115D01*
X131016299Y-101191507D01*
X131269282Y-101313337D01*
X131534319Y-101406077D01*
X131534321Y-101406078D01*
X131808075Y-101468560D01*
X131808087Y-101468562D01*
X132087098Y-101499999D01*
X132087100Y-101500000D01*
X132367900Y-101500000D01*
X132367901Y-101499999D01*
X132646912Y-101468562D01*
X132646924Y-101468560D01*
X132920678Y-101406078D01*
X132920680Y-101406077D01*
X133185717Y-101313337D01*
X133438700Y-101191507D01*
X133676456Y-101042116D01*
X133809757Y-100935810D01*
X132846033Y-99972086D01*
X132976675Y-99877171D01*
X133104671Y-99749175D01*
X133199586Y-99618533D01*
X134163310Y-100582257D01*
X134269616Y-100448956D01*
X134419007Y-100211200D01*
X134540837Y-99958217D01*
X134633577Y-99693180D01*
X134633578Y-99693178D01*
X134696060Y-99419424D01*
X134696062Y-99419412D01*
X134727499Y-99140401D01*
X134727500Y-99140399D01*
X134727500Y-98859600D01*
X134727499Y-98859598D01*
X134696062Y-98580587D01*
X134696060Y-98580575D01*
X134633578Y-98306821D01*
X134633577Y-98306819D01*
X134540837Y-98041782D01*
X134419007Y-97788799D01*
X134269615Y-97551043D01*
X134163310Y-97417741D01*
X133199586Y-98381465D01*
X133104671Y-98250825D01*
X132976675Y-98122829D01*
X132846033Y-98027912D01*
X133809757Y-97064187D01*
X133676456Y-96957884D01*
X133438700Y-96808492D01*
X133185717Y-96686662D01*
X132920680Y-96593922D01*
X132920678Y-96593921D01*
X132646924Y-96531439D01*
X132646912Y-96531437D01*
X132367901Y-96500000D01*
X132087098Y-96500000D01*
X131808087Y-96531437D01*
X131808075Y-96531439D01*
X131534321Y-96593921D01*
X131534319Y-96593922D01*
X131269282Y-96686662D01*
X131016299Y-96808492D01*
X130778543Y-96957884D01*
X130645241Y-97064187D01*
X131608966Y-98027912D01*
X131478325Y-98122829D01*
X131350329Y-98250825D01*
X131255413Y-98381466D01*
X130291687Y-97417741D01*
X130185384Y-97551043D01*
X130035992Y-97788799D01*
X129914162Y-98041782D01*
X129821422Y-98306819D01*
X129821421Y-98306821D01*
X129758939Y-98580575D01*
X129758937Y-98580587D01*
X129727500Y-98859598D01*
X126000000Y-98859598D01*
X126000000Y-92458000D01*
X130310000Y-92458000D01*
X130320608Y-92577325D01*
X130320609Y-92577328D01*
X130376557Y-92772861D01*
X130470721Y-92953129D01*
X130599246Y-93110753D01*
X130756870Y-93239278D01*
X130937138Y-93333442D01*
X131132671Y-93389390D01*
X131132674Y-93389391D01*
X131251999Y-93399999D01*
X131252002Y-93400000D01*
X131560000Y-93400000D01*
X132060000Y-93400000D01*
X132367998Y-93400000D01*
X132368000Y-93399999D01*
X132487325Y-93389391D01*
X132487328Y-93389390D01*
X132682861Y-93333442D01*
X132863129Y-93239278D01*
X133020753Y-93110753D01*
X133149278Y-92953129D01*
X133243442Y-92772861D01*
X133299390Y-92577328D01*
X133299391Y-92577325D01*
X133309999Y-92458000D01*
X133310000Y-92457998D01*
X133310000Y-91250000D01*
X132060000Y-91250000D01*
X132060000Y-93400000D01*
X131560000Y-93400000D01*
X131560000Y-91250000D01*
X130310000Y-91250000D01*
X130310000Y-92458000D01*
X126000000Y-92458000D01*
X126000000Y-89541999D01*
X130310000Y-89541999D01*
X130310000Y-90750000D01*
X131560000Y-90750000D01*
X132060000Y-90750000D01*
X133310000Y-90750000D01*
X133310000Y-89542002D01*
X133309999Y-89541999D01*
X133299391Y-89422674D01*
X133299390Y-89422671D01*
X133243442Y-89227138D01*
X133149278Y-89046870D01*
X133020753Y-88889246D01*
X132863129Y-88760721D01*
X132682861Y-88666557D01*
X132487328Y-88610609D01*
X132487325Y-88610608D01*
X132368000Y-88600000D01*
X132060000Y-88600000D01*
X132060000Y-90750000D01*
X131560000Y-90750000D01*
X131560000Y-88600000D01*
X131251999Y-88600000D01*
X131132674Y-88610608D01*
X131132671Y-88610609D01*
X130937138Y-88666557D01*
X130756870Y-88760721D01*
X130599246Y-88889246D01*
X130470721Y-89046870D01*
X130376557Y-89227138D01*
X130320609Y-89422671D01*
X130320608Y-89422674D01*
X130310000Y-89541999D01*
X126000000Y-89541999D01*
X126000000Y-88248879D01*
X136609500Y-88248879D01*
X136609500Y-89151122D01*
X136609501Y-89151125D01*
X136612399Y-89193886D01*
X136612399Y-89193887D01*
X136658360Y-89378696D01*
X136742967Y-89549292D01*
X136742969Y-89549295D01*
X136862277Y-89697721D01*
X136862278Y-89697722D01*
X136931884Y-89753673D01*
X136971803Y-89811016D01*
X136974383Y-89880838D01*
X136938804Y-89940971D01*
X136931885Y-89946967D01*
X136862631Y-90002635D01*
X136743392Y-90150974D01*
X136743390Y-90150977D01*
X136658831Y-90321476D01*
X136612897Y-90506175D01*
X136610000Y-90548903D01*
X136610000Y-90750000D01*
X139610000Y-90750000D01*
X139610000Y-90548903D01*
X139607102Y-90506175D01*
X139561168Y-90321476D01*
X139476609Y-90150977D01*
X139476607Y-90150974D01*
X139357367Y-90002633D01*
X139357366Y-90002632D01*
X139288115Y-89946967D01*
X139248196Y-89889624D01*
X139245616Y-89819802D01*
X139281194Y-89759669D01*
X139288089Y-89753694D01*
X139357722Y-89697722D01*
X139477030Y-89549296D01*
X139491854Y-89519406D01*
X139502631Y-89507744D01*
X139509229Y-89493297D01*
X139525860Y-89482608D01*
X139539275Y-89468093D01*
X139555366Y-89463646D01*
X139568007Y-89455523D01*
X139602942Y-89450500D01*
X139795396Y-89450500D01*
X139842844Y-89459937D01*
X139866503Y-89469737D01*
X139866508Y-89469738D01*
X139866511Y-89469739D01*
X140021153Y-89500499D01*
X140021156Y-89500500D01*
X140021158Y-89500500D01*
X140178844Y-89500500D01*
X140178845Y-89500499D01*
X140333497Y-89469737D01*
X140479179Y-89409394D01*
X140610289Y-89321789D01*
X140721789Y-89210289D01*
X140809394Y-89079179D01*
X140869737Y-88933497D01*
X140900500Y-88778842D01*
X140900500Y-88621158D01*
X140900500Y-88621155D01*
X140900499Y-88621153D01*
X140869738Y-88466510D01*
X140869737Y-88466503D01*
X140864990Y-88455042D01*
X140809397Y-88320827D01*
X140809390Y-88320814D01*
X140721789Y-88189711D01*
X140721786Y-88189707D01*
X140610292Y-88078213D01*
X140610288Y-88078210D01*
X140479185Y-87990609D01*
X140479172Y-87990602D01*
X140333501Y-87930264D01*
X140333489Y-87930261D01*
X140274268Y-87918481D01*
X140274267Y-87918481D01*
X140178844Y-87899500D01*
X140178842Y-87899500D01*
X140021158Y-87899500D01*
X140021155Y-87899500D01*
X139866511Y-87930260D01*
X139866506Y-87930262D01*
X139866504Y-87930262D01*
X139866503Y-87930263D01*
X139842844Y-87940062D01*
X139834670Y-87941688D01*
X139830331Y-87944477D01*
X139795396Y-87949500D01*
X139602942Y-87949500D01*
X139535903Y-87929815D01*
X139491854Y-87880594D01*
X139477030Y-87850704D01*
X139436283Y-87800013D01*
X144500000Y-87800013D01*
X144500000Y-88675000D01*
X145550000Y-88675000D01*
X146050000Y-88675000D01*
X147099999Y-88675000D01*
X147099999Y-87800028D01*
X147099998Y-87800013D01*
X147089505Y-87697302D01*
X147034358Y-87530880D01*
X147034356Y-87530875D01*
X146942315Y-87381654D01*
X146818345Y-87257684D01*
X146669124Y-87165643D01*
X146669119Y-87165641D01*
X146502697Y-87110494D01*
X146502690Y-87110493D01*
X146399986Y-87100000D01*
X146050000Y-87100000D01*
X146050000Y-88675000D01*
X145550000Y-88675000D01*
X145550000Y-87100000D01*
X145200028Y-87100000D01*
X145200012Y-87100001D01*
X145097302Y-87110494D01*
X144930880Y-87165641D01*
X144930875Y-87165643D01*
X144781654Y-87257684D01*
X144657684Y-87381654D01*
X144565643Y-87530875D01*
X144565641Y-87530880D01*
X144510494Y-87697302D01*
X144510493Y-87697309D01*
X144500000Y-87800013D01*
X139436283Y-87800013D01*
X139357722Y-87702278D01*
X139357721Y-87702277D01*
X139209295Y-87582969D01*
X139209292Y-87582967D01*
X139038697Y-87498360D01*
X138853892Y-87452400D01*
X138832506Y-87450950D01*
X138811123Y-87449500D01*
X138811120Y-87449500D01*
X137408877Y-87449500D01*
X137408874Y-87449501D01*
X137366113Y-87452399D01*
X137366112Y-87452399D01*
X137181303Y-87498360D01*
X137010707Y-87582967D01*
X137010704Y-87582969D01*
X136862278Y-87702277D01*
X136862277Y-87702278D01*
X136742969Y-87850704D01*
X136742967Y-87850707D01*
X136658360Y-88021302D01*
X136612400Y-88206107D01*
X136609500Y-88248879D01*
X126000000Y-88248879D01*
X126000000Y-86124000D01*
X126019685Y-86056961D01*
X126072489Y-86011206D01*
X126124000Y-86000000D01*
X188876000Y-86000000D01*
X188943039Y-86019685D01*
G37*
%TD.AperFunction*%
%TA.AperFunction,Conductor*%
G36*
X151194757Y-109343526D02*
G01*
X151215721Y-109345026D01*
X151227424Y-109353787D01*
X151241369Y-109358167D01*
X151267605Y-109381775D01*
X151271825Y-109386833D01*
X151308211Y-109441289D01*
X151362752Y-109495830D01*
X151366335Y-109500125D01*
X151378113Y-109527251D01*
X151392283Y-109553200D01*
X151391872Y-109558937D01*
X151394164Y-109564214D01*
X151389408Y-109593395D01*
X151387299Y-109622892D01*
X151383851Y-109627497D01*
X151382926Y-109633174D01*
X151351962Y-109671907D01*
X151352375Y-109672320D01*
X151348678Y-109676016D01*
X151348041Y-109676814D01*
X151347275Y-109677419D01*
X151227424Y-109797271D01*
X151138457Y-109941507D01*
X151138452Y-109941518D01*
X151085144Y-110102393D01*
X151075000Y-110201677D01*
X151075000Y-110250000D01*
X151901000Y-110250000D01*
X151968039Y-110269685D01*
X152013794Y-110322489D01*
X152025000Y-110374000D01*
X152025000Y-110500000D01*
X152151000Y-110500000D01*
X152218039Y-110519685D01*
X152263794Y-110572489D01*
X152275000Y-110624000D01*
X152275000Y-111474999D01*
X152298308Y-111474999D01*
X152298322Y-111474998D01*
X152397607Y-111464855D01*
X152558481Y-111411547D01*
X152558492Y-111411542D01*
X152702731Y-111322573D01*
X152711959Y-111313345D01*
X152773279Y-111279856D01*
X152842971Y-111284835D01*
X152887327Y-111313339D01*
X152896955Y-111322967D01*
X152896959Y-111322970D01*
X153041294Y-111411998D01*
X153041297Y-111411999D01*
X153041303Y-111412003D01*
X153202292Y-111465349D01*
X153301655Y-111475500D01*
X153848344Y-111475499D01*
X153848352Y-111475498D01*
X153848355Y-111475498D01*
X153902760Y-111469940D01*
X153947708Y-111465349D01*
X154108697Y-111412003D01*
X154253044Y-111322968D01*
X154372968Y-111203044D01*
X154462003Y-111058697D01*
X154515349Y-110897708D01*
X154525500Y-110798345D01*
X154525499Y-110204159D01*
X154531434Y-110183946D01*
X154532562Y-110162907D01*
X154541080Y-110151094D01*
X154545183Y-110137121D01*
X154561106Y-110123323D01*
X154573429Y-110106235D01*
X154586980Y-110100902D01*
X154597987Y-110091366D01*
X154618839Y-110088367D01*
X154638447Y-110080653D01*
X154663245Y-110081982D01*
X154667146Y-110081422D01*
X154673691Y-110082543D01*
X154799850Y-110107638D01*
X154861761Y-110140023D01*
X154863337Y-110141572D01*
X156385284Y-111663520D01*
X156462521Y-111708112D01*
X156510737Y-111758679D01*
X156523961Y-111827286D01*
X156497993Y-111892151D01*
X156441079Y-111932680D01*
X156400522Y-111939500D01*
X148818097Y-111939500D01*
X148751058Y-111919815D01*
X148705303Y-111867011D01*
X148695359Y-111797853D01*
X148724384Y-111734297D01*
X148730416Y-111727819D01*
X149279133Y-111179102D01*
X149659913Y-110798322D01*
X151075001Y-110798322D01*
X151085144Y-110897607D01*
X151138452Y-111058481D01*
X151138457Y-111058492D01*
X151227424Y-111202728D01*
X151227427Y-111202732D01*
X151347267Y-111322572D01*
X151347271Y-111322575D01*
X151491507Y-111411542D01*
X151491518Y-111411547D01*
X151652393Y-111464855D01*
X151751683Y-111474999D01*
X151775000Y-111474998D01*
X151775000Y-110750000D01*
X151075001Y-110750000D01*
X151075001Y-110798322D01*
X149659913Y-110798322D01*
X151084708Y-109373525D01*
X151097535Y-109366521D01*
X151107314Y-109355655D01*
X151127584Y-109350113D01*
X151146029Y-109340042D01*
X151160609Y-109341084D01*
X151174710Y-109337230D01*
X151194757Y-109343526D01*
G37*
%TD.AperFunction*%
%TA.AperFunction,Conductor*%
G36*
X166144334Y-107707413D02*
G01*
X166200267Y-107749285D01*
X166224684Y-107814749D01*
X166225000Y-107823593D01*
X166225000Y-107898306D01*
X166225001Y-107898323D01*
X166235144Y-107997607D01*
X166288452Y-108158481D01*
X166288457Y-108158492D01*
X166377424Y-108302728D01*
X166377427Y-108302732D01*
X166386660Y-108311965D01*
X166420145Y-108373288D01*
X166415161Y-108442980D01*
X166386663Y-108487324D01*
X166377033Y-108496953D01*
X166377029Y-108496959D01*
X166288001Y-108641294D01*
X166287996Y-108641305D01*
X166234651Y-108802290D01*
X166224500Y-108901647D01*
X166224500Y-109448337D01*
X166224501Y-109448355D01*
X166234650Y-109547707D01*
X166234651Y-109547710D01*
X166287996Y-109708694D01*
X166288001Y-109708705D01*
X166377029Y-109853040D01*
X166377032Y-109853044D01*
X166447895Y-109923907D01*
X166481380Y-109985230D01*
X166476396Y-110054922D01*
X166474775Y-110059040D01*
X166430264Y-110166498D01*
X166430261Y-110166510D01*
X166399500Y-110321153D01*
X166399500Y-110478846D01*
X166430261Y-110633489D01*
X166430264Y-110633501D01*
X166490602Y-110779172D01*
X166490609Y-110779185D01*
X166578210Y-110910288D01*
X166578213Y-110910292D01*
X166671661Y-111003740D01*
X166705146Y-111065063D01*
X166700162Y-111134755D01*
X166671661Y-111179102D01*
X165947584Y-111903181D01*
X165886261Y-111936666D01*
X165859903Y-111939500D01*
X162070475Y-111939500D01*
X162003436Y-111919815D01*
X161957681Y-111867011D01*
X161947737Y-111797853D01*
X161976762Y-111734297D01*
X162008477Y-111708112D01*
X162034341Y-111693180D01*
X162085716Y-111663520D01*
X162197520Y-111551716D01*
X162197520Y-111551714D01*
X162207728Y-111541507D01*
X162207729Y-111541504D01*
X166013323Y-107735911D01*
X166074642Y-107702429D01*
X166144334Y-107707413D01*
G37*
%TD.AperFunction*%
%TA.AperFunction,Conductor*%
G36*
X158980701Y-105530383D02*
G01*
X158987180Y-105536415D01*
X159963181Y-106512416D01*
X159996666Y-106573739D01*
X159999500Y-106600097D01*
X159999500Y-108147870D01*
X159999501Y-108147876D01*
X160005908Y-108207483D01*
X160056202Y-108342328D01*
X160056206Y-108342335D01*
X160142452Y-108457544D01*
X160142455Y-108457547D01*
X160262745Y-108547597D01*
X160304616Y-108603531D01*
X160309600Y-108673222D01*
X160295823Y-108708859D01*
X160290425Y-108718207D01*
X160290424Y-108718210D01*
X160278998Y-108760853D01*
X160249499Y-108870943D01*
X160249499Y-108870945D01*
X160249499Y-109039046D01*
X160249500Y-109039059D01*
X160249500Y-109059995D01*
X160229815Y-109127034D01*
X160190600Y-109165532D01*
X160171955Y-109177032D01*
X160162324Y-109186663D01*
X160101000Y-109220146D01*
X160031308Y-109215159D01*
X159986965Y-109186660D01*
X159977732Y-109177427D01*
X159977728Y-109177424D01*
X159833492Y-109088457D01*
X159833481Y-109088452D01*
X159672606Y-109035144D01*
X159573322Y-109025000D01*
X159550000Y-109025000D01*
X159550000Y-109876000D01*
X159530315Y-109943039D01*
X159477511Y-109988794D01*
X159426000Y-110000000D01*
X159300000Y-110000000D01*
X159300000Y-110126000D01*
X159280315Y-110193039D01*
X159227511Y-110238794D01*
X159176000Y-110250000D01*
X158350001Y-110250000D01*
X158350001Y-110298322D01*
X158360144Y-110397609D01*
X158367397Y-110419497D01*
X158369798Y-110489326D01*
X158334066Y-110549367D01*
X158271545Y-110580559D01*
X158249691Y-110582500D01*
X157054098Y-110582500D01*
X156987059Y-110562815D01*
X156966417Y-110546181D01*
X156121913Y-109701677D01*
X158350000Y-109701677D01*
X158350000Y-109750000D01*
X159050000Y-109750000D01*
X159050000Y-109024999D01*
X159026693Y-109025000D01*
X159026674Y-109025001D01*
X158927392Y-109035144D01*
X158766518Y-109088452D01*
X158766507Y-109088457D01*
X158622271Y-109177424D01*
X158622267Y-109177427D01*
X158502427Y-109297267D01*
X158502424Y-109297271D01*
X158413457Y-109441507D01*
X158413452Y-109441518D01*
X158360144Y-109602393D01*
X158350000Y-109701677D01*
X156121913Y-109701677D01*
X155712573Y-109292337D01*
X155679088Y-109231014D01*
X155678637Y-109228847D01*
X155665837Y-109164497D01*
X155647737Y-109073503D01*
X155642142Y-109059995D01*
X155587397Y-108927827D01*
X155587390Y-108927814D01*
X155499789Y-108796711D01*
X155499786Y-108796707D01*
X155388292Y-108685213D01*
X155388288Y-108685210D01*
X155257185Y-108597609D01*
X155257172Y-108597602D01*
X155111501Y-108537264D01*
X155111489Y-108537261D01*
X154956845Y-108506500D01*
X154956842Y-108506500D01*
X154799158Y-108506500D01*
X154799155Y-108506500D01*
X154644510Y-108537261D01*
X154644498Y-108537264D01*
X154498827Y-108597602D01*
X154498814Y-108597609D01*
X154418391Y-108651347D01*
X154351713Y-108672225D01*
X154284333Y-108653740D01*
X154237643Y-108601762D01*
X154225500Y-108548245D01*
X154225500Y-108098950D01*
X154225542Y-108036371D01*
X154225500Y-108036159D01*
X154225500Y-108035931D01*
X154225350Y-108035179D01*
X154212798Y-107972078D01*
X154212781Y-107971993D01*
X154211905Y-107967573D01*
X154200629Y-107910679D01*
X154200626Y-107910672D01*
X154200502Y-107910264D01*
X154200501Y-107910256D01*
X154175953Y-107850992D01*
X154151673Y-107792263D01*
X154151550Y-107792079D01*
X154151465Y-107791873D01*
X154116303Y-107739250D01*
X154080557Y-107685672D01*
X154080529Y-107685638D01*
X154080383Y-107685492D01*
X154080276Y-107685331D01*
X154036223Y-107641278D01*
X154036218Y-107641269D01*
X154036217Y-107641271D01*
X153956319Y-107561264D01*
X153956314Y-107561260D01*
X153943394Y-107548322D01*
X156825001Y-107548322D01*
X156835144Y-107647607D01*
X156888452Y-107808481D01*
X156888457Y-107808492D01*
X156977424Y-107952728D01*
X156977427Y-107952732D01*
X157097267Y-108072572D01*
X157097271Y-108072575D01*
X157241507Y-108161542D01*
X157241518Y-108161547D01*
X157402393Y-108214855D01*
X157501683Y-108224999D01*
X158050000Y-108224999D01*
X158098308Y-108224999D01*
X158098322Y-108224998D01*
X158197607Y-108214855D01*
X158358481Y-108161547D01*
X158358492Y-108161542D01*
X158502728Y-108072575D01*
X158502732Y-108072572D01*
X158622572Y-107952732D01*
X158622575Y-107952728D01*
X158711542Y-107808492D01*
X158711547Y-107808481D01*
X158764855Y-107647606D01*
X158774999Y-107548322D01*
X158775000Y-107548306D01*
X158775000Y-107525000D01*
X158050000Y-107525000D01*
X158050000Y-108224999D01*
X157501683Y-108224999D01*
X157549999Y-108224998D01*
X157550000Y-108224998D01*
X157550000Y-107525000D01*
X156825001Y-107525000D01*
X156825001Y-107548322D01*
X153943394Y-107548322D01*
X153895162Y-107500025D01*
X153861719Y-107438679D01*
X153866751Y-107368991D01*
X153895219Y-107324725D01*
X154533127Y-106686819D01*
X154594450Y-106653334D01*
X154620808Y-106650500D01*
X156746893Y-106650500D01*
X156813932Y-106670185D01*
X156859687Y-106722989D01*
X156869631Y-106792147D01*
X156864599Y-106813504D01*
X156835144Y-106902393D01*
X156825000Y-107001677D01*
X156825000Y-107025000D01*
X158774999Y-107025000D01*
X158774999Y-107001692D01*
X158774998Y-107001677D01*
X158764855Y-106902392D01*
X158711547Y-106741518D01*
X158711542Y-106741507D01*
X158622575Y-106597271D01*
X158622572Y-106597267D01*
X158613339Y-106588034D01*
X158579854Y-106526711D01*
X158584838Y-106457019D01*
X158613343Y-106412668D01*
X158622968Y-106403044D01*
X158712003Y-106258697D01*
X158765349Y-106097708D01*
X158775500Y-105998345D01*
X158775499Y-105624094D01*
X158795183Y-105557057D01*
X158847987Y-105511302D01*
X158917146Y-105501358D01*
X158980701Y-105530383D01*
G37*
%TD.AperFunction*%
%TA.AperFunction,Conductor*%
G36*
X152863773Y-109138619D02*
G01*
X152911384Y-109189756D01*
X152924500Y-109245261D01*
X152924500Y-109598125D01*
X152915855Y-109627565D01*
X152909332Y-109657552D01*
X152905577Y-109662567D01*
X152904815Y-109665164D01*
X152888181Y-109685806D01*
X152887327Y-109686660D01*
X152826004Y-109720145D01*
X152756312Y-109715161D01*
X152711965Y-109686660D01*
X152702732Y-109677427D01*
X152702728Y-109677424D01*
X152593557Y-109610086D01*
X152546832Y-109558138D01*
X152535611Y-109489176D01*
X152555552Y-109435657D01*
X152567523Y-109417741D01*
X152639394Y-109310179D01*
X152646784Y-109292337D01*
X152685939Y-109197809D01*
X152729779Y-109143405D01*
X152796073Y-109121340D01*
X152863773Y-109138619D01*
G37*
%TD.AperFunction*%
%TA.AperFunction,Conductor*%
G36*
X144432644Y-105563416D02*
G01*
X144477745Y-105575501D01*
X144477748Y-105575501D01*
X144623859Y-105575501D01*
X144690898Y-105595186D01*
X144736653Y-105647990D01*
X144746798Y-105683314D01*
X144753304Y-105732728D01*
X144751095Y-105766472D01*
X144752874Y-105766707D01*
X144751813Y-105774763D01*
X144751813Y-105774764D01*
X144750511Y-105784651D01*
X144737000Y-105887272D01*
X144737000Y-105900500D01*
X144717315Y-105967539D01*
X144664511Y-106013294D01*
X144613000Y-106024500D01*
X144288800Y-106024500D01*
X144221761Y-106004815D01*
X144176006Y-105952011D01*
X144166062Y-105882853D01*
X144183262Y-105835403D01*
X144261542Y-105708492D01*
X144261545Y-105708484D01*
X144282850Y-105644190D01*
X144285927Y-105639745D01*
X144286569Y-105634379D01*
X144305600Y-105611329D01*
X144322622Y-105586744D01*
X144327614Y-105584668D01*
X144331055Y-105580501D01*
X144359529Y-105571398D01*
X144387138Y-105559920D01*
X144393830Y-105560434D01*
X144397607Y-105559227D01*
X144432644Y-105563416D01*
G37*
%TD.AperFunction*%
%TA.AperFunction,Conductor*%
G36*
X147662793Y-95714717D02*
G01*
X147707156Y-95743233D01*
X148038197Y-96074396D01*
X148071671Y-96135724D01*
X148074500Y-96162059D01*
X148074500Y-96298336D01*
X148074501Y-96298355D01*
X148084650Y-96397707D01*
X148084651Y-96397710D01*
X148118547Y-96500000D01*
X148137925Y-96558481D01*
X148137998Y-96558699D01*
X148168538Y-96608211D01*
X148184019Y-96646284D01*
X148187000Y-96659633D01*
X148187000Y-96681494D01*
X148213920Y-96816828D01*
X148231675Y-96859693D01*
X148234019Y-96870188D01*
X148233422Y-96879227D01*
X148237000Y-96897213D01*
X148237000Y-97739782D01*
X148217315Y-97806821D01*
X148164511Y-97852576D01*
X148096814Y-97862721D01*
X148037500Y-97854911D01*
X148036949Y-97855394D01*
X148037281Y-97856835D01*
X148026658Y-97886385D01*
X148017815Y-97916502D01*
X148014560Y-97920040D01*
X148013645Y-97922586D01*
X147988987Y-97947838D01*
X147962986Y-97967789D01*
X147897819Y-97992984D01*
X147829374Y-97978946D01*
X147812015Y-97967790D01*
X147786012Y-97947838D01*
X147744810Y-97891410D01*
X147738620Y-97855894D01*
X147737499Y-97854911D01*
X147654770Y-97865804D01*
X147621027Y-97863593D01*
X147620793Y-97865374D01*
X147612736Y-97864313D01*
X147592951Y-97861708D01*
X147500227Y-97849500D01*
X147500220Y-97849500D01*
X147274780Y-97849500D01*
X147270857Y-97849757D01*
X147202674Y-97834496D01*
X147175071Y-97813703D01*
X146361319Y-96999951D01*
X146347694Y-96974999D01*
X146825000Y-96974999D01*
X146848308Y-96974999D01*
X146848322Y-96974998D01*
X146947607Y-96964855D01*
X147108481Y-96911547D01*
X147108492Y-96911542D01*
X147252728Y-96822575D01*
X147252732Y-96822572D01*
X147372572Y-96702732D01*
X147372575Y-96702728D01*
X147461542Y-96558492D01*
X147461547Y-96558481D01*
X147514855Y-96397606D01*
X147524999Y-96298322D01*
X147525000Y-96298309D01*
X147525000Y-96250000D01*
X146825000Y-96250000D01*
X146825000Y-96974999D01*
X146347694Y-96974999D01*
X146327834Y-96938628D01*
X146325000Y-96912270D01*
X146325000Y-96124000D01*
X146344685Y-96056961D01*
X146397489Y-96011206D01*
X146449000Y-96000000D01*
X146575000Y-96000000D01*
X146575000Y-95874000D01*
X146594685Y-95806961D01*
X146647489Y-95761206D01*
X146699000Y-95750000D01*
X147524998Y-95750000D01*
X147531779Y-95743219D01*
X147593101Y-95709733D01*
X147662793Y-95714717D01*
G37*
%TD.AperFunction*%
%TD*%
%TA.AperFunction,Conductor*%
%TO.N,3.3V*%
G36*
X153162353Y-121313861D02*
G01*
X153163667Y-121319248D01*
X153163667Y-121700000D01*
X153215320Y-121865330D01*
X153379784Y-122391745D01*
X153378980Y-122400664D01*
X153372105Y-122406402D01*
X153370896Y-122406710D01*
X152556674Y-122568475D01*
X152547892Y-122566726D01*
X152544659Y-122563490D01*
X152440124Y-122406710D01*
X152085007Y-121874113D01*
X152083270Y-121865330D01*
X152088252Y-121857889D01*
X152089344Y-121857244D01*
X153146582Y-121308861D01*
X153155502Y-121308095D01*
X153162353Y-121313861D01*
G37*
%TD.AperFunction*%
%TD*%
M02*
